<svg width="74" height="36" fill="none" xmlns="http://www.w3.org/2000/svg"><path d="M50.077 17.466a1.84 1.84 0 00-.24.256 2.45 2.45 0 00-.212.32 3.312 3.312 0 00-.182.384 5.514 5.514 0 00-.342 1.408 4.718 4.718 0 00.002.95c.016.158.04.305.07.44.03.136.066.26.11.372.044.113.095.214.153.303.057.09.123.168.195.236a.826.826 0 00.224.15c.077.033.155.05.235.049a.646.646 0 00.248-.052c.085-.035.171-.087.26-.157.09-.07.174-.152.253-.247.08-.094.155-.202.224-.321.07-.12.136-.252.196-.396a5.368 5.368 0 00.359-1.418 4.686 4.686 0 00.005-.93l-.002-.032-.004-.032-.003-.031-.004-.03c0-.006 0-.01-.002-.016l-.001-.015a.193.193 0 01-.002-.015l-.002-.016a3.455 3.455 0 00-.083-.427 2.279 2.279 0 00-.123-.354 1.503 1.503 0 00-.163-.28 1.065 1.065 0 00-.202-.206.742.742 0 00-.232-.125.565.565 0 00-.238-.022.714.714 0 00-.244.077 1.257 1.257 0 00-.253.177zm.368 3.225a.44.44 0 01-.104.064.27.27 0 01-.1.024.234.234 0 01-.094-.017.322.322 0 01-.091-.055.477.477 0 01-.08-.092.677.677 0 01-.063-.12 1.014 1.014 0 01-.046-.15 1.862 1.862 0 01-.002-.754 2.074 2.074 0 01.112-.378 1.058 1.058 0 01.162-.285.79.79 0 01.097-.102.5.5 0 01.102-.068.282.282 0 01.1-.028.228.228 0 01.095.012.28.28 0 01.092.053c.03.024.057.053.082.087a.615.615 0 01.065.118.93.93 0 01.048.148 1.884 1.884 0 01.006.769 2.088 2.088 0 01-.115.385c-.024.057-.05.11-.078.158a.973.973 0 01-.089.13.717.717 0 01-.1.1zM48.998 7.749a2.347 2.347 0 00-.22.277c-.07.101-.135.21-.195.33a3.98 3.98 0 00-.17.381 5.677 5.677 0 00-.253.89 4.439 4.439 0 00-.088.87c0 .142.007.281.021.42.015.14.035.266.062.381.027.116.06.219.1.31.039.092.085.172.138.24a.773.773 0 00.178.17.509.509 0 00.418.084.749.749 0 00.226-.097c.077-.049.156-.113.237-.193a2.616 2.616 0 00.436-.605 3.75 3.75 0 00.18-.394 5.782 5.782 0 00.264-.902 4.748 4.748 0 00.094-.857 4.02 4.02 0 00-.015-.41l-.004-.028a.127.127 0 00-.003-.028.118.118 0 00-.003-.027l-.002-.027a.196.196 0 01-.002-.013l-.002-.013a.18.18 0 00-.001-.013l-.002-.014a2.765 2.765 0 00-.073-.365 1.61 1.61 0 00-.11-.292.997.997 0 00-.147-.218.69.69 0 00-.183-.144.524.524 0 00-.427-.039.835.835 0 00-.224.119 1.578 1.578 0 00-.23.207zm.32 2.812a.594.594 0 01-.094.08.312.312 0 01-.091.04.206.206 0 01-.169-.027.296.296 0 01-.072-.065.425.425 0 01-.057-.095.713.713 0 01-.042-.124 1.519 1.519 0 01-.026-.495 1.896 1.896 0 01.072-.363 2.026 2.026 0 01.128-.332 1.137 1.137 0 01.17-.244.612.612 0 01.094-.082.33.33 0 01.09-.045.209.209 0 01.17.021.285.285 0 01.074.062.412.412 0 01.059.092.698.698 0 01.043.122c.011.046.02.097.027.153a1.651 1.651 0 01-.026.533 2.086 2.086 0 01-.176.524 1.138 1.138 0 01-.173.245m6.861 1.549a2.51 2.51 0 00-.295.31 2.967 2.967 0 00-.256.373 3.94 3.94 0 00-.22.441 5.274 5.274 0 00-.316 1.046 4.559 4.559 0 00-.043 1.556c.025.17.058.328.1.471.04.144.09.274.149.391.058.118.124.222.2.312.076.091.16.169.254.233s.19.109.287.136a.819.819 0 00.299.026 1 1 0 00.311-.086c.106-.048.214-.115.324-.201.11-.087.215-.186.313-.3.098-.113.19-.239.276-.378a3.79 3.79 0 00.236-.457c.073-.165.138-.343.198-.533a5.084 5.084 0 00.215-1.057 4.604 4.604 0 00-.02-1.018.611.611 0 01-.006-.034l-.006-.034c0-.011-.003-.023-.004-.034l-.006-.033-.002-.017-.003-.016-.003-.016a2.075 2.075 0 00-.288-.84 1.42 1.42 0 00-.215-.285 1.134 1.134 0 00-.262-.198.906.906 0 00-.296-.106.823.823 0 00-.301.008c-.102.02-.204.06-.307.116a1.798 1.798 0 00-.313.224zm.558 3.462a.69.69 0 01-.13.084.415.415 0 01-.125.038.34.34 0 01-.236-.057.478.478 0 01-.104-.09.613.613 0 01-.082-.123.917.917 0 01-.063-.157 1.703 1.703 0 01-.055-.606 1.962 1.962 0 01.086-.432 1.95 1.95 0 01.074-.207 1.431 1.431 0 01.196-.33.948.948 0 01.121-.124.7.7 0 01.127-.087.417.417 0 01.124-.044.33.33 0 01.239.048.475.475 0 01.105.085.58.58 0 01.086.12.885.885 0 01.065.154 1.674 1.674 0 01.061.617 2.035 2.035 0 01-.165.655 1.475 1.475 0 01-.2.333.926.926 0 01-.124.123M52.317 9.72a2.45 2.45 0 00-.254.294 2.998 2.998 0 00-.222.35 3.838 3.838 0 00-.19.41 5.537 5.537 0 00-.351 1.441 4.353 4.353 0 00.011.932c.019.153.045.293.078.42.034.13.074.245.122.348.048.103.103.194.166.273a.972.972 0 00.21.196.646.646 0 00.492.118.843.843 0 00.263-.094 1.43 1.43 0 00.276-.198 2.24 2.24 0 00.268-.286 2.84 2.84 0 00.236-.354 3.78 3.78 0 00.205-.423 5.312 5.312 0 00.296-.978 4.433 4.433 0 00.062-1.455 5.8 5.8 0 00-.003-.03l-.005-.03-.002-.014-.002-.015-.002-.014-.002-.015a2.97 2.97 0 00-.093-.406 1.808 1.808 0 00-.135-.326 1.163 1.163 0 00-.176-.247.879.879 0 00-.218-.168.652.652 0 00-.502-.064.942.942 0 00-.26.118 1.694 1.694 0 00-.268.217zm.423 3.103a.63.63 0 01-.11.082.363.363 0 01-.105.041.265.265 0 01-.199-.037.364.364 0 01-.086-.076.504.504 0 01-.068-.107.805.805 0 01-.05-.14 1.38 1.38 0 01-.047-.355 1.768 1.768 0 01.036-.385 2.234 2.234 0 01.116-.392 1.28 1.28 0 01.17-.308.958.958 0 01.103-.116.626.626 0 01.108-.085.379.379 0 01.105-.045.265.265 0 01.201.031.365.365 0 01.089.073c.026.03.05.064.07.104.02.04.038.086.053.137a1.586 1.586 0 01.043.556 2.013 2.013 0 01-.23.765.964.964 0 01-.198.257M54.62 1.706a3.057 3.057 0 00-.268.332 3.544 3.544 0 00-.233.382 4.379 4.379 0 00-.2.436 5.805 5.805 0 00-.291.994 4.76 4.76 0 00-.07.483 4.007 4.007 0 00.022.913c.022.147.05.28.087.4.037.12.08.226.133.32.052.093.112.173.18.239a.802.802 0 00.227.156.717.717 0 00.526.03 1.11 1.11 0 00.28-.139c.095-.063.192-.144.292-.242.1-.1.193-.208.282-.328a3.896 3.896 0 00.464-.841 5.545 5.545 0 00.306-1.013c.033-.164.057-.324.073-.48a4.106 4.106 0 00-.012-.9.862.862 0 01-.005-.03l-.004-.03-.005-.029c0-.01-.002-.019-.004-.028l-.002-.014-.003-.014a.112.112 0 00-.002-.014c0-.005-.002-.01-.003-.014a2.374 2.374 0 00-.103-.382 1.416 1.416 0 00-.147-.297.921.921 0 00-.191-.211.753.753 0 00-.77-.101 1.28 1.28 0 00-.278.163c-.093.07-.187.156-.282.259zm.481 2.972a.833.833 0 01-.117.1.47.47 0 01-.112.06.293.293 0 01-.304-.062.399.399 0 01-.074-.094.618.618 0 01-.055-.128 1.427 1.427 0 01-.046-.53 2.207 2.207 0 01.23-.777 1.414 1.414 0 01.204-.288.872.872 0 01.116-.103.48.48 0 01.111-.062.287.287 0 01.214-.004.306.306 0 01.095.056.37.37 0 01.076.09.58.58 0 01.057.125c.016.048.03.101.04.16a1.42 1.42 0 01.012.378 1.964 1.964 0 01-.081.411 2.247 2.247 0 01-.156.38 1.42 1.42 0 01-.21.288z" fill="#80FF00"/><path d="M61.832 10.9a2.14 2.14 0 00-.427-.05 1.48 1.48 0 00-.378.043c-.119.03-.23.076-.332.138-.103.062-.198.14-.285.235a1.434 1.434 0 00-.348.681 1.925 1.925 0 00-.042.426c.001.152.018.313.05.484a3.35 3.35 0 00.344.987c.084.158.18.312.289.463a4.527 4.527 0 00.778.825c.14.113.282.213.426.297.145.085.292.155.441.21.15.056.3.096.455.123.153.026.297.036.432.029.135-.007.26-.03.375-.068a1.18 1.18 0 00.32-.164 1.33 1.33 0 00.268-.257 1.463 1.463 0 00.294-.653 1.95 1.95 0 00.033-.389 2.695 2.695 0 00-.043-.43l-.006-.032-.005-.031-.007-.031-.006-.031-.004-.016-.003-.015-.003-.015-.004-.016a3.518 3.518 0 00-.35-.907 3.91 3.91 0 00-.271-.423 4.441 4.441 0 00-.727-.775 3.441 3.441 0 00-.404-.29 2.703 2.703 0 00-.86-.348zm.683 3.37a1.013 1.013 0 01-.355-.137 1.428 1.428 0 01-.17-.119 1.75 1.75 0 01-.42-.508 1.397 1.397 0 01-.14-.389 1.091 1.091 0 01-.02-.19.773.773 0 01.014-.17.6.6 0 01.134-.275.526.526 0 01.245-.155.596.596 0 01.152-.02 1.017 1.017 0 01.349.07 1.164 1.164 0 01.337.203 1.73 1.73 0 01.3.32 1.52 1.52 0 01.196.363 1.34 1.34 0 01.08.384.827.827 0 01-.011.17.629.629 0 01-.127.28.523.523 0 01-.24.161.575.575 0 01-.152.025.812.812 0 01-.172-.014M59.835.858a2.359 2.359 0 00-.403-.087 1.559 1.559 0 00-.36-.004 1.067 1.067 0 00-.933.784c-.03.108-.046.225-.046.353a2.15 2.15 0 00.039.411 2.84 2.84 0 00.309.865c.076.14.165.28.266.418a4.481 4.481 0 001.122 1.072c.136.086.274.161.415.224.14.063.283.113.428.152.145.038.281.062.409.072.128.009.248.004.359-.016a1.05 1.05 0 00.749-.525c.048-.086.084-.179.108-.28.025-.1.038-.207.039-.322 0-.115-.01-.236-.032-.366l-.005-.028-.006-.027a.512.512 0 00-.005-.027l-.005-.027a.415.415 0 00-.006-.026l-.003-.013a2.933 2.933 0 00-.318-.814 3.684 3.684 0 00-.251-.386 4.446 4.446 0 00-.314-.377 4.41 4.41 0 00-.364-.353 3.691 3.691 0 00-.38-.288 3.242 3.242 0 00-.812-.385zm.591 2.906a1.15 1.15 0 01-.336-.154 1.823 1.823 0 01-.443-.424 1.496 1.496 0 01-.182-.334 1.095 1.095 0 01-.065-.335c0-.05.005-.097.016-.14a.43.43 0 01.367-.32.596.596 0 01.145-.001 1.188 1.188 0 01.494.187 1.518 1.518 0 01.303.26 1.752 1.752 0 01.234.319 1.236 1.236 0 01.125.334.869.869 0 01.02.162.569.569 0 01-.014.141.429.429 0 01-.231.292.463.463 0 01-.125.04.606.606 0 01-.144.004.903.903 0 01-.164-.031m10.246 9.034a1.598 1.598 0 00-.354-.038 1.06 1.06 0 00-.308.047.885.885 0 00-.264.135c-.08.06-.152.135-.217.225s-.116.189-.155.295a1.47 1.47 0 00-.08.346 2.04 2.04 0 000 .397c.013.14.039.29.078.449A3.723 3.723 0 0070 15.987a4.4 4.4 0 00.702.753c.124.103.248.193.373.269.126.076.252.138.379.187.126.05.254.084.382.106.128.022.247.029.358.02a1 1 0 00.305-.068.872.872 0 00.252-.157c.076-.067.142-.148.201-.243a1.29 1.29 0 00.13-.288c.033-.102.054-.21.064-.324.01-.115.01-.235-.002-.362a2.903 2.903 0 00-.066-.4l-.007-.03-.008-.029-.007-.029-.007-.028-.004-.014-.004-.015-.004-.014a3.696 3.696 0 00-.36-.853 3.987 3.987 0 00-.256-.39 4.48 4.48 0 00-.658-.71 3.148 3.148 0 00-.356-.263 2.524 2.524 0 00-.363-.19 2.13 2.13 0 00-.373-.117zm.817 3.124a.84.84 0 01-.304-.12 1.21 1.21 0 01-.148-.108 1.65 1.65 0 01-.277-.297 1.598 1.598 0 01-.191-.343 1.503 1.503 0 01-.092-.36.816.816 0 010-.158.592.592 0 01.029-.139.493.493 0 01.145-.211.349.349 0 01.104-.057.41.41 0 01.124-.022.622.622 0 01.143.014.838.838 0 01.3.122 1.302 1.302 0 01.287.243 1.778 1.778 0 01.235.318 1.519 1.519 0 01.143.352c.016.062.027.12.034.176a.83.83 0 01.003.158.605.605 0 01-.026.14.505.505 0 01-.058.122.406.406 0 01-.185.155.411.411 0 01-.123.026.622.622 0 01-.143-.01M68.341 3.44a1.788 1.788 0 00-.339-.07 1.1 1.1 0 00-.297.007.817.817 0 00-.624.483c-.04.086-.067.18-.083.283a1.466 1.466 0 00-.01.334c.01.12.031.25.065.387a3.087 3.087 0 00.323.805c.074.131.158.26.252.387a4.35 4.35 0 00.656.71c.116.1.233.19.352.267.118.078.238.145.358.2.12.055.242.1.365.132.122.033.236.051.343.057a.997.997 0 00.294-.024.8.8 0 00.247-.103.915.915 0 00.331-.41c.034-.081.057-.17.069-.266a1.49 1.49 0 00.007-.306 2.256 2.256 0 00-.061-.37l-.007-.025a.567.567 0 01-.006-.025l-.006-.025-.004-.013-.003-.012-.004-.013-.003-.012a3.154 3.154 0 00-.323-.747 3.82 3.82 0 00-.238-.358 4.465 4.465 0 00-.617-.67 3.37 3.37 0 00-.336-.262 2.8 2.8 0 00-.346-.2 2.444 2.444 0 00-.355-.14zm.715 2.723a.979.979 0 01-.29-.135 1.333 1.333 0 01-.138-.105 1.786 1.786 0 01-.359-.432 1.368 1.368 0 01-.13-.32.854.854 0 01-.026-.152.588.588 0 01.002-.133.418.418 0 01.032-.113.357.357 0 01.144-.163.323.323 0 01.101-.036.441.441 0 01.12-.005.718.718 0 01.137.027.967.967 0 01.285.136 1.748 1.748 0 01.49.531 1.353 1.353 0 01.128.312c.014.054.024.105.029.152a.639.639 0 010 .135.453.453 0 01-.03.115.355.355 0 01-.139.165.33.33 0 01-.1.039.44.44 0 01-.119.007.712.712 0 01-.137-.025" fill="#0080FF"/><path d="M55.03 22.402a5.588 5.588 0 00-.978-.013A7.025 7.025 0 0053 22.54c-.18.04-.35.082-.508.13a4.99 4.99 0 00-.442.15 3.43 3.43 0 00-.375.175 2.376 2.376 0 00-.308.196 1.375 1.375 0 00-.22.202.588.588 0 00-.113.193.334.334 0 00-.009.182c.015.06.047.117.095.174.05.055.111.106.187.15.074.046.162.085.264.119.1.034.214.062.342.085.126.023.266.04.42.053a5.734 5.734 0 00.939 0 6.972 6.972 0 00.99-.145c.16-.034.311-.071.454-.111a4.464 4.464 0 00.753-.279c.11-.053.21-.11.303-.169l.02-.013.018-.012a.694.694 0 00.036-.024l.01-.007.008-.006.009-.006.009-.006c.087-.064.16-.126.217-.188a.67.67 0 00.125-.182.36.36 0 00.032-.178.374.374 0 00-.063-.173.607.607 0 00-.159-.16 1.12 1.12 0 00-.245-.13 2.188 2.188 0 00-.335-.096 3.979 3.979 0 00-.424-.063zm-1.903 1.383a1.831 1.831 0 01-.168-.023.928.928 0 01-.136-.036.521.521 0 01-.105-.048.299.299 0 01-.072-.062.164.164 0 01-.035-.07.137.137 0 01.007-.073.255.255 0 01.048-.077.576.576 0 01.09-.08.987.987 0 01.123-.076 1.978 1.978 0 01.324-.127 2.805 2.805 0 01.411-.089 3.051 3.051 0 01.402-.028 2.205 2.205 0 01.36.034c.05.01.096.022.135.037a.57.57 0 01.102.05c.028.02.05.04.067.064a.155.155 0 01.03.07.137.137 0 01-.011.074.258.258 0 01-.052.075.597.597 0 01-.092.079 1.023 1.023 0 01-.124.075 1.976 1.976 0 01-.32.124 3.037 3.037 0 01-.796.115c-.064 0-.126-.003-.188-.008m9.183-6.645a4.754 4.754 0 00-.507-.05 5.574 5.574 0 00-.54 0c-.186.01-.377.028-.572.055a7.81 7.81 0 00-1.179.26 5.606 5.606 0 00-.513.183c-.16.066-.308.138-.445.214a3.31 3.31 0 00-.378.245c-.115.087-.21.172-.285.256a.968.968 0 00-.168.246.509.509 0 00.01.464.69.69 0 00.164.201c.07.06.156.114.256.161.101.047.217.087.348.12.13.034.276.062.437.083a5 5 0 00.491.039 6.676 6.676 0 001.049-.062 7.72 7.72 0 001.071-.231c.162-.048.316-.1.461-.155a4.93 4.93 0 00.413-.18 3.83 3.83 0 00.367-.208l.023-.016a.143.143 0 00.024-.016l.024-.015.022-.015.01-.008.012-.007.01-.008.012-.008c.11-.079.203-.157.28-.235.077-.078.137-.155.18-.232a.62.62 0 00.08-.23.504.504 0 00-.023-.226.573.573 0 00-.128-.214.895.895 0 00-.23-.176 1.728 1.728 0 00-.336-.137 3.292 3.292 0 00-.44-.098zm-2.384 1.734a1.4 1.4 0 01-.177-.035.745.745 0 01-.137-.051.432.432 0 01-.1-.067.27.27 0 01-.062-.081.21.21 0 01-.02-.092c0-.031.008-.063.024-.095a.406.406 0 01.07-.098.861.861 0 01.117-.1c.046-.035.096-.066.15-.096a2.187 2.187 0 01.378-.154 2.972 2.972 0 01.464-.101 2.561 2.561 0 01.438-.024 1.93 1.93 0 01.38.056.741.741 0 01.136.053.36.36 0 01.096.07.253.253 0 01.056.084.209.209 0 01-.016.187.43.43 0 01-.073.096.905.905 0 01-.119.098 1.425 1.425 0 01-.327.175 2.444 2.444 0 01-.42.126 3.25 3.25 0 01-.448.063 2.393 2.393 0 01-.41-.014m4.368 4.456a4.335 4.335 0 00-.408-.022 5.585 5.585 0 00-.9.067 7.662 7.662 0 00-.968.206c-.15.043-.292.088-.425.138a4.29 4.29 0 00-.372.157 3.174 3.174 0 00-.32.177 1.96 1.96 0 00-.247.181.79.79 0 00-.15.173.36.36 0 00-.058.163.286.286 0 00.035.156c.028.05.068.095.121.135a.81.81 0 00.198.105c.08.03.17.054.275.075.104.02.22.035.35.046.13.01.263.015.4.015a5.607 5.607 0 00.86-.07c.15-.022.304-.05.462-.084a7.184 7.184 0 00.81-.22 4.78 4.78 0 00.346-.136 3.733 3.733 0 00.329-.164l.02-.011.02-.011.019-.011.009-.006.01-.005.009-.006.009-.005a2.04 2.04 0 00.239-.17.914.914 0 00.157-.164.42.42 0 00.074-.159.29.29 0 00-.01-.155.344.344 0 00-.095-.143.65.65 0 00-.18-.114 1.474 1.474 0 00-.266-.084 2.965 2.965 0 00-.353-.054zm-2.023 1.245a.916.916 0 01-.142-.02.656.656 0 01-.109-.03.313.313 0 01-.077-.044.161.161 0 01-.046-.055.113.113 0 01-.011-.062.154.154 0 01.025-.066.353.353 0 01.063-.069.79.79 0 01.1-.072 1.368 1.368 0 01.275-.13 2.286 2.286 0 01.356-.1 3.244 3.244 0 01.376-.056 2.354 2.354 0 01.338.002c.053.005.1.011.142.02.04.01.077.02.107.033a.29.29 0 01.075.045.15.15 0 01.041.056c.008.021.01.042.007.064a.162.162 0 01-.029.065.357.357 0 01-.065.068.784.784 0 01-.1.07 1.374 1.374 0 01-.276.129 2.382 2.382 0 01-.35.098 3.22 3.22 0 01-.367.054 2.115 2.115 0 01-.333 0zm-3.809-4.654a5.16 5.16 0 00-.494-.038 5.831 5.831 0 00-.519.009c-.176.01-.357.029-.541.055a7.79 7.79 0 00-1.107.242c-.17.05-.329.106-.476.166-.147.06-.283.124-.408.192a2.81 2.81 0 00-.34.22 1.632 1.632 0 00-.25.226.743.743 0 00-.137.217.417.417 0 00.053.405.73.73 0 00.177.174c.073.052.16.098.26.137.102.04.216.074.346.102.128.028.271.05.43.066a5.406 5.406 0 00.97.014 7.798 7.798 0 001.52-.27c.153-.044.297-.091.431-.142a3.729 3.729 0 00.711-.35l.023-.014.021-.014a.903.903 0 00.02-.014l.02-.013a.118.118 0 00.01-.007l.01-.007.01-.007.01-.006c.097-.071.179-.14.245-.21a.864.864 0 00.15-.205.43.43 0 00.008-.4.593.593 0 00-.145-.184.988.988 0 00-.24-.15 1.95 1.95 0 00-.335-.115 3.66 3.66 0 00-.433-.079zm-2.122 1.543a1.502 1.502 0 01-.172-.028.877.877 0 01-.138-.043.474.474 0 01-.104-.056.29.29 0 01-.069-.07.17.17 0 01-.028-.08.172.172 0 01.014-.084.324.324 0 01.06-.086.69.69 0 01.1-.09 1.39 1.39 0 01.137-.085 1.642 1.642 0 01.349-.14 2.906 2.906 0 01.436-.094 2.719 2.719 0 01.42-.026 2.2 2.2 0 01.196.014c.064.008.122.017.173.03a.83.83 0 01.136.044c.04.018.072.037.1.059a.257.257 0 01.062.073.179.179 0 01.023.081.18.18 0 01-.02.083.344.344 0 01-.06.085.775.775 0 01-.105.087c-.042.03-.087.058-.137.084a2.098 2.098 0 01-.346.136 2.804 2.804 0 01-.423.091 2.882 2.882 0 01-.41.026 2.096 2.096 0 01-.194-.012zm11.576-.352a4.13 4.13 0 00-.42-.03 4.92 4.92 0 00-.45.01 6.37 6.37 0 00-.484.052 7.737 7.737 0 00-1.474.369c-.144.053-.277.11-.404.172a3.648 3.648 0 00-.352.195c-.108.069-.2.136-.275.202-.075.066-.134.13-.176.193a.465.465 0 00-.079.184.327.327 0 00.017.175.415.415 0 00.108.154c.05.045.113.085.19.12.077.035.168.065.273.089.105.024.223.043.356.057.132.013.268.02.408.022a6.236 6.236 0 00.89-.066 7.846 7.846 0 00.936-.197c.143-.04.28-.082.41-.128.131-.046.256-.095.374-.148a4.131 4.131 0 00.38-.192l.02-.012.022-.013.01-.006.01-.006a.118.118 0 00.01-.006l.01-.006c.103-.064.192-.126.267-.187.076-.062.137-.123.183-.183a.568.568 0 00.097-.179.356.356 0 00-.07-.338.57.57 0 00-.17-.13 1.238 1.238 0 00-.261-.1 2.657 2.657 0 00-.356-.067zm-2.237 1.377a1.175 1.175 0 01-.142-.024.547.547 0 01-.109-.037.282.282 0 01-.075-.05.16.16 0 01-.042-.062.128.128 0 01-.004-.07.199.199 0 01.035-.074.429.429 0 01.073-.077.963.963 0 01.111-.08 1.526 1.526 0 01.3-.143 2.983 2.983 0 01.773-.165 2.153 2.153 0 01.346.006.98.98 0 01.142.026c.042.01.078.023.107.038.03.015.054.032.072.052a.146.146 0 01.035.136.217.217 0 01-.038.073.448.448 0 01-.075.076.934.934 0 01-.113.078 1.56 1.56 0 01-.3.141 2.705 2.705 0 01-.568.14 2.408 2.408 0 01-.363.026 1.77 1.77 0 01-.165-.01m6.258-3.84a3.668 3.668 0 00-.427-.041 4.728 4.728 0 00-.466.005c-.162.01-.33.026-.506.051a7.863 7.863 0 00-1.57.397c-.155.06-.3.123-.439.19-.137.068-.266.14-.387.217a2.66 2.66 0 00-.31.225 1.316 1.316 0 00-.207.216.633.633 0 00-.106.208.399.399 0 00.088.375.638.638 0 00.181.14c.076.04.165.075.27.104.104.029.223.052.358.07a4.84 4.84 0 00.863.02c.154-.01.314-.027.478-.05a7.795 7.795 0 00.986-.21 6.177 6.177 0 00.842-.301c.13-.058.252-.12.369-.185l.024-.014.025-.014.024-.013.023-.014.011-.006.011-.007.011-.007.012-.006c.115-.07.214-.14.3-.209a1.5 1.5 0 00.213-.204.757.757 0 00.124-.202.455.455 0 00.034-.198.377.377 0 00-.058-.187.524.524 0 00-.158-.152 1.097 1.097 0 00-.257-.117 2.391 2.391 0 00-.356-.081zm-2.487 1.53a1.011 1.011 0 01-.145-.03.503.503 0 01-.107-.043.235.235 0 01-.07-.057.164.164 0 01-.034-.071.164.164 0 01.005-.08.264.264 0 01.045-.083.536.536 0 01.086-.087 1.678 1.678 0 01.453-.248 2.681 2.681 0 01.403-.115 3.182 3.182 0 01.414-.06 1.925 1.925 0 01.356.013.952.952 0 01.144.031.453.453 0 01.104.046c.029.017.05.037.066.06a.153.153 0 01.028.073.176.176 0 01-.01.08.3.3 0 01-.05.084.597.597 0 01-.087.084 1.727 1.727 0 01-.454.243 2.454 2.454 0 01-.394.113 3.119 3.119 0 01-.402.057 2.01 2.01 0 01-.352-.01" fill="#AF2925"/><path opacity=".72" d="M.42 28.683h.812v3.196h4.152v-3.196h.812v7.194h-.812V32.64H1.232v3.237H.42v-7.194zM16.556 32.3v-.02c0-1.634-1.192-2.97-2.836-2.97-1.645 0-2.816 1.316-2.816 2.95v.02c0 1.634 1.192 2.97 2.836 2.97s2.816-1.316 2.816-2.95zm-6.495 0v-.02c0-1.984 1.49-3.72 3.679-3.72s3.658 1.716 3.658 3.7v.02c0 1.983-1.49 3.72-3.678 3.72-2.19 0-3.66-1.716-3.66-3.7zm11.606-3.617h.812v6.444h4.049v.75h-4.861v-7.194zm11.571 6.444c1.819 0 2.98-1.233 2.98-2.826v-.02c0-1.594-1.161-2.848-2.98-2.848h-1.685v5.694h1.685zm-2.497-6.444h2.497c2.261 0 3.823 1.552 3.823 3.577v.02c0 2.024-1.562 3.597-3.823 3.597h-2.497v-7.194zm10.695 0h.812v7.194h-.812v-7.194zm5.683 0h.76l4.532 5.766v-5.766h.791v7.194h-.647l-4.645-5.899v5.899h-.791v-7.194zM57.645 32.3v-.02c0-1.973 1.449-3.72 3.607-3.72 1.212 0 1.963.35 2.682.955l-.524.617c-.555-.483-1.171-.822-2.189-.822-1.593 0-2.733 1.346-2.733 2.95v.02c0 1.716 1.1 2.99 2.846 2.99a3.38 3.38 0 002.076-.72v-1.787h-2.189v-.73h2.97V34.9a4.358 4.358 0 01-2.888 1.1c-2.26 0-3.658-1.644-3.658-3.7zm10.469 2.529l.504-.596c.75.678 1.47 1.017 2.466 1.017.966 0 1.603-.514 1.603-1.223v-.02c0-.668-.36-1.048-1.87-1.367-1.655-.36-2.415-.894-2.415-2.076v-.02c0-1.131.997-1.963 2.364-1.963 1.048 0 1.798.298 2.527.884l-.472.626c-.668-.544-1.336-.78-2.076-.78-.935 0-1.531.513-1.531 1.16v.02c0 .68.37 1.06 1.952 1.399 1.603.349 2.343.935 2.343 2.034v.02c0 1.234-1.027 2.035-2.456 2.035-1.14 0-2.076-.38-2.939-1.15zM7.497 14.893c.823 0 1.536.292 2.12.878.586.585.879 1.28.879 2.102a2.88 2.88 0 01-.878 2.112 3.019 3.019 0 01-2.158.878c-.822 0-1.5-.302-2.084-.878a2.879 2.879 0 01-.878-2.112c0-.822.292-1.517.878-2.102a2.9 2.9 0 012.12-.878zm-5.312-2.286C.73 14.07 0 15.817 0 17.883s.731 3.812 2.185 5.275c1.463 1.454 3.209 2.185 5.275 2.185 2.067 0 3.813-.731 5.276-2.185 1.37-1.372 2.093-2.99 2.175-4.882.01-.137.01-.266.01-.393v-.192c-.046-1.975-.768-3.667-2.185-5.084-1.463-1.463-3.191-2.18-5.258-2.18-2.066 0-3.83.717-5.293 2.18m20.292 2.286c.832 0 1.55.292 2.135.878.585.585.877 1.28.877 2.102a2.88 2.88 0 01-.877 2.112 2.951 2.951 0 01-2.135.878c-.832 0-1.522-.302-2.107-.878a2.878 2.878 0 01-.878-2.112c0-.822.292-1.517.878-2.102.585-.586 1.275-.878 2.107-.878zm-5.298-2.286c-1.463 1.463-2.185 3.21-2.185 5.276s.722 3.812 2.185 5.275c1.453 1.454 3.24 2.185 5.298 2.185 2.057 0 3.799-.731 5.252-2.185 1.372-1.372 2.085-2.99 2.176-4.882 0-.137.01-.266.01-.393v-.192c-.046-1.975-.769-3.667-2.186-5.084-1.453-1.463-3.195-2.18-5.252-2.18s-3.845.717-5.298 2.18zm20.282 2.313c.833 0 1.56.265 2.145.85.584.586.877 1.28.877 2.103a2.88 2.88 0 01-.877 2.112 2.974 2.974 0 01-2.145.878c-.831 0-1.512-.302-2.098-.878a2.878 2.878 0 01-.877-2.112c0-.822.292-1.517.877-2.103.586-.585 1.267-.85 2.098-.85zm-5.288-2.313c-1.463 1.463-2.186 3.21-2.186 5.276s.723 3.812 2.186 5.275c1.462 1.453 3.231 2.185 5.288 2.185 2.058 0 3.808-.732 5.262-2.185 1.371-1.372 2.084-2.99 2.176-4.882 0-.138.009-.266.009-.393v-.192c-.046-1.975-.768-3.667-2.185-5.084-1.454-1.463-3.204-2.18-5.262-2.18-2.056 0-3.825.717-5.288 2.18" fill="#fff"/><path opacity=".72" d="M7.46 4.47c.823 0 1.573.293 2.158.878s.878 1.28.878 2.102c0 .823-.293 1.536-.878 2.113-.585.576-1.335.863-2.158.863-.822 0-1.5-.287-2.084-.863a2.865 2.865 0 01-.878-2.113c0-.822.292-1.517.878-2.102.585-.585 1.262-.878 2.084-.878zm7.451 3.383c.01-.137.01-.265.01-.393v-.192c-.046-1.975-.768-3.666-2.185-5.083C11.273.722 9.526-.001 7.46-.001S3.648.722 2.185 2.185C.73 3.647 0 5.393 0 7.46c0 2.057.731 3.821 2.185 5.275 1.463 1.454 3.209 2.158 5.275 2.158 2.067 0 3.813-.704 5.276-2.158 1.37-1.362 2.093-2.999 2.175-4.882m7.566-3.383c.832 0 1.55.293 2.135.878.585.585.877 1.28.877 2.102 0 .823-.292 1.536-.877 2.113-.585.576-1.303.863-2.135.863a2.876 2.876 0 01-2.107-.863 2.864 2.864 0 01-.878-2.113c0-.822.292-1.517.878-2.102.585-.585 1.275-.878 2.107-.878zm7.428 3.383c0-.137.01-.265.01-.393v-.192c-.046-1.975-.769-3.666-2.186-5.083C26.276.722 24.534-.001 22.477-.001s-3.845.723-5.298 2.186c-1.463 1.462-2.185 3.208-2.185 5.275 0 2.057.722 3.821 2.185 5.275 1.453 1.454 3.24 2.158 5.298 2.158 2.057 0 3.799-.704 5.252-2.158 1.372-1.362 2.085-2.999 2.176-4.882m9.7-2.504c.586.585.878 1.28.878 2.102 0 .823-.292 1.536-.878 2.112-.585.576-1.312.864-2.144.864-.831 0-1.512-.287-2.098-.864a2.864 2.864 0 01-.878-2.112c0-.822.293-1.517.878-2.102.586-.585 1.267-.878 2.098-.878.832 0 1.559.293 2.144.878zm5.303 2.112v-.192c-.046-1.975-.768-3.666-2.185-5.084C41.269.723 39.518 0 37.46 0c-2.056 0-3.826.723-5.289 2.185-1.462 1.463-2.185 3.21-2.185 5.276 0 2.057.723 3.821 2.185 5.275 1.463 1.454 3.233 2.185 5.29 2.185 2.056 0 3.807-.731 5.26-2.185 1.372-1.362 2.085-2.999 2.177-4.882 0-.137.009-.265.009-.393" fill="#fff"/></svg>