<svg width="70" height="13" fill="none" xmlns="http://www.w3.org/2000/svg"><g opacity=".5" clip-path="url(#clip0)"><path d="M34.01 12.854H.734a.61.61 0 01-.437-.185.642.642 0 01-.18-.448V6.304c0-1.64.634-3.213 1.764-4.372A5.948 5.948 0 016.142.12H34.01a.61.61 0 01.437.185.64.64 0 01.18.448v11.492c0 .168-.064.33-.18.448a.61.61 0 01-.437.186v-.026z" fill="#35A8E0"/><path d="M34.015 13H.741a.726.726 0 01-.52-.22.764.764 0 01-.215-.533V6.329c0-1.68.65-3.291 1.808-4.48A6.094 6.094 0 016.18-.005h27.835c.195 0 .382.08.52.221a.764.764 0 01.215.533v11.499c0 .2-.077.391-.215.533a.725.725 0 01-.52.22zM6.167.299a5.814 5.814 0 00-4.158 1.77A6.125 6.125 0 00.284 6.336v5.917c0 .123.047.24.132.327.085.087.2.135.319.135h33.28a.442.442 0 00.319-.135.461.461 0 00.132-.327V.754a.472.472 0 00-.132-.327.45.45 0 00-.319-.135L6.167.298z" fill="#fff"/><path d="M11.767 6.044v4.745a.09.09 0 01-.026.063.085.085 0 01-.06.026H9.864a.085.085 0 01-.061-.026.09.09 0 01-.025-.063.09.09 0 00-.038-.072.085.085 0 00-.08-.01 3.53 3.53 0 01-.555.133 4.408 4.408 0 01-.685.057 4.268 4.268 0 01-1.618-.348 4.179 4.179 0 01-1.426-.97 4.242 4.242 0 01-.932-1.438 4.608 4.608 0 01-.309-1.66c0-.57.105-1.135.309-1.666.21-.55.53-1.048.938-1.463.405-.42.891-.75 1.426-.97a4.22 4.22 0 014.606.906.088.088 0 01.026.064.09.09 0 01-.026.063l-1.278 1.312a.086.086 0 01-.096.02.086.086 0 01-.028-.02 2.296 2.296 0 00-2.463-.462 2.23 2.23 0 00-.772.519 2.387 2.387 0 00-.506.774 2.436 2.436 0 00.506 2.602 2.26 2.26 0 001.47.69c.27.022.54-.004.802-.075.25-.067.486-.179.698-.33a.088.088 0 00.037-.076v-.304a.09.09 0 00-.025-.062.085.085 0 00-.062-.026h-1.55a.085.085 0 01-.06-.026.09.09 0 01-.026-.063V6.044a.09.09 0 01.026-.062.085.085 0 01.06-.026h3.526a.085.085 0 01.065.023.088.088 0 01.027.065zm6.753 4.783l-.296-.912a.089.089 0 00-.033-.047.085.085 0 00-.054-.017h-2.58a.085.085 0 00-.05.019.089.089 0 00-.03.045l-.31.944a.088.088 0 01-.03.044.085.085 0 01-.05.019h-1.9a.086.086 0 01-.072-.039.09.09 0 01-.009-.081l2.858-8.616a.089.089 0 01.03-.046.085.085 0 01.05-.018h1.741c.02 0 .039.005.054.017a.09.09 0 01.033.047l2.71 8.616a.091.091 0 01-.011.084.087.087 0 01-.075.036h-1.89a.086.086 0 01-.081-.06.09.09 0 01-.005-.035zm-2.216-3.028h1.148a.084.084 0 00.075-.036.09.09 0 00.011-.084l-.555-1.762a.089.089 0 00-.031-.047.085.085 0 00-.105 0 .089.089 0 00-.03.047l-.618 1.761a.09.09 0 00.015.095.084.084 0 00.09.025zm11.853-5.721h1.889c.022 0 .043.009.059.024a.09.09 0 01.027.058l.494 8.63a.091.091 0 01-.023.066.088.088 0 01-.063.028h-1.803a.086.086 0 01-.059-.024.09.09 0 01-.027-.058l-.18-3.054a.09.09 0 00-.024-.063.085.085 0 00-.123 0 .09.09 0 00-.025.063l-1.012 3.08a.089.089 0 01-.03.044.086.086 0 01-.05.018h-1.853a.085.085 0 01-.05-.018.089.089 0 01-.03-.045l-1.111-3.256a.09.09 0 00-.026-.063.085.085 0 00-.122 0 .09.09 0 00-.025.063l-.198 3.206a.09.09 0 01-.027.058.085.085 0 01-.06.024h-1.814a.085.085 0 01-.063-.028.088.088 0 01-.024-.067l.544-8.597a.09.09 0 01.027-.059.085.085 0 01.06-.024h1.888a.089.089 0 01.08.063l1.778 5.208a.088.088 0 00.031.047.085.085 0 00.136-.047l1.729-5.207a.089.089 0 01.028-.049.085.085 0 01.052-.02z" fill="#fff"/><path d="M35.978.146h33.287a.61.61 0 01.437.185c.115.119.18.28.18.448v5.917c0 1.64-.634 3.213-1.764 4.372a5.948 5.948 0 01-4.26 1.811h-27.88a.61.61 0 01-.436-.185.642.642 0 01-.181-.448V.754a.642.642 0 01.19-.432.61.61 0 01.427-.176z" fill="#1D1D1B"/><path d="M63.833 13H35.978a.725.725 0 01-.52-.22.764.764 0 01-.214-.534V.754c0-.2.077-.392.215-.533a.725.725 0 01.52-.221h33.286c.195 0 .382.08.52.22A.764.764 0 0170 .755V6.67a6.42 6.42 0 01-1.808 4.473A6.094 6.094 0 0163.832 13zM35.978.298a.445.445 0 00-.318.135.469.469 0 00-.132.327v11.486c0 .123.047.24.132.327a.443.443 0 00.318.136h27.855a5.814 5.814 0 004.158-1.77 6.125 6.125 0 001.725-4.268V.754a.469.469 0 00-.132-.327.445.445 0 00-.319-.136L35.978.298z" fill="#fff"/><path d="M40.868 10.89c-.273 0-.546-.039-.809-.114a2.917 2.917 0 01-1.747-1.438 3.06 3.06 0 01-.352-1.362.093.093 0 01.023-.067.088.088 0 01.064-.028h1.833c.023 0 .045.01.061.026a.09.09 0 01.026.062.832.832 0 00.148.47c.074.106.166.198.271.272.135.095.293.15.457.158.166.009.331-.024.482-.095.1-.04.19-.1.265-.177a.98.98 0 00.154-.21.588.588 0 00.062-.196 1.035 1.035 0 000-.31.644.644 0 00-.061-.203.814.814 0 00-.155-.209 1.006 1.006 0 00-.265-.184l-.272-.107-.309-.108-.617-.216a3.367 3.367 0 01-.617-.323 2.494 2.494 0 01-.692-.633 2.667 2.667 0 01-.487-1.793c.028-.325.118-.642.265-.931.135-.266.312-.506.525-.71.205-.197.44-.358.697-.475a2.49 2.49 0 01.828-.21 2.71 2.71 0 01.901.083c.284.068.555.183.803.342.234.153.442.343.617.564.16.212.285.45.37.703.083.245.129.502.136.76a.091.091 0 01-.023.067.086.086 0 01-.063.029h-1.79a.085.085 0 01-.058-.022.09.09 0 01-.03-.054.388.388 0 00-.166-.304 1.22 1.22 0 00-.29-.14h-.099a.553.553 0 00-.197 0 .692.692 0 00-.229.083.464.464 0 00-.185.209.55.55 0 00-.037.399.57.57 0 00.235.33c.117.066.238.123.364.17l.42.152.401.133c.136.047.274.102.414.165.486.22.9.578 1.19 1.033a2.873 2.873 0 01.007 3.079 2.907 2.907 0 01-1.82 1.267 3.081 3.081 0 01-.65.063zm26.385-5.094a3.688 3.688 0 01-1.031 2.585 3.666 3.666 0 01-1.13.799 3.39 3.39 0 01-1.29.304.084.084 0 00-.061.026.089.089 0 00-.026.062v1.23a.09.09 0 01-.025.062.085.085 0 01-.06.026h-1.797a.086.086 0 01-.061-.026.09.09 0 01-.026-.063V2.185a.09.09 0 01.026-.062.086.086 0 01.06-.026h1.877c.475.004.944.11 1.377.31.422.195.805.467 1.13.805a3.708 3.708 0 011.037 2.584zM63.709 7.38a.09.09 0 00.028.065.086.086 0 00.065.024c.18-.017.355-.066.518-.146a1.665 1.665 0 00.828-.887 1.72 1.72 0 000-1.267 1.678 1.678 0 00-.334-.526 1.686 1.686 0 00-.493-.36 1.513 1.513 0 00-.519-.146.085.085 0 00-.061.019.089.089 0 00-.032.057V7.38zm-8.081-5.29a4.057 4.057 0 011.667.35c.508.221.97.54 1.364.937.39.4.703.873.92 1.394a4.502 4.502 0 010 3.427 4.44 4.44 0 01-.92 1.394 4.398 4.398 0 01-1.364.957 4.185 4.185 0 01-3.334 0A4.342 4.342 0 0151.69 8.21a4.535 4.535 0 010-3.428 4.342 4.342 0 012.272-2.337 4.058 4.058 0 011.666-.355zm0 6.773c.31.003.617-.06.902-.183a2.359 2.359 0 001.234-1.267 2.437 2.437 0 000-1.844 2.359 2.359 0 00-1.234-1.267 2.27 2.27 0 00-1.797 0A2.359 2.359 0 0053.5 5.569a2.435 2.435 0 000 1.844c.235.57.678 1.025 1.234 1.267.285.124.592.186.901.183h-.006zm-6.92-4.84h-1.815a.088.088 0 00-.087.09v6.69c0 .048.04.088.087.088h1.815c.048 0 .086-.04.086-.089v-6.69a.088.088 0 00-.086-.089z" fill="#fff"/><path d="M50.338 2.09h-5.081a.088.088 0 00-.087.09v1.862c0 .05.04.089.087.089h5.08c.048 0 .087-.04.087-.089V2.18a.088.088 0 00-.086-.09z" fill="#fff"/></g><defs><clipPath id="clip0"><path fill="#fff" d="M0 0h70v13H0z"/></clipPath></defs></svg>