<svg width="19" height="16" fill="none" xmlns="http://www.w3.org/2000/svg"><path fill-rule="evenodd" clip-rule="evenodd" d="M18.823 1.894a7.482 7.482 0 01-2.218.636A4.025 4.025 0 0018.303.296a7.514 7.514 0 01-2.453.98A3.778 3.778 0 0013.032 0c-2.133 0-3.863 1.808-3.863 4.04 0 .317.035.624.101.92C6.06 4.792 3.215 3.183 1.311.74a4.153 4.153 0 00-.523 2.03c0 1.402.683 2.638 1.718 3.362a3.702 3.702 0 01-1.749-.505v.051c0 1.957 1.33 3.589 3.098 3.96a3.696 3.696 0 01-1.744.069c.491 1.605 1.918 2.773 3.608 2.806A7.544 7.544 0 010 14.185 10.581 10.581 0 005.92 16c7.103 0 10.988-6.155 10.988-11.492 0-.176-.005-.349-.011-.523a8.06 8.06 0 001.927-2.09v-.001z" fill="#fff"/></svg>