<svg width="100" height="100" fill="none" xmlns="http://www.w3.org/2000/svg"><path d="M48.296 13.916c-2.164 0-35.105 9.77-35.105 9.77L8.044 36.46s2.06 17.197 2.265 17.617c.206.42 8.647 24.717 10.5 25.468 1.853.751 22.647 5.761 32.53 4.258 9.882-1.502 28.205-7.514 30.264-10.27 2.059-2.755 9.059-17.255 8.235-24.533-.823-7.28-3.706-23.812-4.735-25.816-1.03-2.004-15.853-9.017-16.47-9.268-.618-.25-22.337 0-22.337 0z" fill="#fff"/><path d="M45.714 60.414c.636 0 1.315-.17 1.866-.68l1.145-6.872c-.381-.508-1.06-.763-1.697-.763-2.417 0-2.969 3.436-2.969 5.685 0 1.696.51 2.63 1.655 2.63z" fill="#55C1E9"/><path d="M87.765 34.718a8.57 8.57 0 01-.243.778l-.006.017a8.638 8.638 0 01-.307.729l-.016.034c-.111.23-.23.455-.36.674l-.034.056a8.7 8.7 0 01-.404.61l-.06.08a8.25 8.25 0 01-.437.544c-.03.035-.06.067-.091.101a8.63 8.63 0 01-.46.477l-.13.117c-.154.141-.31.279-.475.41-.056.044-.115.085-.171.128a8.663 8.663 0 01-.482.343c-.072.046-.146.088-.219.133a8.94 8.94 0 01-.481.28c-.087.045-.177.084-.266.127-.158.076-.315.154-.478.22-.1.042-.205.076-.307.113-.158.058-.314.119-.476.167-.113.035-.23.06-.346.09-.156.04-.311.084-.471.116-.123.024-.25.038-.374.057-.158.024-.315.054-.476.07-.121.012-.246.011-.369.019-.165.009-.329.024-.496.024h-.02l-47.317-.002c-2.16 12.176-3.936 22.5-3.787 23.716.286 2.355 2.465 2.382 2.557 2.382h.074c.196.011 1.298-.04 3.823-2.017-.952-1.43-1.418-3.399-1.418-5.873 0-10.817 6.66-15.017 12.133-15.017 2.036 0 4.156.382 5.556 2.291l1.06-1.782h8.188l-3.776 22.61h-8.78l-.298-2.418c-1.527 1.909-3.902 2.97-6.575 2.97-2.1 0-3.74-.522-4.948-1.521-3.538 3.057-7.158 4.737-10.247 4.737-2.087 0-3.724-.46-4.868-1.366-1.22-.967-1.936-2.443-2.189-4.516-.195-1.603 1.037-9.125 3.97-24.196H14.16a4.845 4.845 0 00-4.05 2.191c-.092.14-.312.095-.343-.07a8.531 8.531 0 01-.148-1.565c0-.186.017-.37.028-.554l.006-.002H9.65c.283-4.558 4.06-8.17 8.691-8.174H83.48v-.002l.04.002c1.694 0 3.183-.87 4.048-2.188.092-.14.312-.094.343.07.094.508.148 1.03.148 1.564a8.72 8.72 0 01-.294 2.214v.002zM81.232 67.54h-7.975l-.89-2.333c-1.698 1.908-3.86 2.885-6.66 2.885-4.624 0-7-2.588-6.194-7.382l2.63-15.78h10.138l-2.333 13.914c-.17 1.018.085 1.527.891 1.527.552 0 1.315-.297 1.612-.679l2.46-14.762h10.096l-3.775 22.61zM50 0C22.43 0 0 22.43 0 50s22.43 50 50 50 50-22.43 50-50S77.57 0 50 0z" fill="#55C1E9"/></svg>