<svg width="146" height="70" fill="none" xmlns="http://www.w3.org/2000/svg"><path d="M12.51 16.023c0 1.104.322 2.092.966 2.963.644.87 1.498 1.678 2.561 2.422a27.98 27.98 0 003.616 2.122c1.347.669 2.728 1.36 4.142 2.07a62.176 62.176 0 014.142 2.286 20.382 20.382 0 013.616 2.749 12.585 12.585 0 012.56 3.464c.645 1.29.967 2.762.967 4.419 0 1.507-.243 2.892-.728 4.155a11.828 11.828 0 01-1.996 3.402 14.147 14.147 0 01-3 2.661 18.32 18.32 0 01-3.74 1.908 23.69 23.69 0 01-4.219 1.143c-1.473.26-2.954.389-4.444.389-2.092 0-4.125-.255-6.1-.766-1.975-.51-3.733-1.28-5.273-2.31a12.082 12.082 0 01-3.703-3.866C.948 43.686.484 41.874.484 39.799c0-1.072.171-2.013.514-2.825.343-.812.77-1.49 1.28-2.033a5.354 5.354 0 011.67-1.23c.603-.277 1.164-.415 1.683-.415.535 0 .983.147 1.343.439.36.293.54.75.54 1.369 0 .284-.034.586-.1.904-.068.317-.139.665-.214 1.041-.076.377-.147.791-.213 1.243a9.993 9.993 0 00-.101 1.481c0 1.172.267 2.185.803 3.038a6.583 6.583 0 002.134 2.11c.887.551 1.908.962 3.063 1.23 1.155.267 2.352.401 3.59.401a18.56 18.56 0 004.37-.527c1.455-.352 2.76-.87 3.916-1.557 1.155-.686 2.091-1.527 2.812-2.523.719-.995 1.08-2.138 1.08-3.427 0-1.188-.323-2.25-.967-3.188-.645-.938-1.499-1.804-2.561-2.6a26.21 26.21 0 00-3.628-2.246 950.51 950.51 0 00-4.143-2.134 82.413 82.413 0 01-4.142-2.272 22.234 22.234 0 01-3.628-2.624 12.044 12.044 0 01-2.561-3.2c-.644-1.18-.967-2.524-.967-4.03 0-1.406.34-2.79 1.017-4.155.678-1.364 1.699-2.586 3.063-3.666s3.067-1.954 5.11-2.623c2.041-.67 4.434-1.005 7.18-1.005 1.74 0 3.443.26 5.109.778 1.665.52 3.15 1.256 4.456 2.21 1.305.954 2.356 2.092 3.151 3.414.795 1.323 1.193 2.787 1.193 4.394 0 .954-.164 1.933-.49 2.938-.326 1.003-.85 2.05-1.57 3.138-.702 1.054-1.468 1.837-2.296 2.347-.83.51-1.578.765-2.247.765-.502 0-.913-.146-1.23-.439-.319-.292-.477-.732-.477-1.317 0-.436.1-.95.3-1.544.202-.594.544-1.277 1.03-2.047.452-.736.787-1.427 1.004-2.071.218-.644.327-1.243.327-1.795 0-.854-.23-1.603-.69-2.247-.461-.645-1.097-1.184-1.909-1.62-.812-.434-1.787-.76-2.925-.979-1.138-.217-2.385-.326-3.74-.326-1.507 0-2.817.172-3.93.514-1.113.344-2.042.788-2.786 1.331-.746.544-1.298 1.151-1.657 1.82-.36.67-.54 1.331-.54 1.984" fill="#EE2A37"/><path d="M52.73 11.554c0-.184-.012-.39-.037-.615a2.314 2.314 0 00-.164-.64 1.203 1.203 0 00-.389-.503c-.176-.133-.423-.2-.74-.2-.436 0-.875.385-1.319 1.155-.443.77-.87 1.753-1.28 2.95a48.51 48.51 0 00-1.155 3.954c-.36 1.44-.69 2.837-.991 4.193.25.034.502.062.753.088.25.024.51.054.778.087a99.927 99.927 0 001.569-2.774 43.959 43.959 0 001.469-2.937 30.4 30.4 0 001.08-2.7c.284-.836.426-1.522.426-2.058zm8.034 31.785a284.23 284.23 0 01-4.293 2.46 59.708 59.708 0 01-3.352 1.757c-.979.47-1.85.82-2.61 1.055-.763.234-1.453.351-2.072.351-1.272 0-2.394-.384-3.364-1.155-.971-.77-1.783-1.878-2.435-3.326-.653-1.448-1.143-3.201-1.47-5.26-.326-2.059-.489-4.377-.489-6.954 0-1.005.042-2.075.125-3.214.084-1.138.201-2.268.352-3.39a15.723 15.723 0 01-1.167-.188 27.019 27.019 0 00-2.059-.364 77.69 77.69 0 00-2.071-.25c-.402-.05-.712-.147-.929-.29a1.353 1.353 0 01-.477-.501 1.567 1.567 0 01-.176-.603 7.116 7.116 0 01-.025-.54c0-.334.163-.59.49-.766.326-.175.744-.305 1.255-.389.51-.083 1.07-.13 1.682-.138a40.55 40.55 0 011.757.013c.56.016 1.063.029 1.507.037.443.009.749-.003.916-.037a56.74 56.74 0 011.72-6.566c.694-2.117 1.472-4 2.335-5.649.862-1.648 1.803-2.97 2.824-3.967 1.021-.995 2.092-1.493 3.214-1.493.72 0 1.376.2 1.97.602a5.29 5.29 0 011.52 1.607c.418.67.74 1.452.966 2.348.226.895.34 1.829.34 2.8 0 .82-.118 1.685-.352 2.597a19.612 19.612 0 01-.954 2.787 29.559 29.559 0 01-1.419 2.875 64.161 64.161 0 01-1.72 2.887c.151.017.402.03.754.038a116.261 116.261 0 012.711.1c.536.025 1.054.047 1.556.063l1.407.05c.435.017.794.034 1.08.05.334.017.577.184.727.503.15.317.226.72.226 1.205 0 .586-.167 1.063-.502 1.43-.335.369-.703.553-1.105.553h-9.64a93.71 93.71 0 01-2.837 3.716 215.45 215.45 0 00-.176 3.063 3495.125 3495.125 0 00-.1 2.711 76.638 76.638 0 00-.05 2.46c0 .904.083 1.666.25 2.286.167.619.41 1.125.728 1.519.318.393.707.677 1.168.853a4.3 4.3 0 001.544.264c.351 0 .79-.084 1.318-.251a14.506 14.506 0 001.732-.691 27.501 27.501 0 005.988-3.866c.62-.527 1.18-1.067 1.682-1.62v6.428" fill="#EE2A37"/><path d="M59.986 43.715c0-.736.041-1.594.126-2.573a69.42 69.42 0 01.338-3.1 86.955 86.955 0 011.118-6.554c.217-1.02.435-1.958.652-2.811.218-.854.435-1.557.653-2.11.134-.367.268-.66.402-.878.134-.218.289-.39.464-.515.176-.125.393-.209.653-.25.26-.042.581-.064.967-.064.435 0 .773.022 1.016.063.243.042.423.142.54.302.117.158.189.389.214.69.025.301.037.712.037 1.23v2.247c0 .879.017 1.745.05 2.599h.277c.334-.67.71-1.419 1.13-2.248a14.69 14.69 0 011.455-2.322 8.633 8.633 0 011.883-1.82c.704-.494 1.515-.74 2.436-.74.318 0 .628.054.929.163.302.109.565.263.79.464.227.2.406.448.54.74.135.294.201.624.201.992 0 .285-.042.682-.125 1.193-.084.51-.176 1.046-.276 1.607-.1.56-.193 1.104-.277 1.632a8.664 8.664 0 00-.125 1.318c0 .602.058 1.104.176 1.506.117.401.272.724.464.967.192.242.41.414.653.514.243.1.498.151.766.151.753 0 1.531-.167 2.335-.502.803-.335 1.54-.711 2.209-1.13a20.954 20.954 0 002.31-1.657l-.377 5.875c-.436.284-.929.603-1.481.954-.553.351-1.142.682-1.77.991-.627.31-1.28.57-1.958.779a6.976 6.976 0 01-2.072.314c-1.255 0-2.268-.255-3.037-.766a5.572 5.572 0 01-1.834-2.008 10.19 10.19 0 01-1.004-2.787 38.389 38.389 0 01-.527-3.126h-.402l-4.494 12.528a16.167 16.167 0 01-.665 1.62c-.21.426-.423.774-.64 1.041-.218.268-.452.457-.703.565a2.04 2.04 0 01-.828.163c-.687 0-1.24-.146-1.658-.439a2.857 2.857 0 01-.966-1.18 5.634 5.634 0 01-.452-1.682 16.353 16.353 0 01-.113-1.946" fill="#EE2A37"/><path d="M85.72 17.805c0-.384.083-.82.25-1.305a4.06 4.06 0 01.817-1.368c.376-.428.879-.787 1.506-1.08.628-.293 1.41-.44 2.347-.44.586 0 1.138.068 1.658.202.518.134.97.338 1.355.615.385.275.69.64.917 1.092.226.452.339.988.339 1.606a5.07 5.07 0 01-.277 1.658 3.856 3.856 0 01-.878 1.43c-.402.42-.908.758-1.52 1.017-.61.26-1.342.39-2.196.39-1.473 0-2.561-.348-3.264-1.042-.703-.695-1.054-1.62-1.054-2.775zm11.222 25.81c-.602.552-1.352 1.142-2.247 1.77a23.963 23.963 0 01-2.9 1.732 22.162 22.162 0 01-3.176 1.318c-1.08.352-2.104.527-3.075.527-.87 0-1.603-.12-2.197-.364-.594-.242-1.076-.58-1.444-1.016-.368-.435-.631-.967-.79-1.595a8.455 8.455 0 01-.239-2.07c0-1.056.122-2.282.364-3.68a75.83 75.83 0 01.891-4.343c.352-1.497.724-2.991 1.118-4.48.393-1.49.74-2.863 1.041-4.118.117-.435.352-.808.704-1.118.35-.31.749-.56 1.192-.753a6.593 6.593 0 011.38-.426 6.862 6.862 0 011.294-.139c.703 0 1.18.13 1.431.39.25.259.377.607.377 1.041 0 .369-.084.9-.251 1.595a59.71 59.71 0 01-.628 2.36c-.251.878-.52 1.824-.803 2.837a100.683 100.683 0 00-.804 3.038c-.251 1.012-.46 2-.628 2.962a15.25 15.25 0 00-.25 2.599c0 .753.082 1.351.25 1.795.168.443.51.665 1.03.665.602 0 1.272-.21 2.008-.628a17.881 17.881 0 002.235-1.519 51.73 51.73 0 002.21-1.845 66.922 66.922 0 011.907-1.632v5.097" fill="#EE2A37"/><path d="M118.007 11.78c.1-1.171.15-2.1.15-2.787 0-.904-.079-1.531-.238-1.883-.159-.351-.389-.527-.691-.527-.535 0-1.021.339-1.456 1.017-.435.677-.82 1.543-1.155 2.598a32.071 32.071 0 00-.878 3.49 67.857 67.857 0 00-.628 3.69 93.083 93.083 0 00-.402 3.215c-.1.953-.167 1.631-.201 2.033a90.128 90.128 0 00-.25 4.456 61.893 61.893 0 00-.026 1.645v1.33a123.457 123.457 0 002.637-6.502c.334-.92.673-1.887 1.017-2.9.342-1.013.656-2.03.941-3.05.284-1.02.531-2.025.741-3.013.208-.987.355-1.925.439-2.812zm-11.8 18.202a10.547 10.547 0 00-2.95 2.121 13.652 13.652 0 00-2.159 2.85 14.462 14.462 0 00-1.319 3.088c-.3 1.038-.451 1.975-.451 2.812 0 .335.037.67.112 1.004.076.335.214.637.415.904.201.268.485.486.853.653.369.167.845.25 1.432.25.3 0 .598-.075.891-.225.292-.15.573-.348.841-.59a6.71 6.71 0 00.766-.829 9.46 9.46 0 00.665-.966c.468-.77.895-1.64 1.281-2.611-.051-.235-.093-.607-.127-1.117-.033-.51-.058-1.08-.074-1.708l-.051-1.946c-.017-.668-.029-1.28-.037-1.832a47.94 47.94 0 00-.038-1.356c-.017-.352-.034-.518-.05-.502zm17.273 14.06a42.102 42.102 0 01-3.515 2.46c-.486.3-.996.598-1.531.891-.536.293-1.064.553-1.583.779a12.36 12.36 0 01-1.518.552 4.97 4.97 0 01-1.369.213c-.234 0-.582-.05-1.041-.15-.461-.101-.963-.305-1.507-.615-.544-.31-1.088-.757-1.631-1.344-.545-.586-1.018-1.364-1.419-2.334a24.17 24.17 0 01-1.971 1.72 15.298 15.298 0 01-2.159 1.418c-.745.401-1.498.724-2.26.967a7.52 7.52 0 01-2.297.363c-1.088 0-2.03-.234-2.824-.702a6.132 6.132 0 01-1.984-1.87 8.546 8.546 0 01-1.18-2.65 11.973 11.973 0 01-.389-3.063c0-1.07.138-2.154.414-3.251a15.011 15.011 0 011.206-3.189c.527-1.03 1.167-2 1.92-2.912a14.742 14.742 0 012.56-2.435 14.6 14.6 0 013.114-1.77 12.14 12.14 0 013.59-.879 47.24 47.24 0 01.578-6.352 48.757 48.757 0 011.33-5.975 37.443 37.443 0 011.946-5.247c.745-1.607 1.561-2.996 2.448-4.168.887-1.171 1.833-2.088 2.837-2.749 1.004-.661 2.042-.992 3.113-.992.787 0 1.456.205 2.009.615.552.411.999.954 1.343 1.632.343.678.59 1.465.741 2.36.15.896.225 1.82.225 2.774 0 .587-.024 1.19-.075 1.808-.218 2.36-.619 4.59-1.205 6.691a62.1 62.1 0 01-2.059 6.138 101.962 101.962 0 01-2.561 5.926 138.674 138.674 0 00-2.686 6.1 8.935 8.935 0 00-.251.854 19.647 19.647 0 00-.427 2.298 10.282 10.282 0 00.013 2.573c.058.435.154.824.288 1.167.135.343.314.616.54.816.226.201.506.301.842.301.317 0 .665-.063 1.041-.188a8.257 8.257 0 001.193-.514c.418-.218.841-.465 1.268-.741.427-.276.841-.557 1.243-.841a48.82 48.82 0 002.887-2.285l.753 5.8" fill="#EE2A37"/><path d="M127.22 37.162c.603 0 1.26-.154 1.972-.464a8.853 8.853 0 001.983-1.193 8.344 8.344 0 001.544-1.581c.418-.57.628-1.121.628-1.657 0-.753-.139-1.373-.415-1.858-.276-.485-.615-.728-1.017-.728-.72 0-1.335.134-1.845.402a4.007 4.007 0 00-1.28 1.041c-.344.427-.62.913-.829 1.457a9.945 9.945 0 00-.477 1.644 12.55 12.55 0 00-.214 1.607c-.033.519-.05.962-.05 1.33zm3.339 11.8c-1.573 0-2.95-.284-4.13-.853-1.179-.569-2.163-1.335-2.95-2.297a9.835 9.835 0 01-1.77-3.34 13.32 13.32 0 01-.589-3.98c0-.936.091-1.928.276-2.974.184-1.046.464-2.071.841-3.075a16.064 16.064 0 011.418-2.875 11.417 11.417 0 011.997-2.41 9.221 9.221 0 012.56-1.658c.946-.41 1.996-.614 3.151-.614.937 0 1.808.15 2.611.451a6.392 6.392 0 012.096 1.268 5.734 5.734 0 011.394 1.97c.334.771.502 1.633.502 2.587 0 1.038-.255 2.076-.766 3.113-.511 1.038-1.218 2.018-2.121 2.938-.904.92-1.98 1.74-3.226 2.46a17.262 17.262 0 01-4.055 1.682c.251.452.498.828.741 1.13.242.301.489.536.741.703.25.168.514.284.79.351s.573.101.891.101c1.004 0 2.063-.2 3.176-.602a20.704 20.704 0 003.251-1.507 27.44 27.44 0 002.988-1.97 25.773 25.773 0 002.385-2.022L146 40.903a33.155 33.155 0 01-4.695 4.042c-.72.503-1.494.996-2.322 1.482-.829.485-1.7.916-2.611 1.293a18.07 18.07 0 01-2.837.903c-.979.227-1.971.34-2.976.34" fill="#EE2A37"/><path d="M43.65 64.255v3.848c-.528.403-1.68 1.139-3.723 1.139-3.041 0-5.222-2.18-5.222-5s2.18-5.015 5.264-5.015c1.958 0 2.986.695 3.347.931l-.847 1.528c-.25-.167-1.07-.666-2.416-.666-1.931 0-3.362 1.278-3.362 3.221 0 1.945 1.5 3.278 3.348 3.278.736 0 1.347-.152 1.805-.375v-2.889h1.806zm12.06.542v-1.222c0-1.514-.723-2.625-2.251-2.625-1.542 0-2.236 1.111-2.236 2.625v1.222h4.486zm1.902-1.083v5.403h-1.903v-2.68h-4.486v2.68h-1.917v-5.403c0-2.986 1.653-4.486 4.153-4.486 2.514 0 4.153 1.5 4.153 4.486m14.587 5.403l-.084-5.861-2.694 4.722h-1.195l-2.638-4.722-.098 5.86h-1.875l.306-9.763h1.208l3.695 6.417 3.778-6.417h1.194l.291 9.764H72.2zm8.018-9.764h1.916v9.764h-1.916v-9.764zm16.96 0v9.875h-1.083l-5.82-6.528v6.416H88.4v-9.86h1.084l5.805 6.513v-6.416h1.89m14.6 4.902v3.848c-.528.403-1.681 1.139-3.723 1.139-3.041 0-5.222-2.18-5.222-5s2.181-5.015 5.264-5.015c1.959 0 2.986.695 3.347.931l-.847 1.528c-.25-.167-1.069-.666-2.417-.666-1.93 0-3.361 1.278-3.361 3.221 0 1.945 1.5 3.278 3.347 3.278.737 0 1.348-.152 1.806-.375v-2.889h1.806z" fill="#212223"/></svg>