<svg width="177" height="100" fill="none" xmlns="http://www.w3.org/2000/svg"><path d="M85.943 95.125h-.826l.004-6.19c0-1.529-.789-2.284-1.67-2.285-1.397-.001-3.254 1.545-3.255 3.811l-.003 4.66h-.827l.006-9.026h.735l.108 2.23c.405-1.161 1.729-2.413 3.143-2.412 1.25 0 2.389.96 2.516 2.286.442-1.16 1.783-2.283 3.235-2.282 1.25 0 2.663 1.051 2.662 2.617l-.022 6.594h-.827l.004-6.189c0-1.529-.807-2.285-1.725-2.285-1.397-.001-3.254 1.36-3.255 3.626l-.003 4.845m11.803-5.224l5.934.003c.001-2.173-1.431-3.242-2.864-3.243-1.488-.002-3.014 1.232-3.07 3.24zm-.92.718c.003-3.114 1.786-4.696 3.99-4.695 2.315.001 3.784 1.642 3.782 4.294v.442l-6.853-.004c-.001 2.303 1.247 3.924 3.268 3.926 1.029 0 2.003-.386 2.665-1.362l.624.48c-.791 1.086-1.801 1.62-3.289 1.619-2.885-.002-4.188-2.306-4.186-4.7m12.845.008c-.001 2.321 1.302 3.961 3.01 3.963 1.69 0 2.959-1.638 2.961-3.96.001-2.265-1.265-3.96-2.955-3.961-1.709-.001-3.015 1.692-3.016 3.958zm5.957-8.01l.827.001-.007 12.526h-.735l-.092-1.474c-.477.81-1.562 1.657-2.848 1.657-2.315-.002-4.022-2.066-4.021-4.627.002-2.652 1.675-4.77 3.971-4.768 1.195 0 2.334.793 2.902 1.77l.003-5.084zm6.665 12.531l.006-9.026h.827l-.006 9.026h-.827zm.468-12.71c.331 0 .642.314.642.645a.64.64 0 01-.643.645c-.386 0-.679-.259-.679-.646 0-.331.294-.644.68-.644zm6.389 8.202c-.001 2.32 1.302 3.96 3.01 3.962 1.69 0 2.959-1.638 2.961-3.959.001-2.265-1.265-3.961-2.955-3.962-1.709-.001-3.015 1.693-3.016 3.958zm6.047-4.51h.735l-.006 9.027h-.735l-.091-1.474c-.477.81-1.562 1.656-2.848 1.656-2.315-.002-4.022-2.066-4.021-4.627.002-2.652 1.675-4.77 3.971-4.768 1.194 0 2.334.794 2.902 1.77l.093-1.584m-20.546-67.35c.631-.634 1.235-1.3 1.808-1.998.573-.697 1.08-1.37 1.523-2.02a13.95 13.95 0 001.053-1.787c.261-.544.38-.988.357-1.338-.026-.428-.188-.635-.482-.615-.242.016-.563.246-.965.69-.402.444-.809 1.017-1.219 1.715-.413.703-.769 1.504-1.137 2.38-.688 1.634-.941 2.892-.938 2.973zM84.208 30.437c.222.095.479.005.77-.272.29-.275.594-.685.909-1.232.314-.545.62-1.212.92-2a30.73 30.73 0 00.839-2.584c.263-.932.461-1.829.593-2.686.132-.858.21-1.631.232-2.32.023-.69-.02-1.253-.128-1.69-.109-.44-.275-.703-.496-.796-.22-.093-.479-.004-.768.272-.292.275-.594.691-.908 1.252-.313.559-.62 1.233-.919 2.02a32.103 32.103 0 00-.84 2.583c-.262.933-.46 1.829-.591 2.687a16.524 16.524 0 00-.214 2.298c-.012.676.031 1.23.127 1.672.095.438.254.702.475.797zm-23.455-7.16c.07.802.27 1.509.603 2.117a3.33 3.33 0 001.424 1.393c.215-1.45.259-2.66.129-3.628-.131-.97-.389-1.53-.774-1.683-.454-.21-.808-.108-1.07.3-.258.415-.361.914-.312 1.5zm48.901 1.06c-.52.937-.983 1.543-1.756 2.465a13.784 13.784 0 01-2.665 2.438 6.459 6.459 0 01-3.352 1.175 6.119 6.119 0 01-2.175-.242 5.266 5.266 0 01-1.88-1.011c-.553-.463-1.016-1.067-1.387-1.81a6.571 6.571 0 01-.451-1.267l-.128.24a28.699 28.699 0 01-1.751 2.841 16.42 16.42 0 01-2.212 2.59c-.799.754-1.614 1.157-2.442 1.211-.698.045-1.222-.183-1.577-.685-.355-.503-.563-1.198-.62-2.083l-.028-.443c-.215.418-.464.838-.745 1.26a5.905 5.905 0 01-.977 1.136c-.367.335-.78.617-1.234.85-.456.23-.95.365-1.485.4-.7.044-1.314-.15-1.853-.587-.541-.438-.957-1.077-1.256-1.921a8.588 8.588 0 01-.358-1.56c-.208.39-.44.81-.699 1.257a25.421 25.421 0 01-1.245 1.943 15.427 15.427 0 01-1.514 1.836 9.253 9.253 0 01-1.704 1.407 3.913 3.913 0 01-1.855.625c-.802.053-1.416-.172-1.838-.67-.422-.497-.662-1.189-.72-2.076a11.77 11.77 0 01.07-2.026c.087-.76.21-1.543.375-2.349a111.75 111.75 0 01.655-3.032 20.02 20.02 0 01-1.643 1.077c-.591.347-1.201.64-1.832.881a4.008 4.008 0 00-.117.524 7.66 7.66 0 01-.114.57c-.462 1.846-1.014 3.45-1.655 4.812-.643 1.362-1.344 2.497-2.103 3.404-.76.905-1.545 1.597-2.357 2.072-.812.475-1.604.745-2.374.812-1.323.116-2.411-.169-3.263-.859-.85-.688-1.488-1.597-1.912-2.727-.423-1.131-.672-2.408-.75-3.833a18.49 18.49 0 01.225-4.127c.328-1.925.671-3.705 1.026-5.338a103.54 103.54 0 012.42-9.15c.461-1.471.951-3.007 1.464-4.609.22-.672.616-1.112 1.19-1.317a3 3 0 011.687-.124c.554.124 1.01.38 1.37.77.36.387.45.823.275 1.305-.257.613-.563 1.473-.917 2.577a157.97 157.97 0 00-1.142 3.74 119.66 119.66 0 00-1.199 4.422 134.954 134.954 0 00-1.088 4.646 65.477 65.477 0 00-.805 4.41c-.205 1.402-.315 2.634-.332 3.692-.017 1.061.086 1.891.31 2.493.221.604.595.881 1.117.837.494-.042 1.082-.693 1.765-1.95.682-1.256 1.347-2.988 1.994-5.191l.212-.765a6.8 6.8 0 00.167-.762c-1.022-.345-1.803-.931-2.339-1.756a5.627 5.627 0 01-.925-2.627 5.629 5.629 0 01.198-2.001 6.62 6.62 0 01.88-1.92 5.523 5.523 0 011.5-1.506c.6-.412 1.301-.65 2.103-.72 1.384-.122 2.446.556 3.179 2.033.733 1.476.937 3.582.615 6.318a11.666 11.666 0 002.636-1.561c.422-.336.79-.641 1.1-.916.277-1.158.61-2.518.942-3.844.396-1.576.783-3.07 1.162-4.484.38-1.413.715-2.661 1.008-3.745.292-1.083.507-1.819.643-2.206.206-.578.549-.958 1.037-1.139a2.35 2.35 0 011.425-.092c.465.118.856.348 1.175.692.317.343.423.736.318 1.171-.087.357-.26.99-.524 1.894-.264.907-.581 2.027-.952 3.359a223.033 223.033 0 00-1.2 4.506 152.078 152.078 0 00-1.268 5.34c-.165.793-.323 1.571-.474 2.336a14.255 14.255 0 00-.274 2.018c-.029.583.015 1.052.133 1.408.116.356.362.521.737.498.375-.024.746-.203 1.114-.537a8.26 8.26 0 001.072-1.202 12.9 12.9 0 00.934-1.457c.277-.503.51-.936.703-1.3a.769.769 0 01.098-.144c.052-.997.22-2.175.473-3.344.707-3.172 1.725-5.523 3.052-7.053 1.325-1.528 2.685-2.337 4.077-2.428.563-.037 1.032.055 1.41.272.376.218.672.517.885.894.212.377.353.8.425 1.266.069.467.08.932.028 1.392.158-.468.306-.882.445-1.24.137-.36.265-.665.384-.916.259-.556.632-.91 1.12-1.063a2.7 2.7 0 011.426-.073c.465.106.843.323 1.133.654.29.332.368.704.234 1.119-.045.162-.172.569-.386 1.217a95.062 95.062 0 00-1.507 5.071 24.77 24.77 0 00-.571 2.687c-.123.817-.147 1.487-.072 2.006.073.52.298.77.673.745.267-.018.559-.192.874-.521a12.3 12.3 0 00.971-1.177c.334-.453.646-.931.937-1.436.193-.336.364-.64.513-.913a15.67 15.67 0 01.502-4.415c.42-1.59 1.02-2.998 1.803-4.221.78-1.225 1.691-2.213 2.731-2.968 1.04-.756 2.122-1.17 3.248-1.243a4.066 4.066 0 011.567.222 4.185 4.185 0 011.444.835c.428.377.787.846 1.079 1.406.292.563.462 1.19.506 1.889a6.738 6.738 0 01-.47 3.022 7.934 7.934 0 01-1.593 2.49c-.276.315-.647.494-1.114.537-.468.044-.919-.162-1.351-.62a2.29 2.29 0 01-.594-1.377c-.049-.534.062-1 .333-1.395.342-.535.648-1.08.923-1.638.273-.556.392-1.117.354-1.68a1.07 1.07 0 00-.265-.672c-.159-.177-.347-.26-.56-.245-.375.023-.81.35-1.307.978-.498.627-.97 1.434-1.417 2.423-.446.99-.807 2.087-1.076 3.296a12.58 12.58 0 00-.293 3.587c.064.998.331 1.797.8 2.402.47.606 1.092.881 1.87.832.829-.055 1.644-.342 2.445-.868a11.729 11.729 0 002.16-1.817 15.429 15.429 0 001.657-2.11c.463-.718.757-1.212.945-1.63.049-.306.113-.705.168-1.035.223-1.338.491-2.814.802-4.428a136.92 136.92 0 012.306-9.89 71.955 71.955 0 011.381-4.519c.203-.579.549-.95 1.035-1.118.486-.167.964-.19 1.428-.073.464.118.856.35 1.175.693.318.343.409.72.273 1.133a103.174 103.174 0 00-1.494 5.255c-.485 1.88-.932 3.764-1.348 5.656.712-1.453 1.49-2.522 2.333-3.213.844-.688 1.733-1.064 2.67-1.126a2.512 2.512 0 011.855.63c.54.465.834 1.047.879 1.746.041.619-.094 1.262-.398 1.93a10.302 10.302 0 01-1.261 2.029 17.762 17.762 0 01-1.846 2.004 42.988 42.988 0 01-2.118 1.86c.29 1.17.645 2.181 1.063 3.032.419.85.901 1.352 1.449 1.505.383.11.772-.003 1.167-.339a6.637 6.637 0 001.145-1.31c.369-.537.709-1.1 1.02-1.689.313-.587.563-1.062.754-1.426.122-.198.277-.296.465-.293.189 0 .344.106.464.314a.64.64 0 01.12.276.405.405 0 01-.042.285 44.558 44.558 0 00-1.001 1.992 32.643 32.643 0 01-1.569 2.857 16.508 16.508 0 01-1.929 2.578c-.692.747-1.36 1.142-2.002 1.183-.482.031-.956-.12-1.421-.455-.465-.334-.905-.791-1.319-1.374a11.451 11.451 0 01-1.141-2.052 18.33 18.33 0 01-.886-2.496c-.026.03-.053.045-.078.046a589.514 589.514 0 00-.536 3.561 54.495 54.495 0 00-.3 2.248c-.05.464-.259.76-.627.893-.368.13-.779.117-1.234-.042-.453-.16-.868-.444-1.244-.85-.375-.41-.585-.935-.626-1.582-.015-.247.006-.7.049-1.194" fill="#000"/><path d="M79.93 71.577c.363.155.786.005 1.266-.448.479-.454.978-1.13 1.497-2.03.516-.898 1.022-1.997 1.512-3.295a50.813 50.813 0 001.386-4.253c.432-1.536.757-3.012.976-4.425.217-1.412.347-2.686.383-3.82.038-1.136-.033-2.064-.213-2.785-.179-.72-.45-1.158-.815-1.312-.365-.153-.787-.004-1.267.449-.48.453-.978 1.14-1.494 2.061-.516.923-1.02 2.033-1.51 3.329a50.422 50.422 0 00-1.386 4.253 37.493 37.493 0 00-.976 4.425c-.219 1.413-.336 2.676-.352 3.787-.017 1.112.053 2.029.21 2.75.157.723.418 1.162.783 1.314zm-26.457 5.618c.363.156.798.006 1.299-.45.502-.453 1.032-1.144 1.594-2.068.56-.925 1.118-2.036 1.676-3.338a57.982 57.982 0 001.617-4.268c.476-1.54.856-3.02 1.142-4.436.282-1.417.478-2.684.583-3.802.104-1.116.089-2.037-.046-2.762-.136-.723-.386-1.161-.75-1.315-.364-.154-.797-.004-1.298.45-.502.456-1.034 1.134-1.595 2.035-.563.901-1.132 2.006-1.713 3.31a38.066 38.066 0 00-1.583 4.264 45.007 45.007 0 00-1.142 4.437 36.514 36.514 0 00-.582 3.833c-.104 1.14-.089 2.07.047 2.795.136.723.386 1.162.75 1.315zm75.703-25.81c-.076.284-.108.497-.098.636a48.878 48.878 0 003.135-3.468 48.144 48.144 0 002.644-3.508c.768-1.126 1.377-2.16 1.832-3.1.452-.943.658-1.718.619-2.324-.048-.745-.329-1.102-.839-1.07-.418.029-.977.427-1.673 1.198-.698.772-1.403 1.766-2.118 2.981-.716 1.217-1.325 2.614-1.974 4.13-1.08 2.523-1.528 4.524-1.528 4.524zM42.796 83.3c.377-2.012.846-4.357 1.367-6.798.559-2.633 1.152-5.29 1.774-7.974a196.27 196.27 0 011.986-7.821 117.12 117.12 0 012.055-6.727c.298-.863.802-1.45 1.513-1.764a3.899 3.899 0 012.172-.307 3.962 3.962 0 011.947.838c.56.452.862.988.901 1.606a16.026 16.026 0 012.86-3.015 6.462 6.462 0 013.757-1.477c1.146-.076 2.142.25 2.985.97.845.724 1.478 1.792 1.903 3.207.422 1.417.6 3.137.533 5.161-.07 2.025-.442 4.325-1.116 6.898-.638 2.44-1.399 4.565-2.278 6.377-.877 1.81-1.806 3.368-2.785 4.675 1.124-.429 2.222-1.088 3.293-1.978a23.091 23.091 0 002.933-2.922 31.772 31.772 0 003.11-4.438l.016-.024c-.007-.198-.012-.4-.014-.605-.02-2.04.242-4.322.786-6.844 1.167-5.226 2.843-9.097 5.028-11.616 2.182-2.516 4.42-3.85 6.714-3.999.927-.06 1.7.089 2.322.448.621.36 1.106.85 1.457 1.471.35.621.583 1.316.698 2.084.117.77.134 1.537.05 2.296.26-.77.503-1.454.73-2.046.228-.59.438-1.094.633-1.506.428-.915 1.044-1.5 1.848-1.752.802-.253 1.585-.292 2.349-.12.763.173 1.385.532 1.863 1.078.477.545.607 1.159.385 1.84-.07.27-.283.94-.635 2.005a158.547 158.547 0 00-2.48 8.355 40.664 40.664 0 00-.943 4.422c-.202 1.345-.24 2.447-.118 3.305.121.857.49 1.266 1.109 1.227.44-.029.92-.316 1.438-.859a19.699 19.699 0 001.602-1.938 25.054 25.054 0 001.541-2.363c.478-.83.815-1.42 1.132-2.018.826-1.607 1.643-3.504 2.454-5.688.811-2.183 1.51-4.56 2.098-7.13a6.808 6.808 0 01-1.665-2.622c-.354-.996-.554-1.872-.602-2.624a10.92 10.92 0 01.363-3.621c.323-1.175.764-2.223 1.325-3.149.558-.925 1.164-1.674 1.814-2.248.648-.576 1.281-.883 1.899-.924.616-.04 1.157.27 1.62.928.463.659.729 1.495.794 2.512a15.1 15.1 0 01-.001 2.03 16.64 16.64 0 01-.297 2.084 29.042 29.042 0 01-.636 2.472c-.275.908-.616 1.973-1.023 3.197.698-.133 1.469-.394 2.308-.782a21.702 21.702 0 002.722-1.542 3.194 3.194 0 011.889-.59c.707-.002 1.336.124 1.883.377.548.254.98.614 1.3 1.081.317.468.385.996.203 1.584-.073.272-.284.941-.635 2.008a153.583 153.583 0 00-2.481 8.353 39.84 39.84 0 00-.944 4.424c-.2 1.345-.24 2.445-.117 3.303.122.859.491 1.268 1.108 1.227.44-.029.92-.314 1.439-.86a20.106 20.106 0 001.602-1.935 25.253 25.253 0 001.541-2.365c.478-.83.873-1.544 1.19-2.143.134-.217.356-.38.54-.451.146-.997.316-2.078.51-3.244.386-2.322.85-4.886 1.392-7.69a231.944 231.944 0 011.829-8.558 231.986 231.986 0 012.172-8.61c.773-2.835 2.671-10.953 3.496-13.348.355-1.007.955-1.654 1.8-1.943.845-.288 1.67-.33 2.478-.126a4.09 4.09 0 012.039 1.202c.551.596.712 1.252.478 1.97-.892 2.821-2.854 11.364-3.694 14.625a279.973 279.973 0 00-2.341 9.818c1.238-2.519 2.588-4.377 4.051-5.575 1.462-1.197 3.007-1.85 4.635-1.953 1.21-.08 2.282.284 3.223 1.091.937.807 1.447 1.818 1.525 3.032.071 1.076-.162 2.192-.692 3.352-.533 1.16-1.263 2.333-2.189 3.52a31.001 31.001 0 01-3.206 3.48 75.441 75.441 0 01-3.677 3.23c.504 2.032 1.121 3.786 1.846 5.261.725 1.477 1.564 2.35 2.515 2.615.666.192 1.343-.003 2.026-.588.686-.585 1.35-1.342 1.99-2.274.64-.934 1.229-1.91 1.771-2.93l1.311-2.479c.21-.342.479-.512.807-.51.325.002.594.184.805.546.102.134.17.295.208.48a.71.71 0 01-.074.496c-.377.681-.956 1.833-1.737 3.454a56.525 56.525 0 01-2.726 4.965c-1.035 1.685-2.153 3.176-3.351 4.474-1.201 1.297-2.359 1.981-3.474 2.054-.836.056-1.658-.207-2.466-.79-.808-.58-1.571-1.375-2.29-2.384-.722-1.007-1.38-2.196-1.982-3.565a32.044 32.044 0 01-1.54-4.331.203.203 0 01-.135.08c-.361 2.368-.671 4.429-.931 6.18-.26 1.754-.432 3.056-.518 3.904-.088.804-.451 1.319-1.09 1.548-.639.228-1.352.205-2.14-.07-.787-.279-1.508-.769-2.161-1.48-.652-.707-1.015-1.622-1.088-2.742-.025-.388-.008-.952.05-1.692l.013-.024-.131.252a42.75 42.75 0 01-2.853 4.68 26.06 26.06 0 01-3.676 4.268c-1.336 1.244-2.689 1.907-4.055 1.997-1.146.074-2.011-.301-2.596-1.131-.586-.827-.926-1.97-1.019-3.428-.086-1.329-.029-2.84.171-4.54.199-1.702.473-3.452.822-5.25a68.743 68.743 0 011.25-5.31c.486-1.74.951-3.292 1.393-4.652-.384.203-1.04.336-1.967.395a5.055 5.055 0 01-1.467-.105 100.7 100.7 0 01-1.593 4.132 81.887 81.887 0 01-1.563 3.568l-1.343 2.849a63.415 63.415 0 01-.938 1.926c-.313.644-.883 1.602-1.692 3.12a46.726 46.726 0 01-2.885 4.682c-1.114 1.604-2.328 3.03-3.642 4.267-1.315 1.241-2.657 1.904-4.023 1.994-1.147.074-2.013-.302-2.597-1.13-.585-.828-.925-1.972-1.02-3.43l-.047-.73c-.355.69-.763 1.382-1.227 2.079-.464.696-1 1.32-1.606 1.87a9.303 9.303 0 01-2.035 1.396 6.197 6.197 0 01-2.447.658c-1.148.076-2.165-.246-3.052-.967-.89-.717-1.576-1.772-2.065-3.162-.163-.46-.299-.958-.41-1.49l-.216.335c-1.067 1.645-2.412 3.244-4.04 4.791-1.627 1.549-3.512 2.883-5.653 3.998-2.143 1.118-4.54 1.693-7.195 1.733-1.411.092-2.468-.316-3.168-1.225-.702-.91-1.09-1.961-1.166-3.155-.407 1.936-.775 3.78-1.104 5.534-.33 1.752-.625 3.357-.883 4.82a153.15 153.15 0 00-.647 3.87c-.171 1.12-.28 2.016-.324 2.686-.084.76-.43 1.236-1.037 1.432-.607.194-1.285.17-2.03-.07-.747-.238-1.428-.694-2.047-1.362-.619-.673-.964-1.537-1.033-2.597-.02-.31.081-1.184.297-2.617.05-.329.132-.85.19-1.217a23.281 23.281 0 01-4.961 4.233c-2.336 3.122-4.634 5.378-9.649 6.898-8.854 2.684-16.584-.032-20.612-4.017-2.787-2.758-4.936-5.997-5.98-9.84-1.16-4.263-.895-8.594-.273-11.832.969-5.043 3.337-7.471 4.54-8.679 1.205-1.206 2.934-1.843 4.877-1.816.934.014 3.11.73 3.658 1.816.57 1.127-.261 2.42-1.829 3.86-2.662 2.448-3.963 5.155-4.47 7.413-1.226 5.457.213 8.66 2.26 11.061 2.102 2.468 8.257 5.979 14.99 1.85 5.72-3.507 10.91-10.019 3.885-28.347-.459-1.197-3.368-10.543-3.712-14.682-.195-2.344.199-6.812 2.139-10.035 2.153-3.578 5.898-6.82 11.761-6.437 2.556.166 7.898 1.19 11.011 6.182 1.653 2.65 1.238 7.685.676 9.94-.653 2.62-1.785 5.066-3.759 5.556-1.531.38-2.352-.506-3.426-2.15-.828-1.266-1.067-2.139-.405-3.596 1.692-3.723.855-7.4.255-8.377-3.16-5.143-7.664-1.612-8.318-.982-.654.632-2.42 2.127-2.724 6.73-.54 8.166 2.073 11.453 5.966 22.061 2.265 6.172 3.223 11.864 2.853 15.576-.169 1.7-.634 4.624-1.573 7.416 1.456-1.303 2.662-2.852 3.61-4.295M176.241 3.077l-7.045 21.303-6.203-2.624-9.677 13.292 6.516-20.42 6.512 2.002 9.897-13.553z" fill="#000"/></svg>