<svg width="91" height="100" fill="none" xmlns="http://www.w3.org/2000/svg"><path d="M46.369 54.928S71.235 44.21 71.973 25.707c0 0 .843-15.122-14.013-15.658 0 0-9.711.96-11.81 7.626 0 0-5.891-13.406-20.959-4.474 0 0-13.275 10.72 3.899 31.948 0 0 8.81 7.418 17.05 9.384" fill="#fff"/><path d="M69.292 81.032a4.939 4.939 0 01-4.256-.87 4.916 4.916 0 01-1.91-3.893 5.22 5.22 0 01.154-1.238 4.414 4.414 0 00-.47 1.981 4.467 4.467 0 002.115 3.806 4.497 4.497 0 004.358.214h.009zm-6.666-9.772c-.316.086-.643.13-.97.13-1.021 0-2-.404-2.723-1.123a3.836 3.836 0 01-1.13-2.712c0-.328.044-.654.13-.97a3.387 3.387 0 00-.365 1.542 3.48 3.48 0 001.652 2.975 3.502 3.502 0 003.406.158z" fill="#191B19" opacity=".1"/><path d="M64.837 0C54.363 0 47.781 7.384 46.163 14.836 44.543 7.384 37.961 0 27.485 0 11.542 0 0 11.881 0 29.779c0 7.129 1.497 19.69 11.431 34.309 14.813 21.784 37.95 33.503 37.95 33.503l4.843-10.26s-2.443-.967-4.892-2.131c-2.409-1.158-4.022-2.107-4.022-2.107-.085-.04-15.508-8.68-24.72-19.478-7.727-9.073-14.985-20.27-14.985-34.793C5.605 9.194 19.393 2.365 28.86 2.25c9.653-.125 15.77 6.792 17.288 13.445C47.664 9.042 53.782 2.161 63.442 2.25c12.883.151 23.959 9.846 22.841 24.104C85.05 42.109 68.307 52.245 52.55 57.03c-.453.156-1.098.205-1.133.406-.034.201 1.19.536 1.438.627.13.052 1.255-.262 1.478-.359 18.286-5.4 36.48-16.5 36.48-33.626C90.812 9.244 78.04 0 64.836 0z" fill="#D71345"/><path d="M46.447 91.197a6.79 6.79 0 012.217-3.266 6.818 6.818 0 0110.312 2.114 6.776 6.776 0 01-.79 7.505 6.824 6.824 0 01-9.59.881 6.794 6.794 0 01-2.427-4.6 6.77 6.77 0 01.278-2.635z" fill="#D71345"/><path d="M47.036 91.78a6.78 6.78 0 011.755-2.862 6.804 6.804 0 016.278-1.747 6.807 6.807 0 012.987 1.541 6.811 6.811 0 00-4.895-2.31 6.828 6.828 0 00-5.038 1.981 6.791 6.791 0 00-1.996 5.021 6.78 6.78 0 002.306 4.887 6.795 6.795 0 01-1.397-6.511z" fill="#191B19" opacity=".4"/><path d="M63.46 2.249C53.8 2.16 47.68 9.04 46.164 15.694 44.65 9.041 38.531 2.124 28.877 2.249c-9.467.116-23.254 6.945-23.254 26.57 0 14.524 7.257 25.731 14.985 34.793 9.24 10.832 24.719 19.48 24.719 19.48l4.317-7.778A88.62 88.62 0 0129.304 62.7c-11.083-9.148-19.43-22.16-19.43-34.673 0-12.18 7.048-23.201 20.36-23.527 8.836-.216 14.49 6.189 15.907 12.052h.013c1.428-5.863 7.08-12.255 15.913-12.052 12.536.28 21.981 10.46 19.685 24.142-2.423 14.37-17.749 23.56-30.915 27.71-.316.142-.866.268-.769.307.303.123.72.538 1.34.602.39 0 .776-.078 1.133-.23 15.757-4.78 32.5-14.907 33.734-30.676C87.4 12.097 76.325 2.402 63.459 2.249z" fill="#FD0"/><path d="M45.319 82.218s-15.48-8.656-24.72-19.483c-7.662-8.989-14.857-20.09-14.98-34.427v.514c0 14.523 7.257 25.73 14.985 34.792 9.24 10.832 24.72 19.48 24.72 19.48l4.316-7.777-.39-.175-3.931 7.076zm36.784-58.079C82.32 12.318 73.481 3.87 62.076 3.616c-8.664-.198-14.258 5.94-15.811 11.71-.032.124-.067.243-.095.366-.018-.084-.046-.168-.063-.248C44.59 9.634 38.973 3.4 30.255 3.616c-13.32.33-20.359 11.352-20.359 23.53v.41C10.074 15.569 17.1 4.82 30.255 4.498c8.837-.216 14.492 6.189 15.908 12.052h.013c1.427-5.863 7.08-12.255 15.913-12.052 11.117.255 19.791 8.282 20.014 19.64zm4.18 1.339C85.05 41.237 68.307 51.368 52.55 56.153l-1.5.56s.762.31 1.12.447c15.756-4.78 32.879-15.035 34.113-30.805a23.87 23.87 0 00.07-2.409 21.317 21.317 0 01-.07 1.532z" fill="#221E20" opacity=".3"/><path d="M62.076 4.5c-8.833-.203-14.486 6.189-15.913 12.052h-.013C44.734 10.689 39.078 4.275 30.242 4.5c-13.32.326-20.36 11.348-20.36 23.527 0 12.514 8.348 25.525 19.422 34.682 18.115 14.988 36.48 17.868 36.48 17.868l3.554-7.168s-3.362-.665-5.051-1.08c-1.69-.415-4.865-1.382-4.865-1.382s-6.948-1.625-19.787-8.79c-14.877-8.298-25.319-21.508-25.319-35.068 0-10.29 5.865-19.986 17.308-20.342C39.637 6.5 44.82 12.335 46.15 17.412h.013c1.339-5.077 6.52-10.953 14.533-10.665C72.898 7.179 80.804 17.8 77.23 30.926c-3.541 13.009-17.528 21.246-28.007 24.748-.285.134-.6.185-.52.216.276.112.65.628 1.133.704.297.047.789-.205 1.01-.253 13.166-4.15 28.491-13.34 30.915-27.71C84.057 14.96 74.611 4.782 62.076 4.5z" fill="#7AB431"/><path d="M65.783 79.689s-18.364-2.871-36.488-17.86c-10.955-9.057-19.233-21.88-19.41-34.27v.468c0 12.514 8.347 25.525 19.421 34.682 18.113 14.988 36.477 17.868 36.477 17.868l3.554-7.168s-.145-.035-.4-.084l-3.154 6.364zM60.696 5.87c-7.85-.288-12.985 5.363-14.444 10.351a9.63 9.63 0 00-.09.33h-.012a1.941 1.941 0 00-.048-.2c-1.405-5.031-6.56-10.734-14.48-10.482-11.443.346-17.308 10.048-17.308 20.337 0 .13.01.25.01.378.187-10.104 6.05-19.488 17.297-19.838 8.014-.246 13.197 5.589 14.527 10.665h.013C47.499 12.335 52.68 6.46 60.694 6.747c10.051.363 17.186 7.633 17.39 17.514.21-10.329-7.044-18.017-17.388-18.39zm21.065 21.891c-2.424 14.364-17.75 23.56-30.915 27.716-.63.197-1.486.52-1.486.52s.717.318 1.141.487c13.162-4.159 28.836-13.471 31.26-27.841.252-1.488.366-2.996.342-4.504a25.087 25.087 0 01-.342 3.622z" fill="#221E20" opacity=".3"/><path d="M60.696 6.746C52.682 6.46 47.5 12.335 46.163 17.412h-.013C44.82 12.335 39.635 6.5 31.62 6.745c-11.44.358-17.306 10.053-17.306 20.345 0 13.56 10.442 26.77 25.312 35.067C52.472 69.322 59.42 70.93 59.42 70.93l2.473-5.4c-5.338-1.35-12.676-3.78-20.044-8.039-12.727-7.373-23.704-18.174-23.704-31.734C18.145 16.7 24.108 9.45 33.003 9c7.193-.37 11.912 4.99 13.147 9.267h.013C47.406 13.99 52.12 8.63 59.323 9c11.862.604 18.333 11.68 13.378 24.205-4.635 11.737-17.424 19.01-25.007 21.818-.325.145-.719.216-.598.275.072.028 1.027.542 1.103.572.299.132.71-.069 1.02-.192 10.483-3.502 24.474-11.739 28.01-24.748C80.805 17.8 72.9 7.185 60.697 6.746z" fill="#39AAE1"/><g style="mix-blend-mode:multiply" opacity=".3" fill="#221E20"><path d="M77.23 30.338c-3.541 13.007-17.528 21.255-28.011 24.748-.34.12-.786.298-1.02.384.448.195.143.085.71.32 10.476-3.502 24.78-11.862 28.32-24.87.593-2.122.884-4.316.867-6.518a23.458 23.458 0 01-.866 5.936zM59.323 8.412c-7.202-.372-11.913 4.992-13.16 9.27h-.013c-1.232-4.278-5.954-9.642-13.147-9.27-8.895.456-14.858 7.699-14.858 16.761v.26c.14-8.905 6.065-15.986 14.852-16.434 7.193-.369 11.912 4.99 13.147 9.268h.013c1.243-4.277 5.958-9.637 13.16-9.268 9.024.458 14.926 6.984 15.054 15.6.147-8.905-5.817-15.714-15.048-16.187z" opacity=".3"/><path d="M59.422 70.342s-6.948-1.605-19.787-8.775c-14.784-8.246-25.178-21.35-25.301-34.819 0 .112-.011.216-.011.337 0 13.56 10.441 26.77 25.312 35.067 12.846 7.166 19.794 8.773 19.794 8.773l2.473-5.4a3.916 3.916 0 00-.24-.057l-2.24 4.874z" opacity=".3"/></g><path d="M49.494 56.054C37.868 51 21.338 40.16 21.338 24.918c0-7.014 4.925-13.11 13.05-13.668 6.378-.432 10.625 4.39 11.777 7.874 1.148-3.484 5.402-8.314 11.78-7.874 11.52.791 16.701 12.402 10.238 24.242-5.847 10.715-17.714 16.971-21.83 18.916l-.216.131 1.287.577.275-.097c7.58-2.808 20.359-10.086 25-21.819 4.956-12.529-1.516-23.6-13.378-24.194-7.202-.37-11.912 4.99-13.16 9.267h-.013c-1.232-4.277-5.954-9.637-13.147-9.267-8.895.45-14.857 7.699-14.857 16.757 0 13.564 10.976 24.365 23.705 31.73 14.14 8.174 28.156 9.612 28.156 9.612l2.016-5.141s-10.214-.549-22.527-5.91z" fill="#9D2E88"/><g style="mix-blend-mode:multiply" opacity=".3" fill="#221E20"><path d="M72.701 32.62c-4.632 11.73-17.417 19.01-25 21.818 0 0-.836.354-.899.385.336.168.293.146.624.302.117.058.529-.205.697-.264 7.629-2.91 20.028-10.129 24.578-21.647a22.358 22.358 0 001.677-8.607A22.93 22.93 0 0172.7 32.62zM57.943 10.663c-6.378-.432-10.632 4.383-11.78 7.874-1.152-3.49-5.4-8.315-11.778-7.874-8.124.557-13.05 6.651-13.05 13.668v.332c.114-6.912 5.021-12.864 13.044-13.412 6.378-.432 10.625 4.39 11.778 7.874 1.148-3.485 5.401-8.315 11.78-7.874 7.985.546 12.917 6.29 13.047 13.704.132-7.695-4.843-13.722-13.04-14.292z" opacity=".3"/><path d="M70.018 66.514s-14.026-1.441-28.156-9.62c-12.649-7.312-23.56-18.023-23.699-31.461v.324c0 13.564 10.977 24.365 23.705 31.73 14.141 8.173 28.157 9.612 28.157 9.612l2.016-5.141s-.087 0-.232-.011l-1.791 4.567z" opacity=".3"/></g><path d="M74.505 64.459a3.435 3.435 0 01-2.131 3.178 3.458 3.458 0 01-3.76-.748 3.439 3.439 0 01-.746-3.75 3.443 3.443 0 013.187-2.123 3.47 3.47 0 012.436 1.013 3.452 3.452 0 011.014 2.43z" fill="#982480"/><path d="M64.837 68.127a3.743 3.743 0 01-2.322 3.464 3.769 3.769 0 01-4.097-.815 3.748 3.748 0 01-.814-4.087 3.767 3.767 0 016.948.002c.189.456.286.944.285 1.436z" fill="#1B8FCE"/><path d="M72.123 77.012c0 .95-.283 1.879-.813 2.668a4.826 4.826 0 01-7.408.724 4.799 4.799 0 01-1.041-5.233 4.805 4.805 0 011.774-2.155 4.824 4.824 0 017.123 2.158c.242.583.366 1.208.365 1.838z" fill="#50AA47"/><path d="M54.222 80.02a5.513 5.513 0 01-.937 3.067 5.551 5.551 0 01-8.52.83 5.519 5.519 0 01-1.196-6.02 5.527 5.527 0 012.04-2.478 5.548 5.548 0 018.194 2.485c.278.67.42 1.39.42 2.115z" fill="#FCC811"/><path d="M43.865 78.848a5.545 5.545 0 016.536-3.753c.903.208 1.74.637 2.433 1.25a5.477 5.477 0 00-2.519-1.601 5.553 5.553 0 00-3.69.143 5.536 5.536 0 00-2.78 2.424 5.514 5.514 0 001.157 6.85 5.532 5.532 0 01-1.137-5.313zm19.255-2.851a4.822 4.822 0 013.315-3.212 4.849 4.849 0 014.505 1.032 4.835 4.835 0 00-3.475-1.638 4.849 4.849 0 00-3.576 1.408 4.822 4.822 0 00-1.416 3.564 4.812 4.812 0 001.636 3.469 4.8 4.8 0 01-.99-4.623zm-5.292-8.647a3.753 3.753 0 011.835-2.205 3.768 3.768 0 012.86-.269 3.82 3.82 0 011.385.784 3.753 3.753 0 00-2.698-1.279 3.764 3.764 0 00-2.78 1.09 3.747 3.747 0 00-1.105 2.769 3.736 3.736 0 001.272 2.696 3.725 3.725 0 01-.769-3.586zm10.238-3.6a3.438 3.438 0 012.367-2.304 3.457 3.457 0 013.223.743 3.406 3.406 0 00-1.559-1.013 3.474 3.474 0 00-4.018 1.608 3.448 3.448 0 00.691 4.263 3.453 3.453 0 01-.704-3.296z" fill="#191B19" opacity=".4"/><path d="M48.199 53.492c-.715.37-1.549.808-2.06 1.047 0 0 1.384.627 2.26 1.029 3.077 1.41 5.593 2.279 5.552 2.264.13-.036.257-.078.382-.128.37-.108.742-.216 1.113-.337-1.66-.635-7.247-3.875-7.247-3.875z" fill="#221E20" opacity=".4"/><path d="M43.029 26.845c0-1.026-.88-2.16-2.383-2.16-1.602 0-2.555 1.197-2.555 2.592 0 1.424 1.007 2.556 2.703 2.556 1.098 0 1.572-.309 1.813-.514.24-.206.416-.581.151-.916a.605.605 0 00-.801-.125c-.288.24-.656.364-1.031.35-.65 0-1.209-.506-1.202-.983h2.424c.72.006.881-.34.881-.8zm-1.848-.075h-1.444a.926.926 0 01.59-.858.933.933 0 01.36-.065.896.896 0 01.687.262c.24.259.182.66-.193.66zm2.814-1.43a.624.624 0 00-.035.847c.243.265.665.133.867 0 .265-.178.577-.274.896-.28 1.057 0 1.02 1.107 1.02 1.107a2.355 2.355 0 00-1.236-.3c-1.484 0-2.116.775-2.116 1.546 0 .772.493 1.584 1.812 1.584 1.235 0 1.662-.815 1.662-.815h.028a1.256 1.256 0 001.156.815.704.704 0 00.637-.305.73.73 0 00-.182-1.035.557.557 0 01-.231-.553v-.948c0-.886-.25-2.298-2.257-2.298-1.282-.007-1.833.408-2.021.635zm1.772 3.428a.636.636 0 01-.702-.598c0-.316.353-.575.866-.575a1.6 1.6 0 01.806.192s-.018.955-.97.981zm6.114-2.658h.407v1.582c0 1.422.45 2.16 1.805 2.16a1.998 1.998 0 001.485-.6.675.675 0 00.057-.925c-.239-.283-.65-.233-.956-.037-.348.216-.72.147-.72-.533v-1.64h.79a.65.65 0 00.65-.648.632.632 0 00-.603-.626h-.838v-.648a.84.84 0 00-.841-.798.844.844 0 00-.842.876v.57h-.407a.638.638 0 00-.637.635.634.634 0 00.637.635l.013-.002zm-18.888 3.727a.93.93 0 00.929-.896v-1.184h1.77v1.155a.925.925 0 00.928.882.93.93 0 00.928-.882v-5.078a.916.916 0 00-.568-.858.925.925 0 00-1.014.201.932.932 0 00-.275.657v2.462h-1.769v-2.465a.92.92 0 00-.568-.855.928.928 0 00-1.015.201.936.936 0 00-.277.657v5.113a.919.919 0 00.93.89zm17.103-.007a.837.837 0 00.836-.833.59.59 0 000-.108v-5.057a.83.83 0 00-.834-.832.835.835 0 00-.833.832v5.197a.83.83 0 00.831.802zm6.953.026a.827.827 0 00.832-.827v-2.3c0-.608.407-.705.671-.705.264 0 .615.128.615.683v2.324a.827.827 0 00.83.872.834.834 0 00.831-.872v-2.676c0-1.048-.606-1.65-1.579-1.65-.972 0-1.327.647-1.327.647h-.048v-1.538a.834.834 0 00-1.165-.808.835.835 0 00-.505.808v5.209a.831.831 0 00.522.773.837.837 0 00.323.06zM35.425 36.11h-.479a.548.548 0 01-.407-.183.648.648 0 01-.176-.467.763.763 0 01.172-.529.622.622 0 01.487-.19h1.269a.852.852 0 01.676.28c.17.199.258.453.249.714v1.883c0 .576-.229.864-.687.864a.62.62 0 01-.47-.188.647.647 0 01-.18-.462v-.181h-.017c-.17.274-.423.486-.723.607a2.526 2.526 0 01-1.042.216 3.06 3.06 0 01-2.012-.724 2.543 2.543 0 01-.724-1.08 4.568 4.568 0 01-.268-1.648 4.13 4.13 0 01.282-1.577c.157-.416.415-.787.749-1.08a3.38 3.38 0 01.994-.59 3.08 3.08 0 011.083-.197c.344-.003.687.035 1.022.115.257.057.504.155.73.29.17.107.323.24.453.395.106.122.192.262.253.412.044.116.068.238.07.361a.937.937 0 01-.258.635.867.867 0 01-.687.287.586.586 0 01-.312-.086 1.108 1.108 0 01-.249-.216c-.071-.084-.145-.166-.216-.253a.971.971 0 00-.728-.302 1.036 1.036 0 00-.866.451c-.217.303-.334.763-.334 1.385-.03.47.068.938.284 1.357.186.31.517.463.992.462.565.026.929-.238 1.07-.76zm7.11-1.27v2.1c0 .115 0 .268.024.46.024.193.026.322.026.39a.567.567 0 01-.24.496.988.988 0 01-.583.17c-.524 0-.82-.252-.89-.758-.315.506-.84.759-1.575.759a1.903 1.903 0 01-1.221-.361 1.357 1.357 0 01-.448-1.121 1.234 1.234 0 01.513-1.037c.342-.258.927-.415 1.754-.471.246-.004.49-.049.721-.132a.337.337 0 00.204-.333c0-.31-.236-.466-.71-.466a1.38 1.38 0 00-.83.324c-.197.18-.447.294-.712.326a.55.55 0 01-.41-.151.602.602 0 01-.145-.432c0-.347.202-.628.607-.84.48-.23 1.01-.34 1.542-.32a5.01 5.01 0 01.773.04c.257.042.51.11.753.202.24.085.453.234.613.432.16.206.244.462.234.723zm-1.715 1.884v-.54a1.06 1.06 0 01-.602.246c-.181.025-.36.065-.535.12a.396.396 0 00-.24.392.409.409 0 00.158.337.58.58 0 00.38.128.883.883 0 00.6-.205.613.613 0 00.239-.478zm8.146.793v-1.8a1.037 1.037 0 00-.143-.622.52.52 0 00-.433-.181.505.505 0 00-.416.237 1.02 1.02 0 00-.176.62v1.746a.931.931 0 01-.24.7 1 1 0 01-1.284 0 .932.932 0 01-.239-.7v-1.8a1.037 1.037 0 00-.142-.622.52.52 0 00-.434-.181.505.505 0 00-.416.237 1.02 1.02 0 00-.175.62v1.746a.931.931 0 01-.24.7 1 1 0 01-1.285 0 .936.936 0 01-.24-.7v-3.189c0-.596.283-.894.849-.894a.696.696 0 01.56.216c.137.196.212.428.217.667h.018a1.513 1.513 0 011.457-.885c.297-.005.59.075.843.23a1.08 1.08 0 01.485.692 1.628 1.628 0 011.49-.922c.578 0 1.007.168 1.289.505.3.38.453.856.433 1.34v2.237a.943.943 0 01-.238.7 1 1 0 01-1.285 0 .934.934 0 01-.255-.697zm7.039-.127c0 .288-.187.537-.56.75-.373.215-.956.31-1.734.31a2.59 2.59 0 01-1.812-.635c-.465-.423-.698-1.05-.698-1.88 0-.829.233-1.453.698-1.872a2.603 2.603 0 011.812-.629c.42-.008.837.07 1.224.231.313.125.59.327.806.586.168.21.305.444.407.693.083.206.128.426.132.648a.773.773 0 01-.193.594.92.92 0 01-.621.173h-2.508c.005.268.103.526.277.73a.866.866 0 00.665.266c.293-.024.575-.124.816-.292.219-.157.474-.258.741-.294a.49.49 0 01.386.193c.104.118.162.27.162.427zm-3.047-1.962h1.652a.887.887 0 00-.231-.68.894.894 0 00-1.166 0 .915.915 0 00-.255.68zm6.439 1.605c0-.216-.19-.352-.574-.432l-.522-.119c-.618-.144-1.051-.334-1.3-.57a1.24 1.24 0 01-.368-.918 1.4 1.4 0 01.526-1.102c.351-.302.93-.451 1.733-.451.342-.003.683.032 1.018.103.286.058.556.177.793.348a.723.723 0 01.322.59.574.574 0 01-.582.583.856.856 0 01-.468-.145 8.337 8.337 0 00-.5-.294c-.197-.1-.415-.15-.635-.144-.331 0-.496.112-.496.337a.26.26 0 00.106.216c.135.076.281.13.433.16l.745.172c1.044.245 1.567.72 1.569 1.426a1.47 1.47 0 01-.574 1.184c-.373.317-.987.475-1.841.475a3.509 3.509 0 01-1.534-.298c-.411-.196-.617-.486-.617-.864a.53.53 0 01.184-.408.633.633 0 01.433-.169.7.7 0 01.418.173c.164.127.336.243.516.348.196.117.42.177.65.173a.65.65 0 00.41-.113.33.33 0 00.155-.261z" fill="#05557E"/></svg>