<svg width="361" height="300" fill="none" xmlns="http://www.w3.org/2000/svg"><path fill="#EFF3FB" d="M0 0h360.416v300H0z"/><mask id="a" maskUnits="userSpaceOnUse" x="0" y="0" width="361" height="300"><path fill="#EFF3FB" d="M0 0h360.416v300H0z"/></mask><g mask="url(#a)"><path d="M44.776 59.96s-11.683 0-9.635-13.198c0 0 7.036 6.612 14.544 3.868 0 0 .55 8.886-4.91 9.33z" fill="#973320"/><path d="M23.616 122.295l-3.701.81s-10.16 43.465-6.327 53.789c3.807 10.323 9.95.104 11.866-.837 1.917-.941 18.875-48.77 18.875-48.77l-20.713-4.992z" fill="#E89776"/><path d="M10.832 171.431l6.668-50.469c3.964-13.277 18.639-8.39 18.639-8.39 11 4.051 9.24 12.676 9.24 12.676l-15.068 51.881s-2.862 7.867-13.31 6.821c.026 0-7.587-1.803-6.17-12.519z" fill="#051E3D"/><path d="M30.835 188.681L20.65 126.712s-3.518-9.304 3.518-13.983l26.75-12.519h18.876l32.158 18.923-21.08 69.522H30.835v.026z" fill="#F5A987"/><path d="M80.846 188.682s5.775 13.12 7.167 43.307c0 0-43.474 13.565-57.099 0l-.078-43.307h50.01z" fill="#09284E"/><path d="M52.336 231.858c-.079 10.141 7.85 18.4 17.694 18.479 9.844.078 17.904-8.077 17.983-18.217.078-10.141-7.85-18.4-17.694-18.479-9.845-.078-17.904 8.076-17.983 18.217z" fill="#09284E"/><path d="M87.987 234.341l4.725 86.276s-8.374 10.925-23.207-1.411l-16.092-79.35c.026 0 7.849-26.659 34.574-5.515z" fill="#09284E"/><path d="M89.036 310.529s8.139 15.42 6.826 40.641l1.313 47.15-13.441.392-14.124-79.271c0 .026 7.482-26.607 19.426-8.912zm-58.043-78.488c-1.024 10.089 2.573 18.688 12.391 19.681 9.792.993 18.587-6.377 19.61-16.44 1.024-10.088-6.064-19.053-15.882-20.046-9.792-.994-15.095 6.717-16.119 16.805z" fill="#09284E"/><path d="M58.794 245.293L48.74 324.146s-17.8 2.352-21.265-9.697c0 0-.21-55.644 3.492-82.407.026 0 24.126-11.683 27.827 13.251z" fill="#09284E"/><path d="M99.117 126.765l3.676.967s5.722 43.7 1.417 53.84c-4.279 10.141-8.322.079-10.186-.941-1.864-1.019-15.83-49.815-15.83-49.815l20.923-4.051z" fill="#F5A987"/><path d="M89.273 180.239l-12.024-51.462c2.468-13.904 15.778-12.937 15.778-12.937 11.682 1.045 12.26 9.827 12.26 9.827l.761 52.351s.761 8.938-6.012 8.468c.026-.026-9.66-1.516-10.763-6.247z" fill="#051E3D"/><path d="M69.872 86.541v20.073H48.556s5.25-7.946 2.625-20.073h18.691z" fill="#F5A987"/><path d="M59.03 103.582c-1.916 1.228-6.011 3.842-8.348 2.326a2.262 2.262 0 01-1.024-1.568c1.366-3.189 3.256-9.514 1.47-17.799H69.82v1.83c-2.284 5.854-5.277 11.682-10.79 15.211z" fill="#E28C72"/><path d="M70.371 86.802s3.623-1.568 7.745-10.507c0 0 8.925-10.585 2.599-22.581 0 0-3.728-10.141-21.842-7.318 0 .026-1.628 27.234 11.498 40.406z" fill="#F5A47F"/><path d="M48.083 92.24l-1.207-3.136-3.334-11.71c-.42-1.463-.447-3.45-.184-4.965.289-1.647.472-3.372.052-5.097-2.1-8.415 2.232-13.198 2.232-13.198 4.778-7.946 16.539-8.207 16.539-8.207 14.57.366 16.118 14.349 16.118 14.349 2.573 9.252-4.699 17.197-4.699 17.223-.577.628-.21 3.686-.367 4.574-.683 3.738-4.2 6.116-7.325 7.763-3.439 1.803-7.613 3.737-11.498 4.181-1.47.157-5.644.027-6.327-1.777z" fill="#F5A987"/><path d="M84.311 186.982c-.053 2.065 3.098 23.654 1.785 23.941 0 0-35.992 8.259-55.182 0l-.079-22.242-10.185-61.969s-3.518-9.304 3.518-13.983l26.75-12.519-1.811 5.41 3.859 10.951 16.801-16.361 32.159 18.923a4560.457 4560.457 0 01-5.382 17.798c-3.307 10.925-6.536 21.903-9.949 32.801 0-.026-2.835 11.814-2.284 17.25z" fill="#fff"/><path d="M55.276 104.104l.237 9.985 3.675-3.581-3.912-6.404z" fill="#B5CDCF"/><path d="M50.577 120.204c0 .784.63 1.411 1.418 1.411.787 0 1.417-.627 1.417-1.411s-.63-1.411-1.417-1.411c-.762-.026-1.418.627-1.418 1.411zm0 25.849c0 .784.63 1.411 1.418 1.411.787 0 1.417-.627 1.417-1.411a1.41 1.41 0 00-1.417-1.412c-.762-.026-1.418.628-1.418 1.412zm0 25.848c0 .784.63 1.438 1.418 1.438.787 0 1.417-.627 1.417-1.438 0-.784-.63-1.411-1.417-1.411-.762-.026-1.418.627-1.418 1.411zm0 25.85c0 .784.63 1.411 1.418 1.411.787 0 1.417-.627 1.417-1.411s-.63-1.411-1.417-1.411c-.762-.027-1.418.627-1.418 1.411z" fill="#DAEDEB"/><path d="M55.276 115.238v98.09" stroke="#DAEDEB" stroke-width="2.948" stroke-miterlimit="10"/><path d="M31.125 212.961s18.376 8.573 55.995-.183c.63-.156.368-1.751.368-1.751l-.368-3.606c-.157-1.15-.814-1.098-.814-1.098s-35.991 8.259-55.181 0c0 0-.762-.131-.814 1.019v4.496s0 .914.814 1.123z" fill="#4E250D"/><path d="M49.79 215.68c0 .575.446 1.045 1.024 1.045h7.324c.551 0 1.024-.47 1.024-1.045v-5.254c0-.575-.447-1.045-1.024-1.045h-7.324c-.552 0-1.024.47-1.024 1.045v5.254zm9.345-2.953h-3.859" stroke="#C6C6C6" stroke-width="4.823" stroke-miterlimit="10"/><path d="M55.276 103.895s11.788-4.574 14.57-9.095l3.492 6.612-12.444 11.866-5.618-9.174" fill="#CDE8EA"/><path d="M45.17 54.707c.524-3.816 13.047-1.778 16.328-1.176 1.97.366 4.28.967 5.356 2.9.393.706 1.969 5.698.026 8.181 1.733 5.358 2.126 9.514 2.126 9.514l.998.052c1.969 5.018 2.336 11.082 2.336 11.082s7.298-3.136 12.365-16.413c5.145-16.91-7.482-24.36-7.482-24.36-11.577-4.992-23.128-3.633-23.128-3.633S42.492 41.927 39.84 35c0 0-7.35 15.89 5.33 19.707z" fill="#973320"/><path d="M71.395 78.857c.525.444 1.181.706 2.048.732 2.31.078 4.358-1.986 4.515-4.626.184-2.614-1.549-4.81-3.885-4.888-1.103-.026-2.127.418-2.94 1.176-1.156 1.098-1.313 3.241-1.103 4.731.184 1.176.604 2.222 1.365 2.875z" fill="#F5A987"/><path d="M73.049 72.48c.21-1.385 2.94.078 2.494.836-.263.444-.761.732-1.181 1.046-.552.418-.814.784-.92 1.463-.025.079-.025.314.027.366.341.261 1.601-1.02 1.864-1.307.525-.522.656-1.49.446-2.195-.236-.758-.709-1.124-1.496-1.098-.63 0-1.287.026-1.26.81 0 0 .026.131.026.079z" fill="#EA8F72"/><path d="M73.889 73.943c-.289-.313-.578-.078-.866.131-.29.183-.447.47-.552.784-.183.706-.13 1.673.237 2.326.315.523.866.863 1.47.863.84 0 1.129-.706 1.207-1.438.027-.183.053-.627-.13-.758-.185-.13-.342.157-.5.288-.183.183-.472.235-.735.235-.472.026-.945-.235-1.234-.627a.396.396 0 01-.105-.21c-.026.471 0 .576.053.314a.902.902 0 01.184-.313c.21-.314.551-.523.787-.81.105-.131.315-.628.184-.785z" fill="#EA8F72"/><path d="M75.097 103.372l-14.282 49.999 2.127 90.876s24.546 1.829 34.259-6.927l-9.162-56.271 13.913-61.943-26.855-15.734zm-31.66.34l-16.277 7.632s-9.267 2.43-7.377 11.996l5.33 52.952-8.873 61.055s7.613 9.095 22.786 3.763l6.668-89.072-2.257-48.326z" fill="#051E3D"/><path d="M45.327 104.392s1.076-4.182 6.405-7.71l-.682 14.401c-.026 0-2.967-7.371-5.723-6.691z" fill="#CDE8EA"/><path d="M44.828 111.083l.473-6.691c1.627-.392 3.071 1.855 4.252 3.711l-4.725 2.98z" fill="#B5CDCF"/><path d="M56.458 107.711l.42-.811 2.966 4.548-2.546.889-.84-4.626zm-6.877.418l-.84-1.28s-3.176 2.639.158 5.488c0 0 0-2.326.682-4.208z" fill="#D42A26"/><path d="M56.458 107.711s-2.52 2.222-6.878.392c-.945 1.202-.945 2.744-.683 4.234l2.258 4.626h3.15l2.993-4.626s.315-1.019-.84-4.626z" fill="#D42A26"/><path d="M54.305 116.964l2.547 66.229-5.303 10.272-4.332-10.22 3.938-66.281h3.15z" fill="#A8241B"/><path d="M71.894 158.938l6.537-5.149s9.844-1.437 14.754-.81c0 0 1.627 2.247-10.79 2.587 0 0 8.716 2.771 11.498 4.835 0 0 .447 2.562-7.508-1.15l-3.623-.261 8.427 4.182s-.315 1.594-8.006-.471l-7.692.837-3.597-4.6z" fill="#F5A987"/><path d="M30.022 159.879l42.134-5.018c2.1 2.562 4.148 7.214 3.23 12.075l-53.817 16.989s-14.23 2.509-10.475-14.532c0 .026 6.012-8.677 18.928-9.514z" fill="#041B39"/><path d="M30.022 159.879s7.56 4.077 10.422 4.391l4.41-7.58-6.011-3.894-4.122-.941s-6.8-1.751-8.584 7.527l3.885.497z" fill="#F5A987"/><path d="M105.366 174.568c2.546 15.342-8.664 11.447-8.664 11.447l-57.098-20.464c1.601-8.808 5.224-10.194 5.224-10.194l48.83 9.279c.025.026 9.214 2.901 11.708 9.932z" fill="#0A2B52"/><path d="M315.251 70.493c-1.313 1.307-1.812 3.293-2.468 5.044-4.935-6.481-8.584-19.236-1.549-25.064 10.58-8.782 10.79 13.303 4.017 20.02z" fill="#432918"/><path d="M337.906 244.927l.814 5.488-3.203 7.266s1.365 1.202 2.862-1.176l2.861-5.985-.393-6.168-2.941.575z" fill="#D0896B"/><path d="M339.377 246.783l1.128 5.436-2.782 7.449s1.417 1.124 2.782-1.333l2.521-6.142-.762-6.142-2.887.732z" fill="#D0896B"/><path d="M345.546 247.985l-.997-6.377-1.103-7.92-4.961-.679-1.707 8.337-.42 4.391-.499 5.985-.262 1.934s1.549.497 2.756-2.561l1.261-5.645 2.152 4.443-1.837 7.788s.472 4.052 1.68 2.536l4.121-10.925-.184-1.307z" fill="#E89776"/><path d="M326.408 179.847s11 43.151 12.05 53.162c0 0 4.279 5.044 4.961.679 1.392-8.703-.577-54.337-2.835-57.944-2.205-3.581-14.176 4.103-14.176 4.103z" fill="#E89776"/><path d="M335.36 127.862l3.596 1.176s5.723 44.275.867 54.155c-4.831 9.879-10.396-.052-12.207-1.176-1.812-1.124-13.389-51.254-13.389-51.254l21.133-2.901z" fill="#E89776"/><path d="M343.13 178.044l-2.31-55.461c-2.625-13.617-16.617-9.566-16.617-9.566-11.341 2.953-10.816 15.603-10.816 15.603l9.766 53.109s2.047 8.129 12.548 8.129c0 .026 7.744-1.02 7.429-11.814z" fill="#14171C"/><path d="M336.41 234.394l.184 5.044 8.82-.287-.183-5.045-8.821.288z" fill="#fff"/><path d="M324.124 183.611s4.883 32.592 11.866 52.56c0 0 5.985.549 9.398-.313 0 0 .525-46.732-3.334-61.865-.026 0-19.322.392-17.93 9.618z" fill="#14171C"/><path d="M328.508 189.622l10.186-61.969s3.518-9.305-3.518-13.983l-26.751-12.52H289.55l-32.159 18.923 21.081 69.522h50.036v.027z" fill="#F5A987"/><path d="M278.498 189.622s-5.776 13.12-7.167 43.308c0 0 43.473 13.565 57.098 0l.079-43.308h-50.01z" fill="#0F1115"/><path d="M306.981 232.825c.079 10.141-7.849 18.4-17.694 18.478-9.844.079-17.903-8.076-17.982-18.217-.079-10.141 7.849-18.4 17.694-18.478 9.87-.078 17.904 8.076 17.982 18.217z" fill="#0F1115"/><path d="M271.331 235.308l-4.725 77.128s8.374 20.073 23.18 7.736l16.093-79.349s-7.797-26.659-34.548-5.515z" fill="#0F1115"/><path d="M266.606 312.436s-4.463 14.48-3.124 39.701l-1.313 47.15 16.408.314 11.157-79.193c-.027 0-11.184-25.666-23.128-7.972zm61.745-79.454c1.024 10.088-2.573 18.687-12.391 19.707-9.792.993-18.587-6.378-19.611-16.44-1.024-10.089 6.065-19.053 15.883-20.047 9.792-.993 15.069 6.717 16.119 16.78z" fill="#0F1115"/><path d="M300.523 246.259l9.005 71.065s19.531 8.625 22.997-3.45c0 0-.447-54.128-4.174-80.892 0 0-24.1-11.683-27.828 13.277z" fill="#0F1115"/><path d="M309.528 314.423s-2.73 10.429.21 29.456l6.773 53.867 17.3-.915-1.286-85.805s-10.764-11.239-22.997 3.397z" fill="#0F1115"/><path d="M261.565 184.107c-3.675 36.696-2.179 39.126-1.785 53.841 0 0-1.969 5.175-5.303 2.274-3.334-2.901-8.663-51.776-6.983-55.67 2.468-5.802 14.071-.445 14.071-.445z" fill="#F5A987"/><path d="M259.229 236.484l5.198 5.149 4.41 6.43c-2.179 1.463-4.463-2.143-4.463-2.143 1.418 5.671 4.201 10.663 4.201 10.663.656 2.039-1.26 1.882-1.26 1.882-2.153-2.195-4.91-8.677-4.91-8.677 1.024 3.868 3.676 10.01 3.676 10.01.236 1.777-1.523 1.254-1.523 1.254-3.649-2.143-4.883-10.01-4.883-10.01.368 2.98 2.73 9.122 2.73 9.122-.42 1.202-1.023.81-1.023.81-3.151-1.255-4.306-8.834-4.306-8.834l.499 2.823c1.024 3.816-1.339 2.822-1.339 2.822l-.866-1.908c-2.494-5.854-1.733-11.134-1.733-11.134l.026-6.847 5.566-1.412zm10.474-115.26c-12.417-2.823-16.643 8.599-16.643 8.599s-6.222 38.028-6.17 54.311c.053 11.003 13.52 2.143 14.413.209 1.942-4.26 16.119-50.077 16.119-50.077s.735-10.716-7.719-13.042z" fill="#F5A987"/><path d="M263.403 185.022l16.093-51.959c-.368-12.911-13.048-14.845-13.048-14.845-11.944-1.15-14.543 9.095-14.543 9.095l-5.776 52.038s-1.969 11.683 4.83 11.866c0-.053 11.368 1.176 12.444-6.195z" fill="#181C22"/><path d="M260.564 233.161l-8.65 1.721.993 4.946 8.65-1.721-.993-4.946z" fill="#fff"/><path d="M264.401 181.86s-2.074 43.647-2.836 52.586l-9.792 2.038s-8.847-43.752-5.644-57.186c0 .026 12.785-6.926 18.272 2.562z" fill="#181C22"/><path d="M289.471 87.481v20.073h21.317s-5.251-7.945-2.625-20.073h-18.692z" fill="#F5A987"/><path d="M300.287 104.522c1.916 1.229 6.012 3.842 8.348 2.326.63-.418.919-.967 1.024-1.568-1.365-3.188-3.255-9.513-1.47-17.799h-18.718v1.83c2.337 5.88 5.329 11.709 10.816 15.211z" fill="#E28C72"/><path d="M288.973 87.77s-3.623-1.57-7.745-10.508c0 0-8.926-10.585-2.599-22.581 0 0 3.728-10.141 21.842-7.319 0 0 1.628 27.208-11.498 40.407z" fill="#F5A47F"/><path d="M311.261 93.205l1.207-3.136 3.334-11.71c.42-1.463.446-3.45.184-4.965-.289-1.647-.473-3.372-.053-5.097 2.101-8.416-2.231-13.199-2.231-13.199-4.778-7.945-16.539-8.206-16.539-8.206-14.57.365-16.119 14.348-16.119 14.348-2.572 9.253 4.7 17.198 4.7 17.224.577.627.21 3.685.367 4.574.683 3.737 4.2 6.116 7.324 7.763 3.439 1.803 7.613 3.737 11.499 4.181 1.47.131 5.644.026 6.327-1.777z" fill="#F5A987"/><path d="M275.033 187.949c.052 2.065-3.098 23.653-1.786 23.941 0 0 35.992 8.259 55.182 0l.079-22.268 10.186-61.969s3.518-9.305-3.518-13.983l-26.751-12.52 1.812 5.411-3.859 10.951-16.802-16.362-32.159 18.923c1.786 5.933 3.571 11.866 5.382 17.799 3.308 10.925 6.537 21.902 9.95 32.801 0 0 2.809 11.813 2.284 17.276z" fill="#fff"/><path d="M304.041 105.071l-.21 9.984-3.701-3.606 3.911-6.378z" fill="#DADADA"/><path d="M308.74 121.171c0 .784-.63 1.411-1.417 1.411a1.408 1.408 0 01-1.418-1.411c0-.784.63-1.411 1.418-1.411.787-.027 1.417.601 1.417 1.411zm0 25.849c0 .784-.63 1.411-1.417 1.411a1.408 1.408 0 01-1.418-1.411c0-.785.63-1.412 1.418-1.412.787-.026 1.417.601 1.417 1.412zm0 25.848c0 .784-.63 1.438-1.417 1.438a1.415 1.415 0 01-1.418-1.438c0-.784.63-1.411 1.418-1.411.787-.026 1.417.627 1.417 1.411zm0 25.849c0 .784-.63 1.411-1.417 1.411a1.408 1.408 0 01-1.418-1.411c0-.784.63-1.412 1.418-1.412.787-.026 1.417.628 1.417 1.412z" fill="#EDEDED"/><path d="M304.041 116.18v98.115" stroke="#EDEDED" stroke-width="2.948" stroke-miterlimit="10"/><path d="M328.193 213.929s-18.376 8.573-55.996-.183c-.63-.157-.367-1.751-.367-1.751l.367-3.607c.158-1.15.814-1.097.814-1.097s35.992 8.259 55.182 0c0 0 .788-.131.814 1.019v4.495s0 .915-.814 1.124z" fill="#4E250D"/><path d="M309.528 216.647a1.03 1.03 0 01-1.024 1.046h-7.324c-.552 0-1.024-.471-1.024-1.046v-5.253c0-.575.446-1.045 1.024-1.045h7.324c.551 0 1.024.47 1.024 1.045v5.253zm-9.346-2.953h3.885" stroke="#C6C6C6" stroke-width="4.823" stroke-miterlimit="10"/><path d="M304.041 104.837s-11.787-4.574-14.57-9.096l-3.491 6.613 12.443 11.866 5.618-9.174" fill="#EDEDED"/><path d="M292.464 57.373c-.394.706-1.969 5.698-.026 8.18-4.122 3.137-2.127 9.514-2.127 9.514l-.997.053c-5.776-1.49-3.833 9.383-3.833 9.383-.053-.262-.998-.863-1.208-1.046-1.129-1.071-3.518-4.94-4.253-6.299-4.069-7.396-3.675-7.788-4.751-12.153-.735-2.98-.42-11.082 3.938-15.133 0 0 5.092 0 13.257 7.501z" fill="#432918"/><path d="M287.922 79.797c-.525.445-1.181.706-2.047.732-2.311.079-4.358-1.986-4.516-4.626-.183-2.613 1.549-4.809 3.886-4.887 1.102-.026 2.126.418 2.94 1.176 1.155 1.098 1.312 3.24 1.102 4.73-.183 1.203-.603 2.222-1.365 2.876z" fill="#F5A987"/><path d="M286.268 73.42c-.21-1.385-2.94.079-2.494.837.263.444.762.732 1.182 1.045.551.418.813.784.918 1.464.027.078.053.313-.026.392-.341.261-1.601-1.02-1.864-1.307-.525-.523-.656-1.49-.446-2.195.236-.758.709-1.124 1.496-1.098.63 0 1.261.026 1.261.81 0 0 0 .13-.027.052z" fill="#EA8F72"/><path d="M285.455 74.91c.288-.314.577-.078.866.13.289.184.446.471.551.785.184.706.132 1.673-.236 2.326-.315.523-.866.862-1.47.862-.84 0-1.129-.705-1.208-1.437-.026-.183-.052-.627.132-.758.183-.13.341.157.498.288.184.183.473.235.735.235.473.026.945-.235 1.234-.627.053-.053.079-.157.105-.21.027.47 0 .575-.052.314-.053-.105-.105-.235-.184-.314-.21-.313-.551-.522-.788-.81-.105-.157-.341-.627-.183-.784z" fill="#EA8F72"/><path d="M284.221 104.313l14.307 50.025-2.126 90.902s-22.236-1.359-31.949-10.115l6.852-53.082-13.914-61.943 26.83-15.787z" fill="#181C22"/><path d="M284.221 104.313l14.307 50.025-.052 2.379-18.009-18.348s-1.89-3.189.682-5.07l4.253-4.052-3.045-2.169s-4.253-2.065-3.728-5.907l1.208-14.479 4.384-2.379z" fill="#28333A"/><path d="M315.907 104.68l16.277 7.631s9.267 2.431 7.376 11.997l-5.355 52.978 2.678 56.141s2.284 10.428-16.592 8.651l-6.668-89.098 2.284-48.3z" fill="#181C22"/><path d="M314.017 105.359s-1.076-4.182-6.405-7.71l.682 14.401s2.967-7.371 5.723-6.691z" fill="#EDEDED"/><path d="M314.49 112.049l-.473-6.691c-1.628-.392-3.071 1.856-4.253 3.712l4.726 2.979z" fill="#DADADA"/><path d="M315.907 104.68l4.2 1.96 3.046 13.957s1.522 3.606-.683 4.547l-3.964 2.3 5.565 3.503s2.941 1.829 1.129 4.521l-11.183 21.746-.341-3.712 2.231-48.822z" fill="#28333A"/><path d="M287.922 87.141c7.456 6.926 17.064 7.763 17.064 7.763 5.592.575 6.353-1.804 6.353-1.804 1.733-3.11 4.201-13.956 4.201-13.956-.079.34-2.416-.837-2.652-.941-1.811-.68-3.859-.497-5.749-.366-1.864.157-3.78.418-5.356 1.463-.183.131-1.627 1.543-1.758 1.516-.998-.13-3.334-.47-3.334-.47-5.382-.784-6.406-5.28-6.406-5.28l-.998.053-1.548 6.769c.026.026-1.051 4.313.183 5.253zm22.052 1.542c-2.153 1.464-6.432.314-7.744-1.986-.788-1.359-1.182-3.502-.63-4.992.63-1.673 2.546-1.882 4.095-2.065 1.916-.235 4.017-.575 5.933-.209.971.183 1.024.889 1.234 2.013.394 2.117-1.024 5.985-2.888 7.24z" fill="#B78167"/><path d="M302.886 108.679l-.446-.81-2.967 4.522 2.573.914.84-4.626zm6.852.392l.84-1.281s3.177 2.64-.157 5.489c0 .026 0-2.326-.683-4.208z" fill="#A4242E"/><path d="M302.886 108.679s2.52 2.221 6.852.392c.945 1.202.945 2.744.683 4.234l-2.258 4.626h-3.15l-2.993-4.626c.026 0-.289-1.019.866-4.626z" fill="#A4242E"/><path d="M305.013 117.931l-2.521 66.203 5.303 10.298 4.332-10.246-3.964-66.255h-3.15z" fill="#AC484C"/><path d="M293.304 56.484l-4.856-2.404-9.241-4.208s0-6.3 11.656-8.73c0 0 14.281-2.248 25.648 3.737 0 0 3.098 1.673 5.539.184-.026 0-3.964 16.465-28.746 11.421z" fill="#432918"/><path d="M249.988 127.522l1.155-43.255c.814-10.115-3.15-13.774-3.15-13.774-16.933-6.325-25.491 2.222-25.491 2.222v44.196c7.351 6.821 17.799 11.369 27.486 10.611z" fill="#CDAC86"/><path d="M204.178 122.843c-8.899 4.339-3.964 14.767-3.964 14.767l12.05 43.622s11.262 4.574 30.977 2.274c2.731-3.895 8.375-20.282 10.265-32.775 1.549-10.298 6.379-20.439 1.129-26.163-2.022-2.195-17.379-4.391-17.458-4.756h-18.481l-14.518 3.031z" fill="#F5A987"/><path d="M244.974 84.267l-1.155 43.072c2.047.288 4.121.34 6.143.183l1.155-43.255c.814-10.115-3.15-13.774-3.15-13.774-6.038-2.248-11-2.614-14.912-2.143 2.626.287 5.54.94 8.742 2.143.027-.026 4.017 3.659 3.177 13.774z" fill="#DFBA90"/><path d="M253.217 123.732c5.723 2.875 6.642 9.514 5.697 15.525-.998 6.299-12.312 19.55-15.095 13.8-5.461-11.317-8.007-19.889-5.592-25.77 2.442-5.933 5.828-8.155 14.99-3.555z" fill="#E89776"/><path d="M259.124 133.115l-13.31-.601-6.642 9.984s10.317 36.904 15.909 43.883c5.959 7.448 7.01-.523 7.797-3.633.026-.027-1.68-41.296-3.754-49.633z" fill="#E89776"/><path d="M262.274 241.476l.814 5.489-3.203 7.266s1.365 1.202 2.862-1.176l2.861-5.985-.394-6.169-2.94.575z" fill="#D0896B"/><path d="M263.744 243.306l1.129 5.436-2.783 7.449s1.418 1.124 2.783-1.333l2.52-6.142-.761-6.142-2.888.732z" fill="#D0896B"/><path d="M269.888 244.535l-.998-6.378-1.102-7.919-4.962-.679-1.706 8.337-.42 4.391-.499 5.985-.263 1.934s1.549.497 2.757-2.561l1.26-5.646 2.153 4.444-1.838 7.788s.472 4.051 1.68 2.535l4.122-10.925-.184-1.306z" fill="#E89776"/><path d="M250.566 177.391s6.431 30.318 12.259 52.168c0 0 4.279 5.044 4.962.679 1.391-8.703-3.229-55.931-5.46-59.538-2.232-3.607-11.761 6.691-11.761 6.691zm-35.231 53.317s-2.94 48.509 10.527 78.774c0 0 5.96 15.917 18.403 6.9 0 0 15.856-76.997 7.141-103.29 0 0-37.068-8.651-36.071 17.616z" fill="#E89776"/><path d="M235.707 180.657c1.47-.262 7.535 2.849 7.535 2.849s7.586 24.228 7.901 27.913c.315 3.685-25.123 22.765-53.554 11.892 0 0 13.152-34.134 13.966-42.524.788-8.389 24.152-.13 24.152-.13z" fill="#E89C79"/><path d="M243.241 183.506s7.272 21.85 7.902 27.914c2.258 21.458-26.908 30.475-55.339 19.602 0 0-1.838-29.508 15.751-50.234 0 .026 4.673 4.26 31.686 2.718z" fill="#AC484C"/><path d="M216.359 246.965l-20.555-11.238s3.334 64.765 5.933 82.956c0 0 11.498 3.189 15.069.836 10.658-24.907 16.853-78.983 16.853-78.983l-17.3 6.429z" fill="#F5A987"/><path d="M203.889 216.777s-9.87 2.823-7.823 21.04c1.995 17.772 34.837 19.471 37.908 1.228 3.308-19.602-12.679-30.004-30.085-22.268zm13.862-95.633h19.794c-.893-2.874-2.757-10.297.131-15.341l-20.004-13.069s3.57 21.929.079 28.41z" fill="#F5A987"/><path d="M236.127 112.546c-.052-2.196.315-4.574 1.549-6.743l-20.004-13.069s1.444 8.939 1.601 17.094c7.22 2.273 10.186 3.162 16.854 2.718z" fill="#E28C72"/><path d="M240.747 107.58l1.208-2.901 3.019-8.573c.42-1.359.682-3.24.289-4.626-.499-1.646-.788-4.312-.027-7.24 2.022-7.84-1.286-12.153-1.286-12.153-4.279-7.527-15.226-8.05-15.226-8.05-13.599.026-15.358 13.016-15.358 13.016-2.625 8.573 3.964 16.152 3.991 16.152.84.967.84 2.457 1.207 3.607a11.17 11.17 0 001.812 3.398c1.785 2.274 4.174 4.469 6.668 5.906 2.362 1.36 6.983 2.849 10.317 2.98 1.339.078 2.704.157 3.386-1.516z" fill="#F5A987"/><path d="M218.564 98.354c.237-6.168.394-5.776.394-5.776.236-1.803 3.597 2.274 3.623-.078.21-10.742 4.384-15.656 5.959-16.414 4.279-2.038 8.69-2.457 12.155-1.672 5.408 1.228 4.83 8.468 4.83 8.468 5.986-26.215-24.073-19.263-24.073-19.263-14.622 3.032-13.835 16.675-13.835 16.675-2.52 14.454 11.446 23.549 11.446 23.549l-.499-5.489z" fill="#CDAC86"/><path d="M219.614 96.29c-.498.339-1.128.522-1.916.47-2.1-.131-3.728-2.17-3.675-4.548.078-2.379 1.837-4.208 3.911-4.051.998.078 1.89.549 2.547 1.307.945 1.097.892 3.031.577 4.364-.236 1.046-.709 1.96-1.444 2.457z" fill="#F5A47F"/><path d="M218.696 90.408c-.053-1.255-2.652-.183-2.31.523.21.418.63.732.971 1.045.472.418.682.784.709 1.412 0 .078 0 .287-.079.34-.341.209-1.365-1.072-1.575-1.334-.446-.522-.446-1.385-.21-2.012.262-.654.735-.941 1.444-.863.577.053 1.155.131 1.076.837 0 0-.026.104-.026.052z" fill="#EA8F72"/><path d="M217.803 91.662c.289-.235.525-.026.788.183.236.21.367.47.42.758.105.654-.026 1.516-.42 2.065-.315.444-.84.706-1.392.654-.761-.053-.945-.732-.945-1.386 0-.157 0-.575.184-.68.184-.104.315.184.42.314.158.157.42.236.63.288.446.052.867-.13 1.155-.444a.804.804 0 00.132-.183c-.027.418-.053.522-.079.287-.026-.104-.079-.209-.131-.314-.158-.287-.447-.522-.63-.81-.106-.13-.263-.6-.132-.732z" fill="#EA8F72"/><path d="M219.693 96.734a1.25 1.25 0 01-1.339 1.202 1.248 1.248 0 01-1.207-1.333 1.25 1.25 0 011.339-1.202c.682.026 1.234.627 1.207 1.333z" fill="#fff"/><path d="M248.308 130.371s7.797 10.768 9.162 16.309c.893 3.633-5.487 11.866-10.632 13.304-2.809.81-2.888-28.881 1.47-29.613z" fill="#54A7CD"/><path d="M248.308 130.371s7.797 10.768 9.162 16.309c.893 3.633-5.487 11.866-10.632 13.304-2.809.81-2.888-28.881 1.47-29.613z" fill="#AC484C"/><path d="M240.432 120.569l4.437.602s7.114 14.453 8.873 29.69c-1.89 12.494-5.906 31.338-10.501 32.671-15.567 4.574-31.791-2.614-31.791-2.614l-7.455-29.612c19.977-7.737 9.897-30.501 9.897-30.501l4.2-.993c-.026 0 13.704 12.284 22.34.757z" fill="#AC484C"/><path d="M215.939 132.122c.394 6.377-2.94 12.624-9.346 13.016-6.405.392-23.049-2.509-19.058-7.501 7.849-9.827 12.574-14.741 18.98-15.159 6.405-.392 9.03 3.267 9.424 9.644z" fill="#F5A987"/><path d="M211.056 141.4l-4.069-10.925-11.918-1.594s-28.878 25.326-32.737 33.402c-4.121 8.599 3.518 6.064 6.695 5.41 0-.026 38.197-19.916 42.029-26.293z" fill="#F5A987"/><path d="M161.676 167.798s14.386 20.151 27.775 31.625c0 0 5.775-.575 3.938-3.711-3.098-5.332-15.909-30.24-19.059-35.598-1.759-3.006-12.654 7.684-12.654 7.684z" fill="#F5A987"/><path d="M193.415 195.686l3.15-.079 7.43-3.345c-.027 4.155.393 8.389.393 8.389 3.781 3.999 6.065 7.136 6.065 7.136 1.47 1.359-.158 2.117-.158 2.117-2.783-.811-8.007-4.888-8.007-4.888 2.625 2.692 7.613 6.534 7.613 6.534 1.024 1.333-.682 1.725-.682 1.725-3.991-.104-8.611-5.985-8.611-5.985 1.68 2.274 6.432 6.22 6.432 6.22.21 1.203-.473 1.124-.473 1.124-3.176.392-7.587-5.279-7.587-5.279l1.707 2.091c2.599 2.639.21 2.927.21 2.927l-1.575-1.176c-4.752-3.659-6.563-8.338-6.563-8.338l-3.308-5.462 3.964-3.711z" fill="#F5A987"/><path d="M239.12 74.152l-10.448-11.37c12.417-4.207 19.846 8.312 19.846 8.312l-2.336 3.058c-.026 0-4.516-10.115-7.062 0z" fill="#DFBA90"/><path d="M253.191 267.664c1.759-20.778 2.337-45.869-3.124-59.434 0 0-49.433 3.215-54.132 14.48 0 0-2.389 13.016-.393 44.954.026 0 34.416 8.233 57.649 0z" fill="#AC484C"/><path d="M201.921 112.049c0 7.083 13.913 13.095 23.075 15.212-.394-8.338-.42-14.611-.42-14.611-.892-15.969-.394-21.902 1.05-32.957 1.129-8.625 7.43-12.101 13.441-5.541-.236-.262-.315-1.176-.42-1.542a12.424 12.424 0 00-.656-1.62c-2.1-4.418-6.406-7.528-11.052-8.86-1.68-.471-3.308-.628-5.014-.445-5.723.627-12.811 4.652-15.699 9.644-2.809 4.914-3.465 11.082-3.912 16.623-.262 3.136-.472 6.325-.42 9.461.053 0 .184 5.959.027 14.636z" fill="#E5C797"/><path d="M155.428 70.127s6.799 6.247 6.064 26.529v61.394s.394 6.299 5.645 10.454c0 0-44.708 13.068-48.514-6.874V97.963s-2.074-26.79 8.295-31.6c-.026-.025 18.298-7.553 28.51 3.764z" fill="#3C1604"/><path d="M160.39 122.766c9.267 4.417 4.305 14.819 4.305 14.819l-12.05 43.622s-11.262 4.574-30.977 2.274c-2.73-3.895-8.375-20.282-10.265-32.775-1.549-10.298-6.379-20.439-1.129-26.163 2.022-2.195 17.379-4.391 17.458-4.757l18.14-.078 14.518 3.058z" fill="#F5A987"/><path d="M147.054 233.923s-5.854 48.248-24.572 75.612c0 0-8.716 14.611-19.348 3.503 0 0-1.706-78.592 11.603-102.899 0 0 38.04-1.882 32.317 23.784zm-27.46-112.778c-6.405-.182-14.911 6.116-15.095 12.494-.184 6.377 3.308 22.843 8.191 18.687 9.582-8.128 14.386-13.016 14.57-19.393.157-6.377-1.26-11.605-7.666-11.788z" fill="#E89776"/><path d="M107.833 130.947l11.709-.523 6.116 10.324s-12.233 36.329-18.192 42.994c-6.353 7.109-6.983-.863-7.587-4.025-.026-.026 3.544-42.785 7.954-48.77z" fill="#E89776"/><path d="M129.202 180.658c-1.47-.262-7.534 2.849-7.534 2.849s-7.587 24.228-7.902 27.913c-.315 3.685 25.123 22.765 53.554 11.892 0 0-13.152-34.134-13.966-42.524-.787-8.389-24.152-.13-24.152-.13z" fill="#E89C79"/><path d="M121.668 183.506s-7.272 21.85-7.902 27.914c-2.258 21.458 26.908 30.475 55.339 19.602 0 0 1.838-29.508-15.751-50.234.026.026-4.646 4.26-31.686 2.718z" fill="#1D2027"/><path d="M148.576 246.965l20.556-11.238s-3.334 64.765-5.933 82.956c0 0-11.499 3.189-15.069.836-10.658-24.907-16.854-78.983-16.854-78.983l17.3 6.429z" fill="#F5A987"/><path d="M161.02 216.778s9.871 2.823 7.823 21.04c-1.995 17.772-34.836 19.471-37.908 1.228-3.281-19.602 12.706-30.004 30.085-22.268zm-13.861-95.633h-19.794c.892-2.875 2.756-10.297-.132-15.342l20.004-13.068s-3.544 21.929-.078 28.41z" fill="#F5A987"/><path d="M128.782 112.547c.053-2.196-.315-4.574-1.549-6.744l20.004-13.068s-1.443 8.939-1.601 17.093c-7.219 2.274-10.186 3.163-16.854 2.719z" fill="#E28C72"/><path d="M124.162 107.58l-1.208-2.901-3.019-8.573c-.42-1.359-.682-3.24-.289-4.626.499-1.646.788-4.312.027-7.24-2.022-7.84 1.286-12.153 1.286-12.153 4.279-7.527 15.226-8.05 15.226-8.05 13.599.026 15.358 13.016 15.358 13.016 2.625 8.573-3.964 16.152-3.991 16.152-.84.967-.866 2.457-1.207 3.607a11.17 11.17 0 01-1.812 3.398c-1.785 2.274-4.174 4.469-6.668 5.906-2.362 1.36-6.983 2.849-10.317 2.98-1.339.078-2.704.157-3.386-1.516z" fill="#F5A987"/><path d="M146.371 98.354c-.236-6.168-.394-5.776-.394-5.776-.236-1.803-3.596 2.274-3.622-.078-.21-10.742-4.385-15.656-5.96-16.414-4.279-2.038-8.689-2.457-12.154-1.672-5.408 1.228-4.831 8.468-4.831 8.468-5.985-26.215 24.073-19.263 24.073-19.263 14.623 3.032 13.835 16.675 13.835 16.675 2.52 14.454-11.446 23.549-11.446 23.549l.499-5.489z" fill="#3C1604"/><path d="M145.321 96.29c.499.339 1.129.522 1.917.47 2.1-.131 3.727-2.17 3.675-4.548-.079-2.379-1.838-4.208-3.912-4.051a3.734 3.734 0 00-2.546 1.307c-.945 1.097-.893 3.031-.578 4.364.21 1.046.683 1.96 1.444 2.457z" fill="#F5A47F"/><path d="M146.24 90.408c.053-1.255 2.652-.183 2.31.523-.21.418-.63.732-.971 1.045-.473.418-.683.784-.709 1.412 0 .078 0 .287.079.34.341.209 1.365-1.072 1.575-1.334.446-.522.446-1.385.21-2.012-.263-.654-.735-.941-1.444-.863-.577.053-1.155.131-1.076.837-.026 0 0 .104.026.052z" fill="#EA8F72"/><path d="M147.106 91.662c-.288-.235-.525-.026-.787.183-.236.21-.368.47-.42.758-.105.654.026 1.516.42 2.065.315.444.84.706 1.391.654.761-.053.945-.732.945-1.386 0-.157 0-.575-.184-.68-.183-.104-.315.184-.42.314-.157.157-.42.236-.63.288a1.357 1.357 0 01-1.155-.444.798.798 0 01-.131-.183c.026.418.053.522.079.287.026-.104.079-.209.131-.314.158-.287.446-.522.63-.81.105-.13.263-.6.131-.732z" fill="#EA8F72"/><path d="M145.242 96.734a1.25 1.25 0 001.339 1.202 1.249 1.249 0 001.208-1.333 1.25 1.25 0 00-1.339-1.202 1.249 1.249 0 00-1.208 1.333z" fill="#fff"/><path d="M124.503 120.57l-3.859.602s-7.456 14.375-9.241 29.586c1.89 12.493 5.671 31.416 10.265 32.775 15.567 4.574 31.791-2.614 31.791-2.614l7.456-29.612c-19.978-7.737-9.897-30.501-9.897-30.501l-4.201-.994c.027 0-14.832 10.847-22.314.758z" fill="#AC484C"/><path d="M116.601 130.371s-7.797 10.768-9.162 16.309c-.892 3.633 5.487 11.866 10.632 13.303 2.836.811 2.888-28.88-1.47-29.612z" fill="#AC484C"/><path d="M168.817 222.71l3.308 77.86s-42.608 9.828-72.168-3.633c0 0 2.704-66.595 14.728-88.68 0-.026 51.717-4.783 54.132 14.453z" fill="#1D2027"/><path d="M149.39 127.339c-3.622 5.28-1.575 10.376 1.339 15.943 2.967 5.646 21.081 9.566 20.24 3.241-1.68-12.441-2.966-19.524-8.531-22.686-4.726-2.692-9.451-1.777-13.048 3.502z" fill="#F5A987"/><path d="M148.813 137.767l9.109-7.318 11.052 4.705s11.788 36.46 10.974 45.372c-.867 9.488-6.143 3.424-8.532 1.229.026 0-22.577-36.539-22.603-43.988z" fill="#F5A987"/><path d="M179.738 179.795s1.444 25.666-2.494 42.811c0 0-4.988 2.954-5.382-.653-.683-6.116-5.828-36.277-4.515-46.967.42-3.45 12.391 4.809 12.391 4.809z" fill="#F5A987"/><path d="M174.933 243.62s-1.338.653-.446-2.483l1.05-4.887s-1.076 8.154-3.859 9.696c0 0-.499.445-1.05-.627 0 0 2.363-6.952 2.363-9.775 0 0-.604 8.494-3.78 10.925 0 0-1.602.679-1.576-.993 0 0 2.416-6.012 2.652-10.795 0 0-1.89 8.286-3.623 10.586 0 0-1.785.366-1.391-1.595 0 0 1.365-4.966 2.389-10.689 0 0-3.256 2.744-5.723 1.463l7.35-10.689 2.573-1.804 5.382.654.63 6.351s.367 6.638-1.602 12.885c0 0-.525 1.568-1.339 1.777z" fill="#F5A987"/><path d="M114.974 157.814l15.961 34.997-32.526-2.98-14.649-34.369 31.214 2.352z" fill="#DFEEF7"/><path d="M88.905 166.309c.63 1.123 1.287 2.169 2.284 2.953 1.13.889 3.02.627 3.754 1.281 1.26 1.15.368 4.208-2.31 7.292-2.336 2.666-4.043-.837-4.83-2.98-1.155-3.188-1.077-4.6.236-7.161l.866-1.385z" fill="#E89776"/></g></svg>