<svg width="360" height="301" fill="none" xmlns="http://www.w3.org/2000/svg"><g clip-path="url(#clip0)"><path fill="#EFF3FB" d="M0 0h360v301H0z"/><path d="M295.643 170.528L160.828 296.905l-69.414-66.248c-12.983 12.831-33.068 32.606-53.258 52.465a28185.93 28185.93 0 01-34.013 33.41l-63.048-.063c17.48-16.684 87.88-86.002 135.319-132.856l14.496-14.334 70.17 66.968 103.007-96.546 31.556 30.827z" fill="#fff"/><path d="M247.406 124.5l63.531 67.37 12.711-76.898-76.242 9.528z" fill="#fff"/><path d="M346.338 300.018v2.372c0 .19-.063.36-.189.508a1.067 1.067 0 01-.504.338.588.588 0 01-.189.043c-.063 0-.126.021-.189.021h-44.77c-.568 0-1.051-.381-1.072-.868v-2.456c.021-.445.441-.805.945-.868h44.897c.063 0 .126 0 .189.021.063 0 .126.021.189.042.21.064.378.191.504.339.105.148.189.318.189.508z" fill="#FFB93E"/><path d="M324.341 303.321h-23.992c-.525 0-.946-.381-.967-.868v-2.456c.021-.445.4-.805.862-.868h21.135c.357 1.207 1.155 2.922 2.962 4.192zm16.534-4.213h-.504v4.213h.504v-4.213zm-1.722 0h-.505v4.213h.505v-4.213zm-2.06 0h-.504v4.213h.504v-4.213zm-3.172 0h-.504v4.213h.504v-4.213zm-3.34 0h-.504v4.213h.504v-4.213zm-5.126 0h-.505v4.213h.505v-4.213z" fill="#FFA412"/><path d="M320.643 299.108h-.504v4.213h.504v-4.213zm-4.285 0h-.504v4.213h.504v-4.213zm26.156 0h-.504v4.213h.504v-4.213zm1.092 0h-.504v4.213h.504v-4.213zm1.051 0h-.504v4.213h.504v-4.213zm.777 0v4.192c-.063 0-.126.021-.189.021h-.315v-4.213h.504zm.715.402v3.409a1.084 1.084 0 01-.505.339v-4.087c.21.064.378.191.505.339z" fill="#FFA412"/><path d="M343.039 295.805v2.371c0 .191-.063.36-.189.509a1.067 1.067 0 01-.504.338.588.588 0 01-.189.043h-44.981c-.567 0-1.05-.381-1.071-.868v-2.499c.042-.381.378-.698.819-.804h.042c.084-.021.147-.021.231-.021h44.96c.063 0 .126.021.189.042.21.063.378.19.504.339.126.19.189.36.189.55z" fill="#FFB93E"/><path d="M321.064 299.11h-23.993c-.525 0-.945-.381-.966-.868v-2.498c.042-.403.357-.72.756-.805h.042c.063 0 .105-.021.168-.021h21.03v.021c.358 1.228 1.135 2.922 2.963 4.171 0 0-.021 0 0 0zm16.534-4.215h-.504v4.213h.504v-4.213zm-1.723 0h-.504v4.213h.504v-4.213zm-2.08 0h-.504v4.213h.504v-4.213zm-3.151 0h-.504v4.213h.504v-4.213zm-3.362 0h-.504v4.213h.504v-4.213zm-5.126 0h-.504v4.213h.504v-4.213z" fill="#FFA412"/><path d="M317.345 294.895h-.504v4.213h.504v-4.213zm-4.286 0h-.504v4.213h.504v-4.213zm26.178 0h-.505v4.213h.505v-4.213zm1.071 0h-.504v4.213h.504v-4.213zm1.051 0h-.505v4.213h.505v-4.213zm.798.021v4.192c-.063 0-.126.021-.189.021h-.315v-4.234h.315c.063 0 .126 0 .189.021zm.693.381v3.408a1.062 1.062 0 01-.504.339v-4.086c.21.064.378.191.504.339z" fill="#FFA412"/><path d="M342.955 291.634v2.372c0 .19-.063.36-.189.508a1.076 1.076 0 01-.504.339c-.042.021-.105.021-.147.042h-.042c-.063 0-.126.021-.189.021h-44.98c-.484-.085-.862-.423-.883-.847v-2.456c.021-.487.504-.868 1.072-.868h44.959c.063 0 .126.021.189.042h.042c.021 0 .042.022.063.022.021 0 .042.021.063.021.021 0 .042.021.042.021.021.021.042.021.063.042.021 0 .021.021.042.021l.021.022c.021.021.063.042.084.063l.021.021.021.022.042.042c.126.19.21.36.21.55z" fill="#FFB93E"/><path d="M320.959 294.916H296.84c-.462-.064-.819-.424-.84-.868v-2.456c.021-.487.441-.868.966-.868h21.03c0 .042.021.063.021.105.358 1.228 1.135 2.859 2.879 4.087h.063zm16.534-4.192h-.504v4.213h.504v-4.213zm-1.723 0h-.504v4.213h.504v-4.213zm-2.059 0h-.504v4.213h.504v-4.213zm-3.172 0h-.504v4.213h.504v-4.213zm-3.34 0h-.505v4.213h.505v-4.213zm-5.127 0h-.504v4.213h.504v-4.213z" fill="#FFA412"/><path d="M317.261 290.724h-.504v4.213h.504v-4.213zm-4.286 0h-.504v4.213h.504v-4.213zm26.157 0h-.505v4.213h.505v-4.213zm1.092 0h-.504v4.213h.504v-4.213zm1.029 0h-.504v4.213h.504v-4.213zm.799 0v4.192c-.063 0-.126.021-.189.021h-.315v-4.213h.504zm.714.402v3.409a1.067 1.067 0 01-.504.338v-4.086c.189.064.378.169.504.339z" fill="#FFA412"/><path d="M345.266 287.526v2.371c0 .191-.063.36-.189.509a1.07 1.07 0 01-.505.338.588.588 0 01-.189.043c-.063 0-.126.021-.189.021h-44.77c-.189 0-.357-.042-.504-.106-.315-.148-.546-.402-.588-.72v-2.498c.021-.487.504-.868 1.071-.868h44.77c.063 0 .126 0 .189.021.063 0 .126.021.189.042.21.064.379.191.505.339.126.148.21.318.21.508z" fill="#FFB93E"/><path d="M323.27 290.808h-23.993a.976.976 0 01-.441-.105c-.273-.149-.483-.403-.525-.72v-2.499c.021-.487.441-.868.966-.868h21.031c.336 1.207 1.071 2.859 2.794 4.108.084.021.126.063.168.084zm16.534-4.192h-.504v4.213h.504v-4.213zm-1.723 0h-.504v4.213h.504v-4.213zm-2.059 0h-.504v4.213h.504v-4.213zm-3.172 0h-.504v4.213h.504v-4.213zm-3.341 0h-.504v4.213h.504v-4.213zm-5.126 0h-.504v4.213h.504v-4.213z" fill="#FFA412"/><path d="M319.572 286.616h-.504v4.213h.504v-4.213zm-4.286 0h-.504v4.214h.504v-4.214zm26.157 0h-.505v4.213h.505v-4.213zm1.092 0h-.504v4.213h.504v-4.213zm1.051 0h-.505v4.213h.505v-4.213zm.777 0v4.192c-.063 0-.126.021-.189.021h-.315v-4.213h.504zm.714.402v3.409a1.067 1.067 0 01-.504.338v-4.086c.21.064.378.17.504.339z" fill="#FFA412"/><path d="M348.921 283.313v2.372c0 .19-.063.359-.189.508a1.067 1.067 0 01-.504.338.588.588 0 01-.189.043c-.063 0-.126.021-.189.021h-44.77c-.568 0-1.051-.381-1.072-.868v-2.456c.021-.445.441-.805.945-.868h44.897c.063 0 .126 0 .189.021.063 0 .126.021.189.042.21.064.378.191.504.339a.763.763 0 01.189.508z" fill="#FFB93E"/><path d="M326.946 286.616h-23.992c-.525 0-.945-.381-.966-.868v-2.456c.021-.445.399-.805.861-.868h21.135a7.526 7.526 0 002.962 4.192zm16.513-4.213h-.504v4.213h.504v-4.213zm-1.723 0h-.504v4.213h.504v-4.213zm-2.058 0h-.505v4.213h.505v-4.213zm-3.173 0h-.504v4.213h.504v-4.213zm-3.34 0h-.504v4.213h.504v-4.213zm-5.126 0h-.505v4.213h.505v-4.213z" fill="#FFA412"/><path d="M323.228 282.403h-.505v4.213h.505v-4.213zm-4.286 0h-.504v4.213h.504v-4.213zm26.156 0h-.504v4.213h.504v-4.213zm1.092 0h-.504v4.213h.504v-4.213zm1.051 0h-.504v4.213h.504v-4.213zm.777 0v4.192c-.063 0-.126.021-.189.021h-.315v-4.213h.504zm.714.402v3.409a1.076 1.076 0 01-.504.339v-4.087c.21.064.378.17.504.339z" fill="#FFA412"/><path d="M343.041 279.1v2.371c0 .191-.064.36-.19.508a1.062 1.062 0 01-.504.339c-.063.021-.126.043-.189.043h-44.959c-.567 0-1.051-.382-1.072-.868v-2.456c.021-.487.505-.869 1.072-.869h44.833c.042 0 .084 0 .126.022.063 0 .126.021.189.042.042 0 .063.021.084.042.021 0 .042.021.063.021.021 0 .042.022.063.022.021 0 .042.021.042.021.042.021.084.042.105.085.021 0 .021.021.021.021l.021.021c.021 0 .021.021.042.042s.021.043.042.043c.147.19.211.359.211.55z" fill="#FFB93E"/><path d="M321.064 282.405h-23.993c-.525 0-.945-.381-.966-.868v-2.456c.021-.487.441-.868.966-.868h21.03c0 .042.021.063.021.106.379 1.207 1.156 2.858 2.942 4.086 0 0-.021 0 0 0zm16.534-4.216h-.504v4.214h.504v-4.214zm-1.723 0h-.504v4.214h.504v-4.214zm-2.08 0h-.504v4.214h.504v-4.214zm-3.151 0h-.504v4.214h.504v-4.214zm-3.362 0h-.504v4.214h.504v-4.214zm-5.126 0h-.504v4.214h.504v-4.214z" fill="#FFA412"/><path d="M317.345 278.189h-.504v4.214h.504v-4.214zm-4.286.001h-.504v4.213h.504v-4.213zm26.178-.001h-.505v4.214h.505v-4.214zm1.071 0h-.504v4.214h.504v-4.214zm1.051 0h-.505v4.214h.505v-4.214zm.798.022v4.192c-.063 0-.126.021-.189.021h-.315v-4.213h.315a.291.291 0 01.189 0zm.693.381V282a1.062 1.062 0 01-.504.339v-4.086c.21.063.378.19.504.339z" fill="#FFA412"/><path d="M346.338 274.992v2.372c0 .19-.063.36-.189.508a1.076 1.076 0 01-.504.339.613.613 0 01-.189.042c-.063 0-.126.021-.189.021h-44.77a1.23 1.23 0 01-.484-.106c-.336-.148-.567-.423-.588-.741v-2.477c.021-.445.441-.804.945-.868h44.897c.063 0 .126 0 .189.021.063 0 .126.021.189.043.21.063.378.19.504.338.105.149.189.318.189.508z" fill="#FFB93E"/><path d="M324.341 278.295h-23.992c-.147 0-.294-.042-.441-.106-.295-.148-.505-.423-.526-.741v-2.498c.021-.445.4-.804.862-.868h21.135c.336 1.207 1.071 2.858 2.815 4.107.063.043.105.064.147.106zm16.534-4.213h-.504v4.213h.504v-4.213zm-1.722 0h-.505v4.213h.505v-4.213zm-2.06 0h-.504v4.213h.504v-4.213zm-3.172 0h-.504v4.213h.504v-4.213zm-3.34 0h-.504v4.213h.504v-4.213zm-5.126 0h-.505v4.213h.505v-4.213z" fill="#FFA412"/><path d="M320.643 274.082h-.504v4.213h.504v-4.213zm-4.285 0h-.504v4.213h.504v-4.213zm26.156 0h-.504v4.213h.504v-4.213zm1.092 0h-.504v4.213h.504v-4.213zm1.051 0h-.504v4.213h.504v-4.213zm.777 0v4.192c-.063 0-.126.021-.189.021h-.315v-4.213h.504zm.715.402v3.409a1.084 1.084 0 01-.505.339v-4.086c.21.063.378.19.505.338z" fill="#FFA412"/><path d="M347.724 270.779v2.372c0 .19-.063.359-.189.508a1.067 1.067 0 01-.504.338.588.588 0 01-.189.043h-44.98c-.568 0-1.051-.381-1.093-.868v-2.456c.021-.487.504-.868 1.093-.868h44.791c.063 0 .126 0 .189.021.063 0 .126.021.189.042.21.064.378.191.504.339a.86.86 0 01.189.529z" fill="#FFB93E"/><path d="M325.751 274.084H301.78c-.525 0-.946-.381-.967-.868v-2.456c.021-.487.442-.868.967-.868h21.03c.336 1.228 1.113 2.922 2.941 4.192zm16.532-4.215h-.504v4.213h.504v-4.213zm-1.723 0h-.504v4.213h.504v-4.213zm-2.059 0h-.504v4.213h.504v-4.213zm-3.172 0h-.504v4.213h.504v-4.213zm-3.34 0h-.505v4.213h.505v-4.213zm-5.148 0h-.504v4.213h.504v-4.213z" fill="#FFA412"/><path d="M322.051 269.869h-.504v4.213h.504v-4.213zm-4.307 0h-.504v4.213h.504v-4.213zm26.178 0h-.505v4.213h.505v-4.213zm1.092 0h-.504v4.213h.504v-4.213zm1.03 0h-.505v4.213h.505v-4.213zm.798.021v4.192c-.063 0-.126.022-.189.022h-.315v-4.214h.315a.291.291 0 01.189 0zm.714.381v3.409a1.076 1.076 0 01-.504.339v-4.086c.189.063.378.19.504.338z" fill="#FFA412"/><path d="M288.941 298.43v2.625a.955.955 0 01-.21.572c-.126.169-.336.296-.567.381a.746.746 0 01-.211.042c-.063.022-.147.022-.21.022h-49.35c-.63 0-1.155-.424-1.197-.953v-2.71c.021-.487.483-.889 1.05-.953h49.497c.063 0 .147 0 .21.021.085.021.148.021.211.043.231.084.42.211.567.381.126.127.21.317.21.529z" fill="#FFB93E"/><path d="M264.697 302.072h-26.43c-.567 0-1.029-.424-1.071-.953v-2.71c.021-.487.42-.889.945-.953h23.32a8.227 8.227 0 003.236 4.616zm18.236-4.637h-.568v4.637h.568v-4.637zm-1.891 0h-.568v4.637h.568v-4.637zm-2.29 0h-.568v4.637h.568v-4.637zm-3.488 0h-.567v4.637h.567v-4.637zm-3.676 0h-.567v4.637h.567v-4.637zm-5.673 0h-.567v4.637h.567v-4.637z" fill="#FFA412"/><path d="M260.621 297.435h-.567v4.637h.567v-4.637zm-4.727 0h-.567v4.637h.567v-4.637zm28.845 0h-.567v4.637h.567v-4.637zm1.198 0h-.567v4.637h.567v-4.637zm1.155 0h-.567v4.637h.567v-4.637zm.862 0v4.616c-.063 0-.147.021-.21.021h-.358v-4.637h.568zm.777.445v3.747c-.126.17-.336.297-.567.381v-4.509c.231.063.42.211.567.381z" fill="#FFA412"/><path d="M285.306 293.793v2.625a.955.955 0 01-.21.572c-.126.169-.336.296-.567.381a.746.746 0 01-.21.042h-49.56c-.631 0-1.156-.423-1.198-.952v-2.753c.042-.423.42-.783.903-.889h.042c.084-.021.169-.021.253-.021h49.56c.084.021.147.021.21.042.231.085.42.212.567.381.126.17.21.36.21.572z" fill="#FFB93E"/><path d="M261.085 297.435h-26.43c-.567 0-1.029-.423-1.071-.952v-2.753c.042-.444.378-.804.819-.889h.042c.063 0 .126-.021.189-.021h23.194v.042c.379 1.334 1.24 3.197 3.257 4.573-.021 0-.021 0 0 0zm18.213-4.637h-.568v4.637h.568v-4.637zm-1.891 0h-.567v4.637h.567v-4.637zm-2.269 0h-.567v4.637h.567v-4.637zm-3.487 0h-.568v4.637h.568v-4.637zm-3.698 0h-.568v4.637h.568v-4.637zm-5.652 0h-.567v4.637h.567v-4.637z" fill="#FFA412"/><path d="M257.007 292.798h-.567v4.637h.567v-4.637zm-4.727 0h-.567v4.637h.567v-4.637zm28.824 0h-.567v4.637h.567v-4.637zm1.198 0h-.567v4.637h.567v-4.637zm1.155 0h-.567v4.637h.567v-4.637zm.862 0v4.615c-.063 0-.147.022-.21.022h-.358v-4.637h.568zm.777.444v3.748c-.126.169-.336.296-.567.381v-4.51c.231.064.441.212.567.381z" fill="#FFA412"/><path d="M285.201 289.198v2.626a.954.954 0 01-.21.571c-.126.17-.336.297-.567.381-.063.022-.105.043-.168.043h-.042c-.063 0-.147.021-.21.021h-49.561c-.546-.085-.945-.466-.987-.932v-2.71c.042-.529.546-.952 1.198-.952h49.56c.084.021.147.021.21.042h.021s.021 0 .021.021c.021 0 .042.021.063.021.021 0 .042.021.063.021.021 0 .042.022.063.022.021.021.042.021.063.042.021 0 .021.021.042.042l.021.021c.021.022.063.043.084.085l.021.021.021.022c.021.021.021.042.042.042a.715.715 0 01.252.55z" fill="#FFB93E"/><path d="M260.978 292.82h-26.555c-.504-.064-.903-.466-.924-.953v-2.71c.021-.529.504-.953 1.071-.953h23.194c0 .042.021.085.042.106.378 1.355 1.24 3.155 3.172 4.488-.042 0-.021.022 0 .022zm18.215-4.637h-.568v4.636h.568v-4.636zm-1.891 0h-.567v4.636h.567v-4.636zm-2.269 0h-.567v4.636h.567v-4.636zm-3.488 0h-.567v4.636h.567v-4.636zm-3.697 0h-.567v4.636h.567v-4.636zm-5.652 0h-.567v4.636h.567v-4.636z" fill="#FFA412"/><path d="M256.902 288.183h-.567v4.636h.567v-4.636zm-4.727 0h-.567v4.637h.567v-4.637zm28.824 0h-.567v4.636h.567v-4.636zm1.198 0h-.567v4.636h.567v-4.636zm1.155 0h-.567v4.636h.567v-4.636zm.862.021v4.615c-.063.022-.147.022-.21.022h-.357v-4.637h.357a.356.356 0 01.21 0zm.777.423v3.748c-.126.169-.336.296-.567.381v-4.51c.231.085.441.212.567.381z" fill="#FFA412"/><path d="M287.744 284.67v2.625a.958.958 0 01-.211.572c-.126.169-.336.296-.567.381a.746.746 0 01-.21.042c-.063 0-.147.021-.21.021h-49.35c-.189 0-.378-.042-.546-.105-.358-.149-.589-.445-.631-.805v-2.752c.042-.53.547-.953 1.198-.953h49.35c.063 0 .147 0 .21.021.084.021.147.021.21.042.231.085.42.212.567.381.126.127.19.318.19.53z" fill="#FFB93E"/><path d="M263.52 288.288h-26.429c-.168 0-.336-.042-.483-.105a1.002 1.002 0 01-.567-.805v-2.752c.021-.53.504-.953 1.071-.953h23.194c.357 1.334 1.176 3.155 3.088 4.531a.323.323 0 00.126.084zm18.236-4.636h-.568v4.637h.568v-4.637zm-1.912 0h-.567v4.637h.567v-4.637zm-2.269 0h-.567v4.637h.567v-4.637zm-3.487 0h-.568v4.637h.568v-4.637zm-3.698 0h-.567v4.637h.567v-4.637zm-5.651 0h-.568v4.637h.568v-4.637z" fill="#FFA412"/><path d="M259.444 283.652h-.567v4.637h.567v-4.637zm-4.727 0h-.567v4.637h.567v-4.637zm28.845 0h-.567v4.637h.567v-4.637zm1.198 0h-.567v4.637h.567v-4.637zm1.135 0h-.568v4.637h.568v-4.637zm.861.021v4.616c-.063.021-.147.021-.21.021h-.357v-4.637h.357a.356.356 0 01.21 0zm.798.423v3.748c-.126.169-.336.296-.567.381v-4.51c.231.085.42.212.567.381z" fill="#FFA412"/><path d="M291.777 280.034v2.625a.952.952 0 01-.21.571c-.126.17-.336.297-.567.382a.746.746 0 01-.21.042c-.063 0-.147.021-.21.021h-49.351c-.63 0-1.155-.423-1.197-.953v-2.71c.021-.487.483-.889 1.05-.952h49.498c.063 0 .147 0 .21.021.084.021.147.021.21.042.231.085.42.212.567.381.147.127.21.318.21.53z" fill="#FFB93E"/><path d="M267.554 283.652h-26.43c-.567 0-1.029-.424-1.071-.953v-2.71c.021-.487.42-.889.945-.953h23.299c.378 1.355 1.24 3.24 3.257 4.616zm18.236-4.637h-.568v4.637h.568v-4.637zm-1.912 0h-.567v4.637h.567v-4.637zm-2.269 0h-.567v4.637h.567v-4.637zm-3.488 0h-.567v4.637h.567v-4.637zm-3.697 0h-.568v4.637h.568v-4.637zm-5.651 0h-.568v4.637h.568v-4.637z" fill="#FFA412"/><path d="M263.478 279.015h-.567v4.637h.567v-4.637zm-4.727 0h-.567v4.637h.567v-4.637zm28.845 0h-.567v4.637h.567v-4.637zm1.198 0h-.567v4.637h.567v-4.637zm1.135 0h-.568v4.637h.568v-4.637zm.861.021v4.616c-.063 0-.147.021-.21.021h-.358v-4.658h.358c.084 0 .147 0 .21.021zm.777.424v3.747c-.126.17-.336.297-.567.381v-4.509c.252.084.441.211.567.381z" fill="#FFA412"/><path d="M285.306 275.394v2.625a.957.957 0 01-.21.572c-.126.169-.336.296-.567.381a.746.746 0 01-.21.042h-49.56c-.631 0-1.156-.423-1.198-.953v-2.71c.042-.529.546-.953 1.198-.953h49.413c.042 0 .105 0 .147.022.084.021.147.021.21.042.042.021.063.021.105.042.021 0 .042.021.063.021.021 0 .042.022.063.043.021 0 .042.021.063.042.042.021.084.064.126.085.021 0 .021.021.042.021l.021.021.042.043c.021.021.042.042.042.063a.85.85 0 01.21.551z" fill="#FFB93E"/><path d="M261.085 279.015h-26.43c-.567 0-1.029-.423-1.071-.952v-2.71c.021-.53.504-.953 1.071-.953h23.194c0 .042.021.063.021.106.379 1.334 1.24 3.154 3.215 4.509-.021 0-.021 0 0 0zm18.213-4.637h-.568v4.637h.568v-4.637zm-1.891 0h-.567v4.637h.567v-4.637zm-2.269 0h-.567v4.637h.567v-4.637zm-3.487 0h-.568v4.637h.568v-4.637zm-3.698 0h-.568v4.637h.568v-4.637zm-5.652 0h-.567v4.637h.567v-4.637z" fill="#FFA412"/><path d="M257.007 274.378h-.567v4.637h.567v-4.637zm-4.727 0h-.567v4.637h.567v-4.637zm28.824 0h-.567v4.637h.567v-4.637zm1.198 0h-.567v4.637h.567v-4.637zm1.155 0h-.567v4.637h.567v-4.637zm.862.021v4.616c-.063.021-.147.021-.21.021h-.358v-4.637h.358a.358.358 0 01.21 0zm.777.423v3.748c-.126.169-.336.296-.567.381v-4.51c.231.085.441.212.567.381z" fill="#FFA412"/><path d="M288.941 270.842v2.625a.955.955 0 01-.21.572c-.126.169-.336.297-.568.381a.748.748 0 01-.21.043c-.063 0-.147.021-.21.021h-49.35c-.189 0-.378-.043-.525-.106-.357-.148-.609-.466-.651-.805v-2.752c.021-.487.483-.889 1.05-.953h49.497c.063 0 .147 0 .21.021.084.022.147.021.21.043.231.084.421.211.568.381a.898.898 0 01.189.529z" fill="#FFB93E"/><path d="M264.697 274.484h-26.43c-.168 0-.336-.043-.483-.106a1.057 1.057 0 01-.588-.805v-2.752c.021-.487.42-.889.945-.953h23.32c.357 1.334 1.198 3.155 3.089 4.531.042.021.105.042.147.085zm18.236-4.637h-.568v4.637h.568v-4.637zm-1.891 0h-.568v4.637h.568v-4.637zm-2.29 0h-.568v4.637h.568v-4.637zm-3.488 0h-.567v4.637h.567v-4.637zm-3.676 0h-.567v4.637h.567v-4.637zm-5.673 0h-.567v4.637h.567v-4.637z" fill="#FFA412"/><path d="M260.621 269.847h-.567v4.637h.567v-4.637zm-4.727 0h-.567v4.637h.567v-4.637zm28.845 0h-.567v4.637h.567v-4.637zm1.198 0h-.567v4.637h.567v-4.637zm1.155 0h-.567v4.637h.567v-4.637zm.862 0v4.616c-.063.021-.147.021-.21.021h-.358v-4.637h.568zm.777.445v3.747c-.126.17-.336.297-.567.381v-4.509c.231.063.42.211.567.381z" fill="#FFA412"/><path d="M290.475 266.227v2.625a.956.956 0 01-.211.572c-.126.169-.336.297-.567.381a.748.748 0 01-.21.043h-49.56c-.631 0-1.156-.424-1.198-.953v-2.71c.042-.53.546-.953 1.198-.953h49.35c.063 0 .147 0 .21.021.084.021.147.021.21.042.231.085.42.212.567.382a.849.849 0 01.211.55z" fill="#FFB93E"/><path d="M266.251 269.848h-26.429c-.567 0-1.029-.424-1.072-.953v-2.71c.021-.53.505-.953 1.072-.953h23.194c.357 1.334 1.218 3.218 3.235 4.616 0 0-.021 0 0 0zm18.236-4.638h-.567v4.637h.567v-4.637zm-1.912 0h-.567v4.637h.567v-4.637zm-2.269 0h-.567v4.637h.567v-4.637zm-3.487 0h-.568v4.637h.568v-4.637zm-3.698 0h-.567v4.637h.567v-4.637zm-5.651 0h-.568v4.637h.568v-4.637z" fill="#FFA412"/><path d="M262.175 265.21h-.567v4.637h.567v-4.637zm-4.727.001h-.567v4.637h.567v-4.637zm28.846-.001h-.567v4.637h.567v-4.637zm1.176 0h-.567v4.637h.567v-4.637zm1.156 0h-.568v4.637h.568v-4.637zm.861.022v4.615c-.063 0-.147.021-.21.021h-.357v-4.636h.357a.356.356 0 01.21 0zm.777.423v3.748c-.126.169-.336.296-.567.381v-4.51c.252.085.441.212.567.381z" fill="#FFA412"/><path d="M291.777 261.632v2.625a.955.955 0 01-.21.572c-.126.169-.336.297-.567.381a.748.748 0 01-.21.043c-.063 0-.147.021-.21.021h-49.351c-.63 0-1.155-.424-1.197-.953v-2.71c.021-.487.483-.889 1.05-.953h49.498c.063 0 .147 0 .21.021.084.022.147.022.21.043.231.084.42.211.567.381.147.127.21.317.21.529z" fill="#FFB93E"/><path d="M267.554 265.274h-26.43c-.567 0-1.029-.424-1.071-.953v-2.71c.021-.487.42-.889.945-.953h23.299c.378 1.334 1.24 3.218 3.257 4.616zm18.236-4.637h-.568v4.637h.568v-4.637zm-1.912 0h-.567v4.637h.567v-4.637zm-2.269 0h-.567v4.637h.567v-4.637zm-3.488 0h-.567v4.637h.567v-4.637zm-3.697 0h-.568v4.637h.568v-4.637zm-5.651 0h-.568v4.637h.568v-4.637z" fill="#FFA412"/><path d="M263.478 260.637h-.567v4.637h.567v-4.637zm-4.727 0h-.567v4.637h.567v-4.637zm28.845 0h-.567v4.637h.567v-4.637zm1.198 0h-.567v4.637h.567v-4.637zm1.135 0h-.568v4.637h.568v-4.637zm.861 0v4.616c-.063.021-.147.021-.21.021h-.358v-4.637h.568zm.777.445v3.747c-.126.17-.336.297-.567.381v-4.509c.252.063.441.211.567.381z" fill="#FFA412"/><path d="M285.306 256.996v2.625a.957.957 0 01-.21.572c-.126.169-.336.296-.567.381a.746.746 0 01-.21.042h-49.56c-.631 0-1.156-.423-1.198-.953v-2.71c.042-.529.546-.953 1.198-.953h49.413c.042 0 .105 0 .147.022.084.021.147.021.21.042.042.021.063.021.105.042.021 0 .042.022.063.022.021 0 .042.021.063.042.021 0 .042.021.063.042.042.021.084.064.126.085.021 0 .021.021.042.021l.021.021.042.043c.021.021.042.042.042.063a.85.85 0 01.21.551z" fill="#FFB93E"/><path d="M261.084 260.637h-26.429c-.567 0-1.029-.423-1.072-.953v-2.731c.022-.529.505-.953 1.072-.953h23.194c0 .043.021.064.021.106.378 1.355 1.239 3.176 3.214 4.531-.021 0-.021 0 0 0zM279.298 256h-.568v4.637h.568V256zm-1.891 0h-.567v4.637h.567V256zm-2.269 0h-.567v4.637h.567V256zm-3.487 0h-.568v4.637h.568V256zm-3.698 0h-.568v4.637h.568V256zm-5.652 0h-.567v4.637h.567V256z" fill="#FFA412"/><path d="M257.007 256h-.567v4.637h.567V256zm-4.727 0h-.567v4.637h.567V256zm28.824 0h-.567v4.637h.567V256zm1.198 0h-.567v4.637h.567V256zm1.155 0h-.567v4.637h.567V256zm.862 0v4.616c-.063 0-.147.021-.21.021h-.358V256h.568zm.777.445v3.748c-.126.169-.336.296-.567.381v-4.51c.231.063.441.212.567.381z" fill="#FFA412"/><path d="M288.942 252.467v2.625a.955.955 0 01-.21.572c-.126.169-.336.297-.567.381a.748.748 0 01-.21.043c-.063 0-.147.021-.21.021h-49.35c-.19 0-.379-.043-.526-.106-.357-.148-.609-.466-.651-.805v-2.752c.021-.487.483-.889 1.05-.953h49.498c.063 0 .147 0 .21.021.084.022.147.022.21.043.231.084.42.211.567.381a.846.846 0 01.189.529z" fill="#FFB93E"/><path d="M264.697 256.109h-26.43c-.168 0-.336-.043-.483-.106a1.057 1.057 0 01-.588-.805v-2.752c.021-.487.42-.889.945-.953h23.32c.357 1.334 1.198 3.155 3.089 4.531.042 0 .105.042.147.085zm18.236-4.66h-.568v4.636h.568v-4.636zm-1.891 0h-.568v4.636h.568v-4.636zm-2.29 0h-.568v4.636h.568v-4.636zm-3.488 0h-.567v4.636h.567v-4.636zm-3.676 0h-.567v4.636h.567v-4.636zm-5.673 0h-.567v4.636h.567v-4.636z" fill="#FFA412"/><path d="M260.621 251.449h-.567v4.636h.567v-4.636zm-4.727 0h-.567v4.636h.567v-4.636zm28.845 0h-.567v4.636h.567v-4.636zm1.198 0h-.567v4.636h.567v-4.636zm1.155 0h-.567v4.636h.567v-4.636zm.862.021v4.615c-.063 0-.147.022-.21.022h-.358v-4.637h.358c.063-.021.126 0 .21 0zm.777.444v3.748c-.126.169-.336.296-.567.381v-4.51c.231.064.42.191.567.381z" fill="#FFA412"/><path d="M290.475 247.828v2.625a.956.956 0 01-.211.572c-.126.17-.336.297-.567.381a.748.748 0 01-.21.043h-49.56c-.631 0-1.156-.424-1.198-.953v-2.71c.042-.53.546-.953 1.198-.953h49.35c.063 0 .147 0 .21.021.084.021.147.021.21.043.231.084.42.211.567.381a.849.849 0 01.211.55z" fill="#FFB93E"/><path d="M266.251 251.47h-26.429c-.567 0-1.029-.424-1.072-.953v-2.71c.021-.53.505-.953 1.072-.953h23.194c.357 1.334 1.218 3.218 3.235 4.616 0 0-.021 0 0 0zm18.236-4.637h-.567v4.637h.567v-4.637zm-1.912 0h-.567v4.637h.567v-4.637zm-2.269 0h-.567v4.637h.567v-4.637zm-3.487 0h-.568v4.637h.568v-4.637zm-3.698 0h-.567v4.637h.567v-4.637zm-5.651 0h-.568v4.637h.568v-4.637z" fill="#FFA412"/><path d="M262.175 246.833h-.567v4.637h.567v-4.637zm-4.727 0h-.567v4.637h.567v-4.637zm28.846 0h-.567v4.637h.567v-4.637zm1.176 0h-.567v4.637h.567v-4.637zm1.156 0h-.568v4.637h.568v-4.637zm.861 0v4.616c-.063.021-.147.021-.21.021h-.357v-4.637h.567zm.777.445v3.747c-.126.169-.336.296-.567.381v-4.51c.252.064.441.212.567.382z" fill="#FFA412"/><path d="M289 237.481c12.012-12.105 12.012-31.73 0-43.835-12.011-12.105-31.485-12.105-43.496 0-12.012 12.105-12.012 31.73 0 43.835 12.011 12.105 31.485 12.105 43.496 0z" fill="#E2810E"/><path d="M286.313 237.485c12.011-12.104 12.011-31.73 0-43.835-12.012-12.104-31.486-12.104-43.497 0-12.011 12.105-12.011 31.731 0 43.835 12.011 12.105 31.485 12.105 43.497 0z" fill="#FFB93E"/><path d="M264.571 244.165c-7.479 0-14.518-2.942-19.812-8.278-5.294-5.335-8.214-12.428-8.214-19.965 0-7.538 2.92-14.63 8.214-19.966 5.294-5.335 12.333-8.278 19.812-8.278 7.479 0 14.517 2.943 19.811 8.278 5.295 5.336 8.215 12.428 8.215 19.966 0 7.537-2.92 14.63-8.215 19.965-5.294 5.357-12.311 8.278-19.811 8.278zm0-54.793c-14.539 0-26.346 11.92-26.346 26.55 0 14.651 11.828 26.55 26.346 26.55 14.538 0 26.345-11.92 26.345-26.55.021-14.63-11.807-26.55-26.345-26.55z" fill="#FFA412"/><path d="M268.436 224.137c.063-.614.042-1.165-.063-1.63a3.33 3.33 0 00-.693-1.355c-.336-.424-.798-.826-1.366-1.228-.567-.403-1.281-.784-2.122-1.207-1.449-.72-2.773-1.44-3.928-2.181-1.177-.741-2.143-1.546-2.942-2.414a8.395 8.395 0 01-1.743-2.943c-.358-1.079-.463-2.35-.294-3.768.147-1.228.504-2.329 1.05-3.303a7.972 7.972 0 012.164-2.435 9.412 9.412 0 013.109-1.482c1.177-.339 2.479-.487 3.887-.445l.546-4.658 3.719.445-.547 4.721c1.303.339 2.48.826 3.509 1.504a8.907 8.907 0 012.521 2.413 9.334 9.334 0 011.387 3.24c.273 1.207.315 2.54.147 4.001l-6.723-.804c.21-1.736-.021-3.091-.693-4.044-.673-.953-1.639-1.503-2.921-1.673-.693-.084-1.302-.063-1.827.085-.526.127-.967.36-1.345.656a3.273 3.273 0 00-.861 1.122 4.641 4.641 0 00-.4 1.482 4.302 4.302 0 00.063 1.482c.105.445.316.89.652 1.313.336.424.798.826 1.386 1.228.589.402 1.324.826 2.206 1.292a49.261 49.261 0 013.887 2.223c1.155.741 2.143 1.545 2.92 2.435a8.47 8.47 0 011.744 2.964c.357 1.08.462 2.329.294 3.747-.147 1.271-.504 2.393-1.071 3.367a7.986 7.986 0 01-2.185 2.413c-.883.635-1.933 1.122-3.131 1.44-1.197.318-2.5.445-3.907.423l-.505 4.32-3.697-.445.504-4.298a15.8 15.8 0 01-3.634-1.292 9.876 9.876 0 01-2.984-2.265c-.84-.932-1.449-2.054-1.87-3.366-.42-1.313-.504-2.837-.315-4.574l6.723.805c-.126 1.037-.084 1.905.126 2.625.21.72.525 1.313.946 1.8.441.466.945.826 1.533 1.059a6.765 6.765 0 001.849.465c.735.085 1.387.064 1.954-.063a4.245 4.245 0 001.471-.614c.42-.297.735-.656.966-1.08.294-.487.441-.974.504-1.503z" fill="#FFA412"/><path d="M160.492 119.842l-9.244 17.657-4.727-1.736 1.534 4.722-9.265 28.117c.021-.022-5.105-35.718 21.702-48.76z" fill="#233862"/><path d="M145.093 135.467s-10.211 37.941-11.198 74.145c0 0 8.466 2.985 21.786.614 13.362-2.371-10.588-74.759-10.588-74.759z" fill="#233862"/><path d="M96.184 188.059c2.73-.042 6.596.296 7.878-1.122 1.45-1.588 3.151-1.355 3.151-1.355l-.336-1.821-.42-2.181s-.147-.19-.714-.19c0 0-1.996.084-2.942-.254-2.311-.826-11.492 4.721-11.176 6.245.126.593 3.403.72 4.559.678z" fill="#E2915A"/><path d="M146.248 134.705s-15.505 32.288-20.316 35.76c-4.811 3.472-21.912 10.967-21.912 10.967s-.441 1.08-.042 2.647c.441 1.63 1.281 2.096 1.281 2.096s23.93-2.16 29.497-5.632c5.568-3.493 17.837-17.404 17.837-17.404l-6.345-28.434zm45.401 181.066h9.18c1.156-.636 2.185-2.075 2.522-4.235.441-2.985 3.76-4.615 4.474-7.05.715-2.435-2.962-5.865-2.962-5.865l-.609-.805-.63-.825-6.093 1.439s-.147 1.461-.252 3.324c-.063 1.334-.105 2.901-.021 4.256.189 3.261-.903 6.754-3.761 7.389-2.143.466-2.038 1.736-1.848 2.372z" fill="#233862"/><path d="M142.361 197.651s1.093 13.698 2.374 30.149c1.744 22.358 3.824 49.818 4.034 55.006.357 9.04 1.786 23.48 1.786 23.48s3.403 3.43 10.21 1.99c0 0 6.072-20.622 7.795-42.451.021-.36.063-.719.084-1.079 1.617-22.21 4.117-69.001 4.117-69.001l-30.4 1.906z" fill="#863236"/><path d="M142.361 197.651s1.093 13.698 2.374 30.149l23.846 38.025c.021-.36.063-.719.084-1.079 1.617-22.21 4.117-69.001 4.117-69.001l-30.421 1.906z" fill="#923A3E"/><path d="M147.34 199.281s19.623 49.585 32.522 72.875c12.9 23.289 16.934 29.789 16.934 29.789s7.395-2.985 8.067-5.018c0 0-4.937-44.97-13.572-55.937-4.874-6.204-10.609-24.793-10.883-31.293-.273-6.5-1.743-19.372-1.743-19.372l-31.325 8.956z" fill="#A64246"/><path d="M152.215 126.998c7.668 2.435 20.946-4.15 20.946-4.15s-7.08-5.356-6.702-16.472l-5.925 4.807-4.034 3.26s.021 1.927.463 5.314c.084.614.168 1.292.294 1.991a1.437 1.437 0 01-.652 1.439c-2.794 1.779-4.39 3.811-4.39 3.811z" fill="#FFB27D"/><path d="M141.521 198.793c.231.191.504.318.798.318 2.879-.043 11.282 1.566 18.383.847 5.988-.572 11.282-2.372 16.976-4.934.756-.338 2.5-1.27 2.458-2.138-.021-.932-.126-2.287-.231-3.98-.4-5.929-1.114-16.113-.421-27.863.126-2.181.189-4.362.189-6.5.063-15.922-3.067-29.938-9.37-34.68 0 0-4.391 2.477-7.437 3.451-2.983.953-4.517.762-6.05-.275 0 0-3.005 1.503-4.286 2.921-2.984 3.261-5.295 7.601-6.828 13.847-1.303 5.293-2.521 13.021-2.962 22.93-.169 4.488-1.408 35.908-1.219 36.056z" fill="#fff"/><path d="M178.77 146.159l-8.446-26.317s-20.273 7.707-21.198 36.543c-.378 6.564-1.933 33.495.904 55.81 0 0 15.798 6.204 35.148-6.034l-6.408-60.002z" fill="#2B478B"/><path d="M156.5 114.485s.021 1.927.463 5.314c4.454-.762 9.517-8.045 9.517-8.045-2.269-.656-4.265-.784-5.946-.529l-4.034 3.26z" fill="#ED975D"/><path d="M153.181 114.273s13.803 2.308 15.105-6.372c1.303-8.681 3.95-14.25-4.811-16.091-8.76-1.842-10.966 1.206-12.101 4.001-1.134 2.795-1.744 17.637 1.807 18.462z" fill="#FFB27D"/><path d="M213.792 226.699l-28.194 4.044c-3.677.529-7.101-2.075-7.626-5.759l-1.744-12.322c-.525-3.706 2.059-7.157 5.714-7.686l28.195-4.044c3.676-.529 7.101 2.075 7.626 5.759l1.744 12.322c.525 3.705-2.059 7.157-5.715 7.686z" fill="#233862"/><path d="M179.947 212.132l1.764 12.449a6.774 6.774 0 003.992 5.272c.693.297 1.429.508 2.206.551.483.042.966.021 1.471-.043l28.152-4.043c3.676-.53 6.26-4.002 5.735-7.707l-1.764-12.449c-.526-3.706-3.971-6.31-7.648-5.781l-9.685 1.398-.378-2.668a2.231 2.231 0 00-2.521-1.905l-1.072.148-5.903.847-1.471.211a2.265 2.265 0 00-1.47.869 2.264 2.264 0 00-.421 1.672l.379 2.668-5.61.804a48.22 48.22 0 00-.651.127c-2.164.53-3.887 2.118-4.664 4.108a6.243 6.243 0 00-.441 3.472zm22.815-10.163l-10.063 1.44-.378-2.668a.838.838 0 01.714-.952l2.521-.36 4.643-.678 1.261-.169c.084-.021.168 0 .252 0a.85.85 0 01.693.72l.357 2.667z" fill="#2B478B"/><path d="M192.342 190.028s1.47 1.99 1.533 2.774c.4 5.377-2.037 6.118 4.286 9.125 0 0 2.689 1.037 2.752-1.08.042-2.117-1.869-2.138-1.512-5.102.399-3.409.357-3.451-1.849-5.23l-1.471-2.456-3.739 1.969z" fill="#FFB27D"/><path d="M196.102 191.552c-2.374.466-4.958.276-4.958.276s-7.059-21.998-7.983-24.01c-.904-2.011-20.988-25.809-20.988-25.809l8.151-22.167s4.769 2.816 9.833 11.602c6.239 10.862 13.109 28.329 14.328 31.166 3.655 8.49 4.916 27.524 4.916 27.524s-1.429 1.058-3.299 1.418zm-27.794-84.498s-1.408-.233-1.198-2.202c.231-1.969.231-4.531-1.365-4.065-1.597.487-1.66 1.757-2.311 1.016-.652-.741-.673-3.896-5.379-4.129-4.727-.211-6.639 1.44-8.845.466-2.206-.974-2.311-4.319-2.311-4.319s.631 1.207 1.576 1.567c0 0-3.655-5.06.588-8.511 4.244-3.473 8.572-1.186 11.03-1.038 5.399.339 8.908.657 10.673 4.235 1.743 3.599 1.008 13.55-2.458 16.98z" fill="#2B478B"/><path d="M194.674 192.399s-1.429 1.504-1.513 2.118c-.294 2.011-.945 2.858-.609 3.091.693.444 1.596-1.038 2.038-2.35.441-1.334.084-2.859.084-2.859z" fill="#FFB27D"/><path d="M170.324 119.842l-9.244 17.657-4.727-1.736 1.534 4.722-9.265 28.117c0-.022-5.126-35.718 21.702-48.76z" fill="#233862"/><path d="M152.215 109.341s.546 1.439 1.89 1.461c1.345.042 2.374-1.271 2.374-1.271s-2.92-.677-4.264-.19z" fill="#fff"/><path d="M80.154 242.578l28.047-6.543c3.655-.847 5.945-4.552 5.105-8.236l-2.815-12.237c-.841-3.684-4.517-5.992-8.173-5.145l-28.047 6.542c-3.656.847-5.945 4.552-5.105 8.236l2.815 12.238c.84 3.684 4.517 5.991 8.173 5.145z" fill="#7F1D29"/><path d="M105.133 213.275c-1.47-1.588-3.655-2.456-5.882-2.16-.21.021-.442.064-.652.127l-5.588 1.313-.61-2.647a2.175 2.175 0 00-1.008-1.418 2.276 2.276 0 00-1.701-.296l-1.45.338-5.862 1.376-1.05.255a2.252 2.252 0 00-1.68 2.731l.609 2.646-9.644 2.245c-3.655.846-5.966 4.573-5.126 8.278l2.858 12.386c.84 3.684 4.537 6.013 8.193 5.166l27.984-6.542a6.213 6.213 0 001.408-.487 6.576 6.576 0 001.869-1.334 6.956 6.956 0 001.849-6.437l-2.857-12.385c-.294-1.25-.861-2.308-1.66-3.155zm-24.14-.72a.872.872 0 01.4-.932.776.776 0 01.231-.105l1.24-.297 4.622-1.08 2.52-.592a.829.829 0 011.01.635l.608 2.646-10.02 2.329-.61-2.604z" fill="#AC484C"/><path d="M86.75 197.332s-.84 3.028-.546 4.002c1.975 6.542 5.379 10.819-3.781 9.718 0 0 .378-.381-1.366-3.705-2.017-3.832-1.996-3.896-.168-7.008l.63-3.557 5.231.55zm11.513-7.77c-2.773-.169-6.134-.889-7.353-2.371-1.386-1.673-2.773-2.117-2.773-2.117l.42-1.821.504-2.181s.168-.19.736-.169c0 0 2.164.487 2.983-.127.798-.635 2.269-.254 3.172.36 1.156.762 2.71.656 2.668 1.016 0 0-2.29 1.122-2.08 1.313 2.101 1.863 7.606 2.625 7.249 4.086-.147.571-4.35 2.075-5.526 2.011zm-38.53-71.181v1.524s.4 4.743-5.378 5.42c-5.778.699-10.526.593-10.379-3.048.526-2.837 1.45-7.22 1.492-9.57.02-.868-.042-1.8-.21-2.837l11.219-.233 3.298.55-.042 8.194z" fill="#FFB27D"/><path d="M59.775 110.187l-.042 8.194a9.576 9.576 0 01-4.034.889c-5.147 0-8.487-3.811-10.231-6.563.02-.868-.042-1.8-.21-2.837l11.219-.233 3.298.55z" fill="#E2915A"/><path d="M44.396 108.049c1.303 7.05 10.337 6.817 14.244 6.373 1.093-.128 1.786-.255 1.786-.255 1.24-.338 1.933-2.307 2.248-4.869.63-5.103-.168-12.576-1.03-14.503-1.281-2.88-3.718-5.992-12.815-3.748-9.076 2.245-6.093 7.961-4.433 17.002z" fill="#FFB27D"/><path d="M75.7 312.912c.042 1.757.252 3.409.882 4.065h25.316c-.315-.932-1.24-2.308-3.824-2.731-2.962-.487-7.563-1.906-10.252-4.785-.967-1.017-1.68-2.223-1.975-3.621-1.198-5.356-9.853 1.63-9.853 1.63s-.357 2.838-.294 5.442z" fill="#233862"/><path d="M58.85 255.111c.358 1.948.568 3.557.63 4.722.8 15.837 13.215 52.02 15.442 52.867 3.446 1.313 8.845-1.461 11.681-2.371 1.177-.381 1.975-1.567 1.702-2.774-6.156-28.477-8.404-69.487-9.223-93.772-.42-12.237-2.5-20.685-2.5-20.685s-30.274-8.152-30.463 2.159c-.147 9.083 10.042 44.822 12.731 59.854z" fill="#2B478B"/><path d="M58.85 255.111l20.232-41.37c-.42-12.238-2.5-20.686-2.5-20.686s-30.274-8.151-30.463 2.16c-.147 9.125 10.042 44.864 12.731 59.896z" fill="#233862"/><path d="M65.594 195.258L49.586 312.171s-7.038 1.715-12.5.339c0 0-4.686-62.183-4.287-77.216.4-15.032-3.361-40.227.862-43.001 4.222-2.773 31.933 2.965 31.933 2.965z" fill="#2B478B"/><path d="M62.023 95.896c-2.5.783-7.794-.021-10 1.778-2.206 1.8-.105 4.764-2.627 5.844a1.255 1.255 0 01-1.45-.36c-.692-.889-1.659-1.757-2.541-1.397-.736.296-.757 1.249-.441 2.159.273.762.189 1.63-.273 2.308-.21.296-.337.614-.274.931.21 1.165.778 2.689.988 3.452l.063.804s-4.223-4.615-6.009-8.49c-1.218-2.668-1.197-12.619 4.79-15.54-.02-.022-.042-.043-.063-.064-.126-.233-.483-.19-.483-.19.504-.233 1.303-.085 1.303-.085-.021-.021.02-.043.084-.106.105-.699.798-1.207.798-1.207a2.423 2.423 0 00-.378.953c1.576-.826 6.408-2.689 10.252-.995 2.584 1.143 4.98 1.736 6.597 2.053 1.324.255 2.27 1.461 2.227 2.816-.126 1.927-.777 4.68-2.563 5.336z" fill="#233862"/><path d="M42.61 124.288l3.677 79.693s30.757.508 29.875-6.5c-.882-7.008-11.093-70.737-11.093-70.737" fill="#E9F3FE"/><path d="M52.758 174.212s-1.555 21.278-4.56 34.638c0 0-17.94.953-22.206-6.034 0 0 3.383-28.752 3.383-34.574 0-2.054-.147-4.828-.4-7.961-.378-4.722-.945-10.184-1.49-14.948-.757-6.627-1.472-11.899-1.472-11.899l14.79-12.11 11.955 52.888zm35.61 25.174s-3.34 2.117-8.614 1.397c-1.911 4.743-6.45 6.352-6.45 5.929 0-.043-1.008-8.956-2.226-19.458-.126-1.058-.231-2.117-.357-3.175 0-.085-.021-.191-.042-.276-.21-1.757-.4-3.535-.61-5.314-1.45-12.64-2.836-24.75-2.836-24.75-3.151-19.415-5.82-32.246-5.82-32.246 6.724.699 11.24 3.112 13.047 6.267 5.358 9.358 9.244 32.775 11.513 50.306 0 .042 0 .084.021.127.4 3.027.735 5.864 1.03 8.447.02.17.042.318.063.466a554.18 554.18 0 011.281 12.28z" fill="#22407A"/><path d="M57.233 109.192s.294.91 2.563.572c0 0 1.912-.276 1.765-1.292 0 .021-1.912-.55-4.328.72z" fill="#fff"/><path d="M41.75 121.239c-.043-.762 3.529-1.821 3.529-1.821s4.096 5.717 10.84 5.823c0 0-1.911 3.768-4.18 4.742-.022 0-9.98-4.234-10.19-8.744zm14.348 3.874s3.572-2.138 3.593-4.446c0 0 2.31-.296 3.32.826 0 0 .84 3.959-.274 6.267 0 0-5.147-.783-6.639-2.647z" fill="#D9E9F9"/><path d="M53.682 124.753l4.832-1.164s.63.063.61.847c-.021.804-1.366 3.112-1.954 3.303-.589.19-4.622-1.377-3.488-2.986z" fill="#BF6064"/><path d="M42.297 120.837c-.042-.762 2.374-2.329 2.374-2.329s4.685 5.505 11.429 5.61c0 0-1.912 3.769-4.181 4.743 0 0-9.391-3.515-9.622-8.024z" fill="#E9F3FE"/><path d="M56.098 124.118s3.614-1.926 3.614-4.234c0 0 2.185.974 3.193 2.096 0 0 .925 2.498-.189 4.806.021 0-5.126-.783-6.618-2.668z" fill="#E9F3FE"/><path d="M64.964 190.938c-.189 2.287-1.05 4.425-2.437 5.992l-2.164 2.477c-.546.614-1.386.551-1.828-.169l-2.626-4.129c-.693-1.101-1.03-2.519-.903-3.938.273-3.154.798-9.252 1.218-15.117.358-4.764.63-9.379.673-12.195.147-8.977-1.03-37.56-1.03-37.56l1.744.085s4.223 11.052 6.345 26.148c.525 3.705.924 7.664 1.092 11.772 0-.022.756 16.323-.084 26.634z" fill="#BF6064"/><path d="M64.964 190.938c-.189 2.287-1.05 4.425-2.437 5.992l-2.164 2.477c-.546.614-1.386.551-1.828-.169l-2.626-4.129c-.693-1.101-1.03-2.519-.903-3.938.273-3.154.798-9.252 1.218-15.117 4.874-6.733 6.912-15.985 7.732-23.522.525 3.705.924 7.664 1.092 11.772 0-.022.756 16.323-.084 26.634z" fill="#BF6064"/><path d="M44.69 118.508s9.58 40.46 8.068 55.704c0 0-3.53-16.281-11.996-29.62 0 0 3.088-2.752 2.92-3.747 0 0-2.29-.678-4.517-.233 0 0 .252-17.446 1.639-19.288 1.365-1.842 3.886-2.816 3.886-2.816zm15.043 1.376c-1.429.127 9.496 39.528 10.315 52.168 0 0-.966-22.548-.861-29.048 0 0-3.992-2.117-3.992-2.88 0-.741 4.244-2.752 4.244-2.752s-2.69-13.889-4.16-15.413c-1.47-1.525-5.546-2.075-5.546-2.075z" fill="#233862"/><path d="M79.754 202.393s-.672.91-.252 3.175c.42 2.266.19 3.536.778 3.134.588-.402 1.785-3.134 1.785-3.134l-2.31-3.175z" fill="#FFB27D"/><path d="M51.581 180.437c-11.156-1.673-18.614-12.195-22.627-20.156-.378-4.722-.945-10.184-1.491-14.948l2.605-7.516 21.513 42.62zm35.527 6.669c-2.227.508-8.971 1.778-16.03.148-.126-1.059-.231-2.117-.358-3.176 0-.084-.02-.19-.041-.275l.693-2.731c3.992 1.439 12.92 4.594 15.672 5.568.022.148.043.318.064.466z" fill="#233862"/><path d="M40.783 121.324s-9.811 1.249-14.286 7.537 5.126 40.587 25.084 51.576c9.601 5.293 37.291 6.478 37.291 6.478s1.513.149 2.122-2.943c.21-1.079 0-2.921 0-2.921s-31.513-11.92-34.286-14.207c-2.774-2.265-15.925-45.52-15.925-45.52z" fill="#22407A"/><path d="M102.801 181.157s-3.298-.826-4.244-1.038c-1.113-.233-2.121-1.08-2.437-.677-.588.741 1.933 2.011 2.92 4.277.484 1.101 1.471 1.715 3.446.889 1.009-.402 1.786-2.477.315-3.451z" fill="#E2915A"/><path d="M211.522 114.356c7.898-.496 13.902-7.35 13.41-15.31-.491-7.96-7.293-14.01-15.191-13.515-7.898.496-13.902 7.35-13.41 15.31.491 7.959 7.293 14.01 15.191 13.515z" fill="#BF6064"/><path d="M206.019 94.16c0-2.562 2.058-4.637 4.6-4.637 2.543 0 4.601 2.075 4.601 4.637 0 2.562-2.058 4.636-4.601 4.636-2.542 0-4.6-2.075-4.6-4.636zm4.6 4.636c-4.432 0-8.046 3.621-8.046 8.109h16.093c0-4.488-3.614-8.109-8.047-8.109z" fill="#fff"/><path d="M114.185 63.804c1.227-5.235-1.99-10.48-7.184-11.717-5.194-1.236-10.4 2.006-11.626 7.24-1.227 5.235 1.99 10.48 7.184 11.717 5.195 1.236 10.4-2.006 11.626-7.24z" fill="#AC252B"/><path d="M101.667 57.659a3.115 3.115 0 013.109-3.134 3.115 3.115 0 013.11 3.134 3.115 3.115 0 01-3.11 3.133 3.142 3.142 0 01-3.109-3.133z" fill="#fff"/><path d="M104.776 60.772c-3.004 0-5.42 2.456-5.42 5.462h10.862c-.021-3.006-2.458-5.462-5.442-5.462z" fill="#fff"/><path d="M173.644 12.668c.147-.445.609-.7 1.05-.55a.833.833 0 01.546 1.058.824.824 0 01-1.05.55c-.42-.127-.672-.614-.546-1.058zm3.718 1.164c.147-.445.609-.699 1.051-.55a.833.833 0 01.546 1.058c-.147.445-.609.699-1.051.55a.878.878 0 01-.546-1.058zm4.328 2.223a.842.842 0 01-.546-1.058c.147-.445.609-.699 1.05-.55a.834.834 0 01.547 1.058.825.825 0 01-1.051.55zm3.214.106a.825.825 0 011.051-.55.833.833 0 01.546 1.058c-.147.445-.609.699-1.05.55-.421-.126-.673-.613-.547-1.058zm3.719 1.165c.147-.445.609-.699 1.05-.55a.833.833 0 01.547 1.058.825.825 0 01-1.051.55.878.878 0 01-.546-1.058zm4.328 2.223a.833.833 0 01-.546-1.059.824.824 0 011.05-.55.833.833 0 01.546 1.058c-.126.445-.609.678-1.05.55zm3.067.063c.147-.445.609-.699 1.051-.55a.833.833 0 01.546 1.058c-.147.445-.609.699-1.051.55a.842.842 0 01-.546-1.058zm3.719 1.144c.147-.445.609-.7 1.05-.551a.833.833 0 01.546 1.059.824.824 0 01-1.05.55.833.833 0 01-.546-1.058zM204.065 23a.841.841 0 01-.547-1.059.825.825 0 011.051-.55.833.833 0 01.546 1.058.868.868 0 01-1.05.55zm3.214.106a.824.824 0 011.05-.55.833.833 0 01.547 1.058c-.147.444-.61.698-1.051.55a.842.842 0 01-.546-1.058zm3.719 1.143a.824.824 0 011.05-.55.833.833 0 01.546 1.058.824.824 0 01-1.05.55.833.833 0 01-.546-1.058zm4.306 2.223a.833.833 0 01-.546-1.059c.147-.444.609-.698 1.051-.55a.833.833 0 01.546 1.058.816.816 0 01-1.051.55zm3.236.128c.147-.445.609-.7 1.05-.551a.842.842 0 01.547 1.058c-.148.445-.61.699-1.051.55a.842.842 0 01-.546-1.058zm3.719 1.142c.147-.444.609-.698 1.05-.55a.842.842 0 01.546 1.058c-.147.445-.609.7-1.05.55a.833.833 0 01-.546-1.058zm4.327 2.223a.842.842 0 01-.546-1.058c.147-.445.609-.699 1.051-.55a.842.842 0 01.546 1.058c-.147.445-.61.699-1.051.55zm3.215.128c.147-.445.609-.699 1.05-.55a.833.833 0 01.546 1.058c-.147.445-.609.699-1.05.55a.842.842 0 01-.546-1.058zm3.718 1.143a.824.824 0 011.051-.55.842.842 0 01.546 1.058c-.147.445-.61.7-1.051.551a.833.833 0 01-.546-1.059zm4.307 2.224a.842.842 0 01-.546-1.06c.147-.444.609-.698 1.05-.55a.833.833 0 01.547 1.059c-.147.444-.589.698-1.051.55zm3.067.063c.147-.445.61-.7 1.051-.55a.842.842 0 01.546 1.058c-.147.444-.609.698-1.05.55-.421-.127-.673-.614-.547-1.058zm3.719 1.164c.147-.444.609-.699 1.05-.55a.841.841 0 01.547 1.058.825.825 0 01-1.051.55.878.878 0 01-.546-1.058zm4.328 2.223a.842.842 0 01-.546-1.058c.147-.445.609-.699 1.05-.55a.833.833 0 01.546 1.058c-.126.423-.609.677-1.05.55zm3.214.106a.825.825 0 011.051-.55.833.833 0 01.546 1.058c-.147.444-.609.699-1.05.55a.833.833 0 01-.547-1.058zm3.719 1.144c.147-.445.609-.7 1.05-.551a.834.834 0 01.547 1.058c-.148.445-.61.7-1.051.55-.441-.126-.672-.592-.546-1.058zm4.328 2.243a.841.841 0 01-.547-1.058c.147-.445.61-.699 1.051-.55a.833.833 0 01.546 1.058.85.85 0 01-1.05.55zm-39.56 44.779a.852.852 0 01-.189-1.185.836.836 0 011.176-.19.852.852 0 01.189 1.185.836.836 0 01-1.176.19zm2.311-3.154a.852.852 0 01-.189-1.186.836.836 0 011.176-.19.852.852 0 01.189 1.185.836.836 0 01-1.176.19zm3.508-3.388a.836.836 0 01-1.176.19.852.852 0 01-.19-1.185.838.838 0 011.177-.19.852.852 0 01.189 1.185zm1.156-3.027a.851.851 0 01-.19-1.186.838.838 0 011.177-.19.852.852 0 01.189 1.186c-.273.38-.819.465-1.176.19zm2.289-3.176a.852.852 0 01-.189-1.185.838.838 0 011.177-.191.852.852 0 01.189 1.186c-.273.402-.798.465-1.177.19zm3.509-3.387a.837.837 0 01-1.177.19.852.852 0 01-.189-1.186.838.838 0 011.177-.19c.378.275.462.825.189 1.185zm1.156-3.029a.852.852 0 01-.189-1.186.836.836 0 011.176-.19.852.852 0 01.189 1.186.836.836 0 01-1.176.19zm2.311-3.154a.852.852 0 01-.189-1.186.836.836 0 011.176-.19.85.85 0 01.189 1.185c-.273.381-.819.466-1.176.19zm3.508-3.387a.836.836 0 01-1.176.19.852.852 0 01-.189-1.186.836.836 0 011.176-.19.85.85 0 01.189 1.185zm1.135-3.029a.852.852 0 01-.189-1.185.836.836 0 011.176-.19.852.852 0 01.189 1.185.836.836 0 01-1.176.19zm2.311-3.154a.852.852 0 01-.189-1.186.836.836 0 011.176-.19.852.852 0 01.189 1.185.836.836 0 01-1.176.191zm3.508-3.387a.836.836 0 01-1.176.19.852.852 0 01-.189-1.186.836.836 0 011.176-.19.852.852 0 01.189 1.185zm1.051-2.901a.85.85 0 01-.189-1.186.836.836 0 011.176-.19.852.852 0 01.189 1.185.836.836 0 01-1.176.191zm2.311-3.176a.851.851 0 01-.189-1.186.836.836 0 011.176-.19.852.852 0 01.189 1.185c-.273.402-.798.466-1.176.19zm3.508-3.388a.836.836 0 01-1.176.191.852.852 0 01-.189-1.186.836.836 0 011.176-.19c.378.275.462.826.189 1.185zm1.156-3.005a.852.852 0 01-.189-1.186.836.836 0 011.176-.191.852.852 0 01.189 1.186c-.294.38-.819.465-1.176.19zm2.29-3.177a.852.852 0 01-.189-1.186.836.836 0 011.176-.19.852.852 0 01.189 1.185.836.836 0 01-1.176.19zm3.508-3.387a.836.836 0 01-1.176.19.851.851 0 01-.19-1.185.838.838 0 011.177-.191.852.852 0 01.189 1.186zm-33.551 67.582a.84.84 0 01.693-.974c.462-.085.882.233.966.699a.84.84 0 01-.693.973.824.824 0 01-.966-.698zm3.823-.635a.84.84 0 01.694-.974c.462-.085.882.233.966.698a.84.84 0 01-.693.974c-.441.085-.883-.233-.967-.698zm4.874.063c-.462.085-.882-.233-.966-.699a.84.84 0 01.693-.974c.463-.084.883.233.967.7a.872.872 0 01-.694.973zm2.921-1.334a.84.84 0 01.693-.974c.462-.085.882.233.966.699a.84.84 0 01-.693.974c-.462.063-.903-.254-.966-.699zm3.844-.635a.84.84 0 01.694-.974c.462-.084.882.233.966.7a.84.84 0 01-.693.973c-.463.064-.904-.254-.967-.699zm4.853.043c-.462.084-.882-.234-.966-.7a.84.84 0 01.693-.973c.463-.085.883.232.967.698.063.466-.231.91-.694.974zm2.942-1.335a.84.84 0 01.693-.974c.462-.084.882.233.966.7a.84.84 0 01-.693.973c-.462.064-.903-.233-.966-.699zm3.823-.635a.84.84 0 01.694-.973c.462-.085.882.233.966.698a.84.84 0 01-.693.974c-.462.085-.883-.233-.967-.698zm4.853.064c-.462.085-.882-.233-.966-.699a.84.84 0 01.693-.974c.462-.084.883.233.967.699.084.445-.232.89-.694.974zm2.942-1.356a.84.84 0 01.693-.973c.462-.085.882.233.966.698a.839.839 0 01-.693.974.824.824 0 01-.966-.699zm3.844-.634a.84.84 0 01.693-.974c.463-.085.883.233.967.698a.84.84 0 01-.693.974.825.825 0 01-.967-.698zm4.853.063c-.462.085-.882-.233-.966-.698a.84.84 0 01.693-.974c.463-.085.883.233.967.698a.856.856 0 01-.694.974zm2.753-1.312a.84.84 0 01.693-.974c.462-.085.882.233.966.699a.84.84 0 01-.693.973.862.862 0 01-.966-.698zm3.844-.635a.84.84 0 01.693-.974c.463-.085.883.233.967.698a.84.84 0 01-.694.974.85.85 0 01-.966-.698zm4.853.042c-.462.085-.882-.233-.966-.699a.84.84 0 01.693-.974c.462-.084.883.233.967.699a.83.83 0 01-.694.974zm2.941-1.334a.84.84 0 01.694-.974c.462-.085.882.233.966.699a.84.84 0 01-.693.974.826.826 0 01-.967-.699zm3.824-.635a.84.84 0 01.694-.974c.462-.085.882.233.966.699a.84.84 0 01-.693.973c-.442.085-.883-.232-.967-.698zm4.874.063c-.462.085-.882-.233-.966-.698a.84.84 0 01.693-.974c.462-.085.883.232.967.698a.873.873 0 01-.694.974zm-88.763-5.314a.824.824 0 01-1.05-.55.833.833 0 01.546-1.059.825.825 0 011.051.55.859.859 0 01-.547 1.06zm-1.197-3.726a.825.825 0 01-1.051-.55.833.833 0 01.547-1.06.824.824 0 011.05.551c.147.424-.105.91-.546 1.059zm-.651-4.849a.833.833 0 01-.547 1.059.824.824 0 01-1.05-.55.833.833 0 01.546-1.06c.441-.147.904.107 1.051.551zm-1.744-2.731a.825.825 0 01-1.051-.55.833.833 0 01.547-1.06.824.824 0 011.05.551.86.86 0 01-.546 1.059zm-1.198-3.726a.824.824 0 01-1.05-.55.833.833 0 01.546-1.06.825.825 0 011.051.551.842.842 0 01-.547 1.059zm-.651-4.849a.833.833 0 01-.546 1.059.825.825 0 01-1.051-.55.833.833 0 01.547-1.06c.441-.148.903.107 1.05.551zm-1.744-2.731a.824.824 0 01-1.05-.55.833.833 0 01.546-1.059.824.824 0 011.05.55.842.842 0 01-.546 1.06zm-1.176-3.747a.825.825 0 01-1.051-.55.833.833 0 01.547-1.06.824.824 0 011.05.551c.126.445-.105.932-.546 1.059zm-.673-4.849a.833.833 0 01-.546 1.06.824.824 0 01-1.05-.551.833.833 0 01.546-1.059c.441-.127.924.106 1.05.55zm-1.743-2.71a.824.824 0 01-1.051-.55.833.833 0 01.546-1.059.825.825 0 011.051.55.842.842 0 01-.546 1.06zm-1.177-3.747a.824.824 0 01-1.05-.551.833.833 0 01.546-1.059.824.824 0 011.05.55.833.833 0 01-.546 1.06zm-.651-4.849a.833.833 0 01-.546 1.059.824.824 0 01-1.051-.55.833.833 0 01.546-1.06.86.86 0 011.051.551zm-1.702-2.562a.824.824 0 01-1.05-.55.832.832 0 01.546-1.059.824.824 0 011.05.55.842.842 0 01-.546 1.06zM190.01 34.2a.824.824 0 01-1.051-.55.833.833 0 01.546-1.059.825.825 0 011.051.55.833.833 0 01-.546 1.06zm-.652-4.848a.833.833 0 01-.546 1.058.824.824 0 01-1.05-.55.832.832 0 01.546-1.059.808.808 0 011.05.55zm-1.744-2.732a.824.824 0 01-1.05-.55.833.833 0 01.546-1.059.825.825 0 011.051.55.841.841 0 01-.547 1.06zm-1.176-3.726a.824.824 0 01-1.05-.55.833.833 0 01.546-1.059.824.824 0 011.05.55.868.868 0 01-.546 1.06zm-.651-4.848a.833.833 0 01-.546 1.058.824.824 0 01-1.051-.55.833.833 0 01.546-1.059c.42-.148.904.106 1.051.55zm-75.632 38.766c-.274-.381-.169-.91.21-1.186.378-.275.903-.17 1.176.212.273.381.168.91-.21 1.185-.399.255-.924.17-1.176-.211zm3.193-2.245c-.273-.38-.168-.91.21-1.185.378-.276.903-.17 1.176.211.274.381.169.91-.21 1.186-.378.275-.903.17-1.176-.212zm4.412-2.032c-.378.275-.904.17-1.177-.212-.273-.381-.168-.91.21-1.186.379-.275.904-.169 1.177.212a.838.838 0 01-.21 1.186zm2.08-2.477c-.274-.381-.168-.91.21-1.186.378-.275.903-.17 1.176.212.273.381.168.91-.21 1.186-.378.275-.903.169-1.176-.212zm3.214-2.223c-.273-.381-.168-.91.21-1.186.378-.275.903-.17 1.177.212.273.38.168.91-.211 1.186a.837.837 0 01-1.176-.212zm4.412-2.055c-.378.276-.904.17-1.177-.21-.273-.382-.168-.911.21-1.187.379-.275.904-.169 1.177.212.252.403.168.932-.21 1.186zm2.08-2.477c-.273-.38-.168-.91.21-1.185s.903-.17 1.176.212c.274.38.168.91-.21 1.185-.399.276-.924.19-1.176-.212zm3.193-2.223c-.273-.38-.168-.91.21-1.185.378-.276.904-.17 1.177.211.273.382.168.91-.21 1.186-.378.275-.904.17-1.177-.212zm4.412-2.032c-.378.275-.903.17-1.176-.212-.274-.38-.168-.91.21-1.185.378-.276.903-.17 1.176.211a.838.838 0 01-.21 1.186zm2.08-2.478c-.273-.38-.168-.91.21-1.185s.903-.17 1.177.212c.273.38.168.91-.211 1.185-.378.276-.903.17-1.176-.211zm3.214-2.222c-.273-.381-.168-.91.21-1.186.379-.275.904-.17 1.177.212.273.381.168.91-.21 1.186-.399.254-.925.17-1.177-.212zm4.412-2.054c-.378.275-.903.17-1.176-.212-.273-.38-.168-.91.21-1.185.378-.276.903-.17 1.176.211a.85.85 0 01-.21 1.186zm1.933-2.371c-.273-.381-.168-.91.21-1.186.378-.275.904-.17 1.177.212.273.38.168.91-.21 1.185-.379.276-.904.17-1.177-.211zm3.214-2.223c-.273-.381-.168-.91.21-1.186.379-.275.904-.169 1.177.212s.168.91-.21 1.186c-.399.254-.925.17-1.177-.212zm4.412-2.054c-.378.275-.903.17-1.176-.212-.273-.38-.168-.91.21-1.185s.903-.17 1.177.212a.849.849 0 01-.211 1.185zm2.08-2.477c-.273-.381-.168-.91.21-1.186.379-.275.904-.17 1.177.212.273.38.168.91-.21 1.186-.399.275-.925.19-1.177-.212zm3.194-2.223c-.273-.382-.168-.91.21-1.186.378-.275.903-.17 1.176.212.273.38.168.91-.21 1.185-.378.276-.903.17-1.176-.211zm4.412-2.033c-.379.276-.904.17-1.177-.212-.273-.38-.168-.91.21-1.185s.903-.17 1.177.212c.273.38.168.91-.21 1.185zM270.936 45.21a.852.852 0 011.198.02.868.868 0 01-.021 1.207.852.852 0 01-1.198-.02c-.315-.34-.315-.89.021-1.208zm2.689 2.837a.852.852 0 011.198.02.868.868 0 01-.021 1.208.852.852 0 01-1.198-.022c-.315-.36-.315-.889.021-1.206zm2.711 4.064a.866.866 0 01.021-1.206.851.851 0 011.197.02.868.868 0 01-.021 1.208.832.832 0 01-1.197-.022zm2.752 1.673a.851.851 0 011.197.021.866.866 0 01-.021 1.207.851.851 0 01-1.197-.021c-.315-.36-.315-.89.021-1.207zm2.689 2.837a.851.851 0 011.197.021c.337.34.316.869-.02 1.207a.852.852 0 01-1.198-.02c-.315-.36-.315-.89.021-1.208zm2.71 4.065a.868.868 0 01.021-1.207.852.852 0 011.198.021c.336.34.315.868-.021 1.207a.833.833 0 01-1.198-.02zm2.752 1.673a.852.852 0 011.198.02.868.868 0 01-.021 1.208.852.852 0 01-1.198-.022c-.315-.338-.315-.889.021-1.206zm2.689 2.837a.852.852 0 011.198.02c.336.34.315.869-.021 1.208-.336.338-.862.317-1.198-.022-.315-.36-.315-.889.021-1.206zm2.71 4.064a.868.868 0 01.021-1.206.852.852 0 011.198.021.868.868 0 01-.021 1.207.833.833 0 01-1.198-.021zm2.753 1.673a.851.851 0 011.197.021.868.868 0 01-.021 1.207c-.336.34-.861.318-1.197-.02a.846.846 0 01.021-1.208zm2.689 2.837a.851.851 0 011.197.022.868.868 0 01-.021 1.206.851.851 0 01-1.197-.02c-.315-.36-.315-.89.021-1.208zm2.71 4.065a.868.868 0 01.021-1.206.851.851 0 011.197.02.868.868 0 01-.021 1.208c-.357.317-.882.317-1.197-.022z" fill="#D5E5FB"/><path d="M192.218 15.696c1.054-6.544-3.356-12.71-9.85-13.773-6.494-1.062-12.613 3.382-13.666 9.927-1.054 6.544 3.356 12.71 9.85 13.773 6.494 1.062 12.612-3.382 13.666-9.927z" fill="#BF6064"/><path d="M176.627 8.962c0-2.117 1.701-3.853 3.823-3.853s3.824 1.715 3.824 3.853c0 2.117-1.702 3.854-3.824 3.854s-3.823-1.737-3.823-3.854z" fill="#fff"/><path d="M180.45 12.815c-3.697 0-6.68 3.007-6.68 6.733h13.361c0-3.726-2.983-6.733-6.681-6.733z" fill="#fff"/><path d="M281.097 37.45c1.369-10.114-5.658-19.431-15.694-20.81-10.036-1.38-19.281 5.702-20.65 15.816-1.368 10.114 5.658 19.431 15.694 20.81 10.037 1.38 19.282-5.701 20.65-15.816z" fill="#AC252B"/><path d="M262.911 33.438c3.249 0 5.882-2.655 5.882-5.929 0-3.274-2.633-5.928-5.882-5.928-3.249 0-5.883 2.654-5.883 5.928s2.634 5.928 5.883 5.928zm0 0c-5.694 0-10.295 4.657-10.295 10.374h20.61c0-5.717-4.622-10.374-10.315-10.374z" fill="#fff"/><path d="M321.132 86.811c.673-6.853-4.294-12.96-11.095-13.638-6.8-.678-12.859 4.327-13.533 11.18-.673 6.854 4.294 12.96 11.095 13.639 6.8.679 12.859-4.327 13.533-11.18z" fill="#BF6064"/><path d="M310.307 88.55c0-.255-.021-.488-.105-.678a1.417 1.417 0 00-.336-.53 2.095 2.095 0 00-.63-.444 8.066 8.066 0 00-.925-.403 19.228 19.228 0 01-1.722-.74 5.745 5.745 0 01-1.324-.869 3.225 3.225 0 01-.84-1.143 3.879 3.879 0 01-.295-1.546c0-.508.105-.995.295-1.418.189-.424.462-.783.798-1.101a3.973 3.973 0 011.218-.762 5.358 5.358 0 011.597-.36l.021-1.948 1.555.021-.021 1.97c.567.084 1.071.232 1.512.465.442.233.841.53 1.156.89.315.36.546.783.714 1.29.168.488.252 1.038.231 1.652l-2.815-.042c0-.72-.147-1.27-.462-1.652-.315-.36-.735-.55-1.282-.571-.294 0-.546.042-.756.106-.21.084-.378.19-.525.338-.147.148-.231.318-.315.508a2.018 2.018 0 00-.105.636c0 .233.021.423.084.614.063.19.168.36.336.508.147.148.357.296.63.444.252.148.588.297.967.445.63.254 1.197.508 1.701.762s.946.55 1.324.89c.357.338.651.72.84 1.143.189.444.294.952.294 1.545a3.52 3.52 0 01-.294 1.44 3.435 3.435 0 01-.798 1.1 3.75 3.75 0 01-1.24.72 5.346 5.346 0 01-1.596.34l-.021 1.82-1.555-.02.021-1.8a6.437 6.437 0 01-1.555-.382 4.196 4.196 0 01-1.323-.804 3.777 3.777 0 01-.925-1.313c-.231-.53-.336-1.143-.315-1.884l2.815.042c0 .424.042.784.168 1.08.127.296.274.53.463.699.189.17.42.296.672.38.252.064.525.107.777.107.315 0 .568-.022.799-.106.231-.085.42-.19.588-.318a1.17 1.17 0 00.357-.487 2.32 2.32 0 00.147-.635z" fill="#fff"/></g><defs><clipPath id="clip0"><path fill="#fff" d="M0 0h360v301H0z"/></clipPath></defs></svg>