<svg width="632" height="488" fill="none" xmlns="http://www.w3.org/2000/svg"><path d="M385.715 6.89L398.366 0l38.778 30.289-12.651 6.89-38.778-30.29z" fill="#BEC0C4"/><path d="M424.496 37.178l12.651-6.89 39.466-9.359-12.651 6.89-39.466 9.36z" fill="#E3E7F0"/><path d="M463.962 27.819l12.651-6.89 38.503 34.189-12.651 6.89-38.503-34.19zm63.805 1.69l12.651-7.02 50.053 35.619-12.651 7.02-50.053-35.619z" fill="#BEC0C4"/><path d="M619.349 58.108L632 51.088l-.55 199.282-12.651 7.019.55-199.281z" fill="#D6D8DD"/><path d="M619.349 58.108l-.55 199.281-233.356-127.394.275-123.105 38.778 30.288 39.466-9.36 38.503 34.19 25.302-32.5 50.054 35.62 41.528-7.02z" fill="url(#paint0_linear)"/><path d="M577.821 65.127l12.651-7.02L632 51.088l-12.651 7.02-41.528 7.02z" fill="#E3E7F0"/><path d="M527.767 29.639V206.04M463.962 28.08v144.813M577.821 65.257V234.12M424.496 37.309v113.745" stroke="#fff" stroke-width=".495" stroke-miterlimit="10" stroke-linecap="round" stroke-linejoin="round"/><path d="M575.758 64.088c0-1.3.963-1.82 2.063-1.17 1.1.65 2.062 2.21 2.062 3.38 0 1.3-.962 1.82-2.062 1.17-1.1-.52-2.063-2.08-2.063-3.38zm-50.054-35.619c0-1.3.963-1.82 2.063-1.17 1.1.65 2.062 2.21 2.062 3.38 0 1.3-.962 1.82-2.062 1.17-1.238-.52-2.063-2.08-2.063-3.38zm-63.805-1.56c0-1.3.963-1.82 2.063-1.17 1.1.65 2.062 2.21 2.062 3.38 0 1.3-.962 1.82-2.062 1.17-1.238-.65-2.063-2.08-2.063-3.38zm-39.466 9.36c0-1.3.963-1.82 2.063-1.17 1.1.65 2.063 2.21 2.063 3.38 0 1.3-.963 1.82-2.063 1.17-1.1-.65-2.063-2.21-2.063-3.38z" fill="#fff"/><path d="M577.408 100.356l-24.752-41.338-24.752 14.299 13.476 7.41v96.846l22.415 12.219V92.946l13.613 7.41z" fill="url(#paint1_linear)"/><path d="M364.125 33.408l12.652-7.02 33.965 46.019-12.651 7.02-33.966-46.019z" fill="#B13238"/><path d="M398.094 79.426l12.651-7.02 44.141 8.32-12.651 6.89-44.141-8.19z" fill="#D48E91"/><path d="M442.235 87.616l12.651-6.89 62.705 68.508-12.651 6.889-62.705-68.507z" fill="#B13238"/><path d="M504.94 156.123l12.651-6.889 37.403-8.97-12.651 7.02-37.403 8.839z" fill="#D48E91"/><path d="M364.129 33.408l33.965 46.018 44.141 8.19 62.705 68.507 37.403-8.839 54.179 37.438-.137 86.836-232.531-126.874.275-111.276z" fill="#C76B6F"/><path d="M542.343 147.284l12.651-7.02 54.179 37.439-12.651 7.019-54.179-37.438z" fill="#B13238"/><path d="M596.522 184.722l12.651-7.019-.137 86.966-12.651 6.89.137-86.837z" fill="#AC252B"/><path d="M442.235 87.876v99.186m100.108-39.648v96.066M398.094 79.557v84.756m106.846-8.06v64.348" stroke="#fff" stroke-width=".495" stroke-miterlimit="10" stroke-linecap="round" stroke-linejoin="round"/><path d="M396.031 78.387c0-1.3.963-1.82 2.063-1.17 1.1.65 2.063 2.21 2.063 3.38 0 1.3-.963 1.82-2.063 1.17-1.1-.52-2.063-2.08-2.063-3.38zm44.141 8.319c0-1.3.963-1.82 2.063-1.17 1.1.65 2.063 2.21 2.063 3.38s-.963 1.82-2.063 1.17c-1.238-.65-2.063-2.08-2.063-3.38zm62.568 68.507c0-1.299.962-1.819 2.062-1.17 1.101.65 2.063 2.21 2.063 3.38 0 1.3-.962 1.82-2.063 1.17-1.1-.65-2.062-2.21-2.062-3.38zm37.54-8.969c0-1.3.963-1.82 2.063-1.17 1.1.65 2.063 2.21 2.063 3.38 0 1.3-.963 1.82-2.063 1.17-1.238-.52-2.063-2.08-2.063-3.38z" fill="#fff"/><path d="M335.251 119.855l12.651-6.89 30.528 1.95-12.651 6.89-30.528-1.95z" fill="#626677"/><path d="M365.779 121.805l12.651-6.89 37.815 40.038-12.651 7.02-37.815-40.168z" fill="#383847"/><path d="M403.594 161.973l12.651-7.019 39.466 4.809-12.651 7.02-39.466-4.81z" fill="#626677"/><path d="M443.06 166.783l12.651-7.019 35.615 26.389-12.651 6.889-35.615-26.259z" fill="#383847"/><path d="M478.675 193.042l12.651-6.89 46.616 3.25-12.651 6.89-46.616-3.25z" fill="#626677"/><path d="M567.92 229.57l12.651-6.889-.275 58.107-12.651 7.02.275-58.238z" fill="#42485C"/><path d="M525.292 196.292l12.651-6.89 42.628 33.279-12.651 6.89-42.628-33.279z" fill="#383847"/><path d="M525.291 196.292l42.629 33.278-.275 58.238-232.394-126.875v-41.078l30.528 1.95 37.815 40.168 39.466 4.81 35.615 26.259 46.616 3.25z" fill="#515669"/><path d="M365.779 121.935v54.728m77.281-9.75v52.258m82.232-22.749v67.467m-46.617-70.587v45.238m-75.081-76.436v36.268" stroke="#fff" stroke-width=".495" stroke-miterlimit="10" stroke-linecap="round" stroke-linejoin="round"/><path d="M523.229 194.862c0-1.3.963-1.82 2.063-1.17 1.1.65 2.062 2.21 2.062 3.38s-.962 1.82-2.062 1.17c-1.238-.65-2.063-2.21-2.063-3.38zm-82.232-29.119c0-1.3.963-1.82 2.063-1.17 1.1.65 2.063 2.21 2.063 3.38s-.963 1.82-2.063 1.17c-1.1-.65-2.063-2.08-2.063-3.38zm-73.775-41.476c.789-.431.783-1.838-.015-3.144-.797-1.306-2.083-2.015-2.873-1.584-.789.431-.782 1.838.015 3.144.798 1.306 2.084 2.015 2.873 1.584zm112.897 71.488c.789-.431.783-1.839-.015-3.144-.797-1.306-2.084-2.015-2.873-1.584-.789.43-.782 1.838.015 3.144.798 1.305 2.084 2.015 2.873 1.584zm-78.587-34.822c0-1.3.962-1.82 2.062-1.17 1.1.65 2.063 2.21 2.063 3.38 0 1.3-.963 1.82-2.063 1.17-1.1-.52-2.062-2.08-2.062-3.38z" fill="#fff"/><path d="M612.198 373.735l2.751-30.549-51.842 3.77 13.476 7.28-95.295 59.797 22.277 12.09 95.157-59.798 13.476 7.41z" fill="url(#paint2_linear)"/><path d="M334.289 440.682l1.1-12.09-20.489 1.56 5.363 2.86-37.678 23.529 8.8 4.81 37.678-23.529 5.226 2.86z" fill="url(#paint3_linear)"/><path d="M468.225 374.775c-1.513-11.18-.688-22.489-5.363-33.409-6.738-15.859-25.715-30.029-51.154-38.608-30.665-10.27-70.681-12.61-94.745-27.299-19.665-11.96-23.927-29.509-42.079-42.249-8.801-6.109-20.764-10.789-34.102-13.519l-77.007 41.988 265.946 145.204 40.704-22.229c-.963-3.12-1.65-6.5-2.2-9.879z" fill="url(#paint4_linear)"/><path d="M363.991 332.917c-11.414-13-19.527-27.429-39.191-36.919-17.739-8.58-42.216-11.699-62.842-18.069-27.09-8.45-47.167-23.009-55.417-39.259l-42.629 23.269 265.946 145.205 23.652-12.87c-35.615-18.199-68.755-37.698-89.519-61.357z" fill="#D6D8DD"/><path d="M333.601 169.123l266.084 145.204-169.826 92.686-266.084-145.204 169.826-92.686zm118.81 225.541L186.465 249.46m290.423 131.814L210.942 236.2m290.285 131.815L235.281 222.811m290.423 131.814L259.758 209.551m290.423 131.815L284.097 196.162M574.52 327.976L308.574 182.902m94.883 209.682l169.688-92.687m-196.09 78.258l169.688-92.687m-196.09 78.257l169.688-92.686M324.25 349.425l169.689-92.686m-196.091 78.257l169.689-92.686m-196.091 78.257l169.826-92.686m-196.228 78.256l169.826-92.686m-196.228 78.257l169.826-92.686M192.24 277.279l169.826-92.687" stroke="#848794" stroke-width=".844" stroke-miterlimit="10" stroke-linecap="round" stroke-linejoin="round"/><path d="M312.562 211.631l28.327 42.119 100.658 1.69 29.29 42.638 77.281 15.469" stroke="#AC252B" stroke-width="1.688" stroke-miterlimit="10" stroke-linecap="round" stroke-linejoin="round"/><path d="M308.849 209.681c2.063-1.04 5.226-1.04 7.288 0 2.063 1.04 2.063 2.86 0 3.9-2.062 1.04-5.225 1.04-7.288 0-1.925-1.04-1.925-2.86 0-3.9zm128.573 43.808c2.063-1.04 5.226-1.04 7.288 0 2.063 1.04 2.063 2.86 0 3.9-2.062 1.04-5.225 1.04-7.288 0-1.925-1.04-1.925-2.86 0-3.9zm33.415 47.449c2.81 0 5.088-1.281 5.088-2.86 0-1.58-2.278-2.86-5.088-2.86s-5.088 1.28-5.088 2.86c0 1.579 2.278 2.86 5.088 2.86zm77.006 15.339c2.81 0 5.088-1.28 5.088-2.86 0-1.579-2.278-2.859-5.088-2.859s-5.088 1.28-5.088 2.859c0 1.58 2.278 2.86 5.088 2.86z" fill="#AC252B"/><path d="M324.388 205.001l36.99 6.63 3.026 28.339 51.154 1.82 23.377 41.468" stroke="#fff" stroke-width=".844" stroke-miterlimit="10" stroke-linecap="round" stroke-linejoin="round"/><path d="M322.05 203.832c1.238-.65 3.438-.65 4.676 0 1.237.65 1.237 1.82 0 2.6-1.238.65-3.438.65-4.676 0-1.375-.78-1.375-1.95 0-2.6zm36.991 6.499c1.237-.65 3.438-.65 4.675 0 1.238.65 1.238 1.82 0 2.6-1.237.65-3.438.65-4.675 0-1.375-.65-1.375-1.82 0-2.6zm77.556 72.278c1.238-.65 3.438-.65 4.675 0 1.238.65 1.238 1.82 0 2.599-1.237.65-3.437.65-4.675 0-1.375-.779-1.375-1.949 0-2.599zM415.42 243.74c1.823 0 3.301-.815 3.301-1.82 0-1.005-1.478-1.82-3.301-1.82-1.822 0-3.3.815-3.3 1.82 0 1.005 1.478 1.82 3.3 1.82zm-53.079-4.94c1.238-.65 3.438-.65 4.675 0 1.238.65 1.238 1.82 0 2.6-1.237.65-3.437.65-4.675 0-1.375-.65-1.375-1.82 0-2.6zM474 450.171l-65.593-35.748 92.82-50.568 65.593 35.748L474 450.171z" fill="#fff"/><path d="M529.417 388.944l-29.015-15.73-1.65.91 28.877 15.73 1.788-.91zm-18.977 2.73l-22.002-11.96-1.65.91 21.865 11.96 1.787-.91zm-3.438 1.82l-21.864-11.96-1.65.91 21.864 11.96 1.65-.91zm-3.3 1.82l-21.864-11.96-1.65.91 21.864 11.959 1.65-.909zm-3.3 1.819l-21.864-11.959-1.788.91 22.002 11.959 1.65-.91zm-3.3 1.821l-21.864-11.96-1.788.91 22.002 11.96 1.65-.91zm-3.301 1.819l-21.864-11.959-1.787.91 22.001 11.959 1.65-.91zm-3.3 1.82L468.5 390.634l-1.651.91 21.865 11.959 1.787-.91zm-3.3 1.82l-22.002-11.959-1.65.91 21.864 11.959 1.788-.91zm-3.3 1.82l-22.002-12.089-1.65 1.039 21.864 11.96 1.788-.91zm-3.438 1.69l-21.864-11.959-1.651 1.04 21.865 11.959 1.65-1.04zm-3.3 1.82l-21.864-11.959-1.651.91 21.865 12.089 1.65-1.04zm-3.301 1.82l-21.864-11.959-1.788.909 22.002 11.96 1.65-.91zm-3.3 1.82l-21.864-11.96-1.788.91 22.002 11.96 1.65-.91zm-3.3 1.82l-21.864-11.96-1.788.91 22.002 11.96 1.65-.91zm-3.3 1.82l-22.002-11.96-1.65.91 21.864 11.96 1.788-.91zm-3.301 1.82l-22.001-11.96-1.65.91 21.864 11.96 1.787-.91zm-3.3 1.82l-22.001-11.96-1.651.91 21.864 11.96 1.788-.91zm-3.438 1.819l-21.864-11.959-1.65.91 21.864 11.959 1.65-.91zm-3.3 1.82l-21.864-11.959-1.788.91 22.002 11.959 1.65-.91zm86.632-17.939l-21.864-11.959-1.651.91 21.865 11.959 1.65-.91zm-3.3 1.82l-21.865-11.959-1.787.91 22.001 11.959 1.651-.91zm-3.301 1.82l-21.864-11.96-1.787.91 22.001 11.96 1.65-.91zm-3.3 1.82l-21.864-11.959-1.788.91 22.002 11.959 1.65-.91zm-3.3 1.82l-22.002-11.959-1.65.91 21.864 11.959 1.788-.91zm-3.3 1.82l-22.002-11.96-1.65.91 21.864 11.96 1.788-.91zm-3.301 1.82l-22.002-11.96-1.65.91 21.865 11.96 1.787-.91zm-3.437 1.82l-21.865-11.959-1.65.909 21.864 11.96 1.651-.91zm-3.301 1.82l-21.864-11.96-1.65.91 21.864 11.96 1.65-.91zm-3.3 1.69l-21.864-11.96-1.788 1.04 22.002 11.96 1.65-1.04zm-3.3 1.82l-21.864-11.96-1.788 1.04 22.002 11.96 1.65-1.04zm-3.301 1.819l-21.864-11.959-1.787.91 22.001 11.959 1.65-.91zm-3.3 1.82l-22.001-11.959-1.65.91 21.864 11.959 1.787-.91zm-3.3 1.82l-22.002-11.959-1.65.91 21.864 11.959 1.788-.91zm-3.3 1.821l-22.002-11.96-1.65.91 21.864 11.959 1.788-.909zm-3.438 1.819l-21.864-11.959-1.65.91 21.864 11.959 1.65-.91zm-3.3 1.82l-21.864-11.959-1.651.91 21.865 11.959 1.65-.91zm-3.3 1.82l-21.865-11.96-1.787.91 22.001 11.96 1.651-.91zm-3.301 1.82l-21.864-11.959-1.788.91 22.002 11.959 1.65-.91z" fill="#CCCED3"/><path d="M456.811 409.613l-65.593-35.749 92.82-50.697 65.593 35.878-92.82 50.568z" fill="#fff"/><path d="M512.228 348.386l-28.877-15.86-1.788 1.04 28.877 15.73 1.788-.91zm-18.977 2.729l-22.001-11.959-1.651.91 21.865 11.959 1.787-.91zm-3.3 1.82l-22.002-11.959-1.65.91 21.864 11.959 1.788-.91zm-3.438 1.82l-21.864-11.959-1.65.91 21.864 11.959 1.65-.91zm-3.3 1.82l-21.864-11.959-1.788.91 22.002 11.959 1.65-.91zm-3.3 1.82l-21.865-11.959-1.787.91 22.002 11.959 1.65-.91zm-3.301 1.82l-21.864-11.96-1.788.91 22.002 11.96 1.65-.91zm-3.3 1.69l-22.001-11.96-1.651 1.04 21.865 11.96 1.787-1.04zm-3.3 1.82l-22.002-11.96-1.65 1.04 21.864 11.96 1.788-1.04zm-3.3 1.82l-22.002-11.96-1.65.91 21.864 12.09 1.788-1.04zm-3.438 1.82l-21.864-11.96-1.65.91 21.864 11.96 1.65-.91zm-3.3 1.82l-21.865-11.96-1.65.91 21.864 11.96 1.651-.91zm-3.301 1.819l-21.864-11.959-1.788.91 22.002 11.959 1.65-.91zm-3.3 1.82l-21.864-11.959-1.788.91 22.002 11.959 1.65-.91zm-3.3 1.821l-21.864-11.96-1.788.91 22.002 11.959 1.65-.909zm-3.301 1.819l-22.001-11.959-1.65.91 21.864 11.959 1.787-.91zm-3.3 1.82l-22.001-11.959-1.65.91 21.864 11.959 1.787-.91zm-3.3 1.82l-22.002-11.959-1.65.909 21.864 11.96 1.788-.91zm-3.438 1.82l-21.864-11.96-1.65.91 21.864 11.96 1.65-.91zm-3.3 1.82l-21.864-11.96-1.65.91 21.864 11.96 1.65-.91zm86.632-17.939l-21.864-11.96-1.65.91 21.864 11.96 1.65-.91zm-3.3 1.82l-21.864-11.96-1.651.91 21.865 11.96 1.65-.91zm-3.301 1.819l-21.864-11.959-1.788.91 22.002 11.959 1.65-.91zm-3.3 1.821l-21.864-11.96-1.788.91 22.002 11.96 1.65-.91zm-3.3 1.819l-21.864-11.959-1.788.91 22.002 11.959 1.65-.91zm-3.3 1.82l-22.002-11.959-1.65.91 21.864 11.959 1.788-.91zm-3.301 1.82l-22.001-12.089-1.65 1.04 21.864 11.959 1.787-.91zm-3.3 1.69l-22.002-11.959-1.65 1.04 21.865 11.959 1.787-1.04zm-3.438 1.82l-21.864-11.96-1.65 1.04 21.864 11.96 1.65-1.04zm-3.3 1.82l-21.864-11.959-1.788.91 22.002 11.959 1.65-.91zm-3.3 1.82l-21.864-11.959-1.788.909 22.002 11.96 1.65-.91zm-3.301 1.82l-21.864-11.96-1.787.91 22.001 11.96 1.65-.91zm-3.3 1.82l-22.001-11.96-1.65.91 21.864 11.96 1.787-.91zm-3.3 1.82l-22.002-11.96-1.65.91 21.864 11.96 1.788-.91zm-3.3 1.82l-22.002-11.96-1.65.91 21.864 11.96 1.788-.91zm-3.438 1.82l-21.864-11.96-1.65.91 21.864 11.96 1.65-.91zm-3.3 1.82l-21.864-11.96-1.651.91 21.865 11.959 1.65-.909zm-3.3 1.819l-21.865-11.959-1.787.91 22.001 11.959 1.651-.91zm-3.301 1.82l-21.864-11.959-1.788.91 22.002 11.959 1.65-.91z" fill="#CCCED3"/><path d="M336.076 412.733l3.163-34.709-58.854 4.29 15.263 8.32-108.221 67.987 25.165 13.78 108.221-67.988 15.263 8.32z" fill="url(#paint5_linear)"/><path d="M341.439 159.113l-29.289-48.878-29.29 16.9 13.888 7.539.138 32.109c0 20.799-15.539 46.408-34.653 56.808-9.626 5.33-18.426 5.719-24.752 2.34l26.54 14.559c6.325 3.51 15.126 2.99 24.752-2.34 19.251-10.529 34.79-36.008 34.653-56.808l-.138-32.238 18.151 10.009z" fill="url(#paint6_linear)"/><path d="M263.333 240.62l-26.539-14.559c-6.326-3.51-10.314-10.92-10.451-21.579 0-10.4-3.851-17.68-10.176-21.06l26.54 14.56c6.188 3.38 10.175 10.789 10.175 21.059.138 10.659 3.988 18.069 10.451 21.579z" fill="#AC252B"/><path d="M218.367 184.592l26.54 14.56c-6.463-3.51-15.401-3.12-25.302 2.34-19.664 10.659-35.478 36.788-35.478 58.107l-26.54-14.559c0-21.319 15.814-47.318 35.478-58.108 9.901-5.46 18.839-5.98 25.302-2.34z" fill="url(#paint7_linear)"/><path d="M366.864 317.205c3.713 2.08 3.713 5.33 0 7.28L170.086 432.64c-3.713 2.08-9.626 2.08-13.339 0l-118.81-64.867c-3.712-2.08-3.712-5.33 0-7.28l196.916-108.155c3.713-2.08 9.626-2.08 13.339 0l118.672 64.867z" fill="#42485C"/><path d="M367.001 324.355L170.086 432.51c-3.713 2.08-9.626 2.08-13.339 0L37.938 367.643c-1.925-1.04-2.75-2.34-2.75-3.64v15.729c0 1.3.962 2.73 2.75 3.64l118.809 64.868c3.713 2.08 9.626 2.08 13.339 0l196.915-108.156c1.788-1.04 2.751-2.34 2.751-3.64v-15.729c0 1.3-.963 2.6-2.751 3.64z" fill="#282E45"/><path d="M193.188 420.031l-23.102 12.609c-3.713 2.08-9.626 2.08-13.339 0l-118.81-64.867c-3.712-2.08-3.712-5.33 0-7.28l23.103-12.609 132.148 72.147z" fill="url(#paint8_linear)"/><path d="M355.313 330.985l-162.125 89.046-132.286-72.277 162.126-88.917 132.285 72.148z" fill="url(#paint9_linear)"/><path d="M366.726 317.336c3.713 2.08 3.851 5.2.275 7.28l-11.688 6.499-132.285-72.147 11.688-6.499c3.713-2.08 9.488-1.95 13.201.13l118.809 64.737z" fill="url(#paint10_linear)"/><path d="M104.218 386.102c5.363-2.859 14.026-2.859 19.252 0 5.363 2.86 5.363 7.67 0 10.53-5.363 2.86-14.026 2.86-19.252 0-5.225-2.86-5.225-7.54 0-10.53z" fill="#282E45"/><path d="M134.746 429.91c0-1.429 1.1-2.079 2.475-1.299 1.375.779 2.475 2.469 2.475 4.029s-1.1 2.08-2.475 1.3-2.475-2.6-2.475-4.03zm207.778-83.976c0-2.21 1.651-4.94 3.713-6.11 2.063-1.17 3.713-.26 3.713 2.08 0 2.21-1.65 4.94-3.713 6.11-2.062 1.04-3.713.13-3.713-2.08zm-12.926 6.89c0-2.21 1.651-4.94 3.713-6.11 2.063-1.17 3.713-.26 3.713 2.08 0 2.21-1.65 4.94-3.713 6.11-2.062 1.04-3.713.13-3.713-2.08z" fill="#999CA7"/><path d="M402.204 307.715v6.89" stroke="#FAB08B" stroke-width="5.52" stroke-miterlimit="10" stroke-linecap="round" stroke-linejoin="round"/><path d="M395.604 317.205s-11.551 8.19-13.064 17.029c-1.375 7.8 2.475 12.61 11.276 21.579" stroke="url(#paint11_linear)" stroke-width="4.948" stroke-miterlimit="10" stroke-linecap="round" stroke-linejoin="round"/><path d="M395.604 317.205s-11.551 8.19-13.064 17.029c-1.375 7.8 2.475 12.61 11.276 21.579" stroke="url(#paint12_linear)" stroke-width="4.948" stroke-miterlimit="10" stroke-linecap="round" stroke-linejoin="round"/><path d="M404.267 362.183c-.825 1.04-2.2 1.43-3.438.91l-4.95-2.21c-2.063-.91-2.75-3.38-1.513-5.07 1.238-1.82 3.85-2.08 5.501-.52l3.987 3.51c.963.78 1.1 2.21.413 3.38z" fill="#FAB08B"/><path d="M405.229 447.85s2.613 2.34 4.263 1.95c2.475-.65 12.101-3.12 15.264-6.76 3.163-3.64-.413-4.68-3.3-4.03-7.976 1.82-10.726 2.86-13.614 3.64-2.475.65-3.713 3.77-2.613 5.2zm-13.613-7.15s2.613 2.34 4.263 1.95c2.475-.65 12.101-3.12 15.263-6.76 3.163-3.64-.412-4.68-3.3-4.03-7.976 1.82-10.726 2.86-13.613 3.64-2.476.65-3.713 3.77-2.613 5.2z" fill="#0D142E"/><path d="M409.217 443.69l2.2-12.87m-15.401 5.2l3.163-12.739" stroke="#F5F6F7" stroke-width="3.861" stroke-miterlimit="10" stroke-linecap="round" stroke-linejoin="round"/><path d="M392.166 359.583c5.363 0 16.914 2.21 23.102 2.99 2.2 4.03 3.025 8.32 2.062 12.48 1.926 9.879 1.788 16.119 1.926 27.039.137 10.789-1.788 25.219-4.126 36.528-.412 2.08-1.65 2.6-3.438 2.73-.687 0-1.925-.13-2.612-.26-1.65-.39-3.025-1.3-2.475-3.38 2.337-10.919 4.537-25.219 4.125-35.488-.413-10.4-.963-15.6-3.163-24.829-1.512-.39-2.888-.78-4.4-1.43 1.237 7.799.962 11.179 1.237 20.149.275 8.97.275 26.129-2.2 35.878-.55 2.21-1.925 3.12-3.988 3.38-.412 0-.825 0-1.1-.13-3.025-.91-3.437-3.249-3.025-5.589 1.925-10.01 2.475-23.659 1.925-33.279-.55-9.62-8.8-36.789-3.85-36.789z" fill="#282E45"/><path d="M388.316 360.493c0 2.08 1.1 4.16 2.887 5.33 4.401 2.73 11.689 6.37 15.677 7.02 9.763 1.3 10.45-4.68 10.45-4.68s-.275-36.008-1.65-43.548c-.687-4.03-3.988-5.98-7.425-8.19l-1.238-.78c-2.613-1.56-5.5-2.47-8.663-2.47-.825 0-1.513.13-2.2.26-3.438.65-4.951 2.6-6.051 4.16-.687 1.04-1.1 2.21-1.1 3.38l-.687 39.518z" fill="url(#paint13_linear)"/><path d="M414.993 297.056c2.2 5.98.275 12.739-4.676 14.429-.687.26-1.512.39-2.2.39-3.438 0-7.15-2.34-9.488-5.979-.55-.91-1.1-1.95-1.513-2.99 0-.13-.137-.26-.137-.39-.138-.26-.138-.65-.275-.91-.963-3.77-.138-7.15 2.062-9.49.688-.78 1.513-1.3 2.476-1.82.412-.13.687-.39 1.1-.52 3.85-1.3 7.975.13 10.588 3.64.825 1.17 1.513 2.34 2.063 3.64z" fill="#FAB08B"/><path d="M396.154 293.156c3.988-10.4 14.301-5.85 16.914-.91.55.91 0 1.69-.963 2.21-.275 1.04-.688 2.21-1.65 2.73-1.65.91 2.2 3.12 1.1 4.16s-2.338-1.17-3.713 0c-1.787 1.43 2.338 3.77.275 4.809-2.062 1.04-3.713 5.59-8.525 4.55-4.951-1.04-6.326-6.889-6.738-10.529-.413-3.77 1.925-6.24 3.3-7.02z" fill="#0D142E"/><path d="M411.555 302.385c.55 1.43.275 3.12-.963 3.51-1.237.39-2.75-.52-3.3-1.95-.55-1.43-.138-2.73 1.1-3.25 1.238-.39 2.613.26 3.163 1.69z" fill="#FAB08B"/><path d="M412.518 325.915s11.688 8.059 21.039 6.889c8.25-1.04 11.963-5.849 18.426-16.509" stroke="url(#paint14_linear)" stroke-width="4.948" stroke-miterlimit="10" stroke-linecap="round" stroke-linejoin="round"/><path d="M455.421 305.115c1.375.39 2.063 1.56 1.925 2.86l-.825 5.07c-.275 2.08-2.613 3.38-4.675 2.86-2.201-.65-3.163-2.99-2.201-4.81l2.476-4.55c.55-1.3 1.925-1.82 3.3-1.43z" fill="#FAB08B"/><path d="M189.613 372.712l-.138 5.2-14.026-1.69v-5.2l14.164 1.69z" fill="#C3C7CD"/><path d="M212.577 379.992v5.2l-11.826-4.55v-5.2l11.826 4.55z" fill="#BFC2C9"/><path d="M211.889 353.083l.688 26.909-11.826-4.549-14.989 18.589-11.138-2.73 14.988-18.589-14.163-1.69 36.44-17.94z" fill="#CED1D6"/><path d="M200.751 375.442v5.2l-14.989 18.719v-5.329l14.989-18.59z" fill="#C7CAD0"/><path d="M185.762 394.032v5.329l-11.138-2.729v-5.33l11.138 2.73z" fill="#C1C5CC"/><path d="M209.016 487.74c0-.52-.55-.91-1.1-.78-.55 0-.962.52-.825 1.04" fill="#1D262D"/><defs><linearGradient id="paint0_linear" x1="385.401" y1="132.136" x2="619.343" y2="132.136" gradientUnits="userSpaceOnUse"><stop stop-color="#fff"/><stop offset="1" stop-color="#CDD1D9"/></linearGradient><linearGradient id="paint1_linear" x1="525.173" y1="61.112" x2="558.531" y2="146.063" gradientUnits="userSpaceOnUse"><stop stop-color="#fff"/><stop offset="1" stop-color="#AC252B"/></linearGradient><linearGradient id="paint2_linear" x1="481.327" y1="384.631" x2="614.92" y2="384.631" gradientUnits="userSpaceOnUse"><stop stop-color="#fff"/><stop offset="1" stop-color="#DEE0E4"/></linearGradient><linearGradient id="paint3_linear" x1="282.64" y1="444.987" x2="335.395" y2="444.987" gradientUnits="userSpaceOnUse"><stop stop-color="#fff"/><stop offset="1" stop-color="#DEE0E4"/></linearGradient><linearGradient id="paint4_linear" x1="161.224" y1="212.072" x2="283.339" y2="435.793" gradientUnits="userSpaceOnUse"><stop stop-color="#fff"/><stop offset="1" stop-color="#AC252B"/></linearGradient><linearGradient id="paint5_linear" x1="187.373" y1="425.202" x2="339.264" y2="425.202" gradientUnits="userSpaceOnUse"><stop stop-color="#fff"/><stop offset="1" stop-color="#DEE0E4"/></linearGradient><linearGradient id="paint6_linear" x1="237.348" y1="176.517" x2="341.381" y2="176.517" gradientUnits="userSpaceOnUse"><stop stop-color="#fff"/><stop offset="1" stop-color="#AC252B"/></linearGradient><linearGradient id="paint7_linear" x1="157.599" y1="220.895" x2="244.906" y2="220.895" gradientUnits="userSpaceOnUse"><stop stop-color="#fff"/><stop offset="1" stop-color="#AC252B"/></linearGradient><linearGradient id="paint8_linear" x1="35.143" y1="390.997" x2="193.196" y2="390.997" gradientUnits="userSpaceOnUse"><stop stop-color="#fff"/><stop offset="1" stop-color="#42485C"/></linearGradient><linearGradient id="paint9_linear" x1="74.364" y1="236.224" x2="314.234" y2="443.246" gradientUnits="userSpaceOnUse"><stop stop-color="#fff"/><stop offset="1" stop-color="#848794"/></linearGradient><linearGradient id="paint10_linear" x1="223.029" y1="290.908" x2="369.661" y2="290.908" gradientUnits="userSpaceOnUse"><stop stop-color="#fff"/><stop offset="1" stop-color="#42485C"/></linearGradient><linearGradient id="paint11_linear" x1="378.792" y1="336.498" x2="398.991" y2="336.498" gradientUnits="userSpaceOnUse"><stop stop-color="#fff"/><stop offset="1" stop-color="#AC252B"/></linearGradient><linearGradient id="paint12_linear" x1="381.103" y1="336.691" x2="396.747" y2="336.691" gradientUnits="userSpaceOnUse"><stop stop-color="#8A8C91"/><stop offset="1" stop-color="#D9DDE5"/></linearGradient><linearGradient id="paint13_linear" x1="349.619" y1="304.879" x2="407.855" y2="351.771" gradientUnits="userSpaceOnUse"><stop stop-color="#fff"/><stop offset="0" stop-color="#7B819B"/><stop offset="1" stop-color="#0D142E"/></linearGradient><linearGradient id="paint14_linear" x1="409.07" y1="324.686" x2="455.368" y2="324.686" gradientUnits="userSpaceOnUse"><stop stop-color="#8A8C91"/><stop offset="1" stop-color="#D9DDE5"/></linearGradient></defs></svg>