<svg xmlns="http://www.w3.org/2000/svg" width="50" height="60"><defs><clipPath id="a"><path fill="#fff" d="M49.025 10.486a2.994 2.994 0 01-1.955 3.33V31a3 3 0 01-2 2.816V34a4 4 0 01-4 4 3 3 0 01-3 3h-1v14a5.006 5.006 0 01-5 5h-26a5.005 5.005 0 01-5-5V24a1 1 0 01-1-1v-4a1 1 0 011-1v-2a1 1 0 01-1-1v-4a1 1 0 011-1V5a5.006 5.006 0 015-5h26a5.007 5.007 0 015 5v20h1a3 3 0 013 3 4 4 0 013.933 3.333.993.993 0 00.067-.333V13.816a2.994 2.994 0 011-5.816 2.993 2.993 0 012.955 2.486zM15.096 58a4.9 4.9 0 010-6H3.07v3a3 3 0 003 3zm6.974-3a3 3 0 10-6 0 3 3 0 006 0zm13-3H23.044a4.9 4.9 0 010 6h9.026a3 3 0 003-3zm0-42h-32v40h32zm0-5a3 3 0 00-3-3h-26a3 3 0 00-3 3v3h32zm4 23a1 1 0 00-1-1h-1v12h1a1 1 0 001-1zm4 4a2 2 0 00-2-2v6a2 2 0 002-2zm4-21a1 1 0 10-2 0 1 1 0 002 0z"/></clipPath><clipPath id="b"><path fill="#fff" d="M20.07 5a1 1 0 11-2 0 1 1 0 012 0z"/></clipPath><clipPath id="c"><path fill="#fff" d="M5.07 26c0-7.732 6.268-14 14-14s14 6.268 14 14-6.268 14-14 14c-7.729-.008-13.991-6.271-14-14zm7.676 7.738c-.517-.423-.99-.896-1.414-1.414l-1.417 1.417c.432.51.905.982 1.414 1.414zM19.07 34a8 8 0 10-8-8 8.009 8.009 0 008 8zm-3 1.539a9.962 9.962 0 01-1.619-.683l-1.464 1.465c.962.569 2 1 3.083 1.279zm4 .405a9.873 9.873 0 01-2 0v2c.331.028.662.051 1 .051.338 0 .67-.023 1-.051zm2 1.656a11.905 11.905 0 003.083-1.274l-1.464-1.465a9.99 9.99 0 01-1.619.678zm4.741-2.445c.51-.434.982-.908 1.414-1.42l-1.417-1.416c-.423.517-.897.991-1.414 1.414l1.417 1.417zm2.585-3.072c.569-.962 1-2 1.279-3.083h-2.066a9.938 9.938 0 01-.678 1.613l1.465 1.465zM31.02 25h-2a9.786 9.786 0 010 2h2c.028-.33.051-.662.051-1 0-.338-.023-.67-.051-1zm-3.088-3.618c.273.518.5 1.06.678 1.618h2.066a11.94 11.94 0 00-1.279-3.083zm-2.537-3.12a10 10 0 011.414 1.414l1.417-1.417a12.28 12.28 0 00-1.414-1.414zm-3.324-1.8c.559.179 1.1.407 1.619.682l1.464-1.465c-.963-.569-2-1-3.083-1.279zm-4-.406a9.824 9.824 0 012 0v-2c-.33-.028-.662-.051-1-.051-.338 0-.669.023-1 .051zm-2-1.656c-1.082.28-2.12.71-3.083 1.28l1.464 1.464c.519-.273 1.06-.5 1.62-.677zm-4.74 2.445c-.51.434-.983.909-1.415 1.419l1.417 1.417c.423-.517.897-.991 1.414-1.414L11.33 16.85zm-2.586 3.072c-.567.963-.996 2-1.274 3.083h2.061a9.937 9.937 0 01.678-1.613l-1.465-1.465zM7.121 27h2a9.867 9.867 0 010-2h-2c-.028.33-.05.662-.05 1 0 .338.022.67.05 1zm.349 2c.278 1.082.707 2.12 1.274 3.083l1.465-1.465A9.924 9.924 0 019.531 29z"/></clipPath><clipPath id="d"><path fill="#fff" d="M15.06 30a1 1 0 00.8-1.6 3.954 3.954 0 01-.8-2.4 1 1 0 10-2 0 5.955 5.955 0 001.2 3.6 1 1 0 00.8.4z"/></clipPath><clipPath id="e"><path fill="#fff" d="M16.67 22.797a4.006 4.006 0 015.6.8 1 1 0 001.6-1.2 6.009 6.009 0 00-8.4-1.2 1 1 0 001.2 1.6z"/></clipPath><clipPath id="f"><path fill="#fff" d="M24.07 42a3 3 0 010 6h-10a3 3 0 010-6zm0 4a1 1 0 000-2h-10a1 1 0 000 2z"/></clipPath><clipPath id="g"><path fill="#fff" d="M50 11.18a4 4 0 11-8 0 4 4 0 018 0z"/></clipPath></defs><path fill="#0d142e" d="M49.025 10.486a2.994 2.994 0 01-1.955 3.33V31a3 3 0 01-2 2.816V34a4 4 0 01-4 4 3 3 0 01-3 3h-1v14a5.006 5.006 0 01-5 5h-26a5.005 5.005 0 01-5-5V24a1 1 0 01-1-1v-4a1 1 0 011-1v-2a1 1 0 01-1-1v-4a1 1 0 011-1V5a5.006 5.006 0 015-5h26a5.007 5.007 0 015 5v20h1a3 3 0 013 3 4 4 0 013.933 3.333.993.993 0 00.067-.333V13.816a2.994 2.994 0 011-5.816 2.993 2.993 0 012.955 2.486zM15.096 58a4.9 4.9 0 010-6H3.07v3a3 3 0 003 3zm6.974-3a3 3 0 10-6 0 3 3 0 006 0zm13-3H23.044a4.9 4.9 0 010 6h9.026a3 3 0 003-3zm0-42h-32v40h32zm0-5a3 3 0 00-3-3h-26a3 3 0 00-3 3v3h32zm4 23a1 1 0 00-1-1h-1v12h1a1 1 0 001-1zm4 4a2 2 0 00-2-2v6a2 2 0 002-2zm4-21a1 1 0 10-2 0 1 1 0 002 0z"/><path fill="none" stroke="#d9dde5" stroke-miterlimit="20" stroke-width=".4" d="M49.025 10.486a2.994 2.994 0 01-1.955 3.33V31a3 3 0 01-2 2.816V34a4 4 0 01-4 4 3 3 0 01-3 3h-1v14a5.006 5.006 0 01-5 5h-26a5.005 5.005 0 01-5-5V24a1 1 0 01-1-1v-4a1 1 0 011-1v-2a1 1 0 01-1-1v-4a1 1 0 011-1V5a5.006 5.006 0 015-5h26a5.007 5.007 0 015 5v20h1a3 3 0 013 3 4 4 0 013.933 3.333.993.993 0 00.067-.333V13.816a2.994 2.994 0 011-5.816 2.993 2.993 0 012.955 2.486zM15.096 58a4.9 4.9 0 010-6H3.07v3a3 3 0 003 3zm6.974-3a3 3 0 10-6 0 3 3 0 006 0zm13-3H23.044a4.9 4.9 0 010 6h9.026a3 3 0 003-3zm0-42h-32v40h32zm0-5a3 3 0 00-3-3h-26a3 3 0 00-3 3v3h32zm4 23a1 1 0 00-1-1h-1v12h1a1 1 0 001-1zm4 4a2 2 0 00-2-2v6a2 2 0 002-2zm4-21a1 1 0 10-2 0 1 1 0 002 0z" clip-path="url(&quot;#a&quot;)"/><path fill="#ac252b" d="M20.07 5a1 1 0 11-2 0 1 1 0 012 0z"/><path fill="none" stroke="#d9dde5" stroke-miterlimit="20" stroke-width=".4" d="M20.07 5a1 1 0 11-2 0 1 1 0 012 0z" clip-path="url(&quot;#b&quot;)"/><path fill="#0d142e" d="M5.07 26c0-7.732 6.268-14 14-14s14 6.268 14 14-6.268 14-14 14c-7.729-.008-13.991-6.271-14-14zm7.676 7.738c-.517-.423-.99-.896-1.414-1.414l-1.417 1.417c.432.51.905.982 1.414 1.414zM19.07 34a8 8 0 10-8-8 8.009 8.009 0 008 8zm-3 1.539a9.962 9.962 0 01-1.619-.683l-1.464 1.465c.962.569 2 1 3.083 1.279zm4 .405a9.873 9.873 0 01-2 0v2c.331.028.662.051 1 .051.338 0 .67-.023 1-.051zm2 1.656a11.905 11.905 0 003.083-1.274l-1.464-1.465a9.99 9.99 0 01-1.619.678zm4.741-2.445c.51-.434.982-.908 1.414-1.42l-1.417-1.416c-.423.517-.897.991-1.414 1.414l1.417 1.417zm2.585-3.072c.569-.962 1-2 1.279-3.083h-2.066a9.938 9.938 0 01-.678 1.613l1.465 1.465zM31.02 25h-2a9.786 9.786 0 010 2h2c.028-.33.051-.662.051-1 0-.338-.023-.67-.051-1zm-3.088-3.618c.273.518.5 1.06.678 1.618h2.066a11.94 11.94 0 00-1.279-3.083zm-2.537-3.12a10 10 0 011.414 1.414l1.417-1.417a12.28 12.28 0 00-1.414-1.414zm-3.324-1.8c.559.179 1.1.407 1.619.682l1.464-1.465c-.963-.569-2-1-3.083-1.279zm-4-.406a9.824 9.824 0 012 0v-2c-.33-.028-.662-.051-1-.051-.338 0-.669.023-1 .051zm-2-1.656c-1.082.28-2.12.71-3.083 1.28l1.464 1.464c.519-.273 1.06-.5 1.62-.677zm-4.74 2.445c-.51.434-.983.909-1.415 1.419l1.417 1.417c.423-.517.897-.991 1.414-1.414L11.33 16.85zm-2.586 3.072c-.567.963-.996 2-1.274 3.083h2.061a9.937 9.937 0 01.678-1.613l-1.465-1.465zM7.121 27h2a9.867 9.867 0 010-2h-2c-.028.33-.05.662-.05 1 0 .338.022.67.05 1zm.349 2c.278 1.082.707 2.12 1.274 3.083l1.465-1.465A9.924 9.924 0 019.531 29z"/><path fill="none" stroke="#d9dde5" stroke-miterlimit="20" stroke-width=".4" d="M5.07 26c0-7.732 6.268-14 14-14s14 6.268 14 14-6.268 14-14 14c-7.729-.008-13.991-6.271-14-14zm7.676 7.738c-.517-.423-.99-.896-1.414-1.414l-1.417 1.417c.432.51.905.982 1.414 1.414zM19.07 34a8 8 0 10-8-8 8.009 8.009 0 008 8zm-3 1.539a9.962 9.962 0 01-1.619-.683l-1.464 1.465c.962.569 2 1 3.083 1.279zm4 .405a9.873 9.873 0 01-2 0v2c.331.028.662.051 1 .051.338 0 .67-.023 1-.051zm2 1.656a11.905 11.905 0 003.083-1.274l-1.464-1.465a9.99 9.99 0 01-1.619.678zm4.741-2.445c.51-.434.982-.908 1.414-1.42l-1.417-1.416c-.423.517-.897.991-1.414 1.414l1.417 1.417zm2.585-3.072c.569-.962 1-2 1.279-3.083h-2.066a9.938 9.938 0 01-.678 1.613l1.465 1.465zM31.02 25h-2a9.786 9.786 0 010 2h2c.028-.33.051-.662.051-1 0-.338-.023-.67-.051-1zm-3.088-3.618c.273.518.5 1.06.678 1.618h2.066a11.94 11.94 0 00-1.279-3.083zm-2.537-3.12a10 10 0 011.414 1.414l1.417-1.417a12.28 12.28 0 00-1.414-1.414zm-3.324-1.8c.559.179 1.1.407 1.619.682l1.464-1.465c-.963-.569-2-1-3.083-1.279zm-4-.406a9.824 9.824 0 012 0v-2c-.33-.028-.662-.051-1-.051-.338 0-.669.023-1 .051zm-2-1.656c-1.082.28-2.12.71-3.083 1.28l1.464 1.464c.519-.273 1.06-.5 1.62-.677zm-4.74 2.445c-.51.434-.983.909-1.415 1.419l1.417 1.417c.423-.517.897-.991 1.414-1.414L11.33 16.85zm-2.586 3.072c-.567.963-.996 2-1.274 3.083h2.061a9.937 9.937 0 01.678-1.613l-1.465-1.465zM7.121 27h2a9.867 9.867 0 010-2h-2c-.028.33-.05.662-.05 1 0 .338.022.67.05 1zm.349 2c.278 1.082.707 2.12 1.274 3.083l1.465-1.465A9.924 9.924 0 019.531 29z" clip-path="url(&quot;#c&quot;)"/><path fill="#ac252b" d="M15.06 30a1 1 0 00.8-1.6 3.954 3.954 0 01-.8-2.4 1 1 0 10-2 0 5.955 5.955 0 001.2 3.6 1 1 0 00.8.4z"/><path fill="none" stroke="#d9dde5" stroke-miterlimit="20" stroke-width=".4" d="M15.06 30a1 1 0 00.8-1.6 3.954 3.954 0 01-.8-2.4 1 1 0 10-2 0 5.955 5.955 0 001.2 3.6 1 1 0 00.8.4z" clip-path="url(&quot;#d&quot;)"/><path fill="#ac252b" d="M16.67 22.797a4.006 4.006 0 015.6.8 1 1 0 001.6-1.2 6.009 6.009 0 00-8.4-1.2 1 1 0 001.2 1.6z"/><path fill="none" stroke="#d9dde5" stroke-miterlimit="20" stroke-width=".4" d="M16.67 22.797a4.006 4.006 0 015.6.8 1 1 0 001.6-1.2 6.009 6.009 0 00-8.4-1.2 1 1 0 001.2 1.6z" clip-path="url(&quot;#e&quot;)"/><path fill="#0d142e" d="M24.07 42a3 3 0 010 6h-10a3 3 0 010-6zm0 4a1 1 0 000-2h-10a1 1 0 000 2z"/><path fill="none" stroke="#d9dde5" stroke-miterlimit="20" stroke-width=".4" d="M24.07 42a3 3 0 010 6h-10a3 3 0 010-6zm0 4a1 1 0 000-2h-10a1 1 0 000 2z" clip-path="url(&quot;#f&quot;)"/><path fill="#ac252b" d="M50 11.18a4 4 0 11-8 0 4 4 0 018 0z"/><path fill="none" stroke="#d9dde5" stroke-miterlimit="20" stroke-width="2" d="M50 11.18a4 4 0 11-8 0 4 4 0 018 0z" clip-path="url(&quot;#g&quot;)"/></svg>