<svg width="60" height="60" fill="none" xmlns="http://www.w3.org/2000/svg"><path d="M5.49 51.622v-.1H4.093A3.996 3.996 0 01.1 47.53V5.86A5.766 5.766 0 015.86.1h48.28a5.766 5.766 0 015.76 5.76v41.67a3.997 3.997 0 01-3.992 3.992H54.51v6.235h4.32a1.072 1.072 0 010 2.144H1.171a1.072 1.072 0 010-2.144H5.49v-6.135zM57.657 8.538h.1V5.86a3.62 3.62 0 00-3.615-3.616H5.859A3.62 3.62 0 002.244 5.86v2.694l.11-.01a.946.946 0 01.107-.006h55.195zM12.891 57.757h.1V47.01H7.634v10.747h5.257zm13.125 0h.1V34.053h-5.357v23.704h5.257zm13.125 0h.1V43.963h-5.357v13.794h5.257zm7.968-25.454h-.1v4.846a1.072 1.072 0 01-2.143 0V31.23c0-.592.48-1.072 1.072-1.072h7.5c.591 0 1.071.48 1.071 1.072v18.148h1.401a1.85 1.85 0 001.847-1.848V10.682H2.461a1.1 1.1 0 01-.107-.006l-.11-.01V47.53a1.85 1.85 0 001.848 1.848H5.49v-3.44c0-.592.48-1.072 1.072-1.072h7.5c.591 0 1.071.48 1.071 1.072v11.819h3.482V32.98c0-.592.48-1.072 1.072-1.072h7.5c.591 0 1.071.48 1.071 1.072v24.776h3.482V42.89c0-.592.48-1.072 1.072-1.072h7.5c.591 0 1.071.48 1.071 1.072v14.866h3.482V45.03a1.072 1.072 0 012.143 0v12.727h5.358V32.303h-5.257z" fill="#0D142E" stroke="#EFF3FB" stroke-width=".2"/><path d="M52.5 4.22H26.023a1.172 1.172 0 000 2.343H52.5a1.172 1.172 0 000-2.344zm-39.484.343a1.18 1.18 0 00-.829-.344c-.308 0-.61.126-.828.344a1.18 1.18 0 00-.343.828c0 .308.125.61.343.829.218.218.52.343.829.343.308 0 .61-.125.828-.343a1.18 1.18 0 00.343-.829c0-.308-.125-.61-.343-.828zm-4.687 0a1.18 1.18 0 00-.829-.344c-.308 0-.61.126-.829.344a1.18 1.18 0 00-.343.828c0 .308.126.61.343.829.218.218.52.343.829.343.308 0 .61-.125.829-.343a1.18 1.18 0 00.343-.829c0-.308-.126-.61-.343-.828zm9.374 0a1.179 1.179 0 00-.828-.344c-.308 0-.61.126-.828.344a1.18 1.18 0 00-.344.828c0 .308.126.61.344.829.218.218.52.343.828.343.308 0 .61-.125.828-.343a1.18 1.18 0 00.344-.829c0-.308-.125-.61-.344-.828zm29.063 35.934a1.176 1.176 0 00-.828-.344 1.176 1.176 0 00-1.172 1.172c0 .308.125.61.343.829.218.218.52.343.828.343.309 0 .611-.125.829-.343a1.18 1.18 0 00.343-.829c0-.31-.125-.61-.343-.828z" fill="#AC252B"/><path d="M49.687 15.93a4.223 4.223 0 00-4.218 4.22c0 .923.3 1.778.805 2.474l-7.784 7.784a4.192 4.192 0 00-2.036-.525c-.666 0-1.295.155-1.855.43l-8.128-8.127a4.192 4.192 0 00.526-2.037 4.223 4.223 0 00-4.22-4.218 4.223 4.223 0 00-4.218 4.218c0 .813.232 1.573.632 2.218l-6.92 6.92a4.193 4.193 0 00-2.036-.525 4.223 4.223 0 00-4.22 4.218 4.223 4.223 0 004.22 4.22 4.223 4.223 0 004.218-4.22c0-.738-.19-1.432-.525-2.036l7.003-7.003a4.194 4.194 0 001.847.427c.738 0 1.432-.191 2.036-.525l8.048 8.048a4.194 4.194 0 00-.627 2.21 4.224 4.224 0 004.219 4.22 4.223 4.223 0 004.218-4.22 4.19 4.19 0 00-.525-2.036l7.993-7.992c.48.19 1.001.295 1.547.295a4.224 4.224 0 004.22-4.219 4.223 4.223 0 00-4.22-4.218zM10.235 34.857A1.877 1.877 0 018.36 32.98c0-1.034.84-1.875 1.875-1.875 1.034 0 1.875.84 1.875 1.875a1.877 1.877 0 01-1.875 1.875zm12.543-12.832a1.877 1.877 0 01-1.875-1.875c0-1.033.841-1.875 1.875-1.875s1.875.842 1.875 1.875a1.877 1.877 0 01-1.875 1.875zm13.676 13.953a1.877 1.877 0 01-1.875-1.875c0-1.034.84-1.875 1.875-1.875 1.033 0 1.875.84 1.875 1.875a1.877 1.877 0 01-1.875 1.875zm13.233-13.953a1.877 1.877 0 01-1.875-1.875c0-1.033.842-1.875 1.875-1.875 1.034 0 1.875.842 1.875 1.875a1.877 1.877 0 01-1.875 1.875z" fill="#0D142E"/><path d="M17.383 15.112a1.183 1.183 0 00-.829-.343c-.31 0-.612.125-.83.343a1.18 1.18 0 00-.342.828c0 .309.124.611.342.829.22.218.52.343.83.343.308 0 .61-.125.829-.343a1.18 1.18 0 00.343-.829c0-.308-.126-.61-.343-.828zm-5.195-.343H6.561a1.172 1.172 0 100 2.343h5.625a1.172 1.172 0 000-2.343zm0 5.625H6.561a1.172 1.172 0 100 2.343h5.625a1.172 1.172 0 000-2.343z" fill="#AC252B"/></svg>