<svg width="53" height="62" fill="none" xmlns="http://www.w3.org/2000/svg"><path d="M46.77 21.411C46.77 10.076 37.58.887 26.245.887 14.91.887 5.721 10.076 5.721 21.41c-2.93.365-5.702 2.28-5.702 6.728v10.718c0 5.017 3.512 6.842 6.842 6.842h3.307c.63 0 1.14-.511 1.14-1.14V22.482c0-.63-.51-1.14-1.14-1.14H8C8 11.266 16.168 3.098 26.244 3.098S44.49 11.267 44.49 21.343h-2.166c-.63 0-1.14.51-1.14 1.14v22.041c0 .63.51 1.14 1.14 1.14h2.166c-.32 7.834-4.082 9.67-11.596 10V54.9a2.28 2.28 0 00-2.28-2.28H23.44a2.28 2.28 0 00-2.28 2.28v3.706a2.28 2.28 0 002.28 2.28h7.195a2.28 2.28 0 002.28-2.28v-.661c7.23-.33 13.478-1.825 13.855-12.349 2.93-.365 5.7-2.28 5.7-6.727V28.15c0-4.47-2.758-6.374-5.7-6.739zM9.027 23.544v19.84H6.804c-1.688 0-4.561-.593-4.561-4.561V28.105c0-3.934 2.84-4.561 4.56-4.561h2.224zm21.608 33.34v1.734H23.44v-3.706h7.195v1.972zM50.19 38.857c0 3.934-2.839 4.561-4.56 4.561h-2.167V23.623h2.223c1.688 0 4.561.593 4.561 4.561l-.057 10.673z" fill="#0D142E"/><rect x="21.245" y="52.137" width="12.5" height="8.75" rx="2" fill="#AC252B" stroke="#AC252B" stroke-width=".5"/></svg>