<svg width="60" height="61" fill="none" xmlns="http://www.w3.org/2000/svg"><path d="M30 13.339a17.547 17.547 0 1017.547 17.547A17.567 17.567 0 0030 13.34zm0 32.49a14.943 14.943 0 1114.943-14.943A14.96 14.96 0 0130 45.83z" fill="#AC252B"/><mask id="a" fill="#fff"><path d="M58.697 25.66h-5.16a23.773 23.773 0 00-3.2-7.72l3.65-3.647a1.302 1.302 0 000-1.841l-5.55-5.55a1.302 1.302 0 00-1.84 0l-3.65 3.647a23.764 23.764 0 00-7.72-3.2v-5.16A1.301 1.301 0 0033.925.887h-7.85a1.301 1.301 0 00-1.302 1.302v5.16a23.763 23.763 0 00-7.719 3.2L13.407 6.9a1.302 1.302 0 00-1.841 0l-5.55 5.55a1.3 1.3 0 000 1.84l3.646 3.65a23.774 23.774 0 00-3.2 7.72h-5.16A1.301 1.301 0 000 26.96v7.85a1.301 1.301 0 001.302 1.302h5.161a23.774 23.774 0 003.2 7.719l-3.65 3.65a1.302 1.302 0 000 1.843l5.55 5.55a1.302 1.302 0 001.84 0l3.65-3.65a23.765 23.765 0 007.719 3.199v5.16a1.301 1.301 0 001.302 1.303h7.85a1.301 1.301 0 001.302-1.302v-5.162a23.763 23.763 0 007.72-3.2l3.65 3.65a1.302 1.302 0 001.841 0l5.55-5.55a1.302 1.302 0 000-1.84l-3.65-3.65a23.776 23.776 0 003.2-7.719h5.16A1.301 1.301 0 0060 34.812v-7.85a1.3 1.3 0 00-1.303-1.302zm-1.302 7.848h-4.93a1.302 1.302 0 00-1.283 1.08 21.229 21.229 0 01-3.587 8.658 1.302 1.302 0 00.144 1.67l3.487 3.487-3.71 3.71-3.487-3.487a1.303 1.303 0 00-1.67-.145 21.24 21.24 0 01-8.657 3.588 1.303 1.303 0 00-1.08 1.283v4.93h-5.244v-4.93a1.302 1.302 0 00-1.08-1.283 21.24 21.24 0 01-8.657-3.588 1.303 1.303 0 00-1.67.145l-3.488 3.487-3.71-3.71 3.487-3.486a1.302 1.302 0 00.145-1.67 21.228 21.228 0 01-3.588-8.658 1.302 1.302 0 00-1.282-1.08h-4.93v-5.245h4.93a1.302 1.302 0 001.282-1.08 21.228 21.228 0 013.588-8.658 1.302 1.302 0 00-.145-1.67L8.773 13.37l3.71-3.709 3.487 3.487a1.301 1.301 0 001.67.144 21.241 21.241 0 018.657-3.588 1.302 1.302 0 001.08-1.283v-4.93h5.245v4.93a1.303 1.303 0 001.08 1.282 21.24 21.24 0 018.657 3.588 1.301 1.301 0 001.67-.144l3.488-3.487 3.709 3.71-3.487 3.486a1.302 1.302 0 00-.144 1.67 21.229 21.229 0 013.587 8.658 1.301 1.301 0 001.283 1.08h4.93v5.244z"/></mask><path d="M58.697 25.66h-5.16a23.773 23.773 0 00-3.2-7.72l3.65-3.647a1.302 1.302 0 000-1.841l-5.55-5.55a1.302 1.302 0 00-1.84 0l-3.65 3.647a23.764 23.764 0 00-7.72-3.2v-5.16A1.301 1.301 0 0033.925.887h-7.85a1.301 1.301 0 00-1.302 1.302v5.16a23.763 23.763 0 00-7.719 3.2L13.407 6.9a1.302 1.302 0 00-1.841 0l-5.55 5.55a1.3 1.3 0 000 1.84l3.646 3.65a23.774 23.774 0 00-3.2 7.72h-5.16A1.301 1.301 0 000 26.96v7.85a1.301 1.301 0 001.302 1.302h5.161a23.774 23.774 0 003.2 7.719l-3.65 3.65a1.302 1.302 0 000 1.843l5.55 5.55a1.302 1.302 0 001.84 0l3.65-3.65a23.765 23.765 0 007.719 3.199v5.16a1.301 1.301 0 001.302 1.303h7.85a1.301 1.301 0 001.302-1.302v-5.162a23.763 23.763 0 007.72-3.2l3.65 3.65a1.302 1.302 0 001.841 0l5.55-5.55a1.302 1.302 0 000-1.84l-3.65-3.65a23.776 23.776 0 003.2-7.719h5.16A1.301 1.301 0 0060 34.812v-7.85a1.3 1.3 0 00-1.303-1.302zm-1.302 7.848h-4.93a1.302 1.302 0 00-1.283 1.08 21.229 21.229 0 01-3.587 8.658 1.302 1.302 0 00.144 1.67l3.487 3.487-3.71 3.71-3.487-3.487a1.303 1.303 0 00-1.67-.145 21.24 21.24 0 01-8.657 3.588 1.303 1.303 0 00-1.08 1.283v4.93h-5.244v-4.93a1.302 1.302 0 00-1.08-1.283 21.24 21.24 0 01-8.657-3.588 1.303 1.303 0 00-1.67.145l-3.488 3.487-3.71-3.71 3.487-3.486a1.302 1.302 0 00.145-1.67 21.228 21.228 0 01-3.588-8.658 1.302 1.302 0 00-1.282-1.08h-4.93v-5.245h4.93a1.302 1.302 0 001.282-1.08 21.228 21.228 0 013.588-8.658 1.302 1.302 0 00-.145-1.67L8.773 13.37l3.71-3.709 3.487 3.487a1.301 1.301 0 001.67.144 21.241 21.241 0 018.657-3.588 1.302 1.302 0 001.08-1.283v-4.93h5.245v4.93a1.303 1.303 0 001.08 1.282 21.24 21.24 0 018.657 3.588 1.301 1.301 0 001.67-.144l3.488-3.487 3.709 3.71-3.487 3.486a1.302 1.302 0 00-.144 1.67 21.229 21.229 0 013.587 8.658 1.301 1.301 0 001.283 1.08h4.93v5.244z" fill="#0D142E" stroke="#EFF3FB" stroke-width=".6" mask="url(#a)"/><path d="M29.942 22.633c1.461 0 2.924.414 4.23 1.198a9.103 9.103 0 012.4 2.091l-2.452-.08-.02.639 3.098.102a.32.32 0 00.33-.309v-.021l-.102-3.1-.64.022.07 2.09a9.794 9.794 0 00-2.355-1.982 8.877 8.877 0 00-4.558-1.29c-2.52 0-4.842 1.04-6.54 2.925C21.899 26.591 21 28.84 21 30.936h.64c0-1.942.837-4.032 2.24-5.59 1.574-1.75 3.727-2.713 6.063-2.713zm6.178 13.893c-1.574 1.75-3.727 2.713-6.063 2.713a8.24 8.24 0 01-4.23-1.198 9.111 9.111 0 01-2.399-2.091l2.452.08.02-.639-3.098-.102a.32.32 0 00-.33.33l.102 3.1.639-.022-.069-2.089A9.802 9.802 0 0025.5 38.59a8.88 8.88 0 004.558 1.29c2.52 0 4.842-1.04 6.54-2.925C38.1 35.282 39 33.032 39 30.936h-.64c0 1.942-.837 4.032-2.24 5.59z" fill="#0D142E" stroke="#0D142E" stroke-width=".8"/></svg>