<svg width="60" height="61" fill="none" xmlns="http://www.w3.org/2000/svg"><path d="M30 43.074c-4.653 0-8.438 3.786-8.438 8.438 0 4.652 3.785 8.437 8.438 8.437 4.653 0 8.438-3.785 8.438-8.437 0-4.652-3.785-8.438-8.438-8.438zm-3.584 13.929c.468-1.557 1.917-2.679 3.584-2.679s3.116 1.122 3.584 2.679a6.528 6.528 0 01-7.168 0zm1.709-6.429c0-1.034.84-1.875 1.875-1.875 1.034 0 1.875.841 1.875 1.875S31.035 52.45 30 52.45a1.877 1.877 0 01-1.875-1.875zm6.94 5.105a5.655 5.655 0 00-2.364-2.516 3.726 3.726 0 001.049-2.589 3.754 3.754 0 00-3.75-3.75 3.754 3.754 0 00-3.75 3.75 3.73 3.73 0 001.05 2.59 5.655 5.655 0 00-2.365 2.516 6.538 6.538 0 01-1.497-4.168A6.57 6.57 0 0130 44.949a6.57 6.57 0 016.563 6.563c0 1.58-.563 3.032-1.498 4.167zM30 1.824c-4.653 0-8.438 3.786-8.438 8.438 0 1.092.216 2.133.595 3.092a4.62 4.62 0 00-1.532-.28 2.817 2.817 0 00-2.813 2.813v2.317a4.928 4.928 0 01-2.38 4.204 6.78 6.78 0 00-2.942 3.668l-.021.066-11.531-.96v16.017H30a2.816 2.816 0 002.813-2.812c0-.37-.076-.722-.207-1.046a2.81 2.81 0 002.081-2.704c0-.723-.282-1.377-.73-1.875a2.79 2.79 0 00.73-1.875c0-.723-.282-1.377-.73-1.875a2.79 2.79 0 00.73-1.875c0-1.55-1.26-2.813-2.811-2.813h-4.689a1.877 1.877 0 01-1.875-1.875v-4.687c0-.18-.033-.35-.053-.525A8.392 8.392 0 0030 18.699c4.653 0 8.438-3.785 8.438-8.437 0-4.652-3.785-8.438-8.438-8.438zm-17.813 37.5H2.813V27.218l9.374.781v11.325zm15-13.125h4.689a.938.938 0 01-.001 1.875h-6.563v1.875h6.563a.938.938 0 010 1.875h-6.563V33.7h6.563a.938.938 0 010 1.875h-6.563v1.875H30a.938.938 0 010 1.875H14.062V27.29l.208-.62a4.899 4.899 0 012.128-2.652 6.812 6.812 0 003.29-5.812v-2.317a.94.94 0 01.938-.938 2.816 2.816 0 012.812 2.813v4.687a3.752 3.752 0 003.75 3.75zM30 16.824a6.57 6.57 0 01-6.563-6.562A6.57 6.57 0 0130 3.699a6.57 6.57 0 016.563 6.563A6.57 6.57 0 0130 16.824zm20.625 5.626c-4.653 0-8.438 3.785-8.438 8.437 0 4.652 3.785 8.437 8.438 8.437 4.653 0 8.438-3.785 8.438-8.437 0-4.652-3.785-8.438-8.438-8.438zm0 15a6.57 6.57 0 01-6.563-6.563 6.57 6.57 0 016.563-6.563 6.57 6.57 0 016.563 6.563 6.57 6.57 0 01-6.563 6.562z" fill="#0D142E"/><path d="M53.438 28.074v3.75h-1.876V26.2h-1.874v5.625h-1.876V29.95h-1.874v3.75h9.374v-5.625h-1.874zM29.063 9.324h1.875V11.2h-1.875V9.324zm3.75 0h1.874V11.2h-1.874V9.324zm-7.5 0h1.875V11.2h-1.875V9.324z" fill="#0D142E"/><path d="M49.83 18.26l1.253 1.996 1.398-6.998-1.838-.368-.503 2.515c-2.422-3.206-5.465-5.605-9.431-7.46l-.794 1.698c4.356 2.037 7.507 4.776 9.915 8.617zM7.058 20.177l1.7.794c2.035-4.353 4.773-7.504 8.615-9.915l1.995-1.251-6.997-1.4-.367 1.838 2.515.503c-3.208 2.424-5.607 5.467-7.462 9.431zm3.112 23.337l-1.253-1.996-1.398 6.998 1.838.368.503-2.515c2.422 3.206 5.465 5.605 9.43 7.46l.796-1.698c-4.357-2.038-7.508-4.776-9.916-8.617zm42.773-1.918l-1.7-.794c-2.035 4.354-4.774 7.505-8.616 9.915l-1.995 1.251 6.997 1.4.368-1.838-2.515-.504c3.207-2.422 5.606-5.466 7.46-9.43z" fill="#AC252B"/></svg>