<svg width="70" height="71" fill="none" xmlns="http://www.w3.org/2000/svg"><path d="M18.594 46.824a1.094 1.094 0 001.093-1.093V33.698h9.844v-2.187h-9.843v-4.375a1.093 1.093 0 00-1.094-1.094H8.75v2.188h8.75v16.406h-6.563a1.094 1.094 0 00-1.093 1.093v6.563a1.094 1.094 0 001.094 1.094h8.75v-2.188H12.03v-4.375h6.563zm48.125-33.906h-26.25v2.188h10.937v7.656h-6.562a1.094 1.094 0 00-1.094 1.093v8.75h2.188V24.95H52.5a1.094 1.094 0 001.094-1.094v-8.75h4.375V33.7h2.187V15.106h5.469V36.98h-6.563v2.188h6.563v4.375h-17.5a1.094 1.094 0 00-1.094 1.094v4.375h2.188V45.73h16.406v5.47H41.562v-7.657h-2.187v8.75a1.094 1.094 0 001.094 1.094h25.156v4.375h-26.25v2.187h27.344a1.094 1.094 0 001.094-1.093V14.011a1.093 1.093 0 00-1.094-1.094z" fill="#0D142E"/><path d="M29.531 12.918H3.281a1.094 1.094 0 00-1.094 1.094v44.843a1.094 1.094 0 001.094 1.094h27.344v-2.187h-3.281V38.074h-2.188v19.688H4.375V34.793h6.563v5.469h2.187v-6.563a1.093 1.093 0 00-1.094-1.093H4.375V21.667h6.563V19.48H4.375v-4.375h12.031v5.47a1.094 1.094 0 001.094 1.093h5.469V19.48h-4.375v-4.375h9.843v8.75h2.188v-9.843a1.093 1.093 0 00-1.094-1.094zM52.5 38.074a1.094 1.094 0 001.094-1.093v-7.657h-2.188v6.563H39.375v2.187H52.5z" fill="#0D142E"/><path d="M40.148 7.77l-4.375-4.376a1.094 1.094 0 00-1.546 0L29.852 7.77l1.546 1.547 2.508-2.508v7.204h2.188V6.808l2.508 2.508 1.546-1.547zm-6.242 55.46h2.188v5.47h-2.188v-5.47zm0-7.656h2.188v4.375h-2.188v-4.375zm0-7.656h2.188v4.375h-2.188v-4.375zm0-7.656h2.188v4.375h-2.188v-4.375zm0-7.657h2.188v4.376h-2.188v-4.376zm0-7.655h2.188v4.374h-2.188V24.95zm0-7.657h2.188v4.375h-2.188v-4.375z" fill="#AC252B"/></svg>