<svg width="60" height="59" fill="none" xmlns="http://www.w3.org/2000/svg"><path d="M14.063 43.126c.517 0 .937.42.937.937h1.875a2.816 2.816 0 00-2.812-2.813v-1.874h-1.875v1.875H9.375v2.812a2.816 2.816 0 002.813 2.813h1.875c.517 0 .937.42.937.937v.938h-2.812a.938.938 0 01-.938-.938H9.375a2.816 2.816 0 002.813 2.813V52.5h1.875v-1.875h2.812v-2.813A2.816 2.816 0 0014.063 45h-1.875a.938.938 0 01-.938-.937v-.938h2.813z" fill="#AC252B"/><path d="M59.063 12.188V0H46.875v1.875h8.987L39.375 18.362 32.813 11.8 21.58 23.032a3.7 3.7 0 00-1.892-.532c-1.247 0-1.91.757-2.348 1.258-.409.467-.572.617-.936.617-.366 0-.528-.15-.938-.617-.439-.501-1.1-1.258-2.346-1.258-1.245 0-1.907.758-2.346 1.259-.407.465-.57.616-.934.616-.364 0-.526-.15-.933-.616-.438-.501-1.1-1.259-2.344-1.259a3.754 3.754 0 00-3.75 3.75c0 .806.266 1.605.75 2.25l4.54 6.055-3.101 2.714a11.902 11.902 0 00-4.064 8.957c0 6.561 5.338 11.9 11.9 11.9h.574c2.373 0 4.58-.706 6.438-1.907a2.809 2.809 0 002.65 1.907h33.75a2.816 2.816 0 002.813-2.813v-1.875c0-.723-.283-1.376-.732-1.875a2.79 2.79 0 00.732-1.875v-1.875c0-.723-.283-1.376-.732-1.875a2.79 2.79 0 00.732-1.875v-1.875c0-.723-.283-1.376-.732-1.875a2.79 2.79 0 00.732-1.875v-1.875a2.816 2.816 0 00-2.813-2.813h-.937V15h-7.5v18.75h-1.875v-9.375h-7.5v9.376H37.5c-.33 0-.643.067-.937.172V20.625h-7.5v18.75h-5.934a11.875 11.875 0 00-1.88-2.106l-3.103-2.714L22.69 28.5a3.782 3.782 0 00.749-2.25 3.7 3.7 0 00-.532-1.892l9.907-9.907 6.562 6.563 8.906-8.907 8.907-8.906v8.987h1.875zM22.5 56.251a.938.938 0 01-.937-.938v-.44a11.936 11.936 0 001.875-2.262v1.765h1.875V52.5h1.875v1.875h1.875V52.5h1.875v1.875h1.875V52.5h1.875v1.875h1.875V52.5h1.875v1.875h1.875V52.5h.937c.518 0 .938.42.938.937v1.875c0 .517-.42.938-.938.938H22.5zm2.78-9.375h1.908v1.875h1.875v-1.875h1.875v1.875h1.875v-1.875h1.875v1.875h1.875v-1.875h1.875v1.875h1.875v-1.875h.937c.518 0 .938.42.938.937v1.875c0 .517-.42.938-.938.938H24.46a11.83 11.83 0 00.82-3.75zm22.533-3.75V41.25h1.875v1.875h1.875V41.25h1.875v1.875h1.875V41.25h.937c.518 0 .938.42.938.937v1.875c0 .517-.42.938-.938.938H43.89c.105-.295.173-.608.173-.938v-1.875c0-.33-.068-.643-.173-.938h2.048v1.876h1.875zm9.375 4.687v1.875c0 .517-.42.938-.938.938H43.89c.105-.295.173-.608.173-.938v-1.875c0-.33-.068-.643-.173-.938h2.048v1.876h1.875v-1.875h1.875v1.875h1.875v-1.875h1.875v1.875h1.875v-1.875h.937c.518 0 .938.42.938.937zm0 7.5c0 .517-.42.938-.938.938H43.89c.105-.295.173-.608.173-.938v-1.875c0-.33-.068-.643-.173-.938h2.048v1.876h1.875V52.5h1.875v1.875h1.875V52.5h1.875v1.875h1.875V52.5h.937c.518 0 .938.42.938.937v1.875zm-7.5-38.438h3.75v16.876h-3.75V16.876zm-9.375 9.375h3.75v7.5h-3.75v-7.5zM37.5 35.627h.938V37.5h1.875v-1.875h1.875V37.5h1.875v-1.875h1.875V37.5h1.875v-1.875h1.875V37.5h1.875v-1.875h1.875V37.5h1.875v-1.875h.937c.518 0 .938.42.938.937v1.875c0 .517-.42.938-.938.938H37.5a.938.938 0 01-.937-.938v-1.875c0-.518.42-.938.937-.938zM30.938 22.5h3.75v16.875h-3.75V22.5zm-3.75 18.75v1.875h1.875V41.25h1.875v1.875h1.875V41.25h1.875v1.875h1.875V41.25h1.875v1.875h1.875V41.25h.937c.518 0 .938.42.938.937v1.875c0 .517-.42.938-.938.938H25.247a11.881 11.881 0 00-1.027-3.75h2.968zm-3.75 4.975c0 5.527-4.498 10.025-10.025 10.025h-.575c-5.528 0-10.025-4.498-10.025-10.025 0-2.89 1.247-5.641 3.422-7.545l3.493-3.055h6.795l3.492 3.055a10.029 10.029 0 013.423 7.545zm-2.25-18.85l-4.782 6.375H9.844l-4.781-6.375a1.877 1.877 0 011.5-3c.363 0 .526.15.932.616.438.501 1.1 1.258 2.345 1.258s1.907-.757 2.346-1.258c.408-.466.57-.617.934-.617.364 0 .527.151.936.618.439.5 1.1 1.258 2.348 1.258 1.245 0 1.907-.757 2.346-1.258.41-.467.572-.617.938-.617a1.877 1.877 0 011.5 3z" fill="#0D142E"/></svg>