<svg width="60" height="60" fill="none" xmlns="http://www.w3.org/2000/svg"><g clip-path="url(#clip0)"><path d="M16.05 37.762a1.172 1.172 0 10-1.173-2.03 1.172 1.172 0 001.174 2.03z" fill="#AC252B"/><path d="M23.326 52.508h0a2.442 2.442 0 01-.895 3.338 2.447 2.447 0 01-3.338-.895l-5.86-10.15-.05-.086.087-.05 4.06-2.344.086-.05.05.087 5.86 10.15m0 0h0s0 0 0 0m0 0c-.02-.035-.001-.002 0 0m0 0h0M32.34 6.505a1.247 1.247 0 00-1.103.61h0a2.17 2.17 0 01-.16.214c-.052.067-.127.161-.235.301l-.042.053.034.059 14.418 24.973.035.061.07-.013c.142-.026.243-.047.32-.062.15-.03.208-.043.307-.045h0a1.272 1.272 0 001.07-1.907L33.425 7.14a1.252 1.252 0 00-1.084-.635zm0 0s0 0 0 0l-.002.1m.002-.1h-.001l-.001.1m0 0c.2.002.698.064.999.585l-2.416.502.229-.293c.102-.13.133-.168.172-.232a1.147 1.147 0 011.016-.563zM11.335 45.8l-.044-.075-.08.033c-3.664 1.466-7.978.072-10.025-3.473h0c-2.24-3.877-.9-8.838 2.966-11.07h0l9.952-5.745.017-.01.012-.015L29.44 5.943h0l.006-.007a3.385 3.385 0 012.918-1.575v0h.001a3.385 3.385 0 012.916 1.708l4.323 7.489.031.053.062-.004 4.508-.27c.404-.024.79.182.993.534l2.344 4.06c.203.35.19.787-.034 1.126l-2.489 3.77-.034.051.03.054 3.895 6.745.087-.05-.087.05c1.279 2.213-.237 4.98-2.768 5.118v-.001l-.014.003-22.445 4.402-.138.027.07.121 1.524 2.64.086-.05-.086.05c.296.512.12 1.168-.393 1.464l-3.044 1.758-.087.05.05.087 3.516 6.09h0a4.585 4.585 0 01-1.679 6.266l.05.087-.05-.087c-2.216 1.282-5.02.482-6.267-1.68h0l-5.9-10.222zm9.16-2.485l.05.087.086-.05 2.03-1.172.086-.05-.05-.087-1.171-2.03-.05-.086-.087.05-2.03 1.172-.086.05.05.087 1.171 2.03zm23.21-27.745l-.031-.054-.062.004-2.616.157-.162.01.081.14 2.792 4.835.08.14.09-.135 1.444-2.187.034-.052-.03-.053-1.62-2.805zM29.449 9.628l-.075-.128-.09.117-13.115 16.706-.042.053.034.059 6.216 10.767.036.062.07-.014 20.445-4.01.137-.027-.07-.121L29.45 9.628zM14.493 27.835l-.05-.086-.086.05-9.134 5.273a5.981 5.981 0 00-2.981 5.167c0 1.04.276 2.068.8 2.974a5.966 5.966 0 008.14 2.182l-.05-.087.05.087 9.134-5.274.087-.05-.05-.087-5.86-10.149z" fill="#0D142E" stroke="#EFF3FB" stroke-width=".2"/><path d="M12.42 38.505a1.172 1.172 0 00-1.6-.429l-2.03 1.172c-.56.323-1.278.13-1.601-.429a1.172 1.172 0 00-2.03 1.172 3.52 3.52 0 004.802 1.287l2.03-1.172c.56-.324.753-1.04.429-1.601zM58.258 6.767l-6.53 3.634a1.172 1.172 0 001.14 2.048l6.53-3.634a1.172 1.172 0 00-1.14-2.048zm-.685 12.138l-4.527-1.213a1.172 1.172 0 10-.607 2.263l4.528 1.213a1.172 1.172 0 10.606-2.263zM46.195 2.51l-1.214 4.528a1.172 1.172 0 002.264.607l1.214-4.528a1.172 1.172 0 10-2.264-.607z" fill="#AC252B"/></g><defs><clipPath id="clip0"><path fill="#fff" d="M0 0h60v60H0z"/></clipPath></defs></svg>