<svg width="60" height="60" fill="none" xmlns="http://www.w3.org/2000/svg"><g clip-path="url(#clip0)"><path d="M45.985 25.082c0-11.575-9.384-20.958-20.959-20.958S4.068 13.507 4.068 25.082s9.383 20.959 20.958 20.959c11.57-.013 20.945-9.389 20.959-20.959zm-39.921 0c0-10.472 8.49-18.962 18.962-18.962 10.473 0 18.962 8.49 18.962 18.962 0 10.473-8.49 18.963-18.962 18.963-10.467-.013-18.95-8.495-18.962-18.963z" fill="#AC252B"/><path d="M53.85 48.266l-.002-.003-.003-.003-2.114-2.114a1.98 1.98 0 00-1.41-.585h-.002a1.991 1.991 0 00-.51.074L47.3 43.127a1.989 1.989 0 00-.51-1.922l-1.534-1.54C52.874 29.1 51.1 14.455 41.18 6.016S16.52-1.827 7.315 7.384c-9.208 9.212-9.795 23.951-1.35 33.867 8.444 9.915 23.088 11.682 33.649 4.06l1.53 1.54c.499.51 1.236.705 1.922.509l2.508 2.509c-.195.685 0 1.423.51 1.921l2.116 2.116.002.002.003.002 4.938 4.938a3.991 3.991 0 105.645-5.645l-4.938-4.938zM2.072 25.086a22.954 22.954 0 1140.694 14.552l-.073.087a23.185 23.185 0 01-3.017 3.018l-.107.09A22.942 22.942 0 012.072 25.087zm39.527 18.63a25.11 25.11 0 002.058-2.058c.121-.136.252-.262.37-.4l1.35 1.357.002.002-2.822 2.823-1.352-1.36c.136-.116.26-.245.394-.364zm4.486 1.018l2.117 2.117-1.411 1.411-2.117-2.117 1.41-1.41zm4.234 2.822l1.411 1.412-2.822 2.823-1.412-1.412 2.823-2.823zm7.057 9.88a2.044 2.044 0 01-2.822 0l-4.235-4.234 2.822-2.822 4.235 4.234a1.994 1.994 0 010 2.823z" fill="#0D142E"/><path d="M29.817 38.735a11.05 11.05 0 011.783-2.091 5.863 5.863 0 002.167-5.251 5.334 5.334 0 002.153-3.402c.394-3.39-.535-3.825-.884-3.99a1.642 1.642 0 00-.673-.154c.001-.164-.003-.344-.004-.515C36.633 22.264 38 20.783 38 19.094c0-2.046-1.971-3.808-5.403-4.905a18.91 18.91 0 00-1.197-3.896 2 2 0 00-2.937-.84c-.158.107-.33.234-.519.371a5.102 5.102 0 01-2.918 1.286 5.1 5.1 0 01-2.918-1.286 14.65 14.65 0 00-.519-.37 1.999 1.999 0 00-2.935.838 18.881 18.881 0 00-1.199 3.897c-3.432 1.097-5.403 2.86-5.403 4.905 0 1.689 1.367 3.17 3.642 4.238-.001.17-.006.35-.005.513a1.641 1.641 0 00-.672.157c-.35.164-1.279.598-.881 4.023a5.331 5.331 0 002.15 3.367 5.862 5.862 0 002.166 5.252c.68.62 1.278 1.322 1.783 2.091.8 1.138 1.628 2.316 3.608 2.316h2.366c1.981 0 2.808-1.178 3.608-2.316zM17.731 25.13a24.752 24.752 0 01-.042-1.037c1.703.498 3.457.803 5.228.91l.288.02c.23.013.461.027.696.035l.128.008v1.474a6.795 6.795 0 01-2.995.538 3.924 3.924 0 01-3.303-1.948zm8.293-.064l.128-.008c.235-.008.465-.022.696-.036l.288-.019a23.703 23.703 0 005.228-.91c-.006.366-.022.705-.042 1.037a3.926 3.926 0 01-3.304 1.948 6.856 6.856 0 01-2.994-.535v-1.477zM20.48 11.112c.136.092.285.201.447.32a6.906 6.906 0 004.1 1.675 6.906 6.906 0 004.1-1.675 5.94 5.94 0 01.457-.315 17.926 17.926 0 011.286 4.864c.02.152.042.301.057.456.03.29.047.578.062.863.003.078.012.154.015.233a13.15 13.15 0 01-4.959 1.515c-.33.03-.67.046-1.018.046a11.885 11.885 0 01-2.86-.36 13.46 13.46 0 01-3.117-1.203c.003-.078.011-.153.015-.23.015-.287.033-.575.062-.866.016-.154.038-.302.057-.453a17.656 17.656 0 011.295-4.87zm-6.43 7.982c0-.93 1.166-1.924 3.071-2.682-.006.066-.004.13-.009.195-.04.491-.069.987-.069 1.49a1 1 0 00.444.83 14.74 14.74 0 007.54 2.163 14.74 14.74 0 007.54-2.163.998.998 0 00.444-.83 18.3 18.3 0 00-.068-1.49c-.006-.066-.004-.129-.01-.195 1.906.758 3.072 1.751 3.072 2.682s-1.15 1.918-3.07 2.677c-.133.053-.274.1-.412.15a21.706 21.706 0 01-6.173 1.13c-.06.004-.117.009-.176.012a28.548 28.548 0 01-2.293 0l-.177-.011a21.707 21.707 0 01-6.173-1.13c-.137-.05-.279-.098-.41-.15-1.921-.76-3.072-1.746-3.072-2.678zm7.818 18.493a12.857 12.857 0 00-2.097-2.443c-1.603-1.409-1.547-2.541-1.47-4.109l.008-.161a1 1 0 00-.64-.98 3.2 3.2 0 01-1.554-2.133 10.63 10.63 0 01-.064-1.555 5.895 5.895 0 004.984 2.869 8.445 8.445 0 003.992-.8 8.449 8.449 0 003.992.8 5.895 5.895 0 004.984-2.87c.017.506-.003 1.012-.058 1.515a3.199 3.199 0 01-1.56 2.174 1 1 0 00-.64.98l.008.161c.078 1.567.134 2.7-1.47 4.11a12.854 12.854 0 00-2.097 2.442c-.783 1.115-1.075 1.467-1.976 1.467h-2.366c-.9 0-1.192-.352-1.976-1.467z" fill="#0D142E"/><path d="M28.727 33.363a1 1 0 00-1.41-.007c-.349.362-.8.61-1.293.709a.998.998 0 000 1.996 4.384 4.384 0 002.702-1.29.995.995 0 000-1.408z" fill="#0D142E"/></g><defs><clipPath id="clip0"><path fill="#fff" d="M0 0h60v60H0z"/></clipPath></defs></svg>