<svg width="60" height="60" fill="none" xmlns="http://www.w3.org/2000/svg"><g clip-path="url(#clip0)"><path d="M56.998 20.386H51.24L49.624 8.192a3.024 3.024 0 00-3.375-2.577L2.607 11.4a3.002 3.002 0 00-1.99 1.158 2.972 2.972 0 00-.59 2.218L3.71 42.547a3.002 3.002 0 003.366 2.587l2.89-.382v6.655a3.002 3.002 0 003.003 3.002h44.029A3.002 3.002 0 0060 51.407V23.388a3.002 3.002 0 00-3.002-3.002zm-7.776 0h-7.814l7.679-1.018.135 1.018zm-47.213-5.88a.98.98 0 01.198-.734 1 1 0 01.667-.39L46.508 7.6a1.015 1.015 0 011.132.86l.395 2.98-45.63 6.051-.396-2.986zm7.958 28.228l-3.149.415a1 1 0 01-1.123-.86l-2.233-16.87 6.505-.86v18.175zm.132-20.21l-6.905.911-.525-3.958 45.63-6.053.3 2.294.223 1.666-22.645 3.002H12.97a3.002 3.002 0 00-2.87 2.139zm47.9 28.883a1 1 0 01-1.001 1h-44.03a1 1 0 01-1-1V23.418c0-.01.005-.02.005-.03a1 1 0 011-1h44.025a1 1 0 011 1v28.019z" fill="#0D142E"/><path d="M43.935 35.42a5.003 5.003 0 001.055-1.056 4.995 4.995 0 104.003-7.974 4.985 4.985 0 00-4.003 2.032 5.003 5.003 0 10-1.055 6.997zm5.058-7.029a3.002 3.002 0 110 6.004 3.002 3.002 0 010-6.004zm-8.006 0a3.002 3.002 0 110 6.004 3.002 3.002 0 010-6.004z" fill="#0D142E"/><path d="M17.972 27.39H15.97v2.002h2v-2.001zm14.009 0H19.973v2.002h12.008v-2.001zm0 4.004h-16.01v2h16.01v-2z" fill="#AC252B"/><path d="M52.995 40.4H16.971a1 1 0 00-1 1v6.004a1 1 0 001 1h36.024a1 1 0 001.001-1V41.4a1 1 0 00-1-1zm-1 6.003H17.972v-4.002h34.023v4.002z" fill="#0D142E"/></g><defs><clipPath id="clip0"><path fill="#fff" d="M0 0h60v60H0z"/></clipPath></defs></svg>