<svg width="57" height="57" fill="none" xmlns="http://www.w3.org/2000/svg"><path d="M53.438 0H2.812A2.82 2.82 0 000 2.813v50.625a2.821 2.821 0 002.813 2.813h50.624a2.821 2.821 0 002.813-2.813V2.813A2.821 2.821 0 0053.437 0zM35.624 54.376v-.938a2.805 2.805 0 012.166-2.728l1.218 3.666h-3.384zm9.638 0h-4.276l-1.246-3.75h6.768l-1.246 3.75zM41.25 40.313a1.11 1.11 0 00.3-.047l2.26-.76.524.535a.97.97 0 00.666.272h1.875v1.875a2.821 2.821 0 01-2.813 2.813h-1.874a2.821 2.821 0 01-2.813-2.813v-1.875h1.875zm-1.875-1.875a2.821 2.821 0 012.813-2.813h1.874a2.82 2.82 0 012.813 2.813h-1.49l-.657-.666a.943.943 0 00-.965-.225l-2.663.891h-1.725zm2.813 8.438h1.874v1.875h-1.874v-1.875zm8.437 7.5h-3.384l1.218-3.666a2.804 2.804 0 012.166 2.728v.938zm3.75-.938a.938.938 0 01-.938.938H52.5v-.938a4.688 4.688 0 00-4.688-4.688h-1.874v-2.268a4.7 4.7 0 002.812-4.294v-3.75a4.688 4.688 0 00-4.688-4.688h-1.874a4.687 4.687 0 00-4.688 4.688v3.75a4.7 4.7 0 002.813 4.294v2.269h-1.876a4.687 4.687 0 00-4.687 4.687v.938H2.812a.938.938 0 01-.937-.938V9.375h52.5v44.063zm0-45.938h-52.5V2.813a.937.937 0 01.938-.938h50.624a.937.937 0 01.938.938V7.5z" fill="#0D142E"/><path d="M43.125 4.688a.937.937 0 111.875 0 .937.937 0 01-1.875 0zm3.75 0a.937.937 0 111.875 0 .937.937 0 01-1.875 0zm3.75 0a.937.937 0 111.875 0 .937.937 0 01-1.875 0z" fill="#AC252B"/><path d="M15 33.75A11.25 11.25 0 103.75 22.5 11.262 11.262 0 0015 33.75zm-.938-1.922V30h1.876v1.828a9.222 9.222 0 01-1.876 0zM18.75 22.5h-1.487l-.663-.662a.93.93 0 00-.959-.226l-2.668.889H11.25v-.938a2.812 2.812 0 012.813-2.813h1.874a2.812 2.812 0 012.813 2.813v.938zm-7.5 1.875h1.875c.1 0 .2-.016.296-.048l2.263-.75.528.527a.937.937 0 00.663.271h1.875v.938a2.812 2.812 0 01-2.813 2.813h-1.874a2.812 2.812 0 01-2.813-2.813v-.938zM15 13.125a9.375 9.375 0 012.813 18.318v-1.84a4.687 4.687 0 002.812-4.29v-3.75a4.693 4.693 0 00-4.688-4.688h-1.874a4.693 4.693 0 00-4.688 4.688v3.75a4.688 4.688 0 002.813 4.29v1.84A9.375 9.375 0 0115 13.126zm34.688.001H32.811A2.812 2.812 0 0030 15.938v11.25a2.812 2.812 0 002.813 2.813h2.424l3.475 3.475a.938.938 0 001.6-.663V30h9.376a2.812 2.812 0 002.812-2.812v-11.25a2.812 2.812 0 00-2.813-2.813zm.937 14.062a.938.938 0 01-.938.938H39.376a.938.938 0 00-.938.937v1.487l-2.15-2.15a.937.937 0 00-.662-.274h-2.813a.938.938 0 01-.937-.938v-11.25a.937.937 0 01.938-.938h16.874a.938.938 0 01.938.938v11.25z" fill="#0D142E"/><path d="M33.75 17.813a.937.937 0 111.875 0 .937.937 0 01-1.875 0zm3.75 0c0-.518.42-.938.938-.938h9.374a.937.937 0 110 1.875h-9.374a.937.937 0 01-.938-.937z" fill="#AC252B"/><path d="M33.75 21.563c0-.518.42-.938.938-.938h13.124a.937.937 0 110 1.875H34.688a.937.937 0 01-.938-.937zm0 3.75c0-.518.42-.938.938-.938h13.124a.937.937 0 110 1.875H34.688a.937.937 0 01-.938-.937z" fill="#0D142E"/><path d="M7.5 40.313a.937.937 0 111.875 0 .937.937 0 01-1.875 0zm3.75 0c0-.518.42-.938.938-.938H26.25a.937.937 0 110 1.876H12.187a.937.937 0 01-.937-.938z" fill="#AC252B"/><path d="M7.5 44.063c0-.518.42-.938.938-.938H26.25a.937.937 0 110 1.876H8.437a.937.937 0 01-.937-.938zm0 3.75c0-.518.42-.938.938-.938H26.25a.937.937 0 110 1.876H8.437a.937.937 0 01-.937-.938z" fill="#0D142E"/><path d="M28.125 35.626h-1.563L23.062 33a.937.937 0 00-1.5.75v1.875h-15a2.812 2.812 0 00-2.812 2.812v11.25A2.812 2.812 0 006.563 52.5h21.562a2.812 2.812 0 002.813-2.813v-11.25a2.812 2.812 0 00-2.813-2.813zm.938 14.062a.938.938 0 01-.938.938H6.562a.938.938 0 01-.937-.938v-11.25a.937.937 0 01.938-.938H22.5a.938.938 0 00.938-.937v-.938l2.25 1.688c.162.122.36.188.562.188h1.875a.938.938 0 01.938.937v11.25z" fill="#0D142E"/></svg>