<svg width="60" height="59" fill="none" xmlns="http://www.w3.org/2000/svg"><path d="M43.125 22.5c5.17 0 9.375-4.205 9.375-9.374 0-5.17-4.206-9.376-9.375-9.376-5.17 0-9.375 4.206-9.375 9.376 0 5.169 4.206 9.374 9.375 9.374zm-5.196-3.978C38.781 16.43 40.837 15 43.125 15s4.344 1.43 5.196 3.522a7.47 7.47 0 01-10.391-.001zm3.321-7.271c0-1.035.84-1.876 1.875-1.876a1.876 1.876 0 010 3.751 1.877 1.877 0 01-1.875-1.875zm1.875-5.626c4.135 0 7.5 3.365 7.5 7.5 0 1.375-.378 2.66-1.027 3.77a7.56 7.56 0 00-3.661-3.19c.576-.66.938-1.511.938-2.454a3.754 3.754 0 00-3.75-3.75 3.754 3.754 0 00-3.75 3.75c0 .943.362 1.795.938 2.454a7.56 7.56 0 00-3.661 3.19 7.438 7.438 0 01-1.027-3.77c0-4.135 3.365-7.5 7.5-7.5zM23.438 32.813h-1.875a.939.939 0 01-1.875 0h-1.875a2.816 2.816 0 002.812 2.813 2.816 2.816 0 002.813-2.813zm-6.563-4.688a.937.937 0 100-1.874.937.937 0 000 1.874zm7.5 0a.937.937 0 100-1.874.937.937 0 000 1.874z" fill="#0D142E"/><path d="M56.25 26.648V0H30v12.81a6.714 6.714 0 00-1.405-.54l-.256-.256a12.124 12.124 0 00-8.632-3.576C12.976 8.438 7.5 13.914 7.5 20.645v7.48a3.754 3.754 0 003.75 3.75h1.035a13.25 13.25 0 004.59 5.7v1.138L7.818 41.91a10.326 10.326 0 00-6.88 9.723v6.492h39.374v-6.492l-.002-.07h14.065a4.693 4.693 0 004.688-4.688V30.939a4.69 4.69 0 00-2.813-4.29zm.938 4.29v2.813H27.992a13.25 13.25 0 00.972-1.875h12.673l2.927-2.927a2.831 2.831 0 011.988-.824h7.822a2.816 2.816 0 012.813 2.813zM30 26.731v-.48A1.876 1.876 0 0130 30h-.412c.268-1.051.412-2.146.412-3.269zM54.375 1.875V26.25h-7.822a4.657 4.657 0 00-3.314 1.373L40.862 30h-7.633a3.712 3.712 0 00.521-1.875v-9.282c0-1.778-.716-3.411-1.875-4.637V1.876h22.5zm-34.668 8.438c2.76 0 5.354 1.074 7.306 3.026l.65.65.278.055a4.909 4.909 0 013.934 4.8v6.053A3.711 3.711 0 0030 24.376V22.5h-6.12a16.9 16.9 0 01-7.523-1.776l-.42-.21-4.687 2.345v1.516c-.686 0-1.32.2-1.875.522v-4.252c0-5.697 4.635-10.332 10.332-10.332zM11.25 30.001a1.877 1.877 0 01-1.875-1.876c0-1.034.84-1.875 1.875-1.875v.481c0 1.123.144 2.218.412 3.27h-.412zm1.875-3.27v-2.714l2.82-1.41a18.789 18.789 0 007.935 1.768h4.245v2.356c0 4.81-3 9.077-7.5 10.714a11.387 11.387 0 01-7.5-10.714zm10.781 13.804l1.257.444-.602 6.63-2.794-2.793 2.14-4.28zm-3.577-1.207l.296.098.296-.098a13.3 13.3 0 001.579-.652v.478l-1.875 3.75-1.875-3.75v-.478c.51.246 1.032.469 1.579.652zm-2.985 1.207l2.14 4.28-2.794 2.795-.603-6.631 1.257-.444zm21.093 15.716h-5.624v-3.91a5.43 5.43 0 011.6-3.865l-1.326-1.326a7.288 7.288 0 00-2.15 5.19v3.91H10.313v-3.91c0-1.96-.763-3.803-2.15-5.19l-1.325 1.326a5.428 5.428 0 011.6 3.864v3.91H2.814v-4.617a8.45 8.45 0 015.63-7.956l5.82-2.054.923 10.143 5.439-5.44 5.44 5.44.923-10.143 5.82 2.054a8.45 8.45 0 015.63 7.956v4.617zm15.938-6.563H40.119a10.327 10.327 0 00-6.687-7.78l-9.057-3.196v-1.137a13.257 13.257 0 002.198-1.95h30.614v11.25a2.816 2.816 0 01-2.812 2.813z" fill="#0D142E"/><path d="M49.688 30.938a.937.937 0 111.874 0 .937.937 0 01-1.874 0zm-3.75 0a.937.937 0 111.874 0 .937.937 0 01-1.874 0zm7.5 0a.937.937 0 111.874 0 .937.937 0 01-1.874 0zm0 11.25h-5.626c-1.034 0-1.874.84-1.874 1.875v1.875c0 1.034.84 1.875 1.874 1.875h5.626c1.034 0 1.874-.84 1.874-1.875v-1.875c0-1.034-.84-1.875-1.874-1.875zm-5.626 3.75v-1.875h5.626v1.875h-5.626z" fill="#AC252B"/></svg>