<svg width="60" height="60" fill="none" xmlns="http://www.w3.org/2000/svg"><g clip-path="url(#clip0)"><path d="M48.5 10a1.5 1.5 0 100 3 1.5 1.5 0 000-3z" fill="#AC252B"/><path d="M52.707.293a1 1 0 00-1.414 0l-8 8A1.001 1.001 0 0043 9v7a1 1 0 001 1h7a1 1 0 00.707-.293l8-8a1 1 0 000-1.414l-7-7zM50.587 15H45V9.414l7-7L57.586 8l-7 7zM1 34h3v.129a3.872 3.872 0 003 3.763V47a1 1 0 001 1h6a1 1 0 001-1v-4h1.008A3 3 0 0019 40.01v-2.117a3.867 3.867 0 002.758-2.46l16.836 7.482A1 1 0 0040 42V18a1 1 0 00-1.406-.913L21.758 24.57a3.864 3.864 0 00-3.63-2.57H7.872A3.876 3.876 0 004 25.873v.129H1a1 1 0 00-1 1v6a1 1 0 001 1zm33-12.684l4-1.776v20.92l-4-1.776V21.316zm-12 5.335l10-4.446V37.8l-10-4.45v-6.7zM13 42v4H9v-8h4v4zm4-1.992a.993.993 0 01-.992.992H15v-3h2v2.008zM6 33v-7.128a1.874 1.874 0 011.872-1.871h10.256c1.034 0 1.87.838 1.872 1.871v8.257A1.874 1.874 0 0118.128 36H7.872A1.874 1.874 0 016 34.13V33zm-4-5h2v4H2v-4zm47.808 11.323a1 1 0 00-1.414 0l-7.072 7.072a1 1 0 000 1.414l9.9 9.9a1 1 0 001.414 0l7.071-7.071a1 1 0 000-1.414l-9.899-9.901zm6.574 9.4l-5.643-.433-.434-5.643 6.077 6.076zm-4.453 6.862L43.443 47.1l4.827-4.826.541 7.024a1 1 0 00.92.92l7.025.54-4.827 4.827zM43 35h5v1a1 1 0 001 1h8a1 1 0 001-1v-4.98a4.012 4.012 0 00-2.68-3.773 4 4 0 10-4.639 0 4.014 4.014 0 00-1.676 1.141 3.996 3.996 0 00-1.25-.965 3 3 0 10-3.509 0A3.992 3.992 0 0042 31v3a1 1 0 001 1zm10-13a2 2 0 110 4 2 2 0 010-4zm-3 12v-2.98A2.022 2.022 0 0152.02 29h1.961A2.022 2.022 0 0156 31.02V35h-6v-1zm-4-10a1 1 0 110 2 1 1 0 010-2zm-2 7a2 2 0 114 0v2h-4v-2z" fill="#0D142E"/><path d="M28 41h-4a1 1 0 00-.707.294l-6 6a1 1 0 000 1.413l11 11a1 1 0 001.414 0l8-8a1 1 0 000-1.413l-9-9A1 1 0 0028 41zm1 16.587L19.414 48l5-5h3.172l8 8L29 57.586z" fill="#0D142E"/><path d="M24 50a1 1 0 010-1.414l2.586-2.585A1 1 0 1128 47.413L25.414 50A1 1 0 0124 50zm3 3a1 1 0 010-1.414L29.586 49A1 1 0 0131 50.414L28.414 53A1 1 0 0127 53z" fill="#AC252B"/><path d="M33.457 13.55a.25.25 0 01-.043.431l-9.589 4.321a.25.25 0 01-.351-.252l1.052-10.465a.25.25 0 01.394-.178l8.537 6.143z" stroke="#0D142E" stroke-width="1.5"/><path d="M35.074 15.671c1.404-.632 1.596-2.547.347-3.446l-9.867-7.101c-1.25-.9-3.005-.109-3.159 1.423L21.18 18.642c-.154 1.532 1.408 2.657 2.811 2.024l11.083-4.995z" stroke="#AC252B"/></g><defs><clipPath id="clip0"><path fill="#fff" d="M0 0h60v60H0z"/></clipPath></defs></svg>