<svg width="51" height="77" fill="none" xmlns="http://www.w3.org/2000/svg"><path d="M1.65 27.2c-.148.546-.346 1.14-.445 1.685-2.33 9.07-1.19 18.287 2.626 26.217 4.51 9.267 12.687 16.7 23.293 19.922.892.248 1.784.496 2.626.694 7.483 1.734 15.016 1.09 21.855-1.437C62.41 70.266 71.33 61.395 74.947 49.5a39.634 39.634 0 001.685-10.9 38.451 38.451 0 00-4.857-18.931 38.383 38.383 0 00-22.3-17.99A38.523 38.523 0 0032.425.44a38.37 38.37 0 00-17.494 7.483C8.837 12.68 4.08 19.272 1.651 27.201z" fill="url(#paint0_radial)"/><path opacity=".5" d="M11.215 22.195C6.26 38.45 15.428 55.597 31.633 60.553c16.255 4.956 33.402-4.212 38.358-20.418C74.947 23.88 65.78 6.733 49.573 1.777 33.368-3.179 16.171 5.94 11.215 22.195z" fill="url(#paint1_radial)"/><path d="M16.32 31.66c-.1.347-.198.694-.298.991a23.011 23.011 0 001.586 15.71c2.676 5.55 7.632 10.011 13.976 11.994.545.148 1.04.297 1.585.446 4.51 1.04 9.02.644 13.133-.843 6.492-2.428 11.845-7.731 14.025-14.867.645-2.181.992-4.361.992-6.542A22.539 22.539 0 0058.395 27.2c-2.776-5.005-7.484-8.97-13.381-10.803a23.182 23.182 0 00-10.21-.744 22.908 22.908 0 00-10.505 4.51 22.586 22.586 0 00-7.98 11.497z" fill="url(#paint2_radial)"/><path d="M24.2 45.735l5.203-16.206-3.766-1.238 1.239-3.816 8.276 2.676-6.443 20.021-4.51-1.437zm20.467-2.428l1.438-4.41 4.212 1.337-1.437 4.41 2.775.893-1.19 3.667-2.775-.892-1.437 4.51-4.212-1.338 1.437-4.51-9.515-3.073 1.04-3.22L45.46 30.47l4.361 1.388-9.911 9.862 4.757 1.586z" fill="#000"/><defs><radialGradient id="paint0_radial" cx="0" cy="0" r="1" gradientUnits="userSpaceOnUse" gradientTransform="rotate(-163.04 23.584 -5.922) scale(93.7264)"><stop offset=".07" stop-color="#EC3424"/><stop offset=".36" stop-color="#AF2017"/><stop offset=".705" stop-color="#690A08"/><stop offset=".748" stop-color="#740D0A"/><stop offset=".822" stop-color="#911711"/><stop offset=".919" stop-color="#C0261B"/><stop offset="1" stop-color="#EC3424"/></radialGradient><radialGradient id="paint1_radial" cx="0" cy="0" r="1" gradientUnits="userSpaceOnUse" gradientTransform="rotate(-163.04 20.811 -4.808) scale(57.4667)"><stop offset=".144" stop-color="#fff"/><stop offset="1" stop-color="#fff" stop-opacity="0"/></radialGradient><radialGradient id="paint2_radial" cx="0" cy="0" r="1" gradientUnits="userSpaceOnUse" gradientTransform="rotate(17.843 -5.693 129.44) scale(58.0385)"><stop offset=".07" stop-color="#fff"/><stop offset=".653" stop-color="#CCC"/><stop offset=".754" stop-color="#D6D6D6"/><stop offset=".925" stop-color="#F1F1F1"/><stop offset="1" stop-color="#fff"/></radialGradient></defs></svg>