<svg width="366" height="215" fill="none" xmlns="http://www.w3.org/2000/svg"><path d="M141 152.5V208m67.008-118a64.58 64.58 0 01-4.986 24.874 64.961 64.961 0 01-14.2 21.088 65.524 65.524 0 01-21.251 14.09A65.935 65.935 0 01142.504 155a65.935 65.935 0 01-25.067-4.948 65.52 65.52 0 01-21.251-14.09 64.964 64.964 0 01-14.2-21.088A64.563 64.563 0 0177 90" stroke="#AC252B" stroke-width="5"/><circle r="7" transform="matrix(1 0 0 -1 141 208)" fill="#AC252B"/><path d="M0 90h79.5m126 0h162" stroke="#AC252B" stroke-width="5"/><g filter="url(#filter0_dd)"><circle cx="142.819" cy="90" r="50" fill="#EFF3FB"/></g><circle cx="142.819" cy="90" r="23.077" fill="#AC252B"/><defs><filter id="filter0_dd" x="52.819" y="0" width="180" height="180" filterUnits="userSpaceOnUse" color-interpolation-filters="sRGB"><feFlood flood-opacity="0" result="BackgroundImageFix"/><feColorMatrix in="SourceAlpha" values="0 0 0 0 0 0 0 0 0 0 0 0 0 0 0 0 0 0 127 0"/><feOffset dx="10" dy="10"/><feGaussianBlur stdDeviation="15"/><feColorMatrix values="0 0 0 0 0.682353 0 0 0 0 0.719059 0 0 0 0 0.752941 0 0 0 0.4 0"/><feBlend in2="BackgroundImageFix" result="effect1_dropShadow"/><feColorMatrix in="SourceAlpha" values="0 0 0 0 0 0 0 0 0 0 0 0 0 0 0 0 0 0 127 0"/><feOffset dx="-10" dy="-10"/><feGaussianBlur stdDeviation="15"/><feColorMatrix values="0 0 0 0 1 0 0 0 0 1 0 0 0 0 1 0 0 0 1 0"/><feBlend in2="effect1_dropShadow" result="effect2_dropShadow"/><feBlend in="SourceGraphic" in2="effect2_dropShadow" result="shape"/></filter></defs></svg>