<svg width="38" height="30" fill="none" xmlns="http://www.w3.org/2000/svg"><path d="M3.679 4.333a.534.534 0 00.532-.531.534.534 0 00-.532-.532.534.534 0 00-.532.532.534.534 0 00.532.531zm1.702 0a.534.534 0 00.532-.531.534.534 0 00-.532-.532.534.534 0 00-.532.532.534.534 0 00.532.531zm1.703 0a.534.534 0 00.532-.531.534.534 0 00-.532-.532.533.533 0 000 1.063zm2.269 0h21.563a.532.532 0 000-1.063H9.353a.532.532 0 000 1.063zm23.833 0h1.135a.532.532 0 000-1.063h-1.135a.532.532 0 000 1.063zM16.73 8.944H5.381a1.1 1.1 0 00-1.1 1.1v2.27a1.1 1.1 0 001.1 1.099h11.35a1.1 1.1 0 001.099-1.1v-2.27a1.1 1.1 0 00-1.1-1.099zm.036 3.37c0 .02-.016.035-.036.035H5.381a.035.035 0 01-.035-.036v-2.27c0-.019.016-.035.035-.035h11.35c.019 0 .035.016.035.036v2.27zm16.42-1.667h-3.528a1.67 1.67 0 00-1.579-1.135 1.67 1.67 0 00-1.58 1.135h-1.257a.532.532 0 000 1.064H26.5a1.67 1.67 0 001.579 1.135 1.67 1.67 0 001.58-1.135h3.527a.532.532 0 000-1.064zm-5.107 1.135a.604.604 0 11.001-1.207.604.604 0 01-.001 1.207zM21.27 8.944a2.237 2.237 0 00-2.235 2.235 2.237 2.237 0 002.235 2.234 2.237 2.237 0 002.234-2.234 2.237 2.237 0 00-2.234-2.235zm0 3.405a1.17 1.17 0 11.002-2.342 1.17 1.17 0 01-.002 2.342zm-4.54 2.838H5.381a1.1 1.1 0 00-1.1 1.099v2.27a1.1 1.1 0 001.1 1.1h11.35a1.1 1.1 0 001.099-1.1v-2.27a1.1 1.1 0 00-1.1-1.1zm.036 3.369c0 .02-.016.035-.036.035H5.381a.036.036 0 01-.035-.035v-2.27c0-.02.016-.036.035-.036h11.35c.019 0 .035.016.035.036v2.27zm16.42-1.668h-.69a1.67 1.67 0 00-1.58-1.135 1.67 1.67 0 00-1.58 1.135h-4.094a.532.532 0 000 1.064h4.095a1.67 1.67 0 001.579 1.135 1.67 1.67 0 001.58-1.135h.69a.532.532 0 100-1.064zm-2.27 1.135a.604.604 0 11.001-1.207.604.604 0 01-.001 1.207zm-9.646-2.836a2.237 2.237 0 00-2.235 2.234 2.237 2.237 0 002.235 2.234 2.237 2.237 0 002.234-2.234 2.237 2.237 0 00-2.234-2.234zm0 3.404a1.17 1.17 0 11.002-2.342 1.17 1.17 0 01-.002 2.342zm-4.54 2.837H5.381a1.1 1.1 0 00-1.1 1.1v2.269a1.1 1.1 0 001.1 1.1h11.35a1.1 1.1 0 001.099-1.1v-2.27a1.1 1.1 0 00-1.1-1.1zm.036 3.369c0 .02-.016.035-.036.035H5.381a.035.035 0 01-.035-.035v-2.27c0-.02.016-.035.035-.035h11.35c.019 0 .035.016.035.035v2.27zm16.42-1.667h-2.96a1.67 1.67 0 00-1.58-1.135 1.67 1.67 0 00-1.58 1.135h-1.824a.532.532 0 000 1.064h1.825a1.67 1.67 0 001.58 1.135 1.67 1.67 0 001.579-1.135h2.96a.532.532 0 000-1.064zm-4.54 1.135a.604.604 0 11.002-1.207.604.604 0 01-.002 1.207zm-7.376-2.837a2.237 2.237 0 00-2.235 2.234 2.237 2.237 0 002.235 2.234 2.237 2.237 0 002.234-2.234 2.237 2.237 0 00-2.234-2.234zm0 3.404a1.17 1.17 0 010-2.34c.645 0 1.17.525 1.17 1.17 0 .645-.525 1.17-1.17 1.17z" fill="#0D142E" stroke="#0D142E" stroke-width=".1"/><path d="M34.321 1H3.679A2.805 2.805 0 00.877 3.802V26.5a2.805 2.805 0 002.803 2.8h30.642a2.805 2.805 0 002.802-2.801V3.802A2.805 2.805 0 0034.32 1zM3.679 2.064h30.642c.958 0 1.738.78 1.738 1.738V5.54H1.94V3.802c0-.958.78-1.738 1.738-1.738zm30.642 26.173H3.679A1.74 1.74 0 011.941 26.5V6.604H36.06V26.5a1.74 1.74 0 01-1.738 1.737z" fill="#0D142E" stroke="#0D142E" stroke-width=".1"/></svg>