<svg width="40" height="24" fill="none" xmlns="http://www.w3.org/2000/svg"><path d="M38.99 1.623A1.702 1.702 0 0037.297.095H2.7a1.702 1.702 0 00-1.693 1.528C1.002 1.682 1 22.205 1 22.205a1.702 1.702 0 001.7 1.7h34.599a1.702 1.702 0 001.7-1.7s-.003-20.523-.01-20.582zm-1.03 20.582a.661.661 0 01-.661.661h-34.6a.661.661 0 01-.66-.66V5.127h35.92v17.077zm0-18.116H2.04V1.795a.673.673 0 01.666-.66h34.586a.673.673 0 01.667.66V4.09z" fill="#0D142E" stroke="#0D142E" stroke-width=".1"/><path d="M32.524 12.774a2.858 2.858 0 100-5.716 2.858 2.858 0 000 5.716zm0-4.676a1.818 1.818 0 110 3.637 1.818 1.818 0 010-3.637zM7.476 19.768a2.857 2.857 0 100-5.715 2.857 2.857 0 000 5.715zm0-4.676a1.818 1.818 0 110 3.636 1.818 1.818 0 010-3.636zm8.349 4.676a2.857 2.857 0 100-5.715 2.857 2.857 0 000 5.715zm0-4.676a1.818 1.818 0 110 3.636 1.818 1.818 0 010-3.636zm8.35 4.676a2.857 2.857 0 100-5.715 2.857 2.857 0 000 5.715zm0-4.676a1.818 1.818 0 110 3.636 1.818 1.818 0 010-3.636zm8.349 4.676a2.857 2.857 0 100-5.715 2.857 2.857 0 000 5.715zm0-4.676a1.818 1.818 0 110 3.636 1.818 1.818 0 010-3.636zM5.697 10.719l-.114 1.27a.52.52 0 00.72.524l1.173-.501 1.173.5a.524.524 0 00.723-.524l-.114-1.27.839-.96a.52.52 0 00-.276-.848l-1.243-.284-.653-1.094a.52.52 0 00-.89 0L6.38 8.626l-1.243.284a.52.52 0 00-.279.849l.838.96zM6.825 9.59a.519.519 0 00.33-.24l.322-.539.321.538a.52.52 0 00.33.24l.612.14-.412.472a.52.52 0 00-.126.389l.056.625-.578-.247a.522.522 0 00-.409 0l-.577.247.056-.625a.52.52 0 00-.126-.389l-.412-.472.613-.14zm7.221 1.13l-.114 1.269a.52.52 0 00.721.524l1.172-.5 1.173.5a.526.526 0 00.721-.524l-.114-1.27.84-.96a.52.52 0 00-.277-.848l-1.242-.284-.653-1.095a.519.519 0 00-.891 0l-.653 1.095-1.243.284a.52.52 0 00-.276.848l.836.96zm1.128-1.129a.52.52 0 00.33-.24l.322-.539.322.54a.52.52 0 00.33.239l.612.14-.413.473a.52.52 0 00-.126.388l.056.625-.577-.247a.522.522 0 00-.408 0l-.577.247.056-.625a.52.52 0 00-.126-.389l-.413-.472.612-.14zm7.221 1.129l-.114 1.269a.52.52 0 00.721.524l1.173-.5 1.172.5a.526.526 0 00.721-.524l-.114-1.27.84-.96a.52.52 0 00-.277-.848l-1.242-.284-.653-1.095a.52.52 0 00-.891 0l-.653 1.095-1.243.284a.52.52 0 00-.276.848l.836.96zm1.128-1.129a.52.52 0 00.33-.24l.322-.539.322.54a.519.519 0 00.33.239l.612.14-.413.473a.519.519 0 00-.126.388l.056.625-.577-.247a.522.522 0 00-.408 0l-.577.247.056-.625a.52.52 0 00-.126-.389l-.415-.473.614-.139z" fill="#0D142E" stroke="#0D142E" stroke-width=".1"/></svg>