<svg width="40" height="40" fill="none" xmlns="http://www.w3.org/2000/svg"><g clip-path="url(#clip0)" fill="#0D142E"><path d="M25.363 10.987a.586.586 0 000-1.171H14.637a.586.586 0 100 1.171h10.726zm-14.218 1.972c0 .323.262.585.585.585h16.54a.586.586 0 000-1.171H11.73a.586.586 0 00-.585.586zm0 18.101c0 .323.262.585.585.585h16.54a.586.586 0 000-1.171H11.73a.586.586 0 00-.585.585zm17.125 1.97H11.73a.586.586 0 000 1.172h16.54a.586.586 0 000-1.172z"/><path d="M39.059 24.907l.873-2.282a1.035 1.035 0 00-.967-1.405h-3.312v-1.201a.977.977 0 00-.976-.976h-.253v-3.338a.586.586 0 10-1.17 0v3.338h-7.01A7.036 7.036 0 0020 15.239a7.036 7.036 0 00-6.244 3.804H6.747V8.483h4.01a2.056 2.056 0 002.054-2.054V2.764H32.37c.487 0 .883.396.883.883v9.312a.586.586 0 001.171 0V3.647a2.057 2.057 0 00-2.054-2.054H12.598c-.565 0-.797.18-1.25.608l-4.62 4.358c-.51.48-1.146.867-1.152 1.621-.008 1.038 0 2.077 0 3.115v7.748h-.253a.977.977 0 00-.976.976v1.2H1.035a1.035 1.035 0 00-.967 1.406l.873 2.282-.873 2.283a1.035 1.035 0 00.967 1.405h4.54v7.758c0 1.133.922 2.054 2.055 2.054h24.74a2.057 2.057 0 002.054-2.054v-7.758h4.54a1.035 1.035 0 00.968-1.405l-.873-2.283zM8.209 6.772l3.43-3.236v2.893a.884.884 0 01-.882.883H7.636l.572-.54zM20 16.41a5.864 5.864 0 015.858 5.858A5.864 5.864 0 0120 28.125a5.864 5.864 0 01-5.858-5.857A5.864 5.864 0 0120 16.41zM5.576 26.884v.54H1.233l.82-2.147a1.035 1.035 0 000-.74l-.82-2.146h3.114v2.126c0 .538.438.976.976.976h.253v1.391zm27.677 9.469a.884.884 0 01-.883.883H7.63a.884.884 0 01-.883-.883v-10.86h1.93a.586.586 0 000-1.171H5.52v-4.108h7.759a7.005 7.005 0 00-.307 2.054c0 .714.108 1.404.307 2.054h-1.893a.586.586 0 100 1.171h2.371A7.036 7.036 0 0020 29.297a7.036 7.036 0 006.244-3.804h7.01v10.86h-.001zm-6.53-12.031a7.008 7.008 0 000-4.108h7.759v4.108h-7.76zm11.224.955l.82 2.146h-4.343v-1.93h.253a.977.977 0 00.976-.976V22.39h3.114l-.82 2.146a1.034 1.034 0 000 .74z"/><path d="M17.214 23.13l-.237 1.385c-.08.464.107.923.487 1.2.38.276.875.311 1.291.093L20 25.154l1.245.654a1.22 1.22 0 001.291-.093c.38-.277.567-.736.488-1.2l-.238-1.386 1.007-.981c.337-.328.455-.81.31-1.257a1.218 1.218 0 00-.99-.834l-1.391-.202-.623-1.261A1.219 1.219 0 0020 17.91c-.47 0-.891.262-1.1.684l-.622 1.26-1.391.203a1.218 1.218 0 00-.99.834 1.22 1.22 0 00.31 1.257l1.007.982zm-.203-1.877c.01-.032.032-.035.044-.037l1.535-.223a.894.894 0 00.674-.49l.687-1.391c.005-.01.015-.03.049-.03s.044.02.05.03l.686 1.39c.13.265.382.448.673.49l1.536.224c.012.001.033.005.044.037.01.032-.005.048-.014.056l-1.11 1.083a.895.895 0 00-.258.792l.262 1.53c.002.011.006.033-.022.053-.027.02-.047.01-.057.004l-1.373-.722a.896.896 0 00-.834 0l-1.373.722c-.01.006-.03.016-.057-.004-.028-.02-.024-.042-.022-.054l.262-1.529a.894.894 0 00-.257-.792l-1.111-1.083c-.009-.008-.025-.024-.014-.056z"/></g><defs><clipPath id="clip0"><path fill="#fff" d="M0 0h40v40H0z"/></clipPath></defs></svg>