<svg width="38" height="38" fill="none" xmlns="http://www.w3.org/2000/svg"><path d="M37.406 20.417a.594.594 0 00-.39-.558L28.5 16.762V6.845h-.023a.588.588 0 00-.368-.717L19.203 2.89a.585.585 0 00-.406 0L9.891 6.128a.595.595 0 00-.375.43H9.5v10.204L.985 19.86a.595.595 0 00-.376.429H.594v10.526h.015a.593.593 0 00.376.687l8.906 3.238c.13.048.275.048.405 0L19 31.574l8.704 3.165c.13.048.274.048.405 0l8.906-3.238a.593.593 0 00.369-.4h.022V20.417zM9.5 33.333l-7.719-2.806v-9.262L9.5 24.07v9.262zm.594-10.31l-7.169-2.606 7.122-2.59 7.17 2.607-7.123 2.59zm8.312 7.504l-7.718 2.806v-9.261l7.718-2.807v9.262zm0-10.958l-7.718-2.807V7.534l7.718 2.807v9.228zM11.831 6.686L19 4.08l7.169 2.606L19 9.293l-7.169-2.607zm15.482.848v9.228l-7.72 2.807v-9.228l7.72-2.807zm0 25.8l-7.72-2.807v-9.262l7.72 2.806v9.262zm.593-10.31l-7.122-2.59 7.169-2.607 7.122 2.59-7.169 2.606zm8.313 7.503L28.5 33.333v-9.261l7.719-2.807v9.262z" fill="#0D142E"/></svg>