<svg width="37" height="36" fill="none" xmlns="http://www.w3.org/2000/svg"><g clip-path="url(#clip0)" fill="#0D142E"><path d="M32.223 24.214H31.17v7.047H6.14v-8.738h25.03v1.691h1.054v-2.745H5.087v10.847h27.136v-8.102z"/><path d="M17.866 24.145h1.054v5.73h-1.054v-5.73zm5.91 2.053v-1.984h-3.68v2.29h1.055v-1.236h1.57v.48l-2.625 2.518V29.8h3.68v-2.008h-1.054v.954H21.15v-.03l2.625-2.518zM9.478 29.876v-2.07l2.625.025v-3.617h-3.68v5.662h1.055zm0-4.608h1.57v1.499l-1.57-.016v-1.483zm7.316-1.051h-3.68v5.662h1.055v-1.987h.747l.818 1.253v.73h1.055v-1.044l-.655-1.003.66.006v-3.617zm-2.625 1.054h1.57v1.498l-1.57-.015v-1.483zm14.143-.003v-1.054h-3.39V29.8h3.39v-1.054h-2.336V27.72h2.336v-1.054h-2.336v-1.398h2.336zm-13.537-7.917c-.195-.216-.524-.269-.758-.097a.494.494 0 00-.097.723 6.272 6.272 0 004.712 2.147 6.252 6.252 0 006.245-6.245 6.252 6.252 0 00-6.245-6.246 6.253 6.253 0 00-5.842 8.461.495.495 0 00.684.256c.262-.126.37-.44.271-.714a5.197 5.197 0 014.887-6.948 5.197 5.197 0 015.19 5.191 5.196 5.196 0 01-5.19 5.19 5.213 5.213 0 01-3.857-1.718z"/><path d="M7.071 20.145a.007.007 0 01.003-.01l.92-.5a11.988 11.988 0 01-1.151-3.044h1.94c.262.95.659 1.855 1.185 2.695l.893-.56c-1.898-3.031-1.8-6.864 0-9.696a9.178 9.178 0 015.707-4.075c2.443-.564 4.982-.078 6.912 1.154 4.33 2.706 5.575 8.38 2.922 12.617l.894.56a10.14 10.14 0 001.184-2.695h1.94a11.99 11.99 0 01-1.15 3.044l.927.503a13.09 13.09 0 001.582-6.26c0-7.26-5.886-13.147-13.147-13.147S5.484 6.617 5.484 13.878c0 2.27.575 4.404 1.587 6.267zm1.483-4.609H6.65a12.259 12.259 0 010-3.315h1.904a10.329 10.329 0 000 3.315zm22.06 0H28.71c.172-1.06.184-2.186 0-3.315h1.903a12.258 12.258 0 010 3.315zm-.193-4.37H28.48a10.11 10.11 0 00-.968-2.332l1.373-1.372a11.909 11.909 0 011.536 3.704zm-4.49-6.93a12.084 12.084 0 012.344 2.344L26.93 7.926a10.331 10.331 0 00-2.344-2.345l1.346-1.346zm-.882-.61l-1.372 1.372a10.111 10.111 0 00-2.333-.967V2.089c1.317.301 2.559.816 3.705 1.537zm-4.76-1.729v1.904a10.331 10.331 0 00-3.315 0V1.897c1.093-.15 2.222-.15 3.315 0zm-4.37.192v1.942c-.815.224-1.597.548-2.332.967l-1.373-1.372a11.913 11.913 0 013.705-1.537zm-4.587 2.146l1.346 1.346c-.9.648-1.696 1.444-2.344 2.344L8.988 6.58a12.085 12.085 0 012.344-2.344zM8.38 7.461l1.37 1.373c-.42.735-.743 1.517-.967 2.332H6.842A11.91 11.91 0 018.38 7.461z"/><path d="M16.423 15.686c0 1.075.73 1.93 1.681 2.164v.405h1.055v-.405a2.213 2.213 0 001.681-2.145v-.271c0-.981-.734-1.793-1.681-1.918v-2.194c.369.19.627.57.627 1.045h1.054c0-1.075-.73-1.93-1.681-2.164v-.405h-1.055v.405a2.212 2.212 0 00-1.681 2.145v.271c0 .981.734 1.793 1.681 1.918v2.194a1.155 1.155 0 01-.627-1.045h-1.054zm3.363-.252v.271c0 .447-.255.834-.627 1.026v-2.14a.881.881 0 01.627.843zm-2.309-2.815v-.271c0-.447.255-.834.627-1.026v2.14a.882.882 0 01-.627-.843zm19.028 14.616a.4.4 0 00-.382-.519h-1.918a.4.4 0 00-.4.4v.255c0 .22.18.4.4.4h1.029l-1.005 3.222 1.005 3.222h-9.66a.159.159 0 01-.159-.16.159.159 0 00-.159-.158h-.495a.4.4 0 00-.4.4v.572a.4.4 0 00.4.4h11.362a.4.4 0 00.382-.519l-1.134-3.638a.4.4 0 010-.238l1.134-3.639zm-24.587 6.821a.159.159 0 01-.159.159H2.1l.968-3.103a.4.4 0 000-.238L2.1 27.77h1.005a.4.4 0 00.4-.4v-.255a.4.4 0 00-.4-.4H1.21a.4.4 0 00-.382.52l1.135 3.638a.4.4 0 010 .238L.828 34.75a.4.4 0 00.382.52h11.363a.4.4 0 00.4-.4v-.573a.4.4 0 00-.4-.4h-.496a.159.159 0 00-.159.159zm13.873-20.183a.527.527 0 111.055 0 .527.527 0 01-1.055 0zm-15.325 0a.527.527 0 111.054 0 .527.527 0 01-1.054 0z"/></g><defs><clipPath id="clip0"><path fill="#fff" transform="translate(.667)" d="M0 0h36v36H0z"/></clipPath></defs></svg>