<svg width="42" height="42" fill="none" xmlns="http://www.w3.org/2000/svg"><path d="M28.169 8.882a.646.646 0 10-.617 1.136 13.41 13.41 0 017.017 11.79c0 5.079-2.816 9.663-7.348 11.964a.646.646 0 00.585 1.152 14.645 14.645 0 008.055-13.116A14.701 14.701 0 0028.17 8.882zm-12.292-.117a.646.646 0 00-.857-.317 14.751 14.751 0 00-8.559 13.36 14.702 14.702 0 007.693 12.925.647.647 0 00.617-1.136 13.409 13.409 0 01-7.017-11.79A13.455 13.455 0 0115.56 9.623a.646.646 0 00.316-.857z" fill="#0D142E"/><path d="M15.748 13.701c-.957-.956-1.241-2.647-1.311-3.896a.646.646 0 00-.985-.514 14.684 14.684 0 00-6.407 8.419.647.647 0 00.486.812c1.9.402 2.175.856 2.2.906.502 1.002 1.223 1.313 1.738 1.396.115.019.231.028.349.028.81 0 1.687-.437 2.507-1.256.172-.172.355-.344.539-.517.917-.864 1.957-1.843 1.976-3.117.012-.774-.346-1.514-1.092-2.26zm-1.77 4.436c-.194.183-.386.364-.567.545-.628.628-1.26.945-1.735.867-.317-.052-.582-.287-.788-.699-.308-.616-1.076-1.076-2.397-1.428a13.385 13.385 0 014.764-6.442c.23 1.595.759 2.815 1.579 3.634.486.487.72.921.714 1.329-.011.726-.803 1.473-1.57 2.194zm8.345 6.539c-.332-1.329-1.105-2.358-2.235-2.978-1.245-.684-2.85-.805-4.29-.325-2.28.76-3.428 1.72-2.543 4.376.603 1.808 1.766 2.013 2.7 2.177.414.073.805.142 1.182.33.126.063.223.312.258.667a.646.646 0 101.286-.13c-.086-.846-.41-1.415-.966-1.693-.545-.272-1.071-.365-1.535-.447-.864-.152-1.34-.236-1.699-1.314-.546-1.639-.272-2.074 1.727-2.74 1.105-.37 2.323-.283 3.258.231.818.45 1.357 1.175 1.603 2.159.33 1.323.136 2.26-.124 3.075a.646.646 0 101.231.392c.303-.948.557-2.14.147-3.78zm12.491-8.318a14.817 14.817 0 00-6.046-7.131.645.645 0 00-.786.09c-3.546 3.468-3.86 4.653-3.698 5.355.089.388.36.676.765.81 1.275.426 2.297.853 2.894 1.12-.31.498-.926 1.18-1.978 1.18-3.594 0-5.627.062-5.627 1.357 0 .605.613 1.17 2.367 2.632.682.568 1.699 1.416 1.906 1.742.067.953.955 3.97 1.609 4.622.44.441 1.2.827 2.009.827.212 0 .427-.027.64-.087.675-.186 1.568-.765 1.992-2.463.286-1.144.354-2.187.41-3.026.086-1.332.151-1.983.676-2.246.504-.252 1.348-.969 2.855-4.274a.649.649 0 00.012-.508zm-3.445 3.627c-1.211.606-1.293 1.862-1.389 3.318-.053.827-.114 1.765-.372 2.796-.151.604-.462 1.36-1.083 1.531-.53.148-1.133-.15-1.39-.406-.366-.407-1.236-3.218-1.236-3.815 0-.604-.613-1.17-2.366-2.63-.548-.457-1.312-1.093-1.699-1.495.87-.21 3.018-.21 4.13-.21 2.571 0 3.425-2.47 3.46-2.576a.646.646 0 00-.324-.782c-.058-.03-1.439-.716-3.538-1.424.08-.293.524-1.261 2.96-3.691a13.529 13.529 0 014.987 5.983c-1.342 2.887-2.016 3.34-2.14 3.401zM14.816 5.651a17.55 17.55 0 00-1.538.67l.572 1.159c.462-.229.941-.437 1.425-.62l-.46-1.209zM6.09 15.742l-1.192-.499a17.328 17.328 0 00-.975 3.139l1.265.264c.208-.992.511-1.969.902-2.904zm-.9 9.561l-1.265.265c.225 1.073.554 2.129.977 3.14l1.192-.5a16.068 16.068 0 01-.904-2.905zm3.428-13.708l-.99-.83a17.56 17.56 0 00-1.866 2.704l1.128.63a16.25 16.25 0 011.728-2.505zM4.846 21.97c0-.506.024-1.016.07-1.517l-1.286-.12a17.711 17.711 0 000 3.284l1.287-.12a16.475 16.475 0 01-.07-1.528zm.922 8.512a17.536 17.536 0 001.868 2.702l.99-.83a16.247 16.247 0 01-1.73-2.504l-1.128.632zm4.109 3.203l-.89.936a17.563 17.563 0 002.584 2.03l.7-1.087a16.255 16.255 0 01-2.394-1.88zM12.26 8.381l-.7-1.086a17.572 17.572 0 00-2.582 2.031l.891.937c.735-.7 1.54-1.333 2.392-1.882zm1.611 28.088l-.571 1.159c.502.247 1.02.472 1.54.668l.456-1.21c-.481-.18-.96-.389-1.425-.617zm14.337-.039c-.461.23-.94.441-1.421.626l.463 1.207c.52-.2 1.037-.428 1.535-.677l-.577-1.156zm1.525-.868l.7 1.086c.884-.57 1.72-1.222 2.489-1.94l-.883-.944a16.29 16.29 0 01-2.306 1.798zm6.982-21.178a17.497 17.497 0 00-1.626-2.706l-1.043.763a16.21 16.21 0 011.506 2.506l1.163-.563zm.235 5.014l1.277-.204a17.338 17.338 0 00-.78-3.06l-1.219.433c.326.916.569 1.869.722 2.831zM31.56 8.081l-.783 1.028c.775.59 1.5 1.254 2.157 1.974l.955-.872a17.606 17.606 0 00-2.329-2.13zm6.864 12.999l-1.29.064a16.611 16.611 0 01-.115 2.922l1.282.166a17.634 17.634 0 00.123-3.152zm-5.171 11.416l.98.843a17.526 17.526 0 001.834-2.569l-1.115-.653c-.492.84-1.063 1.64-1.699 2.38zm2.502-3.94l1.18.527c.429-.96.773-1.966 1.02-2.987L36.7 25.79c-.23.945-.548 1.875-.945 2.765zm-7.251-22.34l-.556 1.166c.464.221.924.469 1.367.735l.667-1.107a17.496 17.496 0 00-1.478-.794z" fill="#0D142E"/><path d="M21 27.785a7.116 7.116 0 00-7.108 7.107A7.116 7.116 0 0021 42a7.116 7.116 0 007.108-7.108A7.116 7.116 0 0021 27.785zm0 12.923a5.822 5.822 0 01-5.815-5.816A5.822 5.822 0 0121 29.077a5.822 5.822 0 015.815 5.815A5.822 5.822 0 0121 40.708z" fill="#0D142E"/><path d="M22.54 37.212c-.223.126-.669.32-1.183.32-.523 0-1.007-.184-1.366-.562-.261-.291-.456-.708-.533-1.27h2.743v-.475h-2.81v-.175c0-.135.01-.28.019-.407h2.79v-.484h-2.703c.097-.514.291-.95.582-1.231.33-.35.756-.533 1.279-.533.436 0 .843.126 1.085.271l.195-.64a2.755 2.755 0 00-1.29-.31c-.794 0-1.424.291-1.918.805-.388.397-.68.96-.795 1.638h-.64v.484h.572a5.87 5.87 0 00-.02.437v.145h-.552v.475h.601c.087.698.33 1.26.698 1.667.484.562 1.182.863 1.967.863.64 0 1.144-.204 1.444-.407l-.165-.611zM21.646 0a7.116 7.116 0 00-7.107 7.108 7.116 7.116 0 007.107 7.107 7.116 7.116 0 007.108-7.107A7.116 7.116 0 0021.646 0zm0 12.923a5.822 5.822 0 01-5.815-5.815 5.822 5.822 0 015.815-5.816 5.822 5.822 0 015.816 5.816 5.822 5.822 0 01-5.816 5.815z" fill="#0D142E"/><path d="M21.943 6.743c-.843-.348-1.202-.6-1.202-1.104 0-.388.281-.834 1.027-.834a2.34 2.34 0 011.221.33l.243-.64c-.281-.165-.679-.32-1.26-.339v-.94h-.6v.978c-.892.146-1.464.756-1.464 1.56 0 .844.61 1.29 1.599 1.677.717.291 1.095.62 1.095 1.154 0 .552-.465.95-1.153.95a2.586 2.586 0 01-1.396-.417l-.232.65c.339.241.92.416 1.483.426v.978h.61v-1.007c.998-.165 1.531-.882 1.531-1.648 0-.863-.504-1.366-1.502-1.774z" fill="#0D142E"/></svg>