<svg width="35" height="35" fill="none" xmlns="http://www.w3.org/2000/svg"><path d="M4.466 19.773v.05h6.874V9.836H4.466v9.937zm7.903 0v.05h6.874v-1.199H12.37v1.149zm7.904 0v.05h6.874V9.836h-6.874v9.937zm6.874-12.084v-.05h-6.874v1.199h6.874V7.689zm-7.903 0v-.05h-6.875v9.987h6.874V7.689zm-7.904 0v-.05H4.466v1.199h6.874V7.689zm-.05 13.133H4.516c-.596 0-1.079-.472-1.079-1.049V7.689c0-.577.483-1.048 1.08-1.048h22.58c.596 0 1.079.471 1.079 1.048v12.084c0 .577-.483 1.049-1.08 1.049H11.29z" fill="#0D142E" stroke="#0D142E" stroke-width=".1"/><path d="M8.951 13.132H5.695v-.998h4.416v1.177l-2.863 5.014-.898-.486 2.644-4.632.043-.075h-.086zm15.806 0h-3.255v-.998h4.416v1.177l-2.863 5.014-.899-.486 2.645-4.632.043-.075h-.087zm-7.903-2.197h-3.256v-.998h4.417v1.177l-2.863 5.014-.9-.486 2.646-4.632.042-.075h-.086z" fill="#0D142E" stroke="#0D142E" stroke-width=".1"/><mask id="a" fill="#fff"><path d="M33.871 19.874v-6.793c.655-.227 1.129-.831 1.129-1.547 0-.908-.76-1.647-1.694-1.647-.933 0-1.693.739-1.693 1.647 0 .716.474 1.32 1.129 1.547v6.692h-2.258V7.14c0-1.514-1.266-2.746-2.823-2.746h-1.708c.358-.46.58-1.027.58-1.648C26.532 1.232 25.265 0 23.71 0H7.903C6.347 0 5.081 1.232 5.081 2.746c0 .621.22 1.188.579 1.648H3.952c-1.557 0-2.823 1.232-2.823 2.746v14.931C.474 22.3 0 22.903 0 23.618v8.788c0 .909.76 1.648 1.694 1.648h28.225c.934 0 1.694-.74 1.694-1.648v-7.14h1.693c.934 0 1.694-.74 1.694-1.648v-2.197c0-.715-.474-1.32-1.129-1.547zm-.565-8.889c.312 0 .565.247.565.55a.559.559 0 01-.565.549.558.558 0 01-.564-.55c0-.302.253-.549.564-.549zM6.21 2.746c0-.908.76-1.647 1.693-1.647H23.71c.933 0 1.693.739 1.693 1.647 0 .909-.76 1.648-1.693 1.648H7.903c-.933 0-1.693-.74-1.693-1.648zM3.952 5.493H27.66c.934 0 1.694.739 1.694 1.647v14.83H2.258V7.14c0-.908.76-1.647 1.694-1.647zm-.565 27.462v-7.69h1.808a5.863 5.863 0 00-.679 2.747c0 2.043 1.05 3.85 2.65 4.944H3.388zm5.08-6.041c0 .908.76 1.647 1.694 1.647h1.13c.31 0 .564.247.564.55a.559.559 0 01-.565.549H9.597v-.55h-1.13v1.649h1.694v1.098h1.13v-1.098c.933 0 1.693-.74 1.693-1.648 0-.909-.76-1.648-1.694-1.648h-1.129a.558.558 0 01-.564-.55c0-.302.253-.549.564-.549h1.694v.55h1.129v-1.648h1.963c.56.813.86 1.756.86 2.746 0 2.726-2.28 4.944-5.081 4.944-2.801 0-5.08-2.218-5.08-4.944 0-.99.298-1.933.859-2.746h3.656c-.933 0-1.693.74-1.693 1.648zm13.55-1.099c0 .303-.254.55-.565.55h-1.694v-.55H18.63v1.648h1.694v1.098h1.129v-1.098c.933 0 1.693-.74 1.693-1.648 0-.193-.04-.377-.104-.55h2.893c-.282 2.469-2.437 4.395-5.047 4.395a5.089 5.089 0 01-3.96-1.857 5.855 5.855 0 00-.67-2.537h5.194c.31 0 .564.247.564.55zM16.8 29.26a6.248 6.248 0 004.086 1.498c3.234 0 5.895-2.417 6.181-5.492h1.158v7.69h-13.94c1.264-.866 2.185-2.174 2.515-3.696zm13.683 3.146c0 .303-.254.55-.565.55h-.564v-8.789H2.258v8.788h-.564a.558.558 0 01-.565-.549v-8.788a.56.56 0 01.565-.55h28.225c.311 0 .565.247.565.55v8.788zm3.387-8.788c0 .303-.254.55-.565.55h-1.693v-.55c0-.715-.474-1.32-1.13-1.547v-1.2h2.823c.312 0 .565.248.565.55v2.197z"/></mask><path d="M33.871 19.874v-6.793c.655-.227 1.129-.831 1.129-1.547 0-.908-.76-1.647-1.694-1.647-.933 0-1.693.739-1.693 1.647 0 .716.474 1.32 1.129 1.547v6.692h-2.258V7.14c0-1.514-1.266-2.746-2.823-2.746h-1.708c.358-.46.58-1.027.58-1.648C26.532 1.232 25.265 0 23.71 0H7.903C6.347 0 5.081 1.232 5.081 2.746c0 .621.22 1.188.579 1.648H3.952c-1.557 0-2.823 1.232-2.823 2.746v14.931C.474 22.3 0 22.903 0 23.618v8.788c0 .909.76 1.648 1.694 1.648h28.225c.934 0 1.694-.74 1.694-1.648v-7.14h1.693c.934 0 1.694-.74 1.694-1.648v-2.197c0-.715-.474-1.32-1.129-1.547zm-.565-8.889c.312 0 .565.247.565.55a.559.559 0 01-.565.549.558.558 0 01-.564-.55c0-.302.253-.549.564-.549zM6.21 2.746c0-.908.76-1.647 1.693-1.647H23.71c.933 0 1.693.739 1.693 1.647 0 .909-.76 1.648-1.693 1.648H7.903c-.933 0-1.693-.74-1.693-1.648zM3.952 5.493H27.66c.934 0 1.694.739 1.694 1.647v14.83H2.258V7.14c0-.908.76-1.647 1.694-1.647zm-.565 27.462v-7.69h1.808a5.863 5.863 0 00-.679 2.747c0 2.043 1.05 3.85 2.65 4.944H3.388zm5.08-6.041c0 .908.76 1.647 1.694 1.647h1.13c.31 0 .564.247.564.55a.559.559 0 01-.565.549H9.597v-.55h-1.13v1.649h1.694v1.098h1.13v-1.098c.933 0 1.693-.74 1.693-1.648 0-.909-.76-1.648-1.694-1.648h-1.129a.558.558 0 01-.564-.55c0-.302.253-.549.564-.549h1.694v.55h1.129v-1.648h1.963c.56.813.86 1.756.86 2.746 0 2.726-2.28 4.944-5.081 4.944-2.801 0-5.08-2.218-5.08-4.944 0-.99.298-1.933.859-2.746h3.656c-.933 0-1.693.74-1.693 1.648zm13.55-1.099c0 .303-.254.55-.565.55h-1.694v-.55H18.63v1.648h1.694v1.098h1.129v-1.098c.933 0 1.693-.74 1.693-1.648 0-.193-.04-.377-.104-.55h2.893c-.282 2.469-2.437 4.395-5.047 4.395a5.089 5.089 0 01-3.96-1.857 5.855 5.855 0 00-.67-2.537h5.194c.31 0 .564.247.564.55zM16.8 29.26a6.248 6.248 0 004.086 1.498c3.234 0 5.895-2.417 6.181-5.492h1.158v7.69h-13.94c1.264-.866 2.185-2.174 2.515-3.696zm13.683 3.146c0 .303-.254.55-.565.55h-.564v-8.789H2.258v8.788h-.564a.558.558 0 01-.565-.549v-8.788a.56.56 0 01.565-.55h28.225c.311 0 .565.247.565.55v8.788zm3.387-8.788c0 .303-.254.55-.565.55h-1.693v-.55c0-.715-.474-1.32-1.13-1.547v-1.2h2.823c.312 0 .565.248.565.55v2.197z" fill="#0D142E" stroke="#0D142E" stroke-width=".2" mask="url(#a)"/><path d="M7.389 2.747a.5.5 0 01.499-.5h.03a.5.5 0 010 1h-.03a.5.5 0 01-.5-.5zm2.295 0a.5.5 0 01.5-.5h11.32a.5.5 0 010 .999h-11.32a.5.5 0 01-.5-.5zm13.586 0a.5.5 0 01.5-.5h.03a.5.5 0 110 .999h-.03a.5.5 0 01-.5-.5z" fill="#0D142E" stroke="#0D142E" stroke-width=".1"/></svg>