<svg width="60" height="60" fill="none" xmlns="http://www.w3.org/2000/svg"><circle cx="25.875" cy="25.875" r="1.232" fill="#AC252B"/><path d="M3.1 19.866h9.029a3.08 3.08 0 002.192-.908 3.08 3.08 0 00.908-2.192 7.56 7.56 0 00-2.231-5.384 7.655 7.655 0 00-1.802-1.335 4.45 4.45 0 00.891-2.676V2.986A2.99 2.99 0 009.101 0H6.127A2.99 2.99 0 003.14 2.986V7.37c0 1.003.332 1.93.89 2.676-.66.353-1.27.803-1.801 1.335A7.564 7.564 0 000 16.766c0 1.71 1.39 3.1 3.1 3.1zm1.799-16.88c0-.677.55-1.228 1.228-1.228H9.1c.677 0 1.228.55 1.228 1.228V4.07a4.67 4.67 0 00-3.538-.242l-1.892.623V2.986zm0 3.317l2.442-.805a2.93 2.93 0 012.57.355l.418.282V7.37a2.718 2.718 0 01-2.715 2.715A2.718 2.718 0 014.899 7.37V6.303zm-1.426 6.322a5.89 5.89 0 012.018-1.318 4.446 4.446 0 002.123.537 4.44 4.44 0 002.123-.537 5.89 5.89 0 012.018 1.318 5.815 5.815 0 011.716 4.141c0 .359-.14.696-.393.949-.254.253-.59.393-.95.393H3.1c-.74 0-1.342-.602-1.342-1.342 0-1.565.609-3.035 1.715-4.14zm26.785-.637a.879.879 0 00.879-.879c0-3.563 2.852-6.471 6.393-6.566L36.254 5.82a.879.879 0 101.243 1.243l2.779-2.78a.876.876 0 000-1.247L37.497.257A.879.879 0 1036.254 1.5l1.285 1.285c-4.514.09-8.16 3.789-8.16 8.324 0 .486.393.88.879.88zm17.613 7.878h9.03a3.08 3.08 0 002.191-.908A3.08 3.08 0 0060 16.766a7.564 7.564 0 00-2.23-5.384 7.655 7.655 0 00-1.802-1.335 4.45 4.45 0 00.891-2.676V2.986A2.99 2.99 0 0053.873 0H50.9a2.99 2.99 0 00-2.986 2.986V7.37a4.478 4.478 0 004.473 4.473c.768 0 1.491-.194 2.123-.537a5.889 5.889 0 012.018 1.318 5.817 5.817 0 011.715 4.141c0 .359-.14.696-.393.949s-.59.393-.949.393h-9.029c-.74 0-1.342-.602-1.342-1.342 0-1.326.433-2.577 1.25-3.616a.879.879 0 10-1.381-1.087 7.535 7.535 0 00-1.627 4.703c0 1.71 1.391 3.1 3.1 3.1zm7.23-12.495a2.718 2.718 0 01-2.715 2.715 2.718 2.718 0 01-2.715-2.715V6.303l2.442-.805a2.93 2.93 0 012.57.355l.418.282V7.37zm0-3.3a4.67 4.67 0 00-3.538-.242l-1.892.623V2.986c0-.677.55-1.228 1.228-1.228h2.974c.677 0 1.228.55 1.228 1.228V4.07zm-2.164 30.741a.879.879 0 000 1.243l2.78 2.78c.307.315.902.368 1.247 0l2.779-2.78a.879.879 0 00-1.243-1.243l-1.285 1.285c-.09-4.514-3.788-8.16-8.324-8.16a.879.879 0 000 1.758c3.563 0 6.471 2.852 6.566 6.394l-1.277-1.277a.88.88 0 00-1.243 0zm3.031 15.37a4.45 4.45 0 00.891-2.677V43.12a2.99 2.99 0 00-2.986-2.986H50.9a2.99 2.99 0 00-2.986 2.986v4.385c0 1.003.332 1.93.891 2.677-.66.353-1.27.803-1.801 1.334a7.56 7.56 0 00-2.231 5.384c0 1.71 1.39 3.1 3.1 3.1H56.9a3.08 3.08 0 002.192-.908A3.08 3.08 0 0060 56.9a7.563 7.563 0 00-2.23-5.383 7.659 7.659 0 00-1.802-1.336zm-6.297-7.062c0-.677.55-1.228 1.228-1.228h2.974c.677 0 1.228.55 1.228 1.228v1.085a4.669 4.669 0 00-3.538-.242l-1.892.623V43.12zm0 3.317l2.442-.805a2.93 2.93 0 012.57.355l.418.282v1.236a2.718 2.718 0 01-2.715 2.715 2.718 2.718 0 01-2.715-2.715v-1.068zm8.178 11.412a1.33 1.33 0 01-.949.393h-9.029c-.74 0-1.342-.602-1.342-1.341a5.82 5.82 0 011.716-4.142 5.887 5.887 0 012.019-1.317 4.445 4.445 0 002.122.536 4.45 4.45 0 002.123-.536 5.887 5.887 0 012.018 1.318 5.817 5.817 0 011.715 4.14c0 .359-.14.696-.393.95zM1.5 25.188l1.285-1.285c.09 4.514 3.789 8.16 8.324 8.16a.879.879 0 100-1.758c-3.563 0-6.471-2.852-6.566-6.394l1.277 1.277a.876.876 0 001.243 0 .879.879 0 000-1.243l-2.78-2.779a.876.876 0 00-1.247 0L.257 23.945A.879.879 0 101.5 25.188zM30 13.248a16.655 16.655 0 00-11.738 4.801 16.652 16.652 0 00-5.01 11.628.879.879 0 101.757.033 14.904 14.904 0 014.484-10.407A14.907 14.907 0 0130 15.006c8.268 0 14.994 6.726 14.994 14.994S38.268 44.994 30 44.994a15.026 15.026 0 01-9.436-3.34 15.05 15.05 0 01-5.196-8.366.879.879 0 10-1.716.384 16.814 16.814 0 005.805 9.347A16.79 16.79 0 0030 46.752c9.237 0 16.752-7.515 16.752-16.752 0-9.237-7.515-16.752-16.752-16.752zM11.196 50.182a4.45 4.45 0 00.891-2.677V43.12a2.99 2.99 0 00-2.986-2.986H6.127A2.99 2.99 0 003.14 43.12v4.385c0 1.003.332 1.93.891 2.676-.66.354-1.27.804-1.802 1.335A7.565 7.565 0 000 56.9C0 58.61 1.39 60 3.1 60h9.029a3.08 3.08 0 002.192-.908 3.08 3.08 0 00.908-2.192 7.56 7.56 0 00-2.231-5.383 7.65 7.65 0 00-1.802-1.335zM4.899 43.12c0-.677.55-1.228 1.228-1.228H9.1c.677 0 1.228.55 1.228 1.228v1.085a4.669 4.669 0 00-3.538-.242l-1.892.623V43.12zm0 3.317l2.442-.805a2.93 2.93 0 012.57.355l.418.282v1.236a2.718 2.718 0 01-2.715 2.715 2.718 2.718 0 01-2.715-2.715v-1.068zm8.179 11.412c-.254.254-.59.393-.95.393H3.1c-.74 0-1.342-.602-1.342-1.342 0-1.564.609-3.035 1.715-4.14a5.889 5.889 0 012.018-1.318 4.446 4.446 0 002.123.536c.768 0 1.49-.194 2.122-.536a5.89 5.89 0 012.019 1.318 5.814 5.814 0 011.716 4.14c0 .359-.14.696-.393.95zm16.664-9.837a.879.879 0 00-.879.879c0 3.563-2.852 6.471-6.393 6.566l1.276-1.277a.879.879 0 10-1.243-1.243l-2.78 2.78a.876.876 0 000 1.247l2.78 2.779a.877.877 0 001.243 0 .879.879 0 000-1.243l-1.285-1.285c4.515-.09 8.16-3.788 8.16-8.324a.879.879 0 00-.879-.88z" fill="#0D142E"/><path d="M32.911 35.65a2.73 2.73 0 001.937-.801 2.743 2.743 0 000-3.875 2.743 2.743 0 00-3.874 0 2.743 2.743 0 000 3.875 2.731 2.731 0 001.937.801zm-1.44-4.179a2.03 2.03 0 011.44-.596 2.03 2.03 0 011.44.596 2.04 2.04 0 010 2.881 2.04 2.04 0 01-2.88 0 2.04 2.04 0 010-2.88z" fill="#0D142E" stroke="#0D142E" stroke-width=".3"/><path d="M29.722 29.722a4.493 4.493 0 00-.963 4.954.352.352 0 00.647-.275 3.793 3.793 0 01.813-4.182 3.812 3.812 0 015.385 0 3.812 3.812 0 010 5.385 3.785 3.785 0 01-2.67 1.115h-.023c-1 0-1.942-.383-2.658-1.08a.351.351 0 00-.49.502 4.481 4.481 0 003.148 1.281h.027a4.483 4.483 0 003.163-1.321 4.516 4.516 0 000-6.379 4.516 4.516 0 00-6.38 0z" fill="#AC252B" stroke="#AC252B" stroke-width=".3"/><path d="M41.327 31.334h-1.25a7.274 7.274 0 00-.983-2.373l.884-.884a.669.669 0 00.197-.476.67.67 0 00-.197-.476l-1.28-1.28a.669.669 0 00-.476-.196c-.18 0-.349.07-.476.197l-.883.883a7.273 7.273 0 00-2.373-.982v-1.25a.674.674 0 00-.673-.673h-1.81a.672.672 0 00-.52.246h-.23a5.944 5.944 0 00-.761-1.842l.676-.676a.612.612 0 000-.864l-1.034-1.034a.607.607 0 00-.865 0l-.676.676a5.943 5.943 0 00-1.841-.762v-.957a.612.612 0 00-.611-.611h-1.463a.612.612 0 00-.611.611v.957a5.944 5.944 0 00-1.841.762l-.676-.676a.607.607 0 00-.865 0l-1.034 1.034a.612.612 0 000 .864l.676.676a5.943 5.943 0 00-.762 1.842h-.956a.612.612 0 00-.612.611v1.462c0 .337.274.612.611.612h.957a5.95 5.95 0 00.762 1.841l-.676.676a.612.612 0 000 .865l1.034 1.034a.612.612 0 00.865 0l.676-.676a5.94 5.94 0 001.84.762v.23a.672.672 0 00-.246.52v1.81c0 .37.302.672.673.672h1.25a7.28 7.28 0 00.982 2.374l-.883.883a.668.668 0 00-.197.476c0 .18.07.35.197.476l1.28 1.28a.669.669 0 00.952 0l.883-.884a7.272 7.272 0 002.373.982v1.25c0 .372.302.674.673.674h1.81a.674.674 0 00.672-.673v-1.25a7.272 7.272 0 002.374-.983l.883.884a.669.669 0 00.952 0l1.28-1.28a.669.669 0 00.197-.476c0-.18-.07-.349-.197-.476l-.884-.883a7.273 7.273 0 00.982-2.374h1.25a.674.674 0 00.674-.672v-1.81a.674.674 0 00-.673-.673zm-17.037-.749a5.246 5.246 0 01-1.741-.72.615.615 0 00-.764.08l-.663.664-.905-.905.663-.663a.615.615 0 00.08-.764 5.245 5.245 0 01-.72-1.742.615.615 0 00-.597-.483h-.939v-1.28h.939a.615.615 0 00.597-.483 5.248 5.248 0 01.72-1.741.615.615 0 00-.08-.764l-.663-.664.905-.905.663.664a.615.615 0 00.764.08 5.244 5.244 0 011.741-.72.615.615 0 00.484-.598v-.938h1.28v.939c0 .285.203.537.483.597a5.247 5.247 0 011.74.72.615.615 0 00.765-.08l.663-.664.905.905-.663.663a.615.615 0 00-.08.765c.343.533.585 1.119.72 1.74.06.281.311.485.597.485h.15v.974a7.272 7.272 0 00-2.373.982l-.884-.883-.032-.03a2.66 2.66 0 00-3.565-2.899.351.351 0 10.246.659 1.958 1.958 0 012.626 2.121.67.67 0 00-.226.149l-1.28 1.28a.67.67 0 00-.15.226 1.948 1.948 0 01-1.67-.553 1.967 1.967 0 01-.323-2.346.351.351 0 00-.613-.344 2.672 2.672 0 00.44 3.186 2.655 2.655 0 002.285.748l.031.034.883.884a7.272 7.272 0 00-.982 2.373h-.973v-.151a.615.615 0 00-.484-.598zm17.007 3.202h-1.245a.678.678 0 00-.658.532 6.573 6.573 0 01-.903 2.182.677.677 0 00.09.842l.879.88-1.238 1.236-.88-.88a.678.678 0 00-.84-.088 6.571 6.571 0 01-2.183.903.678.678 0 00-.532.658v1.245h-1.75v-1.245a.678.678 0 00-.533-.658 6.572 6.572 0 01-2.181-.903.678.678 0 00-.842.089l-.88.88-1.237-1.238.88-.88a.677.677 0 00.088-.84 6.576 6.576 0 01-.902-2.183.678.678 0 00-.658-.533h-1.245v-1.75h1.245a.678.678 0 00.658-.532c.168-.78.472-1.514.902-2.182a.677.677 0 00-.088-.841l-.88-.88 1.238-1.237.879.88c.222.222.576.26.841.088a6.572 6.572 0 012.182-.903.678.678 0 00.533-.658v-1.244h1.75v1.244c0 .315.224.592.532.658.78.169 1.514.473 2.182.903.266.171.62.134.842-.089l.88-.88 1.237 1.238-.88.88a.677.677 0 00-.089.841c.431.668.735 1.402.903 2.182a.678.678 0 00.658.533h1.245v1.75h0z" fill="#0D142E" stroke="#0D142E" stroke-width=".3"/></svg>