<svg width="60" height="60" fill="none" xmlns="http://www.w3.org/2000/svg"><path d="M41.298 56.556v-1.758h-6.383v-20.03h3.241v-1.759h-3.241v-5.505h7.263v-9.021H4.105v38.073h37.193zM13.125 42.03h5.506v5.505h-5.506V42.03zm0-7.263h5.506v5.505h-5.506v-5.505zm0-7.263h5.506v5.505h-5.506v-5.505zm20.032 5.505h-5.505v-5.505h5.505v5.505zm0 7.263h-5.505v-5.505h5.505v5.505zm-12.769-5.505h5.506v5.505h-5.506v-5.505zm5.506-1.758h-5.506v-5.505h5.506v5.505zm-5.506 9.02h5.506v5.506h-5.506V42.03zm7.263 0h5.506v5.506h-5.505V42.03zm7.264-21.788h5.505v5.505h-5.505V20.24zm-7.264 0h5.506v5.505h-5.505V20.24zm-7.263 0h5.506v5.505h-5.506V20.24zm-7.263 0h5.506v5.505h-5.506V20.24zm-7.263 0h5.506v5.505H5.862V20.24zm0 7.263h5.506v5.505H5.862v-5.505zm0 7.263h5.506v5.505H5.862v-5.505zm0 7.263h5.506v5.505H5.862V42.03zm5.506 12.768H5.862v-5.505h5.506v5.505zm7.263 0h-5.506v-5.505h5.506v5.505zm7.263 0h-5.506v-5.505h5.506v5.505zm7.263 0h-5.505v-5.505h5.505v5.505zM11.926 5.978a.2.2 0 00-.068-.149L9.841 4.035a.2.2 0 00-.133-.05H4.994a.2.2 0 00-.2.2v11.123c0 .11.09.2.2.2h4.714a.2.2 0 00.133-.051l2.018-1.794a.2.2 0 00.067-.15v-2.618a.2.2 0 00-.068-.149l-.956-.85a.2.2 0 010-.3l.957-.85a.2.2 0 00.067-.15V5.978zm-2.887-.236a.2.2 0 01.133.05l.929.826a.2.2 0 01.067.15v1.04a.2.2 0 01-.067.149l-.929.825a.2.2 0 01-.133.05H6.752a.2.2 0 01-.2-.2v-2.69c0-.11.09-.2.2-.2h2.287zm1.129 7.072l-.996.885a.2.2 0 01-.133.05H6.752a.2.2 0 01-.2-.2v-2.69c0-.11.09-.2.2-.2h2.287a.2.2 0 01.133.05l.929.826a.2.2 0 01.067.15v1.129zm22.429-4.579a.2.2 0 00.2-.2V4.197a.2.2 0 00-.2-.2h-6.355a.2.2 0 00-.2.2v11.116c0 .11.09.2.2.2h6.355a.2.2 0 00.2-.2v-4.917a.2.2 0 00-.2-.2h-3.053a.2.2 0 00-.2.2v1.357c0 .111.09.2.2.2h1.295c.11 0 .2.09.2.2v1.402a.2.2 0 01-.2.2H28a.2.2 0 01-.2-.2v-7.6c0-.11.09-.2.2-.2h2.84c.11 0 .2.09.2.2v2.08c0 .11.089.2.2.2h1.357zm8.863-4.038a.2.2 0 00-.2-.2h-6.355a.2.2 0 00-.2.2v11.106c0 .11.09.2.2.2h6.354a.2.2 0 00.2-.2V4.197zm-1.76 9.348a.2.2 0 01-.2.2h-2.838a.2.2 0 01-.2-.2v-7.59c0-.11.09-.2.2-.2H39.5c.11 0 .2.09.2.2v7.59zM13.901 4.184c0-.11.09-.2.2-.2h1.358c.11 0 .2.09.2.2v11.124a.2.2 0 01-.2.2h-1.358a.2.2 0 01-.2-.2V4.184zm5.503 5.196c0-.227.317-.279.39-.064l2.04 6.056a.2.2 0 00.19.136h1.925a.2.2 0 00.2-.2V4.184a.2.2 0 00-.2-.2h-1.358a.2.2 0 00-.2.2v6.117c0 .226-.317.278-.39.063l-2.103-6.243a.2.2 0 00-.19-.137h-1.862a.2.2 0 00-.2.2v11.128c0 .11.09.2.2.2h1.358a.2.2 0 00.2-.2V9.38z" fill="#0D142E"/><path d="M53.715 31.425a.879.879 0 001.155-.46l4.838-11.232a.511.511 0 00-.267-.672.511.511 0 01-.268-.672l.53-1.23c.05-.118.078-.244.081-.372l.037-1.594a1 1 0 00-.605-.941l-5.803-2.5a1 1 0 00-1.1.208l-1.132 1.121c-.091.09-.164.198-.215.316l-.53 1.23a.512.512 0 01-.672.267.512.512 0 00-.673.268L37.527 42.017c-.086.2.006.43.206.516.199.086.29.317.205.516l-.92 2.136c-.142.33.01.714.341.856.33.143.483.526.34.857l-1.555 3.612a1 1 0 00.815 1.39l5.606.584a1 1 0 001.022-.599l.891-2.068a.652.652 0 01.856-.341c.33.142.714-.01.857-.341L47.11 47a.393.393 0 01.516-.206.393.393 0 00.516-.205l5.284-12.27a.879.879 0 00-1.614-.695l-4.35 10.097a1 1 0 01-1.313.523l-5.55-2.39a1 1 0 01-.523-1.314l9.74-22.62a1 1 0 011.314-.523l5.551 2.39a1 1 0 01.523 1.314l-3.95 9.17a.879.879 0 00.46 1.154zM42.484 50.003a1 1 0 01-1.022.599l-1.943-.203a1 1 0 01-.815-1.39l.47-1.09a1 1 0 011.314-.523l1.712.737a1 1 0 01.523 1.314l-.24.556zm2.848-3.32a.806.806 0 01-1.059.422l-4.463-1.922a.806.806 0 01.638-1.48l4.463 1.922c.409.176.597.65.421 1.059zm7.113-32.277a1 1 0 01.215-.316l.048-.047a1 1 0 011.099-.207l3.625 1.561a1 1 0 01.604.941l-.001.067a1 1 0 01-.081.373l-.202.467a1 1 0 01-1.314.523l-3.671-1.58a1 1 0 01-.523-1.315l.201-.467z" fill="#0D142E"/><path d="M1.758 2.758a1 1 0 011-1h40.766a1 1 0 011 1v13.425a.879.879 0 001.758 0V1a1 1 0 00-1-1H1a1 1 0 00-1 1v9.446a.879.879 0 001.758 0V2.758z" fill="#AC252B"/><path d="M44.524 57.242a1 1 0 01-1 1H2.758a1 1 0 01-1-1v-43.28a.879.879 0 00-1.758 0V59a1 1 0 001 1h44.282a1 1 0 001-1v-3.787a.879.879 0 00-1.758 0v2.03z" fill="#0D142E"/><path d="M48.567 33.215a.853.853 0 01-1.121.446l-.048-.02a.853.853 0 11.675-1.567l.048.02a.853.853 0 01.446 1.121zm2.075-4.82a.879.879 0 11-1.614-.695.879.879 0 011.614.695zm2.086-4.843a.879.879 0 11-1.614-.695.879.879 0 011.614.695zm-44.944-.559a.879.879 0 111.757 0 .879.879 0 01-1.757 0zm14.526 7.263a.879.879 0 111.757 0 .879.879 0 01-1.757 0zm-7.263 7.264a.879.879 0 111.758 0 .879.879 0 01-1.758 0zm14.599 7.199a.879.879 0 111.758 0 .879.879 0 01-1.758 0zM7.857 52.1a.879.879 0 111.758 0 .879.879 0 01-1.758 0z" fill="#AC252B"/></svg>