<svg width="49" height="60" fill="none" xmlns="http://www.w3.org/2000/svg"><path d="M29.911 5a1 1 0 112 0 1 1 0 01-2 0z" fill="#0D142E"/><mask id="a" fill="#fff"><path d="M48.835 59.383a1 1 0 00-.217-1.09s-4.242-3-5.8-5.8c-1.475-2.653-1.765-4.508-1.885-7.541-.105-2.68 1.003-4.118.972-6.8l-.006-.321c-.1-4.354-2-10.972-2-10.972s-.413-1.46-.962-1.985A3.164 3.164 0 0036.911 24a2.94 2.94 0 00-.995.183V5a5.006 5.006 0 00-5-5H10.911a5.006 5.006 0 00-5 5v12.268a3.513 3.513 0 00-2.227.045 3.88 3.88 0 00-2.518 2.834 3.826 3.826 0 001.022 3.547l2.956 2.956a3.738 3.738 0 00-1.839 4.584A3.8 3.8 0 00.088 35a3.824 3.824 0 001.123 2.707l1.636 1.636a3.78 3.78 0 00-1.638.95 3.832 3.832 0 000 5.414l4 4c.212.207.447.389.7.542V51a5.006 5.006 0 005 5h9.586l3.707 3.707a1 1 0 00.71.293h23a1 1 0 00.923-.617zM15.911 2h10v2h-10V2zm-8 17V5a3 3 0 013-3h3v3a1 1 0 001 1h12a1 1 0 001-1V2h3a3 3 0 013 3v41H11.596a3.789 3.789 0 00-.97-1.707l-1.642-1.642A3.754 3.754 0 0011.751 39a3.798 3.798 0 00-.216-1.209 3.732 3.732 0 001.53-.596c.458-.31.793-.646 1.124-1.195.42-.694.558-1.189.56-2-.078-1.023-.249-1.5-.838-2.34-.78-.805-2-2.06-2-2.06l-2.29-2.289a3.854 3.854 0 00-1.71-.968V19zm-4.309 3.28a1.837 1.837 0 01-.483-1.7 1.887 1.887 0 011.255-1.387c.156-.056.32-.085.486-.084a1.83 1.83 0 011.051.349v5.131L3.602 22.28zm2.026 6.447a1.915 1.915 0 011.3-.527c.483-.002.946.188 1.29.527l3.993 3.993c.346.345.542.812.544 1.3a1.825 1.825 0 01-.123.648 1.835 1.835 0 01-2.838.797l-4.162-4.153a1.815 1.815 0 01-.537-1.292 1.85 1.85 0 01.533-1.293zm-3 7.566a1.83 1.83 0 012.434-2.723l4.15 4.137a1.83 1.83 0 01-2.587 2.586l-3.997-4zm4 12l-4-4a1.829 1.829 0 012.583-2.586l4 4a1.83 1.83 0 01-2.586 2.586h.003zM10.911 54a3 3 0 01-3-3v-.175h.008A3.772 3.772 0 0011.596 48h22.315v3a3 3 0 01-3 3h-20zm14.414 4l-2-2h7.586a5.006 5.006 0 005-5V26.994a1 1 0 011-.994c.522 0 1.016 1.179 1.016 1.179s2.05 6.539 1.971 10.841c-.049 2.697-1.09 4.143-.977 6.838.113 2.695-.175-2.83.02.384.195 3.214.46 5.172 2 8 .1.183.157.286.263.465C42.416 55.745 45.497 58 45.497 58H25.325z"/></mask><path d="M48.835 59.383a1 1 0 00-.217-1.09s-4.242-3-5.8-5.8c-1.475-2.653-1.765-4.508-1.885-7.541-.105-2.68 1.003-4.118.972-6.8l-.006-.321c-.1-4.354-2-10.972-2-10.972s-.413-1.46-.962-1.985A3.164 3.164 0 0036.911 24a2.94 2.94 0 00-.995.183V5a5.006 5.006 0 00-5-5H10.911a5.006 5.006 0 00-5 5v12.268a3.513 3.513 0 00-2.227.045 3.88 3.88 0 00-2.518 2.834 3.826 3.826 0 001.022 3.547l2.956 2.956a3.738 3.738 0 00-1.839 4.584A3.8 3.8 0 00.088 35a3.824 3.824 0 001.123 2.707l1.636 1.636a3.78 3.78 0 00-1.638.95 3.832 3.832 0 000 5.414l4 4c.212.207.447.389.7.542V51a5.006 5.006 0 005 5h9.586l3.707 3.707a1 1 0 00.71.293h23a1 1 0 00.923-.617zM15.911 2h10v2h-10V2zm-8 17V5a3 3 0 013-3h3v3a1 1 0 001 1h12a1 1 0 001-1V2h3a3 3 0 013 3v41H11.596a3.789 3.789 0 00-.97-1.707l-1.642-1.642A3.754 3.754 0 0011.751 39a3.798 3.798 0 00-.216-1.209 3.732 3.732 0 001.53-.596c.458-.31.793-.646 1.124-1.195.42-.694.558-1.189.56-2-.078-1.023-.249-1.5-.838-2.34-.78-.805-2-2.06-2-2.06l-2.29-2.289a3.854 3.854 0 00-1.71-.968V19zm-4.309 3.28a1.837 1.837 0 01-.483-1.7 1.887 1.887 0 011.255-1.387c.156-.056.32-.085.486-.084a1.83 1.83 0 011.051.349v5.131L3.602 22.28zm2.026 6.447a1.915 1.915 0 011.3-.527c.483-.002.946.188 1.29.527l3.993 3.993c.346.345.542.812.544 1.3a1.825 1.825 0 01-.123.648 1.835 1.835 0 01-2.838.797l-4.162-4.153a1.815 1.815 0 01-.537-1.292 1.85 1.85 0 01.533-1.293zm-3 7.566a1.83 1.83 0 012.434-2.723l4.15 4.137a1.83 1.83 0 01-2.587 2.586l-3.997-4zm4 12l-4-4a1.829 1.829 0 012.583-2.586l4 4a1.83 1.83 0 01-2.586 2.586h.003zM10.911 54a3 3 0 01-3-3v-.175h.008A3.772 3.772 0 0011.596 48h22.315v3a3 3 0 01-3 3h-20zm14.414 4l-2-2h7.586a5.006 5.006 0 005-5V26.994a1 1 0 011-.994c.522 0 1.016 1.179 1.016 1.179s2.05 6.539 1.971 10.841c-.049 2.697-1.09 4.143-.977 6.838.113 2.695-.175-2.83.02.384.195 3.214.46 5.172 2 8 .1.183.157.286.263.465C42.416 55.745 45.497 58 45.497 58H25.325z" fill="#0D142E"/><path d="M14.8 34a3.86 3.86 0 00-.85-2.368l-.078.062a3.76 3.76 0 01.827 2.307l.1-.002zm-.839-2.337v-.003h-.1v.003h.1zm-2.05-2.063l-.035.035s-.001 0 0 0l.003.003.01.011.04.041.15.154.504.52 1.293 1.334.071-.07-1.293-1.333c-.2-.208-.377-.39-.504-.52l-.149-.154-.04-.041a.745.745 0 00-.01-.011l-.003-.003-.037.034zm36.924 29.783l.093.038-.093-.038zm-.217-1.09l.071-.07-.006-.007-.007-.005-.058.082zm-5.8-5.8l.088-.049-.088.049zm-1.885-7.541l.1-.004-.1.004zm.972-6.8l.1-.001-.1.001zm-.006-.321l.1-.002-.1.002zm-2-10.972l-.096.027.096-.027zM36.911 24l.005-.1h-.006l.001.1zm-.995.183h-.1v.143l.135-.05-.035-.093zm0-19.183h.1-.1zm-5-5v-.1.1zM10.911 0v-.1.1zm-5 5h-.1.1zm0 12.268l-.03.095.13.04v-.135h-.1zm-2.227.045l.033.095h.001l-.034-.095zm-2.518 2.834l.098.022-.098-.022zm1.022 3.547l-.07.07.07-.07zm2.956 2.956l.045.09.124-.063-.098-.098-.07.071zm-1.839 4.584l.016.099.119-.019-.04-.113-.095.033zm-2.094 1.059l-.07-.07.07.07zM.088 35h.1-.1zm1.123 2.707l.071-.07-.07.07zm1.636 1.636l.027.096.165-.046-.12-.12-.072.07zm-1.638.95l-.07-.071.07.071zM.09 43h-.1.1zm1.12 2.707l-.07.07.07-.07zm4 4l-.07.07v.002l.07-.072zm.7.542h.1v-.056l-.048-.03-.052.086zm0 .751h-.1.1zm5 5v.1-.1zm9.586 0l.071-.07-.03-.03h-.04v.1zm3.707 3.707l.071-.07-.07.07zm.71.293v-.1.1zm23 0v-.1.1zm-32-58v-.1h-.1V2h.1zm10 0h.1v-.1h-.1V2zm0 2v.1h.1V4h-.1zm-10 0h-.1v.1h.1V4zm-2-2h.1v-.1h-.1V2zm14 0v-.1h-.1V2h.1zm6 44v.1h.1V46h-.1zm-22.316 0l-.096.025.02.075h.076V46zm-.97-1.707l.072-.07-.072.07zm-1.642-1.642l-.026-.097-.166.046.122.122.07-.071zM11.751 39h.1v-.001l-.1.001zm-.216-1.209l-.015-.099-.12.018.041.114.094-.033zM14.19 36l-.085-.052.085.052zm.56-2h.1v-.008l-.1.008zm-.838-2.34l.082-.057-.004-.007-.006-.006-.072.07zm-2-2.06l.072-.07-.072.07zm-2.29-2.289l.071-.07v-.002l-.07.072zm-1.71-.968h-.1v.077l.075.02.025-.097zm-4.31-4.063l-.07.07.07-.07zm-.483-1.7l.098.022-.098-.022zm1.255-1.387l.032.095h.002l-.034-.095zm.486-.084l.002-.1H4.86v.1zm1.051.349h.1v-.051l-.04-.03-.06.081zm0 5.131l-.07.07.17.171v-.241h-.1zm-.283 4.138l-.069-.073-.002.003.071.07zm1.3-.527v-.1.1zm1.29.527l.07-.07v-.001l-.07.071zm3.993 3.993l-.07.07.07-.07zm.544 1.3h.1-.1zm-.123.648l-.093-.036v.002l.093.034zm-.414.644l-.07-.071.07.071zm-2.424.153l-.07.071.01.008.06-.079zm-4.162-4.153l.071-.07v-.001l-.07.071zm-.537-1.292h-.1.1zm-2.467 6.273l-.07.07.07-.07zm1.3-3.123v.1-.1zm1.134.4l.071-.071-.008-.007-.063.078zm4.15 4.137l.072-.07h-.002l-.07.07zm-2.587 2.586l-.07.07.001.002.07-.072zm.003 8v.1h.242l-.17-.17-.072.07zm-4-4l-.073.068.003.003.07-.071zm2.583-2.586l.071-.07-.003-.004-.068.074zm4 4l.073-.07h-.002l-.07.07zm-2.586 2.586v-.1h-.249l.18.172.07-.072zm1.286 2.532v-.1h-.1v.1h.1zm.008 0l.001-.1v.1zM11.596 48v-.1h-.077l-.02.075.097.025zm22.315 0h.1v-.1h-.1v.1zm-8.586 10l-.07.07.029.03h.041V58zm-2-2v-.1h-.241l.17.17.071-.07zm7.586 0v.1-.1zm5-5h.1-.1zm0-24.006h-.1.1zm1-.994v.1-.1zm1.016 1.179l.096-.03-.003-.009-.093.039zm1.971 10.841l-.1-.002.1.002zm1.043 15.222l.088-.048-.088.048zm.263.465l.086-.051-.086.051zM45.497 58v.1h.306l-.246-.18-.06.08zm3.43 1.421a1.1 1.1 0 00.063-.635l-.196.039a.9.9 0 01-.051.52l.185.076zm.063-.635a1.1 1.1 0 00-.3-.564l-.142.142a.9.9 0 01.246.46l.196-.038zm-.372-.493l.058-.082-.003-.002-.009-.006-.035-.026a28.34 28.34 0 01-.637-.476c-.42-.324-.998-.785-1.624-1.334-1.254-1.098-2.692-2.539-3.462-3.923l-.175.098c.788 1.415 2.249 2.875 3.505 3.976a33.859 33.859 0 002.321 1.854l.003.002.058-.081zm-5.712-5.849c-1.466-2.634-1.753-4.472-1.873-7.496l-.2.008c.12 3.042.412 4.914 1.898 7.586l.175-.098zm-1.873-7.496c-.052-1.325.195-2.342.455-3.37.26-1.03.533-2.071.517-3.427l-.2.002c.016 1.327-.25 2.345-.51 3.375-.26 1.03-.515 2.072-.462 3.428l.2-.008zm.872-6.796l.1-.002v-.032a23.77 23.77 0 00-.006-.29l-.2.005a41.722 41.722 0 01.006.288v.032l.1-.001zm.094-.323c-.05-2.188-.552-4.939-1.04-7.139a77.577 77.577 0 00-.942-3.783l-.016-.056-.004-.015-.001-.003v-.001l-.097.027-.096.028.002.004.004.015.016.056.06.216a77.282 77.282 0 01.88 3.555c.486 2.198.984 4.933 1.035 7.1l.2-.004zm-2.1-10.97l.097-.027v-.002l-.002-.003a9.45 9.45 0 00-.277-.801c-.172-.43-.419-.945-.71-1.224l-.139.144c.257.246.49.723.663 1.154a9.214 9.214 0 01.254.724l.014.046.003.012.001.003v.001l.096-.027zm-.893-2.058a3.264 3.264 0 00-2.09-.9l-.01.199c.735.037 1.43.338 1.962.846l.138-.145zM36.91 23.9c-.35.004-.699.068-1.028.19l.07.187a2.86 2.86 0 01.96-.177l-.002-.2zm-.894.283V5h-.2v19.183h.2zm0-19.183a5.106 5.106 0 00-1.495-3.604l-.142.14A4.906 4.906 0 0135.816 5h.2zm-1.495-3.604A5.106 5.106 0 0030.917-.1v.2a4.904 4.904 0 013.462 1.437l.142-.141zM30.916-.1H10.911v.2h20.005v-.2zm-20.005 0a5.106 5.106 0 00-3.604 1.496l.141.14A4.906 4.906 0 0110.911.1v-.2zM7.307 1.396A5.106 5.106 0 005.81 5h.2a4.906 4.906 0 011.437-3.463l-.141-.141zM5.81 5v12.268h.2V5h-.2zm.13 12.172a3.614 3.614 0 00-2.29.047l.067.188a3.413 3.413 0 012.164-.044l.06-.19zm-2.29.046a3.979 3.979 0 00-1.67 1.117l.15.133a3.78 3.78 0 011.586-1.06l-.065-.19zm-1.67 1.117a3.979 3.979 0 00-.912 1.79l.195.043a3.779 3.779 0 01.866-1.7l-.15-.133zm-.912 1.79a3.926 3.926 0 00.056 1.955l.192-.056a3.726 3.726 0 01-.053-1.855l-.195-.044zm.056 1.955c.184.636.525 1.216.993 1.685l.141-.142a3.726 3.726 0 01-.942-1.599l-.192.056zm.993 1.685l2.956 2.956.141-.142-2.956-2.956-.141.142zm2.981 2.796a3.838 3.838 0 00-1.832 1.997l.186.074a3.638 3.638 0 011.736-1.893l-.09-.178zm-1.832 1.997a3.838 3.838 0 00-.056 2.71l.19-.068a3.638 3.638 0 01.053-2.569l-.186-.074zm.023 2.577a3.9 3.9 0 00-2.15 1.087l.142.142a3.7 3.7 0 012.039-1.031l-.03-.198zm-2.15 1.087a3.925 3.925 0 00-.852 1.274l.185.077c.187-.452.462-.863.81-1.21l-.142-.14zm-.852 1.274c-.198.477-.3.988-.3 1.504h.2c0-.49.097-.975.285-1.427l-.185-.077zM-.012 35c0 .516.102 1.027.3 1.504l.185-.077A3.724 3.724 0 01.188 35h-.2zm.3 1.504c.198.476.487.91.853 1.274l.141-.142a3.724 3.724 0 01-.81-1.209l-.184.077zm.853 1.274l1.636 1.636.141-.142-1.636-1.636-.141.142zm1.68 1.469a3.881 3.881 0 00-1.682.975l.14.142a3.681 3.681 0 011.595-.925l-.053-.192zm-1.682.975A3.932 3.932 0 00-.011 43h.2c0-.989.393-1.937 1.091-2.636l-.141-.142zM-.011 43c0 1.041.414 2.04 1.15 2.778l.141-.142A3.732 3.732 0 01.19 43h-.2zm1.15 2.778l4 4 .141-.142-4-4-.141.142zm4 4c.218.213.459.4.719.557l.103-.172a3.728 3.728 0 01-.682-.527l-.14.142zm.67.471V51h.2v-.751h-.2zm0 .751a5.106 5.106 0 001.496 3.605l.141-.142A4.906 4.906 0 016.01 51h-.2zm1.496 3.605a5.106 5.106 0 003.604 1.495v-.2a4.906 4.906 0 01-3.463-1.437l-.141.142zm3.604 1.495h9.586v-.2H10.91v.2zm9.516-.03l3.707 3.708.141-.142-3.707-3.707-.141.142zm3.707 3.708a1.1 1.1 0 00.357.239l.077-.185a.9.9 0 01-.293-.196l-.141.142zm.357.239a1.1 1.1 0 00.423.083v-.2a.901.901 0 01-.346-.068l-.076.185zm.422.083h23v-.2h-23v.2zm23 0a1.1 1.1 0 00.611-.185l-.11-.166a.9.9 0 01-.5.151v.2zm.611-.185a1.1 1.1 0 00.406-.494l-.185-.076a.9.9 0 01-.332.404l.111.166zM15.913 2.1h10v-.2h-10v.2zm9.9-.1v2h.2V2h-.2zm.1 1.9h-10v.2h10v-.2zm-9.9.1V2h-.2v2h.2zm-8 15V5h-.2v14h.2zm0-14a2.9 2.9 0 01.849-2.05l-.142-.142A3.1 3.1 0 007.811 5h.2zm.849-2.05a2.9 2.9 0 012.05-.85v-.2a3.1 3.1 0 00-2.192.908l.142.141zm2.05-.85h3v-.2h-3v.2zm2.9-.1v3h.2V2h-.2zm0 3c0 .292.116.572.323.778l.141-.142A.9.9 0 0114.011 5h-.2zm.323.778a1.1 1.1 0 00.777.322v-.2a.9.9 0 01-.636-.264l-.141.142zm.777.322h12v-.2h-12v.2zm12 0a1.1 1.1 0 00.778-.322l-.141-.142a.9.9 0 01-.637.264v.2zm.778-.322A1.1 1.1 0 0028.011 5h-.2a.9.9 0 01-.263.636l.141.142zM28.011 5V2h-.2v3h.2zm-.1-2.9h3v-.2h-3v.2zm3 0a2.9 2.9 0 012.051.85l.141-.142a3.1 3.1 0 00-2.192-.908v.2zm2.051.85a2.9 2.9 0 01.85 2.05h.2a3.1 3.1 0 00-.909-2.192l-.141.141zm.85 2.05v41h.2V5h-.2zm.1 40.9H11.595v.2H33.91v-.2zm-22.219.075a3.89 3.89 0 00-.995-1.752l-.143.14a3.69 3.69 0 01.945 1.662l.193-.05zm-.996-1.753L9.055 42.58l-.141.142 1.642 1.642.141-.142zm-1.686-1.474a3.854 3.854 0 002.058-1.391l-.16-.12a3.654 3.654 0 01-1.95 1.317l.052.194zm2.058-1.391a3.854 3.854 0 00.782-2.358l-.2.002a3.653 3.653 0 01-.741 2.235l.16.12zm.782-2.358a3.9 3.9 0 00-.221-1.241l-.189.066c.134.379.205.776.21 1.177l.2-.002zm-.3-1.11a3.834 3.834 0 001.57-.612l-.113-.165c-.446.301-.955.5-1.488.58l.03.198zm1.57-.612c.47-.317.815-.664 1.154-1.225l-.171-.104a3.439 3.439 0 01-1.096 1.164l.112.165zm1.154-1.225c.213-.352.357-.658.447-.981.09-.323.126-.66.127-1.07l-.2-.001c0 .4-.035.716-.12 1.017-.084.3-.219.589-.425.931l.171.104zm.574-2.06c-.04-.515-.103-.9-.233-1.264s-.326-.702-.623-1.125l-.164.114c.292.417.477.738.599 1.078.121.34.183.705.222 1.213l.2-.016zm-.866-2.402l-1.293-1.33c-.2-.208-.378-.39-.504-.52l-.149-.153-.04-.041a.709.709 0 01-.013-.014l-.073.069-.071.07.003.003.01.011.04.041.15.153a6920.824 6920.824 0 001.797 1.852l.143-.14zm-2-2.06l-2.29-2.29-.142.142 2.29 2.289.141-.142zM9.69 27.24a3.955 3.955 0 00-1.754-.994l-.051.194c.627.165 1.201.49 1.666.943l.14-.144zm-1.68-.897V19h-.2v7.343h.2zM3.674 22.21a1.738 1.738 0 01-.435-.745l-.192.054c.089.314.255.6.484.831l.143-.14zm-.435-.745a1.737 1.737 0 01-.022-.863l-.195-.044c-.073.317-.064.648.025.961l.192-.054zm-.022-.863a1.79 1.79 0 01.42-.815l-.148-.134a1.987 1.987 0 00-.467.905l.195.044zm.42-.815c.209-.23.473-.402.769-.499l-.063-.19a1.986 1.986 0 00-.854.555l.148.134zm.771-.5a1.32 1.32 0 01.452-.078v-.2c-.177 0-.353.03-.52.09l.068.188zm.451-.078c.357.005.704.12.994.33l.117-.162a1.933 1.933 0 00-1.108-.368l-.003.2zm.952.249v5.131h.2v-5.131h-.2zm.171 5.06L3.673 22.21l-.141.142L5.84 24.66l.141-.142zM5.697 28.8a1.812 1.812 0 011.233-.5l-.002-.2c-.51.005-.998.203-1.368.555l.138.144zm1.233-.5c.456-.002.894.178 1.218.498l.14-.142a1.925 1.925 0 00-1.359-.556v.2zm1.218.498l3.994 3.993.141-.142-3.994-3.993-.141.142zm3.994 3.993c.327.326.512.768.514 1.23l.2-.002a1.95 1.95 0 00-.573-1.37l-.141.142zm.514 1.228a1.73 1.73 0 01-.116.613l.187.072c.084-.218.128-.45.13-.683l-.2-.002zm-.117.615a1.63 1.63 0 01-.39.607l.14.142c.195-.191.345-.424.438-.68l-.188-.07zm-.39.607c-.3.3-.697.48-1.119.506l.013.2c.47-.03.914-.23 1.247-.564l-.141-.142zm-1.119.506a1.734 1.734 0 01-1.173-.361l-.123.158c.373.29.838.432 1.309.403l-.013-.2zm-1.164-.353l-4.162-4.153-.141.142 4.162 4.153.141-.142zm-4.162-4.153a1.715 1.715 0 01-.376-.56l-.185.077c.097.234.24.447.42.625l.14-.142zm-.376-.56a1.715 1.715 0 01-.132-.66l-.2-.001c0 .253.05.504.147.738l.185-.077zm-.132-.66c.001-.459.183-.898.505-1.224l-.143-.14c-.359.363-.56.852-.562 1.363h.2zm-2.496 6.2a1.73 1.73 0 01-.473-.887l-.196.04c.074.374.258.718.528.989l.141-.142zm-.473-.887a1.73 1.73 0 01.1-1l-.184-.077a1.93 1.93 0 00-.112 1.116l.196-.039zm.1-1a1.73 1.73 0 01.64-.776l-.111-.166a1.93 1.93 0 00-.713.865l.184.077zm.64-.776c.285-.19.62-.29.962-.289v-.2a1.93 1.93 0 00-1.073.323l.11.166zm.962-.289c.39 0 .768.134 1.072.378l.125-.156a1.92 1.92 0 00-1.196-.422v.2zm1.064.37l4.149 4.138.141-.142-4.15-4.135-.141.142zm4.147 4.136c.313.327.485.763.48 1.215l.2.002a1.929 1.929 0 00-.535-1.355l-.145.138zm.48 1.215a1.729 1.729 0 01-.506 1.204l.142.141a1.93 1.93 0 00.565-1.343l-.2-.002zm-.506 1.204c-.32.32-.752.501-1.204.506l.002.2a1.929 1.929 0 001.344-.565l-.142-.141zM7.91 40.7a1.729 1.729 0 01-1.214-.48l-.139.144c.365.35.851.541 1.355.536l-.002-.2zm-1.213-.479l-3.997-4-.141.142 3.997 4 .141-.142zm.003 8l-4-4-.141.142 4 4 .141-.142zm-3.997-3.997a1.73 1.73 0 01-.459-1.207l-.2-.004c-.01.498.174.98.512 1.347l.147-.136zm-.459-1.207c.01-.446.19-.872.506-1.188l-.142-.141a1.93 1.93 0 00-.564 1.325l.2.004zm.506-1.188a1.728 1.728 0 011.187-.507l-.004-.2a1.93 1.93 0 00-1.325.566l.142.141zm1.187-.507c.447-.009.88.155 1.208.458l.135-.148a1.929 1.929 0 00-1.347-.51l.004.2zm1.205.455l4 4 .141-.142-4-4-.141.142zm3.998 3.998c.313.327.485.763.48 1.215l.2.002a1.929 1.929 0 00-.535-1.355l-.145.138zm.48 1.215a1.729 1.729 0 01-.506 1.204l.142.141a1.93 1.93 0 00.565-1.343l-.2-.002zm-.506 1.204c-.32.32-.752.501-1.204.506l.002.2a1.929 1.929 0 001.344-.565l-.142-.141zM7.91 48.7a1.729 1.729 0 01-1.214-.48l-.139.144c.365.35.851.541 1.355.536l-.002-.2zm-1.284-.308h.003v-.2h-.003v.2zm4.286 5.507a2.9 2.9 0 01-2.05-.85l-.142.142a3.1 3.1 0 002.192.908v-.2zm-2.05-.85A2.9 2.9 0 018.01 51h-.2a3.1 3.1 0 00.908 2.192l.142-.141zM8.01 51v-.175h-.2V51h.2zm-.1-.075h.008v-.2H7.91v.2zm.008 0a3.872 3.872 0 002.385-.801l-.122-.16a3.672 3.672 0 01-2.262.761l-.001.2zm2.385-.801a3.872 3.872 0 001.39-2.099l-.194-.05a3.671 3.671 0 01-1.318 1.99l.122.158zm1.292-2.024H33.91v-.2H11.596v.2zM33.81 48v3h.2v-3h-.2zm0 3a2.9 2.9 0 01-.849 2.05l.141.142A3.1 3.1 0 0034.011 51h-.2zm-.849 2.05a2.9 2.9 0 01-2.05.85v.2a3.1 3.1 0 002.191-.908l-.141-.141zm-2.05.85h-20v.2h20v-.2zm-5.516 4.03l-2-2-.141.14 2 2 .141-.14zm-2.07-1.83h7.585v-.2h-7.586v.2zm7.586 0a5.106 5.106 0 003.604-1.495l-.142-.142A4.906 4.906 0 0130.91 55.9v.2zm3.604-1.495A5.106 5.106 0 0036.01 51h-.2a4.906 4.906 0 01-1.437 3.463l.142.142zM36.01 51V26.994h-.2V51h.2zm0-24.005a.9.9 0 01.266-.633l-.141-.142a1.1 1.1 0 00-.325.773l.2.002zm.266-.633a.9.9 0 01.634-.262v-.2a1.1 1.1 0 00-.775.32l.14.142zm.634-.262c.094 0 .199.054.312.158.11.102.216.241.308.385a4.158 4.158 0 01.299.563l.004.009.001.002.092-.038.093-.039-.002-.004a.499.499 0 00-.022-.049 4.51 4.51 0 00-.297-.551 2.205 2.205 0 00-.34-.425c-.128-.117-.28-.211-.448-.211v.2zm1.016 1.079l-.095.03v.001l.001.003a.985.985 0 01.005.014l.017.056.065.214c.055.187.135.458.23.798.19.679.444 1.63.695 2.714.502 2.17.992 4.871.953 7.01l.2.003c.04-2.164-.455-4.885-.958-7.058a61.527 61.527 0 00-.994-3.74l-.017-.056-.005-.014a.074.074 0 00-.001-.005l-.096.03zm1.871 10.84c-.024 1.335-.293 2.36-.546 3.397-.253 1.037-.488 2.084-.43 3.446l.2-.008c-.056-1.333.172-2.357.424-3.39.252-1.035.528-2.08.552-3.442l-.2-.004zm-.977 6.843a58.827 58.827 0 01.028.754l.002-.015.004-.012a.171.171 0 01.016-.028.175.175 0 01.077-.036.176.176 0 01.073.033.093.093 0 01.021.035l.003.01v-.01a59.516 59.516 0 01-.072-1.37c-.001-.012-.001-.013-.002-.009a.094.094 0 01-.01.037.18.18 0 01-.05.044.17.17 0 01-.102-.014.177.177 0 01-.025-.03.228.228 0 01-.006-.014l-.004-.015.003.03.012.168.053.828.2-.012a123.246 123.246 0 00-.07-1.04v-.007l-.005-.018a.166.166 0 00-.006-.014.185.185 0 00-.026-.031.17.17 0 00-.102-.014.178.178 0 00-.049.044c-.008.016-.01.03-.01.03a.174.174 0 00-.002.01v.032l.001.047.006.148a64.677 64.677 0 00.066 1.189.275.275 0 00.008.045s.005.02.021.036a.17.17 0 00.073.032.174.174 0 00.078-.036.18.18 0 00.016-.027.168.168 0 00.004-.013c.003-.014.003-.027.003-.027l-.001-.108a61.55 61.55 0 00-.026-.66l-.2.008zm.02.386c.196 3.22.463 5.195 2.013 8.042l.175-.096c-1.53-2.81-1.793-4.75-1.988-7.958l-.2.012zm2.013 8.042c.1.184.157.287.264.468l.172-.102a11.879 11.879 0 01-.26-.462l-.176.096zm.264.468c.615 1.033 1.698 2.115 2.62 2.934a27.69 27.69 0 001.691 1.382l.007.005.002.001.06-.08.059-.08-.001-.001-.002-.001a.244.244 0 00-.006-.005l-.026-.019-.099-.075a27.41 27.41 0 01-1.551-1.276c-.92-.817-1.984-1.882-2.582-2.887l-.172.102zm4.38 4.142H25.324v.2h20.172v-.2z" fill="#EFF3FB" mask="url(#a)"/><path d="M18.912 51a1 1 0 011-1h2a1 1 0 110 2h-2a1 1 0 01-1-1z" fill="#0D142E"/><mask id="b" maskUnits="userSpaceOnUse" x="7" y="9" width="27" height="36"><path d="M7.964 9H34v36H7v-4c1.461.762 2.318.252 3.857-1-.235-2.461-1.352-3.446-3.857-5 9.16 4 8.679-2 .964-8.5V9z" fill="#C4C4C4"/></mask><g mask="url(#b)"><path d="M21 9c9.941 0 18 8.059 18 18s-8.059 18-18 18S3 36.941 3 27c.011-9.936 8.063-17.989 18-18zm0 34.8c9.278 0 16.8-7.522 16.8-16.8S30.278 10.2 21 10.2 4.2 17.722 4.2 27c.01 9.274 7.526 16.79 16.8 16.8z" fill="#0D142E"/><path d="M20.998 41.398c7.95-.01 14.391-6.451 14.4-14.4a.6.6 0 011.2 0c-.01 8.612-6.988 15.59-15.6 15.6a.6.6 0 110-1.2zM21 11.4a.6.6 0 110 1.2c-7.95.009-14.391 6.45-14.4 14.4a.6.6 0 11-1.2 0c.01-8.612 6.988-15.591 15.6-15.6z" fill="#AC252B"/><path d="M7.919 25.224v-.003a13.14 13.14 0 012.644-6.293l.004-.006.004-.004a13.2 13.2 0 018.647-4.992h.005a12.911 12.911 0 013.547 0h.005a13.13 13.13 0 016.293 2.644h.006l.004.005a13.182 13.182 0 015.001 12.201v.007a13.137 13.137 0 01-2.644 6.293l-.004.006-.004.003a13.14 13.14 0 01-12.19 4.997h-.016a13.14 13.14 0 01-6.293-2.644l-.007-.004-.003-.004a13.182 13.182 0 01-4.999-12.202v-.005zm1.287-.395l1.773.295c.09-.48.216-.954.376-1.417l-1.642-.746c-.22.608-.389 1.233-.507 1.868zm1.937-4.656a11.97 11.97 0 00-.967 1.68l1.637.746c.209-.444.45-.872.72-1.282l-1.39-1.144zm.736-.948l1.386 1.146c.32-.37.666-.719 1.035-1.041l-1.05-1.474c-.493.419-.951.876-1.371 1.369zm3.998-3.058c-.584.273-1.144.593-1.676.957l1.043 1.464c.405-.274.828-.519 1.268-.732l-.635-1.69zm2.949-.958c-.626.116-1.241.283-1.84.498l.63 1.684c.49-.175.993-.31 1.504-.408l-.294-1.774zm2.173-.207c-.332 0-.66.023-.983.05l.3 1.785c.225-.015.451-.035.683-.035.232 0 .459.02.686.035l.297-1.785a12.04 12.04 0 00-.983-.05zm2.173.207l-.295 1.773c.48.091.954.217 1.417.376l.746-1.64c-.608-.22-1.233-.39-1.868-.51zm2.976.97l-.746 1.636c.444.21.872.45 1.282.72l1.144-1.39a11.972 11.972 0 00-1.68-.966zm2.628 1.703l-1.146 1.386c.37.32.719.666 1.041 1.035l1.474-1.05a12.14 12.14 0 00-1.369-1.371zm2.1 2.322l-1.463 1.043c.274.404.518.828.732 1.268l1.69-.635a11.924 11.924 0 00-.958-1.676zm1.418 2.785l-1.684.63c.166.463.298.937.395 1.418l1.792-.173a11.887 11.887 0 00-.503-1.875zm.705 4.013c0-.32-.023-.634-.048-.949l-1.792.17c.02.258.04.516.04.78 0 .232-.02.46-.035.686l1.785.297c.027-.324.05-.652.05-.984zm-.207 2.172l-1.773-.294c-.09.48-.216.954-.376 1.417l1.641.746c.22-.608.39-1.233.508-1.869zm-1.937 4.657c.367-.533.69-1.095.967-1.68l-1.637-.746c-.209.444-.45.872-.72 1.282l1.39 1.144zm-.736.948l-1.386-1.147c-.32.372-.666.72-1.035 1.042l1.05 1.474a12.1 12.1 0 001.371-1.369zm-3.998 3.058a11.918 11.918 0 001.676-.957l-1.043-1.464a10.21 10.21 0 01-1.268.732l.635 1.69zm-2.984.963a11.898 11.898 0 001.875-.503l-.63-1.684c-.463.166-.937.298-1.418.395l.173 1.792zm-2.138.202c.32 0 .634-.024.949-.048l-.17-1.792c-.258.02-.516.04-.78.04-.232 0-.46-.02-.687-.035l-.296 1.785c.324.026.652.05.984.05zm0-3a8.946 8.946 0 003.484-.703l.03-.012a8.996 8.996 0 004.783-11.769l-.012-.03a9 9 0 00-11.769-4.784l-.03.013a9 9 0 00-4.77 11.8 9.013 9.013 0 008.284 5.485zm-2.173 2.793l.295-1.773c-.48-.091-.954-.217-1.417-.376l-.746 1.64c.608.22 1.233.39 1.868.509zm-2.976-.97l.746-1.637a10.013 10.013 0 01-1.282-.72l-1.144 1.39c.533.368 1.095.69 1.68.967zm-2.628-1.703l1.146-1.386c-.37-.32-.719-.666-1.041-1.035l-1.474 1.05c.419.493.877.951 1.369 1.371zm-2.1-2.322l1.463-1.043a10.21 10.21 0 01-.732-1.268l-1.69.635c.274.584.594 1.144.958 1.676zm-1.418-2.785l1.681-.63a10.117 10.117 0 01-.395-1.418l-1.792.173c.117.637.286 1.264.506 1.875zm-.657-3.064l1.792-.17a10.13 10.13 0 01-.04-.78c0-.23.02-.458.035-.686l-1.785-.296c-.027.323-.05.651-.05.983 0 .32.023.634.048.949z" fill="#0D142E"/><path d="M13.2 27.004a1.8 1.8 0 011.8-1.8h3.616c.167-.221.364-.418.585-.585v-3.615a1.8 1.8 0 013.6 0v3.615c.22.167.417.364.584.585H27a1.8 1.8 0 010 3.6h-3.615c-.167.22-.364.417-.585.584v3.616a1.8 1.8 0 11-3.6 0v-3.616a2.995 2.995 0 01-.584-.584h-3.615a1.8 1.8 0 01-1.8-1.8zm10.74.6H27a.6.6 0 100-1.2h-3.06a3 3 0 010 1.2zm-2.34-6.6a.6.6 0 00-1.2 0v3.06a3 3 0 011.2 0v-3.06zm-1.2 12a.6.6 0 101.2 0v-3.06a3 3 0 01-1.2 0v3.06zm.6-4.2a1.8 1.8 0 100-3.6 1.8 1.8 0 000 3.6zm-6-1.2h3.06a3 3 0 010-1.2H15a.6.6 0 100 1.2z" fill="#0D142E"/><circle cx="21" cy="27" r="1" fill="#AC252B"/></g></svg>