<svg width="50" height="60" fill="none" xmlns="http://www.w3.org/2000/svg"><path d="M45.165 13.746v17.257h0a1.09 1.09 0 01-.073.366l-.132.338-.06-.357a3.9 3.9 0 00-3.835-3.25h-.1V28a2.9 2.9 0 00-2.9-2.9h-1.1V5a4.907 4.907 0 00-4.9-4.9h-26a4.906 4.906 0 00-4.9 4.9s0 0 0 0m44 8.746L1.065 5h.1m44 8.746l-.066-.024a2.894 2.894 0 01.966-5.622h0a2.894 2.894 0 01.967 5.622l-.067.024V31a2.9 2.9 0 01-1.933 2.722l-.067.023V34a3.9 3.9 0 01-3.9 3.9h-.1v.1a2.9 2.9 0 01-2.9 2.9h-1.1V55a4.906 4.906 0 01-4.9 4.9h-26m39.1-46.154L6.065 59.9M1.165 5v5.1h-.1a.9.9 0 00-.9.9v4a.9.9 0 00.9.9h.1v2.2h-.1a.9.9 0 00-.9.9v4a.9.9 0 00.9.9h.1V55h0m0-50v50m0 0a4.905 4.905 0 004.9 4.9m-4.9-4.9l4.9 4.9m9.026-1.8h.204l-.125-.16a4.8 4.8 0 010-5.878l.125-.162H2.965V55a3.1 3.1 0 003.1 3.1h9.026zm7.869-.16l-.125.16h9.23a3.1 3.1 0 003.1-3.1v-3.1h-12.33l.125.162a4.8 4.8 0 010 5.877zm12.105-7.84h.1V9.9h-32.2v40.2h32.1zm0-42h.1V5a3.1 3.1 0 00-3.1-3.1h-26a3.1 3.1 0 00-3.1 3.1v3.1h32.1zm1.9 30.9v.1h1.1a1.1 1.1 0 001.1-1.1V28a1.1 1.1 0 00-1.1-1.1h-1.1V39zm4-3v.1h.1a2.1 2.1 0 002.1-2.1v-2a2.1 2.1 0 00-2.1-2.1h-.1V36zm-25 19a3.1 3.1 0 106.2 0 3.1 3.1 0 00-6.2 0zm29-44a1.1 1.1 0 102.2 0 1.1 1.1 0 00-2.2 0z" fill="#0D142E" stroke="#D9DDE5" stroke-width=".2"/><path d="M19.965 5a.9.9 0 11-1.8 0 .9.9 0 011.8 0z" fill="#AC252B" stroke="#D9DDE5" stroke-width=".2"/><path d="M11.26 35.231l.07.06.065-.065 1.416-1.417.079-.078-.086-.07a9.97 9.97 0 01-1.4-1.4l-.07-.086-.078.078L9.84 33.67l-.065.066.06.07c.436.513.912.99 1.426 1.425zm-.295-9.23v0a8.109 8.109 0 008.1 8.099h0a8.1 8.1 0 10-8.1-8.1zm5.075 11.696l.125.032v-2.263l-.07-.022a9.867 9.867 0 01-1.602-.676l-.065-.035-.052.052-1.465 1.465-.09.091.11.066a11.98 11.98 0 003.11 1.29zm4.034.347l.091-.008v-2.202l-.11.01a9.76 9.76 0 01-1.98 0l-.11-.01v2.202l.092.008c.332.028.666.051 1.008.051.342 0 .677-.023 1.009-.051zm1.891-.444v.129l.125-.032a12.008 12.008 0 003.109-1.285l.111-.065-.091-.092-1.464-1.464-.052-.052-.066.034c-.513.27-1.05.494-1.602.67l-.07.023v2.133zm3.353-3.796l1.388 1.387v.18l.165-.14c.513-.437.99-.916 1.426-1.43l.059-.07-.065-.066-1.417-1.417-.079-.078-.07.086a9.936 9.936 0 01-1.4 1.4l-.085.07.078.078zm2.537-3.12l1.436 1.435v.33l.186-.315a12.028 12.028 0 001.29-3.109l.032-.125h-2.268l-.022.07a9.843 9.843 0 01-.672 1.596l-.034.066.052.052zm3.16-3.584h.091l.008-.092c.028-.331.051-.665.051-1.008 0-.343-.023-.677-.051-1.008l-.008-.092h-2.202l.01.11a9.687 9.687 0 010 1.98l-.01.11h2.11zm-1.538-7.234l-.065-.11-.091.09-1.466 1.466-.052.052.034.065c.271.513.496 1.049.672 1.601l.022.07H30.8l-.033-.125a12.034 12.034 0 00-1.29-3.109zm-2.606-3.097l-.07-.06-.066.066-1.417 1.417-.078.078.086.07c.512.418.98.887 1.4 1.4l.07.085.078-.078 1.417-1.417.065-.065-.06-.07a12.38 12.38 0 00-1.425-1.426zm-4.78-2.466l-.126-.032v2.263l.07.023a9.746 9.746 0 011.602.676l.065.034.053-.052 1.464-1.465.09-.091-.11-.066a12.02 12.02 0 00-3.109-1.29zm-4.034-.347l-.092.008v2.203l.11-.011a9.716 9.716 0 011.98 0l.11.011v-2.203l-.091-.008a11.958 11.958 0 00-1.01-.051c-.341 0-.676.024-1.007.051zm-1.892.444v-.13l-.125.033a12.02 12.02 0 00-3.109 1.29l-.11.066.09.09 1.465 1.466.052.052.065-.034a9.793 9.793 0 011.603-.671l.07-.022V14.4zm-3.353 3.796l-1.388-1.388v-.18l-.165.141c-.513.437-.99.916-1.425 1.43l-.06.07.065.066 1.417 1.417.078.078.07-.086a9.95 9.95 0 011.4-1.4l.086-.07-.079-.078zm-2.537 3.12l-1.436-1.435v-.33l-.186.315a12.012 12.012 0 00-1.285 3.11l-.032.124H9.6l.022-.07a9.837 9.837 0 01.671-1.596l.035-.065-.052-.053zM7.115 24.9h-.091l-.008.092c-.028.331-.05.666-.05 1.008 0 .342.022.677.05 1.008l.008.092h2.202l-.01-.11a9.767 9.767 0 010-1.98l.01-.11h-2.11zm2.506 4.07L9.6 28.9H7.46v.101l-.092.024c.28 1.091.713 2.138 1.285 3.109l.066.111.091-.091 1.465-1.465.052-.052-.034-.065a9.833 9.833 0 01-.672-1.602zM32.965 26c0 7.677-6.223 13.9-13.9 13.9-7.673-.008-13.891-6.227-13.9-13.9 0-7.677 6.223-13.9 13.9-13.9 7.677 0 13.9 6.224 13.9 13.9z" fill="#0D142E" stroke="#D9DDE5" stroke-width=".2"/><path d="M14.965 26a4.055 4.055 0 00.82 2.46.9.9 0 01.085.942h0a.9.9 0 01-1.525.138h0a5.856 5.856 0 01-1.18-3.54v0a.9.9 0 011.8 0zm0 0s0 0 0 0h.1m-.1 0s0 0 0 0h.1m0 0a1 1 0 10-2 0l2.895 3.447a1 1 0 00-.095-1.047 3.955 3.955 0 01-.8-2.4zm1.54-3.28h0a.9.9 0 01-1.26-.18h0a.9.9 0 01.18-1.26 5.909 5.909 0 018.26 1.181.898.898 0 01.107.893h0a.898.898 0 01-.72.54h0a.9.9 0 01-.827-.353h0a4.106 4.106 0 00-5.74-.82z" fill="#AC252B" stroke="#D9DDE5" stroke-width=".2"/><path d="M14.065 42.1h10a2.9 2.9 0 010 5.8h-10a2.9 2.9 0 010-5.8zm0 4h10a1.1 1.1 0 000-2.2h-10a1.1 1.1 0 000 2.2z" fill="#0D142E" stroke="#D9DDE5" stroke-width=".2"/></svg>