<svg width="60" height="60" fill="none" xmlns="http://www.w3.org/2000/svg"><path d="M51.213 8.787C45.547 3.12 38.013 0 30 0 21.986 0 14.453 3.12 8.786 8.787 3.12 14.453 0 21.987 0 30c0 8.013 3.12 15.547 8.786 21.213C14.453 56.879 21.986 60 30 60c8.013 0 15.546-3.12 21.213-8.787C56.879 45.546 60 38.013 60 30c0-8.013-3.12-15.547-8.787-21.213zm6.793 20.226h-3.24a24.694 24.694 0 00-6.564-15.82l2.29-2.29c4.461 4.784 7.271 11.126 7.514 18.11zM30 46.703c-9.21 0-16.704-7.493-16.704-16.703 0-9.21 7.494-16.704 16.704-16.704S46.703 20.79 46.703 30 39.211 46.704 30 46.704zm8.737 4.369a22.623 22.623 0 01-5.767 1.547l-.36-4.124a18.53 18.53 0 004.378-1.174l1.75 3.75zM16.12 17.516a18.758 18.758 0 00-2.603 3.708l-3.752-1.75a22.922 22.922 0 013.429-4.885l2.926 2.927zm-1.53-4.323a22.925 22.925 0 014.885-3.429l1.75 3.752a18.771 18.771 0 00-3.71 2.604l-2.925-2.927zm-1.91 9.819a18.513 18.513 0 00-1.175 4.379l-4.125-.362c.263-2.016.791-3.95 1.547-5.768l3.753 1.75zm-1.346 6.346a18.683 18.683 0 00.393 4.516l-4 1.071a22.807 22.807 0 01-.517-5.949l4.124.362zm.905 6.423a18.604 18.604 0 001.92 4.104l-3.39 2.375a22.72 22.72 0 01-2.53-5.408l4-1.071zm3.054 5.72a18.84 18.84 0 003.204 3.205l-2.372 3.389a23.01 23.01 0 01-4.22-4.22l3.388-2.373zm4.82 4.339a18.593 18.593 0 004.106 1.92l-1.072 4a22.724 22.724 0 01-5.407-2.53l2.374-3.39zm1.15-36.913a22.626 22.626 0 015.767-1.548l.361 4.126a18.51 18.51 0 00-4.378 1.174l-1.75-3.752zm23.442 9.57a18.843 18.843 0 00-3.203-3.203l2.373-3.39a23.007 23.007 0 014.22 4.22l-3.39 2.373zm4.525-.758a22.723 22.723 0 012.53 5.408l-3.999 1.072a18.608 18.608 0 00-1.922-4.106l3.391-2.374zm-9.344-3.579a18.6 18.6 0 00-4.106-1.921l1.073-4a22.737 22.737 0 015.407 2.53l-2.374 3.391zm2.598 29.72l2.926 2.925a22.907 22.907 0 01-4.884 3.43l-1.75-3.751a18.77 18.77 0 003.708-2.604zm1.396-1.396a18.767 18.767 0 002.604-3.709l3.75 1.75a22.916 22.916 0 01-3.428 4.884l-2.926-2.925zm3.44-5.497c.562-1.385.96-2.852 1.175-4.378l4.124.36a22.624 22.624 0 01-1.547 5.767l-3.751-1.75zm1.346-6.345a18.68 18.68 0 00-.393-4.516l3.998-1.072a22.81 22.81 0 01.518 5.948l-4.123-.36zM30.987 1.994c6.984.243 13.325 3.052 18.109 7.513l-2.29 2.29a24.692 24.692 0 00-15.819-6.564v-3.24zm3.958 5.734l-1.072 3.999a18.676 18.676 0 00-4.514-.393l-.362-4.125a22.808 22.808 0 015.948.518zm-5.932-5.735v3.24a24.693 24.693 0 00-15.82 6.564l-2.299-2.299a27.807 27.807 0 0118.119-7.505zM9.498 10.894l2.3 2.3a24.694 24.694 0 00-6.565 15.819h-3.24a27.807 27.807 0 017.505-18.119zM1.994 30.987h3.24a24.691 24.691 0 006.563 15.819l-2.29 2.29c-4.46-4.784-7.27-11.126-7.513-18.109zm27.019 27.02c-6.984-.244-13.326-3.054-18.11-7.515l2.29-2.29a24.695 24.695 0 0015.82 6.564v3.24zm-3.959-5.736l1.072-3.998a18.675 18.675 0 004.516.393l.361 4.123a22.805 22.805 0 01-5.948-.518zm5.933 5.735v-3.24a24.693 24.693 0 0015.819-6.564l2.29 2.29c-4.784 4.461-11.125 7.271-18.109 7.514zm19.505-8.91l-2.29-2.29a24.693 24.693 0 006.564-15.819h3.24c-.243 6.984-3.053 13.325-7.514 18.11z" fill="#0D142E"/><path d="M40.246 36.082a2.946 2.946 0 00-3.342-.575l-4.247-4.247a2.952 2.952 0 000-2.52l4.247-4.248a2.934 2.934 0 003.341-.575 2.947 2.947 0 000-4.162 2.947 2.947 0 00-4.162 0 2.946 2.946 0 00-.575 3.341l-4.248 4.248a2.953 2.953 0 00-2.52 0l-4.248-4.248a2.946 2.946 0 00-.575-3.342 2.947 2.947 0 00-4.162 0 2.947 2.947 0 000 4.163 2.934 2.934 0 003.341.575l4.248 4.248a2.953 2.953 0 000 2.52l-4.248 4.247a2.946 2.946 0 00-3.341.576 2.947 2.947 0 000 4.162c.573.574 1.327.861 2.081.861s1.508-.287 2.081-.86a2.946 2.946 0 00.575-3.343l4.248-4.247c.398.188.829.286 1.26.286a2.95 2.95 0 001.26-.286l4.248 4.247a2.946 2.946 0 00.575 3.342 2.935 2.935 0 002.081.861c.754 0 1.508-.287 2.082-.86a2.947 2.947 0 000-4.164zm-2.767-14.931a.962.962 0 01.685-.284.97.97 0 11-.685 1.654.962.962 0 01-.284-.685c0-.259.1-.502.284-.685zM22.52 22.52a.97.97 0 01-1.654-.685c0-.26.1-.502.284-.685a.962.962 0 01.685-.284.97.97 0 01.685 1.654zm0 16.328a.97.97 0 01-1.37-1.37.966.966 0 011.37 0 .97.97 0 010 1.37zm8.164-8.164a.97.97 0 01-1.37-1.37.962.962 0 01.685-.284.97.97 0 01.685 1.654zm8.164 8.164a.97.97 0 01-1.37-1.37.966.966 0 01.685-.283.97.97 0 01.685 1.654z" fill="#0D142E"/><circle cx="30" cy="30" r="2" fill="#AC252B"/><circle cx="30" cy="30" r="17.75" stroke="#AC252B" stroke-width="2.5"/></svg>