<svg width="43" height="60" fill="none" xmlns="http://www.w3.org/2000/svg"><path d="M34.936 53.736h-.9l-1.62-13.097A21.002 21.002 0 0027.514 3.02l1.2-1.734A.82.82 0 0028.039 0H13.988a.82.82 0 00-.675 1.287l1.2 1.735a21 21 0 00-4.902 37.617l-1.62 13.096h-.9a5.19 5.19 0 00-5.184 5.184v.26a.82.82 0 00.82.821h36.57a.82.82 0 00.82-.82v-.26a5.19 5.19 0 00-5.181-5.184zM10.94 34.234l7.332-7.332c.574.405 1.23.677 1.922.797v10.378a15.037 15.037 0 01-9.255-3.842l.001-.001zM5.938 23.822h10.378a4.75 4.75 0 00.797 1.922l-7.334 7.332a15.039 15.039 0 01-3.841-9.254zm18.208-.82a3.132 3.132 0 11-6.264 0 3.132 3.132 0 016.264 0zm-3.953-11.776v7.079a4.743 4.743 0 00-1.922.797l-7.35-7.353a15.054 15.054 0 017.17-3.562l2.102 3.04zM9.76 12.906l7.353 7.354a4.748 4.748 0 00-.797 1.922H5.94a15.043 15.043 0 013.82-9.275zM21.834 27.7a4.743 4.743 0 001.922-.797l7.332 7.333a15.037 15.037 0 01-9.254 3.842V27.7zm10.415 5.376l-7.334-7.333c.405-.574.677-1.23.797-1.922H36.09a15.039 15.039 0 01-3.842 9.255zm-6.537-10.895a4.749 4.749 0 00-.797-1.922l7.354-7.352a15.043 15.043 0 013.82 9.274H25.712zm-1.957-3.08a4.743 4.743 0 00-1.922-.797v-7.079l2.102-3.037a15.054 15.054 0 017.17 3.563l-7.35 7.35zm2.719-17.462l-3.585 5.183-1.875 2.707-1.875-2.707-3.586-5.181 10.92-.002zM1.64 23.002A19.386 19.386 0 0115.49 4.43l1.594 2.302a16.726 16.726 0 00-7.97 28.027.515.515 0 00.141.14 16.705 16.705 0 0023.517 0 .516.516 0 00.14-.14 16.726 16.726 0 00-7.968-28.027l1.594-2.302A19.373 19.373 0 111.64 23zm9.51 18.548a20.96 20.96 0 0019.725 0l1.506 12.186h-3.68v-5.42a.82.82 0 00-.821-.82H14.148a.82.82 0 00-.82.82v5.42H9.645L11.15 41.55zm15.91 12.186H14.967v-4.6H27.06v4.6zM3.594 58.36a3.55 3.55 0 013.499-2.983h27.843a3.55 3.55 0 013.5 2.983H3.593z" fill="#0D142E"/><circle cx="21.014" cy="23.077" r="4.885" stroke="#AC252B"/><path d="M21.264 4.288l-.423.65-.422-.65h.845z" stroke="#AC252B" stroke-width="3"/></svg>