<svg width="40" height="38" fill="none" xmlns="http://www.w3.org/2000/svg"><path d="M36.135 8.303h-4.496V6.97c0-1.825-1.468-3.304-3.28-3.304h-5.796A3.29 3.29 0 0019.344 1H3.83A3.302 3.302 0 00.55 4.305v22.731c0 1.826 1.468 3.305 3.28 3.305h5.796a3.29 3.29 0 003.219 2.665h4.014v1.818c0 1.556 1.254 2.819 2.798 2.819h16.478c1.544 0 2.798-1.263 2.798-2.82v-23.7c0-1.557-1.254-2.82-2.798-2.82v0zM9.565 18.309L7.14 15.867a2.949 2.949 0 010-4.152 2.92 2.92 0 012.424-.84v7.434zm0-11.339v2.974c-.123-.008-.237-.016-.36-.016-2.118 0-3.83 1.733-3.83 3.86 0 1.024.405 2.002 1.124 2.726l3.073 3.097v9.813H3.838a2.368 2.368 0 01-2.363-2.38V4.305A2.355 2.355 0 013.83 1.933h15.514c1.063 0 1.988.708 2.278 1.74h-8.777a3.285 3.285 0 00-3.28 3.297v0zm7.294 11.947a10.89 10.89 0 00-.956-.577c.33-.177.643-.37.956-.578v1.155zm0-7.795v5.508a10.67 10.67 0 01-2.194 1.286c-.23.1-.344.37-.245.608a.48.48 0 00.245.247c.78.339 1.514.77 2.194 1.286v12.04h-4.014a2.368 2.368 0 01-2.363-2.38V6.97a2.368 2.368 0 012.363-2.38h15.521a2.368 2.368 0 012.363 2.38v1.333H19.657c-1.544 0-2.798 1.263-2.798 2.82v0zm21.157 23.702a1.887 1.887 0 01-1.881 1.895H19.658a1.887 1.887 0 01-1.881-1.895V11.122c0-1.047.84-1.895 1.88-1.895h16.47c1.04 0 1.881.848 1.881 1.895v23.702h.008z" fill="#0D142E" stroke="#0D142E" stroke-width=".3"/><path d="M28.213 16.237a.47.47 0 00-.32-.14.426.426 0 00-.322.14L22.8 21.082a3.879 3.879 0 00.008 5.461 3.815 3.815 0 004.144.847l-.788 1.81c-.1.232.008.509.237.609a.464.464 0 00.352.008 3.066 3.066 0 012.279 0 .462.462 0 00.596-.255.44.44 0 00-.008-.354l-.803-1.848a3.823 3.823 0 005.001-2.103 3.88 3.88 0 00-.834-4.199l-4.77-4.821zM27.388 28.7l.512-1.171.512 1.17a3.804 3.804 0 00-1.024 0zm4.954-2.843a2.902 2.902 0 01-4.09.031.5.5 0 00-.299-.13h-.03a.448.448 0 00-.344.138 2.897 2.897 0 01-4.121.03 2.95 2.95 0 010-4.182L27.9 17.23l4.45 4.476a2.969 2.969 0 01-.008 4.151v0zM14.504 11.546c-.199 0-.413-.085-.413-.216v-1.07h-2.079a.225.225 0 01-.207-.247v-.008a.35.35 0 01.038-.154l1.912-3.79a.358.358 0 01.32-.215h.016c.146 0 .413.13.413.292a.202.202 0 01-.023.085l-1.636 3.29h1.246v-.971c0-.17.26-.216.413-.216.038 0 .413.008.413.216v.97h.497c.145 0 .214.193.214.378 0 .2-.13.37-.214.37h-.497v1.07c-.008.139-.214.216-.413.216v0zm8.105 4.352c-.184 0-.222-.07-.237-.131l-.283-1.002h-1.736l-.283 1.002c-.007.038-.03.13-.237.13-.221 0-.497-.138-.504-.3 0-.015.007-.038.007-.053l1.361-4.468c.054-.193.314-.262.513-.262.206 0 .458.07.52.254l1.36 4.468a.125.125 0 01.008.054c.008.162-.267.308-.49.308v0zm-2.11-1.703h1.43l-.712-2.541-.718 2.541zM6.85 8.549c-.703 0-1.536-.262-1.536-1.517V5.09c0-1.255.84-1.517 1.536-1.517.704 0 1.545.262 1.545 1.517v1.942c0 1.255-.841 1.517-1.545 1.517zm0-4.329c-.359 0-.795.154-.795.878V7.04c0 .724.436.878.795.878.52 0 .803-.308.803-.878V5.09c0-.562-.283-.87-.803-.87v0zM4.075 8.51c-.184 0-.375-.069-.375-.207V4.474l-.352.278a.187.187 0 01-.114.038c-.13 0-.214-.146-.214-.285 0-.108.053-.208.137-.262l.818-.631a.195.195 0 01.138-.054c.153 0 .329.085.329.216v4.521c0 .139-.191.216-.367.216v0z" fill="#0D142E" stroke="#0D142E" stroke-width=".3"/></svg>