<svg width="59" height="35" fill="none" xmlns="http://www.w3.org/2000/svg"><path d="M27.56 3.778h-6.352c-1.68 0-3.037 1.283-3.037 2.871v9.486c0 1.588 1.357 2.871 3.037 2.871h6.351c1.68 0 3.038-1.283 3.038-2.871V6.649c0-1.588-1.358-2.871-3.038-2.871zm1.656 12.357c0 .87-.748 1.566-1.657 1.566h-6.351c-.92 0-1.657-.707-1.657-1.566V6.649c0-.87.748-1.566 1.657-1.566h6.351c.92 0 1.657.707 1.657 1.566v9.486zm12.61-12.357h-6.351c-1.68 0-3.038 1.283-3.038 2.871v9.486c0 1.588 1.358 2.871 3.038 2.871h6.351c1.68 0 3.038-1.283 3.038-2.871V6.649c0-1.588-1.358-2.871-3.038-2.871zm1.657 12.357c0 .87-.748 1.566-1.657 1.566h-6.351c-.92 0-1.657-.707-1.657-1.566V6.649c0-.87.748-1.566 1.657-1.566h6.351c.92 0 1.657.707 1.657 1.566v9.486zM13.292 3.778H6.94c-1.68 0-3.038 1.283-3.038 2.871v9.486c0 1.588 1.358 2.871 3.038 2.871h6.35c1.68 0 3.038-1.283 3.038-2.871V6.649c0-1.588-1.357-2.871-3.037-2.871zm1.657 12.357c0 .87-.748 1.566-1.657 1.566H6.94c-.92 0-1.657-.707-1.657-1.566V6.649c0-.87.748-1.566 1.657-1.566h6.35c.921 0 1.658.707 1.658 1.566v9.486z" fill="#0D142E"/><path d="M56.818 25.305V15.72c0-2.523-1.99-4.644-4.637-4.949-.322-1.893-2.048-3.285-4.073-3.285h-.115v-3.72c0-1.588-1.358-2.872-3.037-2.872H3.81C2.131.895.774 2.179.774 3.767v15.25c0 1.588 1.358 2.872 3.037 2.872h41.145c1.68 0 3.037-1.284 3.037-2.872v-3.72h.115c1.99 0 3.705-1.349 4.062-3.198 1.887.294 3.267 1.828 3.267 3.633v9.584c-1.024.293-1.714 1.174-1.714 2.186v4.873c0 1.262 1.081 2.274 2.416 2.274s2.405-1.023 2.405-2.274v-4.873c-.012-1.023-.713-1.904-1.726-2.197zm-10.206-6.288c0 .87-.747 1.567-1.656 1.567H3.81c-.92 0-1.656-.707-1.656-1.567V3.767c0-.87.747-1.567 1.656-1.567h41.145c.92 0 1.656.707 1.656 1.567v15.25zm1.485-5.025h-.115v-5.2h.115c1.518 0 2.75 1.164 2.75 2.6 0 1.436-1.232 2.6-2.75 2.6zm9.055 18.372c0 .533-.46.968-1.024.968-.564 0-1.024-.435-1.024-.968v-4.873c0-.533.46-.968 1.024-.968.563 0 1.024.435 1.024.968v4.873z" fill="#0D142E"/><path d="M9.45 14.917c-.438 0-.921-.283-.921-.675a.36.36 0 01.057-.195L11.13 9.87a.177.177 0 00.035-.11v-.554a.225.225 0 00-.23-.218H9.3a.225.225 0 00-.23.218v.555c0 .196-.334.359-.714.359-.368 0-.69-.163-.69-.36V8.239c0-.163.287-.36.598-.36h3.693c.265 0 .599.208.599.36v1.23c0 .227-.161.608-.322.88l-2.44 4.416c-.034.066-.103.153-.345.153zm14.255-.001c-.438 0-.92-.282-.92-.674a.36.36 0 01.057-.196l2.542-4.166a.177.177 0 00.035-.109v-.555c0-.12-.104-.217-.23-.217h-1.634c-.127 0-.23.098-.23.217v.555c0 .196-.334.36-.713.36-.369 0-.69-.164-.69-.36V8.248c0-.163.287-.359.598-.359h3.693c.264 0 .598.207.598.36v1.229c0 .228-.161.609-.322.88l-2.44 4.417c-.022.054-.103.141-.344.141zm14.267 0c-.437 0-.92-.282-.92-.674a.36.36 0 01.057-.196l2.543-4.166a.177.177 0 00.034-.109v-.555c0-.12-.103-.217-.23-.217h-1.634c-.126 0-.23.098-.23.217v.555c0 .196-.334.36-.713.36-.368 0-.69-.164-.69-.36V8.248c0-.163.287-.359.598-.359h3.693c.265 0 .598.207.598.36v1.229c0 .228-.16.609-.322.88l-2.439 4.417c-.023.054-.104.141-.345.141z" fill="#0D142E"/></svg>