<svg width="28" height="44" fill="none" xmlns="http://www.w3.org/2000/svg"><path d="M5.37 8.091L5.279 9.52a.691.691 0 00.298.606c.2.142.462.18.698.1l1.596-.536 1.596.538a.785.785 0 00.698-.1.691.691 0 00.298-.606l-.091-1.428.487-.521.487.52-.091 1.427a.693.693 0 00.298.606c.2.142.463.18.698.1l1.597-.536 1.595.538a.788.788 0 00.699-.1.69.69 0 00.297-.606l-.09-1.428.486-.521.487.52-.09 1.427a.692.692 0 00.297.606c.2.142.463.18.699.1l1.595-.536 1.596.538a.788.788 0 00.699-.1.69.69 0 00.298-.606l-.091-1.428 1.045-1.117a.678.678 0 00.157-.681.732.732 0 00-.54-.476l-1.642-.378-.91-1.228a.793.793 0 00-.611-.282.793.793 0 00-.612.282l-.913 1.23-1.464.337-1.464-.338-.912-1.23a.793.793 0 00-.611-.281.795.795 0 00-.613.282l-.912 1.23-1.464.337-1.464-.338-.912-1.23a.794.794 0 00-.612-.281.794.794 0 00-.612.282l-.912 1.23-1.643.377a.732.732 0 00-.537.475.677.677 0 00.153.68L5.37 8.09zm13.557-1.34a.748.748 0 00.436-.282l.46-.62.462.623a.75.75 0 00.436.282l.71.164-.43.457a.683.683 0 00-.186.512l.042.653-.783-.263a.777.777 0 00-.502 0l-.781.263.041-.653a.682.682 0 00-.187-.512l-.428-.457.71-.166zm-5.976 0a.748.748 0 00.435-.282l.462-.62.46.623a.748.748 0 00.436.282l.71.164-.429.457a.684.684 0 00-.187.512l.042.653-.782-.263a.778.778 0 00-.502 0l-.782.263.042-.653a.683.683 0 00-.187-.512l-.429-.457.71-.166zm-5.976 0a.747.747 0 00.435-.282l.461-.62.462.623a.748.748 0 00.435.282l.71.164-.429.457a.685.685 0 00-.187.512l.042.653-.782-.263a.778.778 0 00-.502 0l-.782.263.042-.653a.68.68 0 00-.187-.512l-.429-.457.71-.166z" fill="#0D142E" stroke="#EFF3FB" stroke-width=".2"/><path d="M.4 3.205v38.138c0 1.17 1.004 2.119 2.242 2.119h22.41c1.238 0 2.242-.949 2.242-2.119V3.205c0-1.17-1.004-2.118-2.241-2.118H2.643C1.403 1.087.4 2.035.4 3.205v0zm25.4 0v38.138c0 .39-.335.707-.747.707H2.643c-.414 0-.748-.317-.748-.707V3.205c0-.39.334-.706.747-.706h22.41c.413 0 .748.316.748.706v0z" fill="#0D142E" stroke="#EFF3FB" stroke-width=".2"/><path d="M7.652 37.605l.22-.207.218.207a.778.778 0 001.047-.009.679.679 0 00.01-.99l-.22-.206.22-.207a.68.68 0 00-.01-.99.778.778 0 00-1.047-.01l-.219.208-.219-.207a.779.779 0 00-1.047.008.68.68 0 00-.01.99l.22.208-.22.206a.68.68 0 00-.203.687c.069.247.273.44.534.505a.776.776 0 00.726-.193z" fill="#0D142E" stroke="#EFF3FB" stroke-width=".2"/><path d="M4.136 37.106c.413 0 .747-.317.747-.706 0-1.56 1.338-2.825 2.988-2.825s2.988 1.264 2.988 2.825c0 1.56-1.338 2.824-2.988 2.824-.412 0-.747.317-.747.707 0 .39.335.706.747.706 2.475 0 4.482-1.897 4.482-4.237s-2.007-4.238-4.482-4.238S3.39 34.059 3.39 36.4c0 .187.078.366.219.499.14.132.33.207.528.207zm17.71-2.619a.778.778 0 00-1.057 0l-.966.914-.965-.914a.778.778 0 00-1.048.01.679.679 0 00-.009.99l.966.913-.966.913a.681.681 0 00-.203.686c.068.248.272.44.533.505a.775.775 0 00.727-.193l.965-.913.966.913a.779.779 0 001.048-.008.68.68 0 00.009-.99l-.966-.913.966-.914a.68.68 0 000-.998v0zm-.747-9.181a.777.777 0 00-1.057 0l-.219.207-.218-.207a.778.778 0 00-1.048.009.68.68 0 00-.008.99l.218.207-.218.207a.681.681 0 00-.204.687c.068.247.272.44.533.504a.776.776 0 00.727-.192l.218-.207.22.207a.778.778 0 001.046-.009.679.679 0 00.01-.99l-.22-.207.22-.207a.68.68 0 000-.999v0z" fill="#0D142E" stroke="#EFF3FB" stroke-width=".2"/><path d="M23.559 25.806c-.413 0-.748.316-.748.706 0 1.56-1.337 2.825-2.987 2.825-1.65 0-2.989-1.265-2.989-2.825 0-1.56 1.338-2.825 2.989-2.825.412 0 .746-.316.746-.706 0-.39-.334-.707-.746-.707-2.476 0-4.483 1.898-4.483 4.238 0 2.34 2.007 4.238 4.483 4.238 2.475 0 4.482-1.898 4.482-4.238 0-.39-.335-.706-.747-.706v0zm-2.46-10.387a.778.778 0 00-1.057 0l-.219.207-.218-.207a.779.779 0 00-1.048.008.68.68 0 00-.008.99l.218.207-.218.207a.68.68 0 00-.204.687c.068.247.272.44.533.505a.776.776 0 00.727-.193l.218-.207.22.207a.777.777 0 001.046-.009.679.679 0 00.01-.99l-.22-.206.22-.207a.68.68 0 000-1v0z" fill="#0D142E" stroke="#EFF3FB" stroke-width=".2"/><path d="M22.811 16.625c0 1.56-1.337 2.825-2.987 2.825-1.65 0-2.989-1.265-2.989-2.825 0-1.56 1.338-2.826 2.989-2.826.412 0 .746-.316.746-.706 0-.39-.334-.706-.746-.706-2.476 0-4.483 1.897-4.483 4.238 0 2.34 2.007 4.237 4.483 4.237 2.475 0 4.482-1.897 4.482-4.237 0-.39-.335-.707-.747-.707-.413 0-.748.316-.748.707v0zM9.893 24.6a.778.778 0 00-1.056 0l-.966.913-.966-.913a.779.779 0 00-1.047.009.68.68 0 00-.01.99l.967.913-.966.913a.68.68 0 00-.204.687c.068.247.272.44.534.504a.777.777 0 00.726-.192l.966-.913.966.913a.778.778 0 001.047-.009.679.679 0 00.01-.99l-.967-.913.966-.913a.68.68 0 000-.999v0zm0-9.888a.778.778 0 00-1.056 0l-.966.914-.966-.914a.778.778 0 00-1.047.009.679.679 0 00-.01.99l.967.913-.966.913a.68.68 0 00-.204.687c.068.247.272.44.534.505a.777.777 0 00.726-.193l.966-.913.966.913a.778.778 0 001.047-.008.68.68 0 00.01-.99l-.967-.914.966-.913a.68.68 0 000-.999v0z" fill="#0D142E" stroke="#EFF3FB" stroke-width=".2"/></svg>