<svg width="45" height="45" fill="none" xmlns="http://www.w3.org/2000/svg"><g clip-path="url(#clip0)"><path fill-rule="evenodd" clip-rule="evenodd" d="M32.266 40.301h.675a3.892 3.892 0 013.886 3.888v.195a.615.615 0 01-.615.615H8.786a.615.615 0 01-.615-.615v-.195a3.892 3.892 0 013.888-3.888h.675l1.214-9.822a15.75 15.75 0 013.677-28.212l-.9-1.301A.614.614 0 0117.23 0h10.538a.615.615 0 01.506.965l-.9 1.3a15.75 15.75 0 013.677 28.214l1.214 9.822zm-14.75-17.196l-2.57 2.571-.002.001a11.277 11.277 0 006.941 2.88v-3.581a7.62 7.62 0 001.23 0v3.582a11.277 11.277 0 006.94-2.88l-2.571-2.573c.307-.273.591-.57.85-.89l2.592 2.592a11.279 11.279 0 002.88-6.941h-3.815a7.63 7.63 0 00-.04-1.23h3.855A11.282 11.282 0 0030.94 9.68l-2.836 2.836a7.554 7.554 0 00-.89-.849l2.853-2.854a11.29 11.29 0 00-5.377-2.671l-1.576 2.277v1.606a7.618 7.618 0 00-1.23 0V8.42l-1.577-2.28a11.29 11.29 0 00-5.377 2.672l2.854 2.855c-.32.259-.617.543-.89.85L14.06 9.68a11.281 11.281 0 00-2.865 6.957h3.855a7.579 7.579 0 00-.04 1.23h-3.816a11.279 11.279 0 002.881 6.94l2.593-2.592c.258.32.542.617.85.89zm6.39-17.988l2.689-3.887-8.19.001 2.689 3.886 1.406 2.03 1.406-2.03zM10.855 8.565a14.53 14.53 0 1015.788-5.242L25.448 5.05a12.544 12.544 0 015.976 21.02.386.386 0 01-.105.105 12.529 12.529 0 01-17.638 0 .387.387 0 01-.105-.105 12.544 12.544 0 015.976-21.02l-1.195-1.727a14.54 14.54 0 00-7.502 5.242zM22.5 33.011c-2.58 0-5.12-.635-7.396-1.849l-1.13 9.14h2.762v-4.066a.615.615 0 01.615-.615h10.3a.616.616 0 01.615.615v4.065h2.76l-1.13-9.139a15.72 15.72 0 01-7.396 1.85zm-4.535 3.84v3.45h9.07v-3.45h-9.07zm-7.629 5.318c-.48.41-.8.977-.9 1.601h26.13a2.662 2.662 0 00-2.625-2.237H12.06c-.632 0-1.243.226-1.724.636z" fill="#0D142E"/><path d="M27.25 17.933l-6.75 3.898a.5.5 0 01-.75-.433v-7.795a.5.5 0 01.75-.433l6.75 3.897a.5.5 0 010 .866z" stroke="#0D142E"/></g><defs><clipPath id="clip0"><path fill="#fff" d="M0 0h45v45H0z"/></clipPath></defs></svg>