<svg width="48" height="46" fill="none" xmlns="http://www.w3.org/2000/svg"><path d="M35.563 27.856l-.492 2.71a.645.645 0 00.278.646c.216.148.5.167.736.05l2.574-1.28 2.574 1.28a.731.731 0 00.736-.05.644.644 0 00.278-.647l-.492-2.709 2.082-1.919a.636.636 0 00.177-.677.69.69 0 00-.564-.45l-2.878-.395-1.286-2.465a.704.704 0 00-.627-.369.704.704 0 00-.627.369l-1.287 2.465-2.877.395a.69.69 0 00-.564.45.636.636 0 00.176.677l2.083 1.92zm1.747-2.183a.697.697 0 00.526-.362l.823-1.576.823 1.576a.7.7 0 00.526.362l1.84.252-1.332 1.227a.639.639 0 00-.2.585l.313 1.732-1.645-.818a.731.731 0 00-.65 0l-1.645.818.314-1.732a.639.639 0 00-.201-.585l-1.331-1.227 1.84-.252zM6.112 21.235l-.492 2.709a.645.645 0 00.278.646.73.73 0 00.736.05l2.574-1.279 2.574 1.28a.732.732 0 00.736-.051.644.644 0 00.278-.646l-.492-2.71 2.082-1.918a.636.636 0 00.177-.678.69.69 0 00-.564-.45l-2.877-.395-1.287-2.465a.704.704 0 00-.627-.368.704.704 0 00-.627.368l-1.287 2.465-2.877.395a.69.69 0 00-.564.45.636.636 0 00.176.678l2.083 1.919zm1.747-2.184a.697.697 0 00.526-.361l.823-1.576.823 1.576c.102.195.298.33.526.361l1.84.253-1.332 1.227a.638.638 0 00-.2.585l.314 1.732-1.646-.818a.731.731 0 00-.65 0l-1.645.817.314-1.731a.639.639 0 00-.201-.585L6.02 19.304l1.84-.253zM20.033 4.674v.804c0 1.886 1.45 3.457 3.351 3.771v1.854c-1.712.263-3.07 1.537-3.366 3.15h-.978c-.902 0-.902 1.322 0 1.322h10.035c.902 0 .902-1.321 0-1.321h-1.007c-.29-1.589-1.61-2.847-3.286-3.138V9.25c1.902-.314 3.352-1.885 3.352-3.772v-.81c.893-.113 1.602-.452 2.113-1.012 1.035-1.135.799-2.733.788-2.8a.688.688 0 00-.691-.565H17.77c-.347 0-.64.24-.691.564-.011.068-.248 1.666.787 2.8.522.572 1.248.914 2.166 1.02zm6.606 9.58h-5.192c.309-1.082 1.355-1.88 2.596-1.88 1.24 0 2.287.798 2.596 1.88zm2.55-11.463c-.247.27-.6.45-1.055.537V1.612h1.523c-.033.36-.145.825-.468 1.18zM21.43 1.612h5.305v2.361a.628.628 0 000 .154v1.35c0 1.383-1.19 2.509-2.653 2.509-1.462 0-2.652-1.126-2.652-2.508V1.612zm-1.398 0v1.725c-.477-.083-.847-.263-1.102-.54-.328-.355-.44-.823-.473-1.185h1.575z" fill="#0D142E"/><path d="M47.217 44.17h-1.08v-8.66c0-.937-.805-1.699-1.796-1.699H32.314c-.172 0-.338.024-.495.067V19.926c0-.937-.806-1.699-1.797-1.699H17.995c-.99 0-1.796.762-1.796 1.7v7.024a1.886 1.886 0 00-.398-.044H3.774c-.991 0-1.797.762-1.797 1.699v8.426c0 .852 1.398.852 1.398 0v-8.426c0-.208.179-.377.399-.377H15.8c.22 0 .398.169.398.377v15.563H3.375v-7.137c0-.852-1.398-.852-1.398 0v7.137H.897c-.386 0-.699.296-.699.661 0 .365.313.66.7.66h46.32c.385 0 .698-.295.698-.66 0-.365-.313-.66-.699-.66zm-29.62 0V19.925c0-.208.179-.377.398-.377h12.027c.22 0 .399.17.399.377V44.17H17.597zm14.319 0v-8.66c0-.208.178-.377.398-.377H44.34c.22 0 .399.17.399.377v8.66H31.915z" fill="#0D142E"/></svg>