<svg width="37" height="47" fill="none" xmlns="http://www.w3.org/2000/svg"><path d="M12.8 32.368H3.33a2.55 2.55 0 00-1.751.686 2.281 2.281 0 00-.726 1.655v8.953c0 .62.262 1.216.726 1.655a2.554 2.554 0 001.75.686h9.47c.657 0 1.286-.247 1.75-.686a2.281 2.281 0 00.727-1.655V34.71a2.285 2.285 0 00-.726-1.655 2.554 2.554 0 00-1.75-.686v0zm1.333 11.294c0 .334-.141.655-.391.891s-.589.37-.943.37H3.33c-.353 0-.692-.134-.942-.37a1.228 1.228 0 01-.391-.89v-8.954c0-.334.14-.655.39-.891s.59-.37.943-.37h9.47c.354 0 .693.133.943.37.25.236.39.557.39.89v8.954z" fill="#0D142E" stroke="#0D142E" stroke-width=".1"/><path d="M5.156 34.697c-.364 0-.72.102-1.022.293a1.764 1.764 0 00-.678.78 1.65 1.65 0 00-.105 1.006c.071.337.247.647.504.89.257.244.585.41.942.477a1.94 1.94 0 001.063-.1c.336-.131.623-.354.826-.64.202-.286.31-.622.31-.966 0-.462-.195-.904-.54-1.23a1.897 1.897 0 00-1.3-.51v0zm0 2.398a.726.726 0 01-.387-.11.668.668 0 01-.257-.296.626.626 0 01-.04-.381.648.648 0 01.191-.337.734.734 0 01.76-.143.69.69 0 01.312.242.634.634 0 01-.087.832.718.718 0 01-.492.194zm7.644-20.51H3.33a2.55 2.55 0 00-1.751.686 2.281 2.281 0 00-.726 1.655v8.953c0 .62.262 1.216.726 1.655a2.553 2.553 0 001.75.686h9.47c.657 0 1.286-.247 1.75-.686a2.281 2.281 0 00.727-1.655v-8.953a2.285 2.285 0 00-.726-1.655 2.554 2.554 0 00-1.75-.686v0zm1.333 11.294c0 .334-.141.655-.391.891s-.589.37-.943.37H3.33c-.353 0-.692-.134-.942-.37a1.228 1.228 0 01-.391-.89v-8.954c0-.334.14-.655.39-.891s.59-.37.943-.37h9.47c.354 0 .693.134.943.37s.39.557.39.89v8.954z" fill="#0D142E" stroke="#0D142E" stroke-width=".1"/><path d="M8.064 21.663c-.364 0-.72.102-1.022.293a1.764 1.764 0 00-.678.781 1.653 1.653 0 00-.104 1.005c.07.337.246.647.503.89.258.244.586.41.942.477.357.067.727.032 1.063-.1.337-.131.624-.354.826-.64.202-.286.31-.622.31-.966 0-.462-.194-.904-.54-1.23a1.897 1.897 0 00-1.3-.51v0zm0 2.398a.726.726 0 01-.387-.11.668.668 0 01-.257-.296.626.626 0 01-.04-.381.648.648 0 01.192-.337.734.734 0 01.76-.143.69.69 0 01.312.242.633.633 0 01-.087.832.719.719 0 01-.493.194zM12.8.801H3.33c-.657 0-1.287.248-1.751.686a2.28 2.28 0 00-.726 1.655v8.953c0 .621.262 1.216.726 1.655a2.553 2.553 0 001.75.687h9.47a2.551 2.551 0 001.75-.687 2.28 2.28 0 00.727-1.655V3.142a2.28 2.28 0 00-.726-1.654A2.553 2.553 0 0012.8.8v0zm1.333 11.294c0 .335-.141.655-.391.891-.25.237-.589.37-.943.37H3.33a1.37 1.37 0 01-.942-.37 1.228 1.228 0 01-.391-.89V3.141c0-.334.14-.654.39-.89.25-.237.59-.37.943-.37h9.47c.354 0 .693.133.943.37.25.236.39.556.39.89v8.953z" fill="#0D142E" stroke="#0D142E" stroke-width=".1"/><path d="M8.064 6.003a1.78 1.78 0 00-.95.272c-.28.178-.5.43-.63.726-.129.295-.163.62-.097.933.066.314.229.602.468.828.24.226.544.38.876.443.331.062.675.03.987-.092.313-.123.58-.33.768-.596.188-.266.288-.578.288-.898 0-.428-.18-.84-.501-1.142a1.763 1.763 0 00-1.209-.474zm0 2.152a.59.59 0 01-.315-.09.544.544 0 01-.209-.241.509.509 0 01.123-.584.597.597 0 01.618-.116c.104.04.192.109.254.197a.515.515 0 01-.07.677.584.584 0 01-.4.157v0zm-3.382-5.35a1.78 1.78 0 00-.95.272c-.281.178-.5.43-.63.726-.13.295-.163.62-.097.933.066.314.229.602.468.828.239.226.543.38.875.442.332.063.676.03.988-.092.312-.122.58-.33.767-.595.188-.266.288-.578.288-.898 0-.428-.18-.84-.501-1.142a1.763 1.763 0 00-1.208-.474v0zm0 2.152a.59.59 0 01-.315-.09.544.544 0 01-.21-.241.509.509 0 01.124-.584.597.597 0 01.618-.116c.103.04.192.11.254.197a.515.515 0 01-.07.677.584.584 0 01-.401.157v0zM11.447 9.2a1.78 1.78 0 00-.95.273c-.28.177-.5.43-.63.725-.129.295-.163.62-.097.934.066.313.23.601.468.828.24.226.544.38.876.442a1.8 1.8 0 00.987-.092c.313-.122.58-.33.768-.595.188-.266.288-.579.288-.898 0-.429-.18-.84-.501-1.143a1.763 1.763 0 00-1.209-.474v0zm0 2.152a.591.591 0 01-.315-.09.544.544 0 01-.208-.24.509.509 0 01.123-.585.599.599 0 01.618-.116c.103.04.191.11.254.198a.515.515 0 01-.071.676.584.584 0 01-.4.157v0zM5.156 40.167c-.364 0-.72.102-1.022.293a1.764 1.764 0 00-.678.78 1.65 1.65 0 00-.105 1.006c.071.337.247.647.504.89.257.244.585.41.942.477s.727.032 1.063-.1a1.82 1.82 0 00.826-.64c.202-.286.31-.623.31-.967 0-.46-.195-.903-.54-1.229a1.897 1.897 0 00-1.3-.51v0zm0 2.398a.726.726 0 01-.387-.11.668.668 0 01-.257-.296.626.626 0 01-.04-.381.649.649 0 01.191-.337.734.734 0 01.76-.143.69.69 0 01.312.242.634.634 0 01-.087.832.718.718 0 01-.492.193v0zm5.786-7.868c-.364 0-.72.102-1.022.293a1.765 1.765 0 00-.677.78 1.65 1.65 0 00-.105 1.006c.07.337.246.647.503.89.258.244.586.41.943.477a1.94 1.94 0 001.063-.1c.336-.131.623-.354.825-.64.202-.286.31-.622.31-.966 0-.462-.194-.904-.54-1.23a1.897 1.897 0 00-1.3-.51v0zm0 2.398a.726.726 0 01-.387-.11.669.669 0 01-.256-.296.625.625 0 01-.04-.381.649.649 0 01.19-.337.734.734 0 01.76-.143c.127.05.236.134.313.242a.634.634 0 01-.087.832.719.719 0 01-.493.193zm0 3.072c-.364 0-.72.102-1.022.293a1.765 1.765 0 00-.678.78 1.657 1.657 0 00-.104 1.006c.07.337.246.647.503.89.257.244.585.41.942.476.357.068.727.033 1.063-.099a1.82 1.82 0 00.826-.64c.202-.286.31-.623.31-.967 0-.46-.195-.903-.54-1.229a1.897 1.897 0 00-1.3-.51v0zm0 2.398a.726.726 0 01-.387-.11.668.668 0 01-.256-.296.625.625 0 01-.04-.381.649.649 0 01.19-.337.734.734 0 01.76-.143.69.69 0 01.313.242.634.634 0 01-.087.832.718.718 0 01-.493.193v0zm22.643-10.197h-9.47c-.657 0-1.287.247-1.75.686a2.281 2.281 0 00-.727 1.655v8.953c0 .62.262 1.216.726 1.655a2.553 2.553 0 001.75.686h9.47c.657 0 1.286-.247 1.75-.686a2.28 2.28 0 00.727-1.655V34.71a2.28 2.28 0 00-.726-1.655 2.553 2.553 0 00-1.75-.686v0zm1.333 11.294c0 .334-.14.655-.39.891s-.59.37-.943.37h-9.47c-.354 0-.693-.134-.943-.37a1.228 1.228 0 01-.391-.89v-8.954c0-.334.14-.655.39-.891s.59-.37.943-.37h9.47c.354 0 .693.133.943.37.25.236.39.557.39.89l.001 8.954z" fill="#0D142E" stroke="#0D142E" stroke-width=".1"/><path d="M25.941 34.697c-.363 0-.72.102-1.022.293a1.765 1.765 0 00-.678.78 1.657 1.657 0 00-.104 1.006c.07.337.246.647.503.89.258.244.585.41.942.477a1.94 1.94 0 001.063-.1c.337-.131.624-.354.826-.64.202-.286.31-.622.31-.966 0-.462-.194-.904-.54-1.23a1.898 1.898 0 00-1.3-.51v0zm0 2.398a.726.726 0 01-.387-.11.669.669 0 01-.256-.296.625.625 0 01-.04-.381.65.65 0 01.19-.337.734.734 0 01.76-.143c.128.05.236.134.313.242a.634.634 0 01-.087.832.719.719 0 01-.493.193zm7.644-20.51h-9.47c-.657 0-1.287.247-1.75.686a2.281 2.281 0 00-.727 1.655v8.953c0 .62.262 1.216.726 1.655a2.553 2.553 0 001.75.686h9.47c.657 0 1.286-.247 1.75-.686a2.281 2.281 0 00.727-1.655v-8.953a2.28 2.28 0 00-.726-1.655 2.553 2.553 0 00-1.75-.686v0zm1.333 11.294c0 .334-.14.655-.39.891s-.59.37-.943.37h-9.47c-.354 0-.693-.134-.943-.37a1.228 1.228 0 01-.391-.89v-8.954c0-.334.14-.655.39-.891s.59-.37.943-.37h9.47c.354 0 .693.134.943.37s.39.557.39.89l.001 8.954z" fill="#0D142E" stroke="#0D142E" stroke-width=".1"/><path d="M26.087 21.942c-.3 0-.595.084-.845.242-.25.158-.445.383-.56.645a1.365 1.365 0 00-.086.83c.058.28.203.535.416.736.212.201.483.338.778.394.295.055.6.027.878-.082s.515-.293.683-.53a1.38 1.38 0 00.256-.798 1.4 1.4 0 00-.446-1.015 1.567 1.567 0 00-1.074-.422v0zm0 1.794a.392.392 0 01-.21-.06.362.362 0 01-.139-.16.34.34 0 01.082-.389.398.398 0 01.411-.077.373.373 0 01.17.131.343.343 0 01-.048.45.39.39 0 01-.266.105v0zm0 1.591c-.3 0-.595.084-.845.242-.25.158-.445.382-.56.645a1.363 1.363 0 00-.086.83c.059.279.203.535.416.736.212.2.483.338.778.393.295.056.6.027.878-.082.278-.108.516-.293.683-.529a1.38 1.38 0 00.256-.798 1.4 1.4 0 00-.446-1.016 1.567 1.567 0 00-1.074-.421v0zm0 1.793a.392.392 0 01-.21-.06.362.362 0 01-.139-.16.34.34 0 01.082-.388.398.398 0 01.411-.077.374.374 0 01.17.13.343.343 0 01-.048.45.39.39 0 01-.266.105v0zM33.585.801h-9.47a2.55 2.55 0 00-1.75.686 2.28 2.28 0 00-.727 1.655v8.953c0 .621.262 1.216.726 1.655a2.553 2.553 0 001.75.687h9.47a2.553 2.553 0 001.75-.687 2.281 2.281 0 00.727-1.655V3.142a2.28 2.28 0 00-.726-1.654A2.553 2.553 0 0033.585.8v0zm1.333 11.294c0 .335-.141.655-.39.891-.25.237-.59.37-.943.37h-9.47c-.354 0-.693-.133-.943-.37a1.228 1.228 0 01-.391-.89V3.141c0-.334.14-.654.39-.89.25-.237.59-.37.943-.37h9.47c.354 0 .693.133.943.37.25.236.39.556.39.89l.001 8.953z" fill="#0D142E" stroke="#0D142E" stroke-width=".1"/><path d="M27.158 4.404a1.78 1.78 0 00-.95.272c-.28.178-.5.43-.63.725-.129.296-.163.62-.097.934.066.314.23.602.468.828.24.226.544.38.876.442a1.8 1.8 0 00.988-.092 1.69 1.69 0 00.767-.595c.188-.266.288-.578.288-.898 0-.429-.18-.84-.501-1.142a1.763 1.763 0 00-1.209-.474zm0 2.152a.59.59 0 01-.315-.09.544.544 0 01-.208-.241.509.509 0 01.122-.584.598.598 0 01.618-.116.56.56 0 01.255.197.515.515 0 01-.07.677.585.585 0 01-.402.157v0zm3.383 1.045a1.78 1.78 0 00-.95.273c-.281.177-.5.43-.63.725-.129.296-.163.62-.097.934.066.314.229.602.468.828.24.226.544.38.875.442.332.062.676.03.988-.092.313-.122.58-.33.768-.595.188-.266.288-.579.288-.898 0-.429-.181-.84-.502-1.143a1.763 1.763 0 00-1.208-.474v0zm0 2.152a.59.59 0 01-.315-.09.544.544 0 01-.209-.24.508.508 0 01.123-.584.597.597 0 01.618-.116c.104.04.192.109.254.197a.515.515 0 01-.07.676.584.584 0 01-.4.158v0zm-4.6 30.414c-.363 0-.72.102-1.022.293a1.764 1.764 0 00-.678.78 1.657 1.657 0 00-.104 1.006c.07.337.246.647.503.89.258.244.585.41.942.476.357.068.727.033 1.063-.099.337-.131.624-.354.826-.64.202-.286.31-.623.31-.967 0-.46-.194-.903-.54-1.229a1.897 1.897 0 00-1.3-.51zm0 2.398a.726.726 0 01-.387-.11.669.669 0 01-.257-.296.627.627 0 01.151-.718.734.734 0 01.76-.143.69.69 0 01.313.242.634.634 0 01-.087.832.719.719 0 01-.493.193v0zm5.787-7.868c-.364 0-.72.102-1.023.293a1.764 1.764 0 00-.677.78 1.65 1.65 0 00-.105 1.006c.071.337.246.647.504.89.257.244.585.41.942.477a1.94 1.94 0 001.063-.1c.336-.131.623-.354.825-.64a1.665 1.665 0 00-.229-2.196 1.897 1.897 0 00-1.3-.51v0zm0 2.398a.726.726 0 01-.388-.11.669.669 0 01-.256-.296.626.626 0 01-.04-.381.65.65 0 01.19-.337.734.734 0 01.76-.143.69.69 0 01.313.242.634.634 0 01-.087.832.718.718 0 01-.492.193zm0 3.072c-.364 0-.72.102-1.023.293a1.763 1.763 0 00-.677.78 1.65 1.65 0 00-.105 1.006c.071.337.246.647.504.89.257.244.585.41.942.476.357.068.727.033 1.063-.099.336-.131.623-.354.825-.64.203-.286.31-.623.31-.967 0-.46-.194-.903-.539-1.229a1.897 1.897 0 00-1.3-.51v0zm0 2.398a.726.726 0 01-.388-.11.668.668 0 01-.256-.296.626.626 0 01-.04-.381.649.649 0 01.19-.337.734.734 0 01.76-.143.69.69 0 01.313.242.634.634 0 01-.087.832.718.718 0 01-.492.193v0zm-5.547-24.007c-.3 0-.595.084-.844.242-.25.158-.445.383-.56.645a1.365 1.365 0 00-.087.83c.059.28.204.536.416.736.213.201.484.338.779.394.294.055.6.027.878-.082s.515-.293.682-.53a1.38 1.38 0 00.256-.798 1.4 1.4 0 00-.446-1.016 1.567 1.567 0 00-1.074-.42zm0 1.794a.393.393 0 01-.21-.06.362.362 0 01-.138-.16.339.339 0 01.081-.389.397.397 0 01.411-.077.374.374 0 01.17.131.343.343 0 01-.047.45.39.39 0 01-.267.104v0zm4.933 1.59c-.3 0-.595.084-.845.242-.25.158-.444.383-.56.645a1.365 1.365 0 00-.086.83c.059.28.204.535.416.736.213.201.484.338.778.394.295.055.601.027.879-.082.277-.109.515-.293.682-.53a1.38 1.38 0 00.256-.798 1.4 1.4 0 00-.446-1.016 1.568 1.568 0 00-1.074-.42v0zm0 1.794a.392.392 0 01-.21-.06.362.362 0 01-.139-.16.339.339 0 01.082-.389.398.398 0 01.411-.077.375.375 0 01.17.131.343.343 0 01-.047.45.389.389 0 01-.267.105v0zm0 1.591c-.3 0-.595.084-.844.242-.25.158-.445.382-.56.645a1.365 1.365 0 00-.087.83c.059.279.204.535.416.736.213.2.484.338.779.393.294.056.6.027.878-.082.277-.108.515-.293.682-.529a1.38 1.38 0 00.256-.798 1.4 1.4 0 00-.446-1.016 1.567 1.567 0 00-1.074-.421zm0 1.793a.393.393 0 01-.21-.06.36.36 0 01-.138-.16.338.338 0 01.082-.388.398.398 0 01.41-.077.373.373 0 01.17.13.343.343 0 01-.047.45.39.39 0 01-.267.105zm-.094-5.689c.3 0 .594-.084.844-.242.25-.158.445-.382.56-.645a1.36 1.36 0 00.086-.83 1.414 1.414 0 00-.416-.736 1.548 1.548 0 00-.778-.393 1.601 1.601 0 00-.878.081 1.506 1.506 0 00-.682.53 1.382 1.382 0 00-.256.798c0 .381.16.747.445 1.016.285.27.671.42 1.074.421v0zm0-1.793c.074 0 .147.02.209.06.062.039.11.095.139.16a.339.339 0 01-.082.389.398.398 0 01-.411.077.373.373 0 01-.17-.132.342.342 0 01.048-.45.388.388 0 01.266-.104v0z" fill="#0D142E" stroke="#0D142E" stroke-width=".1"/></svg>