<svg width="42" height="42" fill="none" xmlns="http://www.w3.org/2000/svg"><path d="M20.978.03C9.6.03.344 9.283.344 20.655S9.6 41.279 20.978 41.279s20.635-9.252 20.635-20.624C41.613 9.282 32.356.031 20.978.031zm0 39.873c-10.619 0-19.259-8.635-19.259-19.249 0-10.613 8.64-19.248 19.26-19.248 10.619 0 19.258 8.635 19.258 19.248 0 10.614-8.64 19.249-19.259 19.249z" fill="#0D142E"/><path d="M28.286 18.055l-6.878-5.5a.689.689 0 00-.86 0l-6.878 5.5a.688.688 0 00-.223.754l2.752 8.25c.094.28.356.47.652.47h8.254a.688.688 0 00.653-.47l2.751-8.25a.687.687 0 00-.223-.754zm-3.677 8.099h-7.263l-2.442-7.325 6.074-4.856 6.074 4.856-2.443 7.325z" fill="#0D142E"/><path d="M37.286 8.026a20.57 20.57 0 00-9.932-6.987.69.69 0 00-.657.13L20.534 6.38a.686.686 0 00-.243.524v6.187c0 .21.095.407.258.537l6.878 5.5a.688.688 0 00.648.115l6.19-2.062a.688.688 0 00.435-.435l2.695-8.083a.687.687 0 00-.109-.638zm-3.782 7.96l-5.51 1.836-6.328-5.06V7.224l5.625-4.756a19.184 19.184 0 018.682 6.114l-2.47 7.404z" fill="#0D142E"/><path d="M21.422 6.38l-6.163-5.212a.688.688 0 00-.657-.129 20.57 20.57 0 00-9.931 6.987.687.687 0 00-.11.638l2.696 8.083a.69.69 0 00.435.435l6.19 2.062a.694.694 0 00.647-.115l6.878-5.5a.688.688 0 00.258-.537V6.905a.686.686 0 00-.243-.524zm-1.131 6.382l-6.329 5.06-5.509-1.836-2.47-7.405a19.195 19.195 0 018.683-6.113l5.624 4.756v5.538z" fill="#0D142E"/><path d="M17.504 26.622l-2.751-8.249a.688.688 0 00-.435-.434l-6.19-2.063a.688.688 0 00-.608.086L.657 20.678a.688.688 0 00-.298.587A20.545 20.545 0 003.77 32.033a.688.688 0 00.573.308h9.07a.69.69 0 00.56-.29l3.438-4.812a.686.686 0 00.093-.617zm-4.446 4.344H4.717a19.166 19.166 0 01-2.969-9.369l6.269-4.307 5.54 1.846 2.531 7.59-3.03 4.24zM41.314 20.68l-6.863-4.716a.693.693 0 00-.608-.086l-6.19 2.062a.688.688 0 00-.435.435l-2.751 8.249a.687.687 0 00.093.617l3.439 4.812c.13.18.338.288.56.288h9.069c.23 0 .446-.116.572-.306a20.547 20.547 0 003.412-10.768.687.687 0 00-.298-.587zm-4.06 10.286h-8.341l-3.03-4.24 2.532-7.59 5.54-1.846 6.268 4.307a19.16 19.16 0 01-2.969 9.369z" fill="#0D142E"/><path d="M29.104 31.254l-3.44-4.812a.688.688 0 00-.56-.288h-8.253a.688.688 0 00-.56.288l-3.439 4.812a.686.686 0 00-.093.617l2.787 8.356c.075.224.26.394.489.45a20.698 20.698 0 009.886 0 .686.686 0 00.488-.45l2.787-8.356a.687.687 0 00-.092-.617zm-3.878 8.175a19.359 19.359 0 01-8.496 0l-2.555-7.66 3.03-4.24h7.546l3.03 4.24-2.555 7.66z" fill="#0D142E"/><path d="M16.852 39.792l-2.787-8.357a.688.688 0 00-.653-.47H4.343a.689.689 0 00-.574 1.068 20.59 20.59 0 0012.266 8.644.688.688 0 00.817-.886zM5.677 32.34h7.24l2.22 6.657a19.2 19.2 0 01-9.46-6.657zm32.578-1.013a.689.689 0 00-.606-.362H28.58c-.296 0-.56.19-.653.47l-2.787 8.357a.689.689 0 00.817.886 20.588 20.588 0 0012.266-8.645.689.689 0 00.032-.706zm-11.4 7.67l2.221-6.656h7.24a19.197 19.197 0 01-9.46 6.657zm.855-37.479A.685.685 0 0027.245 1a20.787 20.787 0 00-12.534 0 .688.688 0 00-.242 1.175l6.059 5.248a.69.69 0 00.9 0l6.059-5.248a.687.687 0 00.223-.658zm-6.732 4.477l-4.645-4.024a19.39 19.39 0 019.29 0l-4.645 4.024zM8.562 16.311L5.867 8.23a.688.688 0 00-1.196-.204 20.412 20.412 0 00-4.327 12.63c0 .136.004.272.008.408l.006.163a.686.686 0 001.075.549l6.865-4.678a.687.687 0 00.264-.786zm-6.83 3.595a19.005 19.005 0 013.253-9.972l2.107 6.32-5.36 3.652zM37.286 8.025a.688.688 0 00-1.195.203l-2.696 8.083a.688.688 0 00.265.786l6.864 4.678a.689.689 0 001.075-.549l.005-.165c.005-.135.009-.27.009-.407a20.42 20.42 0 00-4.327-12.629zm-2.423 8.23l2.108-6.32a18.995 18.995 0 013.252 9.971l-5.36-3.651z" fill="#0D142E"/></svg>