<svg width="80" height="36" fill="none" xmlns="http://www.w3.org/2000/svg"><path d="M58.138 17.688c-.22-7.046 3.507-12.032 10.042-15.351 3.928-1.987 8.077-.811 9.71 2.749.633 1.372 1.06 2.968 1.017 4.45-.177 6.627-3.15 11.899-9.144 15.462-1.935 1.153-4.127 1.712-6.417 1.059-3.026-.859-4.31-3.12-4.92-5.837a13.965 13.965 0 01-.288-2.532zm15.506-7.434a14.42 14.42 0 00-.317-1.785c-.514-1.716-1.957-2.428-3.698-1.746a7.223 7.223 0 00-2.177 1.362c-2.105 1.92-3.383 4.307-4 6.99-.346 1.51-.51 3.048.267 4.513.673 1.266 1.925 1.789 3.3 1.238a7.422 7.422 0 002.21-1.326c2.724-2.486 4.098-5.583 4.415-9.246zM51.33 15.337c-.758.043-1.325.048-1.884.112-1.016.117-1.28-.137-1.097-1.11.102-.537.228-1.069.307-1.607.142-.96.703-1.504 1.713-1.614 1.646-.176 3.294-.359 4.946-.495 1.219-.1 1.625.323 1.376 1.485-.738 3.327-2.033 6.457-4.349 9.089-.94 1.062-2.032 2.09-3.278 2.812-3.986 2.336-7.967.475-8.534-3.94-.61-4.716 1.105-8.81 3.97-12.55 1.478-1.94 3.258-3.587 5.61-4.596 2.275-.98 4.55-.728 5.947.646.83.816.865 1.412.087 2.26-.553.604-1.146 1.176-1.713 1.77-.46.478-.906.62-1.475.117-1.03-.899-2.175-.814-3.272-.161-2.696 1.6-4.064 4.086-4.708 6.904a9.555 9.555 0 00-.045 3.88c.364 1.845 2.12 2.389 3.717 1.29 1.463-.997 2.2-2.442 2.682-4.292zm-16.815 1.819c.156-1.058.327-2.113.467-3.173.297-2.256.61-4.51.852-6.768.101-.92.536-1.482 1.493-1.685.33-.07.646-.183.971-.271 1.423-.384 1.673-.161 1.46 1.176a7343.5 7343.5 0 00-2.81 17.653c-.23 1.45-1.084 2.113-2.61 1.813-.43-.084-.92-.649-1.077-1.09-.813-2.276-1.508-4.58-2.247-6.875-.03-.112-.104-.412-.191-.518-.088-.107-.204-.192-.246-.014-.098.88-.204 1.758-.289 2.64-.162 1.817-.299 3.638-.463 5.456-.104 1.152-1.756 2.18-2.892 1.758-.24-.089-.434-.617-.418-.932.11-2.238.272-4.474.433-6.71.219-3.036.463-6.067.67-9.103.073-1.085.61-1.767 1.685-2.163 1.237-.46 1.733-.288 2.154.903.77 2.184 1.524 4.376 2.288 6.563.156.449.33.893.498 1.344.125.202.183.182.272-.004zM13.977 27.27c.92-.412 1.678-.744 2.438-1.09 1.423-.66 1.746-.484 1.715.984 0 .353 0 .705-.036 1.056-.076.876-.504 1.462-1.435 1.771-1.244.412-2.438.934-3.67 1.393-1.268.475-1.735.192-1.814-1.114-.1-1.694-.165-3.389-.259-5.083-.121-2.236-.262-4.473-.383-6.709-.051-.92 1.57-2.674 2.466-2.574.236.027.561.52.588.822.089.986.052 1.983.079 2.974.06 2.21.128 4.417.203 6.624-.006.248.018.987.108.945zm-8.633-1.011c2.559-.154 3.437.635 3.424 2.87-.012 2.328-1.958 5.02-4.267 5.828a5.48 5.48 0 01-1.58.283c-.964.036-1.192-.27-.98-1.166.242-1.02.457-1.971 1.969-1.981.528 0 1.203-.513 1.534-.96.295-.418.433-1.132.23-1.6-.126-.281-.766-.466-1.303-.45-.227 0-.471 0-.707.011-1.9.046-2.664-.667-2.664-2.45.014-2.406 2.284-5.307 4.743-6.057 1.272-.384 1.603-.107 1.392 1.153-.147.884-.476 1.48-1.557 1.729-.677.154-1.29.768-1.798 1.29-.232.241-.313.858-.144 1.13.168.273.715.444 1.123.412.585-.042.535-.037.585-.042zm15.276-6.108c0-2.399.374-4.802.39-7.196 0-1.153 1.625-2.61 2.808-2.463.297.037.713.65.73 1.01.046 1.017-.096 2.043-.149 3.065-.215 4.057-.406 8.116-.638 12.174a1.985 1.985 0 01-.25.817 2.12 2.12 0 01-.578.653 2.24 2.24 0 01-.807.378 2.31 2.31 0 01-.899.038c-.26-.048-.573-.643-.58-.99-.05-2.498-.027-7.493-.027-7.493v.008z" stroke="#0D142E" stroke-width="1.3"/></svg>