<svg width="107" height="97" fill="none" xmlns="http://www.w3.org/2000/svg"><g clip-path="url(#clip0)"><path d="M71.764 20.513c-.801-.395-1.798-.125-2.233.6-.434.724-.138 1.63.661 2.023C81.22 28.566 88.07 39 88.07 50.366c0 11.73-7.174 22.317-18.72 27.63-.811.374-1.135 1.272-.723 2.007.29.519.87.817 1.47.817.25 0 .504-.052.742-.162 12.66-5.826 20.524-17.433 20.524-30.293 0-12.46-7.51-23.898-19.598-29.852zm-31.314-.271c-.381-.748-1.357-1.076-2.184-.731C25.02 25.04 16.46 37.15 16.46 50.365c0 12.46 7.51 23.899 19.598 29.852.25.123.52.18.784.18.585 0 1.15-.281 1.449-.779.434-.724.138-1.63-.661-2.024-11.027-5.43-17.877-15.864-17.877-27.229 0-12.052 7.807-23.1 19.889-28.143.825-.345 1.186-1.231.806-1.98z" fill="#0D142E"/><path d="M40.119 31.644c-2.437-2.21-3.161-6.114-3.34-8.999-.033-.525-.367-.996-.882-1.24a1.79 1.79 0 00-1.626.054C26.332 25.9 20.535 32.806 17.947 40.902a1.37 1.37 0 00.17 1.182c.234.356.622.607 1.07.693 4.839.928 5.54 1.977 5.606 2.093 1.277 2.314 3.112 3.031 4.426 3.225.292.042.588.064.888.064 2.063 0 4.298-1.009 6.386-2.9.439-.398.905-.795 1.374-1.196 2.336-1.995 4.985-4.256 5.035-7.197.03-1.79-.881-3.498-2.783-5.222zM35.61 41.889c-.494.422-.983.84-1.444 1.258-1.6 1.449-3.21 2.182-4.42 2.001-.808-.118-1.484-.662-2.009-1.613-.783-1.422-2.74-2.485-6.105-3.299 2.276-5.971 6.504-11.148 12.136-14.878.586 3.684 1.934 6.501 4.023 8.394 1.239 1.124 1.834 2.128 1.818 3.068-.027 1.679-2.046 3.402-3.999 5.07zm21.26 15.099c-.846-3.067-2.814-5.445-5.693-6.877-3.173-1.58-7.26-1.858-10.928-.75-5.812 1.757-8.735 3.973-6.48 10.105 1.535 4.177 4.499 4.65 6.879 5.03 1.055.168 2.051.327 3.01.763.322.144.568.72.66 1.54.085.768.8 1.341 1.635 1.341a1.6 1.6 0 00.168-.008c.904-.083 1.563-.815 1.471-1.635-.218-1.952-1.046-3.268-2.46-3.909-1.39-.63-2.73-.844-3.913-1.032-2.2-.351-3.411-.545-4.327-3.035-1.392-3.785-.693-4.79 4.399-6.33 2.815-.851 5.918-.651 8.302.535 2.082 1.037 3.456 2.714 4.083 4.986.842 3.055.346 5.219-.316 7.101-.277.785.201 1.624 1.068 1.875.863.25 1.792-.182 2.068-.968.771-2.191 1.419-4.943.374-8.732zm31.823-19.21c-3.004-6.815-8.473-12.664-15.402-16.47-.644-.354-1.468-.266-2.004.21-9.034 8.008-9.832 10.746-9.42 12.368.226.894.918 1.559 1.948 1.87a87.912 87.912 0 017.373 2.585c-.79 1.151-2.359 2.725-5.039 2.725-9.156 0-14.336.145-14.336 3.136 0 1.397 1.563 2.703 6.03 6.077 1.739 1.314 4.33 3.27 4.857 4.024.171 2.202 2.433 9.168 4.098 10.676 1.123 1.017 3.06 1.909 5.118 1.909.54 0 1.09-.063 1.634-.2 1.718-.432 3.992-1.769 5.073-5.69.729-2.642.902-5.051 1.042-6.988.222-3.076.387-4.581 1.724-5.187 1.284-.581 3.435-2.237 7.273-9.872a1.37 1.37 0 00.031-1.173zm-8.777 8.377c-3.086 1.399-3.295 4.301-3.537 7.663-.137 1.91-.293 4.077-.95 6.457-.384 1.394-1.175 3.14-2.758 3.537-1.352.342-2.887-.347-3.54-.938-.933-.939-3.15-7.431-3.15-8.811 0-1.396-1.562-2.701-6.029-6.076-1.395-1.054-3.34-2.523-4.326-3.452 2.217-.484 7.687-.484 10.523-.482 6.548 0 8.724-5.708 8.813-5.95.258-.705-.093-1.476-.826-1.808-.149-.068-3.665-1.653-9.013-3.288.204-.676 1.335-2.913 7.54-8.525 5.616 3.354 10.082 8.208 12.706 13.82-3.418 6.666-5.136 7.71-5.453 7.853zM37.745 13.052a47.237 47.237 0 00-3.918 1.547l1.457 2.676a43.696 43.696 0 013.63-1.434l-1.17-2.79zM15.516 36.355l-3.037-1.151a37.33 37.33 0 00-2.483 7.248l3.222.61a34.605 34.605 0 012.298-6.707zm-2.293 22.083l-3.223.61a37.416 37.416 0 002.49 7.25l3.036-1.155a34.625 34.625 0 01-2.303-6.707zm8.731-31.661l-2.522-1.917a40.705 40.705 0 00-4.753 6.246l2.873 1.456a37.654 37.654 0 014.402-5.785zm-9.608 23.961c0-1.166.06-2.346.179-3.503l-3.278-.276a37.107 37.107 0 00.003 7.585l3.277-.278a34.548 34.548 0 01-.18-3.528zm2.348 19.66a40.647 40.647 0 004.759 6.242l2.52-1.92a37.662 37.662 0 01-4.406-5.78l-2.873 1.458zm10.47 7.397l-2.268 2.164a44.414 44.414 0 006.584 4.686l1.782-2.509a41.09 41.09 0 01-6.098-4.341zm6.072-58.439l-1.784-2.509a44.42 44.42 0 00-6.579 4.692l2.27 2.163a41.103 41.103 0 016.093-4.346zm4.103 64.87l-1.456 2.677a46.66 46.66 0 003.923 1.543l1.162-2.793a43.097 43.097 0 01-3.63-1.427zm36.524-.09a43.402 43.402 0 01-3.62 1.446l1.18 2.786a46.918 46.918 0 003.91-1.562l-1.47-2.67zm3.886-2.006l1.783 2.51a44.65 44.65 0 006.34-4.483l-2.25-2.178a41.231 41.231 0 01-5.873 4.151zm17.788-48.91a39.835 39.835 0 00-4.143-6.25l-2.657 1.763a36.845 36.845 0 013.835 5.786l2.965-1.3zm.599 11.58l3.251-.471a37.04 37.04 0 00-1.988-7.067l-3.103.998a34.364 34.364 0 011.84 6.54zM80.404 18.663l-1.995 2.375a40.355 40.355 0 015.495 4.557l2.433-2.012a43.601 43.601 0 00-5.933-4.92zM97.89 48.684l-3.288.148a34.43 34.43 0 01-.291 6.75l3.265.383a37 37 0 00.314-7.281zM84.717 75.05l2.496 1.945a40.816 40.816 0 004.672-5.931l-2.84-1.509a37.91 37.91 0 01-4.328 5.495zm6.373-9.1l3.005 1.219a37.697 37.697 0 002.601-6.9l-3.2-.704a34.86 34.86 0 01-2.407 6.386zM72.618 14.355L71.2 17.048a42.844 42.844 0 013.483 1.699l1.698-2.557a46.215 46.215 0 00-3.763-1.835z" fill="#0D142E"/><path d="M53.5 64.17c-9.985 0-18.108 7.363-18.108 16.415C35.392 89.636 43.515 97 53.5 97c9.984 0 18.107-7.364 18.107-16.415 0-9.052-8.123-16.416-18.107-16.416zm0 29.846c-8.17 0-14.816-6.026-14.816-13.431 0-7.406 6.647-13.43 14.816-13.43s14.815 6.024 14.815 13.43c0 7.405-6.646 13.43-14.815 13.43z" fill="#0D142E"/><path d="M57.423 85.942c-.568.291-1.704.739-3.013.739-1.332 0-2.567-.425-3.481-1.298-.666-.673-1.16-1.634-1.357-2.933h6.986v-1.096H49.4v-.404c0-.313.025-.648.05-.94h7.11v-1.119h-6.89c.248-1.186.741-2.194 1.482-2.844.84-.805 1.926-1.23 3.258-1.23 1.112 0 2.148.291 2.765.627l.496-1.477c-.692-.335-1.828-.717-3.284-.717-2.024 0-3.63.672-4.889 1.858-.987.918-1.73 2.216-2.025 3.783h-1.63v1.12h1.458c-.025.313-.05.648-.05 1.007v.336h-1.407v1.096h1.53c.222 1.612.84 2.91 1.779 3.85 1.233 1.299 3.01 1.993 5.01 1.993 1.63 0 2.915-.471 3.68-.94l-.421-1.41z" fill="#AC252B"/><path d="M55.146 0C45.161 0 37.04 7.364 37.04 16.415c0 9.052 8.123 16.416 18.107 16.416 9.985 0 18.108-7.364 18.108-16.416C73.254 7.364 65.13 0 55.146 0zm0 29.846c-8.169 0-14.815-6.025-14.815-13.43 0-7.406 6.646-13.431 14.815-13.431 8.17 0 14.816 6.025 14.816 13.43 0 7.406-6.647 13.431-14.816 13.431z" fill="#0D142E"/><path d="M55.901 15.574c-2.148-.806-3.062-1.389-3.062-2.552 0-.896.717-1.925 2.617-1.925 1.582 0 2.594.493 3.112.76l.617-1.476c-.716-.381-1.729-.74-3.21-.783V7.427h-1.53v2.26c-2.27.336-3.727 1.746-3.727 3.604 0 1.946 1.554 2.977 4.073 3.872 1.826.671 2.79 1.432 2.79 2.663 0 1.275-1.185 2.193-2.937 2.193-1.382 0-2.667-.425-3.556-.962l-.592 1.5c.863.56 2.344.962 3.778.985v2.26h1.553v-2.326c2.544-.382 3.902-2.038 3.902-3.807 0-1.993-1.284-3.155-3.828-4.095z" fill="#AC252B"/></g><defs><clipPath id="clip0"><path fill="#fff" d="M0 0h107v97H0z"/></clipPath></defs></svg>