<svg width="90" height="90" fill="none" xmlns="http://www.w3.org/2000/svg"><path d="M11.613 55.161h58.065a2.906 2.906 0 002.902-2.903V20.323a2.906 2.906 0 00-2.903-2.904H11.612a2.906 2.906 0 00-2.903 2.904v31.935a2.906 2.906 0 002.904 2.903zm0-2.903V26.13h17.42v26.13h-17.42zm20.322 0v-2.903h17.42v2.903h-17.42zm20.323 0V26.13h17.42v26.13h-17.42zm17.42-31.935v2.903h-17.42v-2.903h17.42zm-20.323 0v26.129h-17.42v-26.13h17.42zm-20.323 0v2.903h-17.42v-2.903h17.42z" fill="#0D142E"/><path d="M14.516 31.936v2.903h8.5l-6.865 12.359 2.537 1.41 7.441-13.393v-3.28H14.516zm40.645 0v2.903h8.5l-6.865 12.359 2.537 1.41 7.441-13.393v-3.28H55.161zm-18.688 9.455l2.538 1.411 7.44-13.394V26.13H34.84v2.903h8.5l-6.866 12.36z" fill="#0D142E"/><path d="M87.097 52.525V34.572C88.782 33.97 90 32.374 90 30.484a4.36 4.36 0 00-4.355-4.355 4.36 4.36 0 00-4.355 4.355c0 1.89 1.218 3.487 2.904 4.088v17.686h-5.807V18.871c0-4.002-3.256-7.258-7.258-7.258h-4.392c.921-1.216 1.489-2.715 1.489-4.355C68.226 3.256 64.97 0 60.968 0H20.323c-4.003 0-7.258 3.256-7.258 7.258 0 1.64.567 3.138 1.489 4.355H10.16c-4.002 0-7.258 3.256-7.258 7.258v39.46C1.218 58.934 0 60.53 0 62.42v23.226A4.36 4.36 0 004.355 90h72.58a4.36 4.36 0 004.355-4.355v-18.87h4.355A4.36 4.36 0 0090 62.418v-5.806c0-1.89-1.218-3.487-2.903-4.088zm-1.452-23.493c.8 0 1.452.652 1.452 1.452 0 .8-.652 1.451-1.452 1.451-.8 0-1.451-.651-1.451-1.451s.651-1.452 1.451-1.452zM15.968 7.258a4.36 4.36 0 014.355-4.355h40.645a4.36 4.36 0 014.355 4.355 4.36 4.36 0 01-4.355 4.355H20.323a4.36 4.36 0 01-4.355-4.355zm-5.807 7.258H71.13a4.36 4.36 0 014.355 4.355v39.194H5.806V18.87a4.36 4.36 0 014.355-4.355zM8.71 87.096V66.775h4.648a15.843 15.843 0 00-1.745 7.258c0 5.4 2.701 10.173 6.815 13.065H8.71zM21.774 71.13a4.36 4.36 0 004.355 4.355h2.903c.8 0 1.452.652 1.452 1.452 0 .8-.652 1.451-1.452 1.451h-4.355v-1.451h-2.903v4.354h4.355v2.904h2.903V81.29a4.36 4.36 0 004.355-4.355 4.36 4.36 0 00-4.355-4.354H26.13c-.8 0-1.452-.652-1.452-1.452 0-.8.652-1.452 1.452-1.452h4.355v1.452h2.903v-4.355h5.047a12.941 12.941 0 012.211 7.258c0 7.203-5.861 13.065-13.064 13.065s-13.065-5.862-13.065-13.065c0-2.615.768-5.108 2.21-7.258h9.403a4.36 4.36 0 00-4.355 4.355zm34.839-2.903c0 .8-.652 1.451-1.452 1.451h-4.355v-1.451h-2.903v4.355h4.355v2.903h2.903V72.58a4.36 4.36 0 004.355-4.355c0-.511-.104-.996-.267-1.452h7.44c-.726 6.522-6.267 11.613-12.98 11.613-4.007 0-7.687-1.791-10.182-4.906a15.813 15.813 0 00-1.723-6.707H55.16c.8 0 1.452.652 1.452 1.452zM43.202 77.33a15.812 15.812 0 0010.508 3.96c8.315 0 15.157-6.39 15.893-14.516h2.978v20.323H36.733c3.253-2.286 5.62-5.746 6.469-9.767zm35.185 8.315c0 .8-.652 1.452-1.451 1.452h-1.452V63.87H5.806v23.226H4.355c-.8 0-1.452-.652-1.452-1.452V62.42c0-.8.652-1.451 1.452-1.451h72.58c.8 0 1.452.651 1.452 1.451v23.226zm8.71-23.226c0 .8-.652 1.452-1.452 1.452H81.29v-1.452c0-1.89-1.218-3.486-2.903-4.087v-3.17h7.258c.8 0 1.452.651 1.452 1.45v5.807z" fill="#0D142E"/><path d="M18.871 7.258a1.452 1.452 0 112.903 0 1.452 1.452 0 01-2.903 0zm5.903 0c0-.801.65-1.451 1.452-1.451h29.032a1.452 1.452 0 010 2.903H26.226c-.802 0-1.452-.65-1.452-1.452zm34.936 0a1.452 1.452 0 112.903 0 1.452 1.452 0 01-2.903 0z" fill="#AC252B"/><circle cx="85.5" cy="30.5" r="4.5" fill="#AC252B"/></svg>