<svg width="103" height="80" fill="none" xmlns="http://www.w3.org/2000/svg"><path d="M7.92 9.424A1.51 1.51 0 009.424 7.92 1.51 1.51 0 007.92 6.416 1.51 1.51 0 006.416 7.92 1.51 1.51 0 007.92 9.424zm4.811 0a1.51 1.51 0 001.504-1.504 1.51 1.51 0 00-1.504-1.504 1.51 1.51 0 00-1.504 1.504 1.51 1.51 0 001.504 1.504zm4.813 0a1.51 1.51 0 001.504-1.504 1.51 1.51 0 00-1.504-1.504A1.506 1.506 0 0016.04 7.92a1.51 1.51 0 001.504 1.504zm6.416 0h60.952a1.504 1.504 0 000-3.008H23.96a1.504 1.504 0 000 3.008zm67.369 0h3.208a1.504 1.504 0 000-3.008h-3.209a1.504 1.504 0 000 3.008z" fill="#AC252B"/><path d="M44.812 22.456h-32.08a3.111 3.111 0 00-3.108 3.108v6.416a3.111 3.111 0 003.108 3.108h32.08a3.111 3.111 0 003.108-3.108v-6.416a3.111 3.111 0 00-3.108-3.108zm.1 9.524a.1.1 0 01-.1.1h-32.08a.1.1 0 01-.1-.1v-6.416a.1.1 0 01.1-.1h32.08a.1.1 0 01.1.1v6.416zm46.416-4.712h-9.972a4.719 4.719 0 00-4.464-3.208 4.72 4.72 0 00-4.464 3.208h-3.556a1.504 1.504 0 000 3.008h3.556a4.72 4.72 0 004.464 3.208 4.719 4.719 0 004.464-3.208h9.972a1.504 1.504 0 000-3.008zm-14.436 3.208c-.94 0-1.704-.764-1.704-1.704s.764-1.704 1.704-1.704 1.704.764 1.704 1.704-.764 1.704-1.704 1.704zm-19.248-8.02a6.323 6.323 0 00-6.316 6.316 6.323 6.323 0 006.316 6.316 6.323 6.323 0 006.316-6.316 6.323 6.323 0 00-6.316-6.316zm0 9.624a3.312 3.312 0 01-3.308-3.308 3.312 3.312 0 013.308-3.308 3.312 3.312 0 013.308 3.308 3.312 3.312 0 01-3.308 3.308zM44.812 40.1h-32.08a3.111 3.111 0 00-3.108 3.108v6.416a3.111 3.111 0 003.108 3.108h32.08a3.111 3.111 0 003.108-3.108v-6.416a3.111 3.111 0 00-3.108-3.108zm.1 9.524a.1.1 0 01-.1.1h-32.08a.1.1 0 01-.1-.1v-6.416a.1.1 0 01.1-.1h32.08a.1.1 0 01.1.1v6.416zm46.416-4.712h-1.952a4.72 4.72 0 00-4.465-3.208 4.719 4.719 0 00-4.464 3.208H68.872a1.504 1.504 0 100 3.008h11.575a4.719 4.719 0 004.464 3.208 4.72 4.72 0 004.465-3.208h1.952a1.504 1.504 0 000-3.008zm-6.417 3.208c-.94 0-1.704-.764-1.704-1.704s.765-1.704 1.704-1.704c.94 0 1.705.764 1.705 1.704s-.765 1.704-1.705 1.704zM57.644 40.1a6.323 6.323 0 00-6.316 6.316 6.323 6.323 0 006.316 6.316 6.323 6.323 0 006.316-6.316 6.323 6.323 0 00-6.316-6.316zm0 9.624a3.312 3.312 0 01-3.308-3.308 3.312 3.312 0 013.308-3.308 3.312 3.312 0 013.308 3.308 3.312 3.312 0 01-3.308 3.308zm-12.832 8.02h-32.08a3.111 3.111 0 00-3.108 3.108v6.416a3.111 3.111 0 003.108 3.108h32.08a3.111 3.111 0 003.108-3.108v-6.416a3.111 3.111 0 00-3.108-3.108zm.1 9.524a.1.1 0 01-.1.1h-32.08a.1.1 0 01-.1-.1v-6.416a.1.1 0 01.1-.1h32.08a.1.1 0 01.1.1v6.416zm46.416-4.712H82.96a4.719 4.719 0 00-4.465-3.208 4.72 4.72 0 00-4.464 3.208h-5.16a1.504 1.504 0 000 3.008h5.16a4.72 4.72 0 004.464 3.208 4.719 4.719 0 004.465-3.208h8.368a1.504 1.504 0 000-3.008zm-12.833 3.208c-.94 0-1.704-.764-1.704-1.704s.765-1.704 1.704-1.704c.94 0 1.705.764 1.705 1.704s-.765 1.704-1.705 1.704zm-20.851-8.02a6.323 6.323 0 00-6.316 6.316 6.323 6.323 0 006.316 6.316 6.323 6.323 0 006.316-6.316 6.323 6.323 0 00-6.316-6.316zm0 9.624a3.312 3.312 0 01-3.308-3.308 3.312 3.312 0 013.308-3.308 3.312 3.312 0 013.308 3.308 3.312 3.312 0 01-3.308 3.308z" fill="#0D142E"/><path d="M94.536 0H7.92C3.553 0 0 3.553 0 7.92v64.16C0 76.447 3.553 80 7.92 80h86.616c4.367 0 7.92-3.553 7.92-7.92V7.92c0-4.367-3.553-7.92-7.92-7.92zM7.92 3.008h86.616A4.918 4.918 0 0199.45 7.92v4.912H3.008V7.92A4.918 4.918 0 017.92 3.008zm86.616 73.985H7.92a4.918 4.918 0 01-4.912-4.913V15.84h96.44v56.24a4.918 4.918 0 01-4.912 4.913z" fill="#0D142E"/></svg>