<svg width="91" height="100" fill="none" xmlns="http://www.w3.org/2000/svg"><path d="M46.369 54.928S71.235 44.21 71.974 25.707c0 0 .842-15.122-14.013-15.658 0 0-9.712.96-11.81 7.626 0 0-5.892-13.406-20.96-4.474 0 0-13.274 10.72 3.899 31.948 0 0 8.81 7.418 17.05 9.384" fill="#fff"/><path d="M69.292 81.032a4.938 4.938 0 01-4.256-.87 4.919 4.919 0 01-1.91-3.893 5.22 5.22 0 01.154-1.238 4.415 4.415 0 00-.47 1.981 4.467 4.467 0 002.115 3.806 4.497 4.497 0 004.359.215h.008zm-6.666-9.772c-.316.086-.643.13-.97.13-1.021 0-2-.404-2.723-1.123a3.836 3.836 0 01-1.13-2.712c0-.328.044-.654.13-.97a3.387 3.387 0 00-.365 1.542 3.48 3.48 0 001.652 2.975 3.503 3.503 0 003.406.158z" fill="#191B19" opacity=".1"/><path d="M64.837 0C54.363 0 47.781 7.384 46.163 14.836 44.543 7.384 37.961 0 27.485 0 11.542 0 0 11.881 0 29.779c0 7.129 1.497 19.69 11.431 34.309 14.813 21.784 37.95 33.503 37.95 33.503l4.843-10.26s-2.443-.967-4.892-2.131c-2.409-1.158-4.022-2.107-4.022-2.107-.085-.04-15.508-8.68-24.72-19.478-7.727-9.073-14.985-20.27-14.985-34.793C5.605 9.194 19.393 2.365 28.86 2.25c9.653-.125 15.77 6.792 17.288 13.445C47.664 9.042 53.782 2.161 63.442 2.25c12.883.151 23.959 9.846 22.841 24.104C85.05 42.109 68.307 52.245 52.55 57.03c-.453.156-1.098.205-1.133.406-.034.201 1.19.536 1.438.627.13.052 1.255-.262 1.478-.359 18.286-5.4 36.48-16.5 36.48-33.626C90.812 9.244 78.04 0 64.836 0z" fill="#D71345"/><path d="M46.447 91.197a6.79 6.79 0 012.217-3.266 6.818 6.818 0 0110.312 2.114 6.776 6.776 0 01-.79 7.505 6.824 6.824 0 01-9.59.881 6.794 6.794 0 01-2.427-4.6 6.77 6.77 0 01.278-2.635z" fill="#D71345"/><path d="M47.036 91.78a6.781 6.781 0 011.755-2.862 6.807 6.807 0 016.278-1.747 6.806 6.806 0 012.987 1.541 6.808 6.808 0 00-4.895-2.31 6.827 6.827 0 00-5.038 1.981 6.796 6.796 0 00-1.996 5.02 6.778 6.778 0 002.306 4.888 6.795 6.795 0 01-1.397-6.511z" fill="#191B19" opacity=".4"/><path d="M63.46 2.249C53.8 2.16 47.68 9.04 46.164 15.694 44.65 9.041 38.531 2.124 28.877 2.249c-9.467.116-23.254 6.945-23.254 26.57 0 14.524 7.257 25.731 14.985 34.793 9.24 10.832 24.719 19.48 24.719 19.48l4.317-7.778A88.62 88.62 0 0129.304 62.7c-11.083-9.148-19.43-22.16-19.43-34.673 0-12.18 7.048-23.201 20.36-23.527 8.836-.216 14.49 6.189 15.907 12.052h.013c1.428-5.863 7.08-12.255 15.913-12.052 12.536.28 21.981 10.46 19.685 24.142-2.423 14.37-17.749 23.56-30.915 27.71-.316.142-.866.268-.769.307.303.123.72.538 1.34.602.39 0 .776-.078 1.133-.23 15.757-4.78 32.5-14.907 33.734-30.676C87.4 12.097 76.325 2.402 63.459 2.249z" fill="#FD0"/><path d="M45.319 82.219s-15.48-8.656-24.72-19.484c-7.662-8.988-14.857-20.09-14.98-34.427v.514c0 14.523 7.257 25.73 14.985 34.793 9.24 10.831 24.719 19.478 24.719 19.478l4.316-7.776-.39-.175-3.93 7.077zm36.784-58.08C82.32 12.318 73.481 3.87 62.076 3.616c-8.664-.198-14.258 5.94-15.811 11.71-.032.124-.067.243-.095.366-.018-.084-.046-.168-.063-.248C44.59 9.634 38.973 3.4 30.255 3.616c-13.32.33-20.359 11.352-20.359 23.53v.41C10.074 15.569 17.1 4.82 30.255 4.498c8.837-.216 14.492 6.189 15.908 12.052h.013c1.427-5.863 7.08-12.255 15.913-12.052 11.117.255 19.791 8.282 20.014 19.64zm4.18 1.339C85.05 41.237 68.307 51.368 52.55 56.153l-1.5.56s.762.31 1.12.447c15.756-4.78 32.879-15.035 34.113-30.805a23.87 23.87 0 00.07-2.409 21.317 21.317 0 01-.07 1.532z" fill="#221E20" opacity=".3"/><path d="M62.076 4.5c-8.833-.203-14.486 6.189-15.913 12.052h-.013C44.734 10.689 39.078 4.275 30.242 4.5c-13.32.326-20.36 11.348-20.36 23.527 0 12.514 8.348 25.525 19.422 34.682 18.115 14.988 36.48 17.868 36.48 17.868l3.554-7.168s-3.362-.665-5.051-1.08c-1.69-.415-4.865-1.383-4.865-1.383s-6.948-1.624-19.787-8.79C24.758 53.86 14.316 40.65 14.316 27.09c0-10.291 5.865-19.986 17.308-20.343C39.637 6.5 44.82 12.335 46.15 17.411h.013c1.339-5.076 6.52-10.952 14.533-10.665 12.202.432 20.108 11.054 16.534 24.18-3.541 13.009-17.528 21.246-28.007 24.747-.285.134-.6.186-.52.217.276.112.65.628 1.133.704.297.047.789-.205 1.01-.253 13.166-4.15 28.491-13.34 30.915-27.71C84.057 14.96 74.611 4.782 62.076 4.5z" fill="#7AB431"/><path d="M65.784 79.689s-18.365-2.871-36.489-17.861c-10.955-9.056-19.232-21.879-19.41-34.27v.469c0 12.514 8.347 25.525 19.421 34.682C47.42 77.697 65.784 80.577 65.784 80.577l3.554-7.168s-.145-.035-.401-.084l-3.153 6.364zM60.696 5.87c-7.85-.288-12.984 5.363-14.444 10.351-.033.115-.06.216-.089.33h-.013a1.928 1.928 0 00-.048-.2c-1.405-5.031-6.56-10.734-14.48-10.482-11.443.346-17.308 10.047-17.308 20.337 0 .13.011.25.011.378.186-10.104 6.05-19.488 17.297-19.838 8.013-.246 13.196 5.589 14.526 10.665h.013c1.338-5.076 6.52-10.952 14.533-10.665 10.052.363 17.186 7.632 17.39 17.513.21-10.328-7.044-18.016-17.388-18.39zm21.065 21.891c-2.424 14.363-17.75 23.56-30.915 27.716-.63.196-1.486.52-1.486.52s.717.318 1.141.486c13.162-4.158 28.836-13.47 31.26-27.84.252-1.488.366-2.996.342-4.505a25.086 25.086 0 01-.342 3.623z" fill="#221E20" opacity=".3"/><path d="M60.696 6.746c-8.014-.287-13.194 5.589-14.533 10.666h-.013C44.82 12.335 39.635 6.5 31.622 6.745c-11.443.357-17.308 10.052-17.308 20.343 0 13.56 10.442 26.77 25.313 35.067C52.471 69.322 59.42 70.93 59.42 70.93l2.474-5.4c-5.34-1.35-12.677-3.78-20.045-8.039-12.727-7.373-23.703-18.174-23.703-31.734C18.146 16.7 24.108 9.45 33.003 9c7.193-.37 11.913 4.99 13.147 9.267h.013C47.406 13.99 52.121 8.63 59.323 9c11.862.604 18.334 11.68 13.378 24.205-4.635 11.737-17.424 19.01-25.007 21.818-.325.145-.719.216-.597.275.071.028 1.026.542 1.102.572.299.132.71-.069 1.02-.192C59.702 52.176 73.693 43.939 77.23 30.93 80.804 17.8 72.898 7.185 60.696 6.746z" fill="#39AAE1"/><g style="mix-blend-mode:multiply" opacity=".3" fill="#221E20"><path d="M77.23 30.338c-3.54 13.007-17.528 21.255-28.01 24.748-.34.12-.787.298-1.021.385.448.194.143.084.71.32 10.477-3.503 24.78-11.863 28.321-24.872.592-2.121.883-4.315.866-6.517a23.458 23.458 0 01-.866 5.936zM59.323 8.412c-7.202-.372-11.913 4.992-13.16 9.27h-.013c-1.232-4.278-5.954-9.642-13.147-9.27-8.895.456-14.858 7.699-14.858 16.761v.26C18.285 16.527 24.21 9.446 32.998 9c7.193-.37 11.912 4.99 13.147 9.267h.013C47.4 13.99 52.114 8.63 59.317 9c9.024.458 14.926 6.984 15.054 15.599.147-8.905-5.817-15.714-15.048-16.187z" opacity=".3"/><path d="M59.422 70.342s-6.948-1.605-19.787-8.775c-14.784-8.246-25.178-21.35-25.301-34.819 0 .112-.011.216-.011.337 0 13.56 10.441 26.77 25.312 35.067 12.846 7.166 19.794 8.773 19.794 8.773l2.473-5.4a3.916 3.916 0 00-.24-.057l-2.24 4.874z" opacity=".3"/></g><path d="M49.494 56.054C37.868 51 21.338 40.16 21.338 24.918c0-7.014 4.925-13.11 13.05-13.667 6.378-.432 10.625 4.39 11.777 7.874 1.148-3.485 5.402-8.315 11.78-7.874 11.52.79 16.701 12.401 10.238 24.242-5.848 10.714-17.714 16.97-21.83 18.915l-.216.131 1.286.577.276-.097c7.58-2.808 20.359-10.086 25-21.818 4.956-12.53-1.516-23.6-13.378-24.195-7.202-.37-11.913 4.99-13.16 9.267h-.013C44.915 13.996 40.194 8.637 33 9.006c-8.895.45-14.858 7.7-14.858 16.757 0 13.564 10.977 24.365 23.706 31.73 14.14 8.174 28.156 9.613 28.156 9.613l2.016-5.142s-10.214-.548-22.527-5.91z" fill="#9D2E88"/><g style="mix-blend-mode:multiply" opacity=".3" fill="#221E20"><path d="M72.701 32.62c-4.632 11.73-17.417 19.01-25 21.818 0 0-.836.354-.899.384.336.169.292.147.624.303.117.058.528-.205.697-.264 7.628-2.91 20.028-10.129 24.578-21.647a22.362 22.362 0 001.677-8.607A22.93 22.93 0 0172.7 32.62zM57.943 10.663c-6.378-.432-10.632 4.383-11.78 7.874-1.152-3.49-5.4-8.315-11.778-7.874-8.124.557-13.05 6.651-13.05 13.668v.332c.114-6.912 5.021-12.864 13.044-13.412 6.378-.432 10.625 4.39 11.778 7.874 1.148-3.485 5.401-8.315 11.78-7.874 7.985.546 12.917 6.29 13.047 13.704.132-7.695-4.843-13.722-13.04-14.292z" opacity=".3"/><path d="M70.018 66.514s-14.026-1.441-28.156-9.62c-12.649-7.312-23.56-18.023-23.699-31.461v.323c0 13.565 10.977 24.366 23.705 31.73 14.141 8.174 28.157 9.613 28.157 9.613l2.016-5.141s-.087 0-.232-.011l-1.791 4.567z" opacity=".3"/></g><path d="M74.505 64.46a3.435 3.435 0 01-2.131 3.177 3.459 3.459 0 01-3.76-.747 3.44 3.44 0 01-.746-3.75 3.456 3.456 0 013.187-2.124 3.47 3.47 0 012.436 1.013 3.452 3.452 0 011.014 2.43z" fill="#982480"/><path d="M64.837 68.127a3.743 3.743 0 01-2.323 3.464 3.769 3.769 0 01-4.096-.815 3.748 3.748 0 01-.814-4.087 3.767 3.767 0 016.948.002c.189.456.286.944.285 1.436z" fill="#1B8FCE"/><path d="M72.123 77.012c0 .95-.283 1.879-.813 2.668a4.826 4.826 0 01-7.408.724 4.799 4.799 0 01-1.041-5.233 4.805 4.805 0 011.774-2.155 4.824 4.824 0 017.123 2.158c.242.583.366 1.208.365 1.838z" fill="#50AA47"/><path d="M54.222 80.02a5.514 5.514 0 01-.937 3.067 5.535 5.535 0 01-2.487 2.031 5.552 5.552 0 01-6.033-1.202 5.52 5.52 0 01-1.196-6.02 5.528 5.528 0 012.04-2.478 5.549 5.549 0 018.194 2.486c.278.67.42 1.39.42 2.115z" fill="#FCC811"/><path d="M43.865 78.849a5.525 5.525 0 011.43-2.328 5.547 5.547 0 015.106-1.425 5.54 5.54 0 012.433 1.249 5.477 5.477 0 00-2.52-1.6 5.554 5.554 0 00-3.69.142 5.535 5.535 0 00-2.78 2.425 5.514 5.514 0 001.158 6.849 5.53 5.53 0 01-1.137-5.312zm19.255-2.852a4.822 4.822 0 013.316-3.211 4.848 4.848 0 014.504 1.031 4.836 4.836 0 00-3.475-1.637 4.847 4.847 0 00-3.575 1.407 4.824 4.824 0 00-1.417 3.564 4.813 4.813 0 001.636 3.469 4.8 4.8 0 01-.99-4.623zm-5.292-8.647a3.753 3.753 0 011.836-2.205 3.77 3.77 0 012.86-.269 3.8 3.8 0 011.384.784 3.756 3.756 0 00-2.698-1.28 3.764 3.764 0 00-2.78 1.09 3.746 3.746 0 00-1.104 2.77 3.74 3.74 0 001.271 2.696 3.725 3.725 0 01-.769-3.586zm10.238-3.6a3.438 3.438 0 012.367-2.304 3.456 3.456 0 013.223.743 3.405 3.405 0 00-1.559-1.013 3.473 3.473 0 00-4.018 1.608 3.448 3.448 0 00.691 4.263 3.452 3.452 0 01-.704-3.296z" fill="#191B19" opacity=".4"/><path d="M48.199 53.492c-.715.37-1.549.808-2.06 1.047 0 0 1.384.627 2.26 1.029 3.077 1.41 5.593 2.279 5.552 2.264.13-.036.257-.078.382-.128.37-.108.742-.216 1.113-.337-1.66-.635-7.247-3.875-7.247-3.875z" fill="#221E20" opacity=".4"/><path d="M43.03 26.845c0-1.026-.88-2.16-2.383-2.16-1.603 0-2.556 1.197-2.556 2.592 0 1.424 1.007 2.556 2.703 2.556 1.098 0 1.573-.31 1.813-.514.24-.206.416-.581.151-.916a.605.605 0 00-.8-.126c-.29.24-.657.365-1.032.35-.65 0-1.208-.505-1.202-.982h2.424c.72.006.881-.34.881-.8zm-1.848-.075h-1.445a.927.927 0 01.95-.923.897.897 0 01.688.261c.24.26.181.662-.193.662zm2.813-1.43a.624.624 0 00-.034.846c.242.266.664.134.866 0 .266-.177.577-.274.897-.278 1.056 0 1.02 1.106 1.02 1.106a2.356 2.356 0 00-1.237-.3c-1.484 0-2.116.775-2.116 1.546s.494 1.584 1.813 1.584c1.234 0 1.66-.815 1.66-.815h.03a1.255 1.255 0 001.156.815.703.703 0 00.636-.305.73.73 0 00-.181-1.035.558.558 0 01-.232-.553v-.948c0-.886-.25-2.299-2.257-2.299-1.282-.006-1.832.409-2.02.636zm1.772 3.428a.637.637 0 01-.702-.599c0-.315.353-.574.866-.574a1.6 1.6 0 01.806.192s-.017.955-.97.98zm6.114-2.658h.407v1.582c0 1.421.45 2.16 1.804 2.16a1.996 1.996 0 001.486-.6.676.676 0 00.056-.925c-.238-.283-.65-.233-.955-.037-.349.216-.721.147-.721-.533v-1.64h.79a.65.65 0 00.65-.648.632.632 0 00-.602-.626h-.838v-.648a.84.84 0 00-.841-.798.844.844 0 00-.842.875v.57h-.407a.638.638 0 00-.637.636.634.634 0 00.637.635l.013-.002zm-18.888 3.727a.93.93 0 00.929-.896v-1.184h1.77v1.155a.925.925 0 00.927.883.93.93 0 00.928-.883v-5.078a.92.92 0 00-.922-.93.937.937 0 00-.934.93v2.463h-1.77v-2.465a.92.92 0 00-.568-.856.926.926 0 00-1.014.201.936.936 0 00-.278.657v5.113a.92.92 0 00.932.89zm17.103-.007a.837.837 0 00.836-.833.59.59 0 000-.108v-5.057a.83.83 0 00-.834-.832.835.835 0 00-.834.832v5.197a.83.83 0 00.832.802zm6.953.027a.829.829 0 00.77-.51.821.821 0 00.061-.318v-2.3c0-.607.407-.705.672-.705.264 0 .615.128.615.683v2.324a.828.828 0 00.83.872.833.833 0 00.831-.872v-2.676c0-1.048-.606-1.65-1.579-1.65-.972 0-1.328.648-1.328.648h-.047v-1.539a.83.83 0 00-.505-.808.837.837 0 00-1.165.808v5.209a.833.833 0 00.845.834zM35.425 36.11h-.479a.548.548 0 01-.407-.183.648.648 0 01-.176-.467.763.763 0 01.172-.529.622.622 0 01.487-.19h1.269a.852.852 0 01.676.28c.17.199.258.453.249.714v1.883c0 .576-.229.864-.687.864a.62.62 0 01-.47-.188.647.647 0 01-.18-.462v-.181h-.017c-.17.274-.423.486-.723.607a2.526 2.526 0 01-1.042.216 3.06 3.06 0 01-2.012-.724 2.543 2.543 0 01-.724-1.08 4.568 4.568 0 01-.268-1.648 4.13 4.13 0 01.282-1.577c.157-.416.415-.787.749-1.08a3.38 3.38 0 01.994-.59 3.08 3.08 0 011.083-.197c.344-.003.687.035 1.022.115.257.057.504.155.73.29.17.107.323.24.453.395.106.122.192.262.253.412.044.116.068.238.07.361a.937.937 0 01-.258.635.867.867 0 01-.687.287.586.586 0 01-.312-.086 1.108 1.108 0 01-.249-.216c-.071-.084-.145-.166-.216-.253a.971.971 0 00-.728-.302 1.036 1.036 0 00-.866.451c-.217.303-.334.763-.334 1.385-.03.47.068.938.284 1.357.186.31.517.463.992.462.565.026.929-.238 1.07-.76zm7.11-1.27v2.1c0 .114 0 .268.024.46s.026.322.026.389a.568.568 0 01-.24.497.987.987 0 01-.583.17c-.524 0-.82-.252-.89-.758-.315.506-.84.758-1.575.758a1.903 1.903 0 01-1.221-.36 1.356 1.356 0 01-.449-1.121 1.236 1.236 0 01.514-1.037c.342-.258.927-.415 1.754-.471a2.24 2.24 0 00.721-.132.338.338 0 00.204-.333c0-.31-.236-.466-.71-.466a1.38 1.38 0 00-.83.324c-.198.18-.447.294-.713.326a.55.55 0 01-.409-.151.602.602 0 01-.145-.432c0-.348.202-.628.606-.84.48-.23 1.01-.34 1.542-.32.259-.007.517.007.774.04.257.042.51.109.753.202.24.085.452.234.613.431.16.207.243.463.234.724zm-1.715 1.884v-.54c-.17.142-.38.228-.602.246-.182.025-.36.065-.535.119a.396.396 0 00-.24.393.407.407 0 00.157.337.582.582 0 00.382.128.883.883 0 00.6-.206.613.613 0 00.238-.477zm8.146.793v-1.8a1.037 1.037 0 00-.143-.622.52.52 0 00-.433-.181.505.505 0 00-.416.237c-.124.183-.186.4-.176.62v1.746a.93.93 0 01-.24.7 1 1 0 01-1.284 0 .932.932 0 01-.239-.7v-1.8a1.037 1.037 0 00-.142-.622.52.52 0 00-.434-.181.505.505 0 00-.416.237c-.124.183-.185.4-.175.62v1.746a.93.93 0 01-.24.7 1 1 0 01-1.285 0 .936.936 0 01-.24-.7v-3.189c0-.596.283-.894.849-.894a.698.698 0 01.56.216c.137.197.212.429.217.668h.018a1.514 1.514 0 011.457-.886c.297-.005.59.076.843.23a1.083 1.083 0 01.485.692 1.628 1.628 0 011.49-.922c.578 0 1.007.168 1.289.505.3.38.453.856.433 1.34v2.238a.943.943 0 01-.238.7 1 1 0 01-1.285 0 .934.934 0 01-.255-.698zm7.039-.127c0 .287-.187.537-.561.749-.373.216-.955.311-1.733.311a2.59 2.59 0 01-1.813-.635c-.465-.423-.697-1.05-.697-1.88 0-.829.232-1.453.697-1.872a2.604 2.604 0 011.813-.629c.42-.008.836.07 1.224.231.313.125.59.326.806.586.167.21.305.444.407.693.083.206.127.426.132.648a.773.773 0 01-.193.594.92.92 0 01-.622.173h-2.508c.005.268.103.526.278.73a.866.866 0 00.665.266c.293-.024.574-.125.816-.292.219-.158.473-.259.74-.294a.493.493 0 01.386.193c.105.118.163.27.163.427zm-3.048-1.962h1.653a.888.888 0 00-.232-.68.893.893 0 00-1.165 0 .913.913 0 00-.256.68zm6.439 1.605c0-.216-.19-.352-.574-.432l-.522-.119c-.617-.144-1.05-.334-1.299-.57a1.24 1.24 0 01-.368-.918 1.398 1.398 0 01.526-1.102c.351-.303.93-.452 1.733-.452.342-.002.683.033 1.018.104.286.058.556.177.793.348a.722.722 0 01.322.59.576.576 0 01-.355.543.553.553 0 01-.227.04.855.855 0 01-.468-.145 8.306 8.306 0 00-.5-.294c-.197-.1-.415-.15-.635-.144-.332 0-.496.112-.496.337a.261.261 0 00.106.216c.135.075.281.13.433.16l.745.172c1.044.245 1.567.72 1.568 1.426a1.47 1.47 0 01-.574 1.184c-.372.317-.986.475-1.84.475a3.509 3.509 0 01-1.534-.298c-.412-.197-.617-.486-.617-.864a.53.53 0 01.184-.408.633.633 0 01.433-.169.7.7 0 01.418.173c.164.127.336.243.515.348.197.117.422.177.65.173a.65.65 0 00.412-.113.332.332 0 00.153-.261z" fill="#05557E"/></svg>