<svg width="146" height="70" fill="none" xmlns="http://www.w3.org/2000/svg"><path d="M12.51 16.023c0 1.104.322 2.092.966 2.962.644.87 1.498 1.679 2.561 2.423a27.968 27.968 0 003.616 2.122c1.347.669 2.728 1.36 4.142 2.07a62.085 62.085 0 014.142 2.286 20.382 20.382 0 013.616 2.749 12.585 12.585 0 012.56 3.464c.645 1.29.967 2.762.967 4.419 0 1.507-.243 2.892-.728 4.155a11.829 11.829 0 01-1.996 3.402 14.147 14.147 0 01-3 2.661 18.32 18.32 0 01-3.74 1.908 23.69 23.69 0 01-4.219 1.142c-1.473.26-2.954.39-4.444.39-2.092 0-4.125-.255-6.1-.766-1.975-.51-3.733-1.28-5.273-2.31a12.082 12.082 0 01-3.703-3.866C.948 43.686.484 41.874.484 39.798c0-1.07.171-2.012.514-2.824.343-.812.77-1.49 1.28-2.033a5.355 5.355 0 011.67-1.23c.603-.277 1.164-.415 1.683-.415.535 0 .983.147 1.343.439.36.293.54.75.54 1.368 0 .285-.034.587-.1.904-.068.318-.139.666-.214 1.042-.076.377-.147.791-.213 1.243a9.993 9.993 0 00-.101 1.481c0 1.172.267 2.185.803 3.038a6.583 6.583 0 002.134 2.11c.887.551 1.908.962 3.063 1.23 1.155.267 2.352.4 3.59.4a18.56 18.56 0 004.37-.526c1.455-.352 2.76-.87 3.916-1.557 1.155-.686 2.091-1.527 2.812-2.523.719-.996 1.08-2.138 1.08-3.427 0-1.188-.323-2.25-.967-3.188-.645-.938-1.499-1.804-2.561-2.6a26.21 26.21 0 00-3.628-2.246 939.437 939.437 0 00-4.143-2.134 82.333 82.333 0 01-4.142-2.272 22.228 22.228 0 01-3.628-2.624 12.045 12.045 0 01-2.561-3.2c-.644-1.18-.967-2.524-.967-4.03 0-1.406.34-2.791 1.017-4.155.678-1.364 1.699-2.587 3.063-3.666 1.364-1.08 3.067-1.954 5.11-2.624 2.041-.669 4.434-1.004 7.18-1.004 1.74 0 3.443.26 5.109.778 1.665.52 3.15 1.255 4.456 2.21 1.305.954 2.356 2.092 3.151 3.414.795 1.322 1.193 2.787 1.193 4.394 0 .954-.164 1.933-.49 2.937-.326 1.004-.85 2.051-1.57 3.139-.702 1.054-1.468 1.837-2.296 2.347-.83.51-1.578.765-2.247.765-.502 0-.913-.146-1.23-.439-.319-.292-.477-.732-.477-1.318 0-.435.1-.95.3-1.544.202-.593.544-1.276 1.03-2.046.452-.736.787-1.427 1.004-2.071.218-.644.327-1.243.327-1.795 0-.854-.23-1.603-.69-2.248-.461-.644-1.097-1.183-1.909-1.618-.812-.436-1.787-.762-2.925-.98-1.138-.217-2.385-.326-3.74-.326-1.507 0-2.817.172-3.93.514-1.113.344-2.042.787-2.786 1.331-.746.544-1.298 1.151-1.657 1.82-.36.67-.54 1.331-.54 1.984z" fill="#EE2A37"/><path d="M52.73 11.554c0-.184-.012-.39-.037-.615a2.314 2.314 0 00-.164-.64 1.203 1.203 0 00-.389-.503c-.176-.134-.423-.2-.74-.2-.436 0-.875.385-1.319 1.155-.443.77-.87 1.753-1.28 2.949a48.524 48.524 0 00-1.155 3.954c-.36 1.44-.69 2.837-.991 4.193.25.034.502.063.753.088.25.025.51.054.778.088.502-.854 1.025-1.779 1.569-2.774a43.959 43.959 0 001.469-2.938c.435-.962.795-1.862 1.08-2.698.284-.837.426-1.524.426-2.059zm8.034 31.784a285.096 285.096 0 01-4.293 2.46 59.7 59.7 0 01-3.352 1.758c-.979.47-1.85.82-2.61 1.054-.763.235-1.453.352-2.072.352-1.272 0-2.394-.384-3.364-1.155-.971-.77-1.783-1.879-2.435-3.326-.653-1.448-1.143-3.201-1.47-5.26-.326-2.059-.489-4.377-.489-6.955a43.9 43.9 0 01.125-3.213c.084-1.138.201-2.268.352-3.39-.502-.066-.891-.13-1.167-.188a27.328 27.328 0 00-2.059-.364 78.544 78.544 0 00-2.071-.251c-.402-.05-.712-.146-.929-.289a1.353 1.353 0 01-.477-.502 1.567 1.567 0 01-.176-.602 7.111 7.111 0 01-.025-.54c0-.335.163-.59.49-.766.326-.176.744-.305 1.255-.389a11.43 11.43 0 011.682-.138 40.55 40.55 0 011.757.013c.56.016 1.063.029 1.507.037.443.009.749-.004.916-.037a56.735 56.735 0 011.72-6.566c.694-2.117 1.472-4 2.335-5.649.862-1.648 1.803-2.97 2.824-3.967 1.021-.995 2.092-1.493 3.214-1.493.72 0 1.376.2 1.97.602a5.29 5.29 0 011.52 1.607c.418.67.74 1.452.966 2.348.226.895.34 1.829.34 2.799 0 .82-.118 1.686-.352 2.598a19.612 19.612 0 01-.954 2.787 29.558 29.558 0 01-1.419 2.875 64.105 64.105 0 01-1.72 2.887c.151.017.402.03.754.038a113.58 113.58 0 012.711.1c.536.025 1.054.046 1.556.063l1.407.05c.435.017.794.033 1.08.05.334.017.577.184.727.503.15.317.226.719.226 1.205 0 .586-.167 1.063-.502 1.43-.335.369-.703.553-1.105.553h-9.64a93.71 93.71 0 01-2.837 3.716 215.378 215.378 0 00-.176 3.063 3424.426 3424.426 0 00-.1 2.711 76.627 76.627 0 00-.05 2.46c0 .904.083 1.666.25 2.285.167.62.41 1.126.728 1.52.318.393.707.677 1.168.853a4.3 4.3 0 001.544.263c.351 0 .79-.083 1.318-.25a14.504 14.504 0 001.732-.691 27.533 27.533 0 005.988-3.866 18.25 18.25 0 001.682-1.62v6.427z" fill="#EE2A37"/><path d="M59.986 43.715c0-.737.041-1.595.125-2.573.084-.98.197-2.013.34-3.101a86.925 86.925 0 011.117-6.553c.217-1.02.435-1.958.652-2.812.218-.853.435-1.556.653-2.109.134-.368.268-.66.402-.878.134-.218.289-.39.464-.515.176-.126.393-.21.653-.251a6.2 6.2 0 01.967-.063c.435 0 .773.021 1.016.063.243.042.423.142.54.301.117.16.188.39.213.69.025.302.038.712.038 1.23v2.248c0 .879.017 1.745.05 2.599h.277c.334-.67.71-1.42 1.13-2.248.418-.828.903-1.602 1.455-2.322a8.632 8.632 0 011.883-1.82c.704-.494 1.515-.741 2.436-.741.318 0 .628.055.929.164.301.108.565.263.79.464.227.2.406.448.54.74.134.294.201.624.201.992 0 .285-.042.682-.125 1.193-.084.51-.176 1.046-.276 1.607-.1.56-.193 1.104-.277 1.632a8.65 8.65 0 00-.125 1.317c0 .603.058 1.105.176 1.507.117.401.271.724.464.966.192.243.41.415.653.515.242.1.498.15.766.15.752 0 1.531-.166 2.335-.501a15.278 15.278 0 002.209-1.13 20.954 20.954 0 002.31-1.657l-.377 5.874c-.436.285-.929.604-1.481.955-.553.351-1.142.682-1.77.991-.628.31-1.28.57-1.958.779a6.973 6.973 0 01-2.072.313c-1.255 0-2.268-.255-3.037-.765a5.573 5.573 0 01-1.834-2.008 10.193 10.193 0 01-1.004-2.788 38.44 38.44 0 01-.527-3.125h-.402l-4.494 12.528a16.174 16.174 0 01-.665 1.62c-.21.426-.423.774-.64 1.041-.218.268-.452.456-.703.565a2.06 2.06 0 01-.828.163c-.687 0-1.24-.146-1.658-.44a2.856 2.856 0 01-.966-1.18 5.632 5.632 0 01-.452-1.681 16.353 16.353 0 01-.113-1.946z" fill="#EE2A37"/><path d="M85.72 17.805c0-.385.083-.82.25-1.305.168-.485.44-.942.817-1.369.376-.427.879-.787 1.506-1.08.628-.292 1.41-.438 2.348-.438.585 0 1.138.066 1.657.2.519.134.97.34 1.355.616.385.275.69.64.917 1.091.226.453.34.988.34 1.607a5.08 5.08 0 01-.277 1.658 3.855 3.855 0 01-.88 1.43c-.4.42-.907.758-1.518 1.017-.611.26-1.343.39-2.197.39-1.473 0-2.56-.348-3.264-1.043-.703-.694-1.054-1.619-1.054-2.774zm11.222 25.81c-.602.552-1.352 1.142-2.247 1.77a23.943 23.943 0 01-2.9 1.732 22.157 22.157 0 01-3.176 1.318c-1.079.351-2.104.527-3.075.527-.87 0-1.603-.12-2.197-.364-.594-.243-1.075-.581-1.443-1.017-.368-.435-.632-.966-.791-1.594a8.45 8.45 0 01-.239-2.071c0-1.055.122-2.28.365-3.678.242-1.398.54-2.845.89-4.344.352-1.497.724-2.991 1.118-4.481.393-1.49.74-2.862 1.042-4.117.117-.436.351-.808.703-1.118.351-.31.749-.56 1.192-.753a6.586 6.586 0 011.381-.427 6.862 6.862 0 011.293-.138c.703 0 1.18.13 1.431.39.251.259.377.606.377 1.041 0 .369-.084.9-.251 1.595a59.536 59.536 0 01-.628 2.36c-.25.878-.519 1.824-.803 2.836a100.39 100.39 0 00-.804 3.038c-.25 1.013-.46 2-.628 2.963-.167.963-.25 1.829-.25 2.598 0 .754.083 1.352.25 1.795.168.444.511.666 1.03.666.602 0 1.272-.21 2.008-.628a17.88 17.88 0 002.235-1.519 52.51 52.51 0 002.21-1.845 66.922 66.922 0 011.907-1.632v5.096z" fill="#EE2A37"/><path d="M118.006 11.78c.101-1.172.151-2.1.151-2.787 0-.904-.08-1.531-.239-1.883-.158-.352-.388-.527-.69-.527-.536 0-1.021.339-1.456 1.017-.435.677-.82 1.543-1.155 2.598a32.071 32.071 0 00-.878 3.49 67.854 67.854 0 00-.628 3.69 93.113 93.113 0 00-.402 3.214c-.1.954-.168 1.632-.201 2.033a90.51 90.51 0 00-.163 2.373 71.197 71.197 0 00-.113 3.728v1.33a122.512 122.512 0 002.636-6.502c.335-.92.674-1.886 1.017-2.9.343-1.012.657-2.028.942-3.05.284-1.02.531-2.024.74-3.012.209-.988.356-1.925.439-2.812zm-11.8 18.202a10.558 10.558 0 00-2.949 2.121 13.692 13.692 0 00-2.16 2.85 14.525 14.525 0 00-1.318 3.088c-.3 1.038-.451 1.975-.451 2.812 0 .335.037.67.112 1.004.076.335.214.636.415.904.2.268.485.486.853.653.369.167.845.25 1.431.25.301 0 .598-.075.892-.225.292-.15.573-.348.84-.59a6.56 6.56 0 00.766-.829c.243-.31.465-.632.666-.967.468-.769.895-1.64 1.28-2.61-.05-.235-.092-.607-.126-1.118a45.93 45.93 0 01-.075-1.707l-.05-1.946c-.017-.669-.029-1.28-.038-1.832a44.92 44.92 0 00-.037-1.356c-.017-.352-.034-.519-.051-.502zm17.273 14.06a41.95 41.95 0 01-3.514 2.46c-.486.3-.996.598-1.532.891-.535.293-1.063.552-1.582.778-.519.226-1.025.41-1.518.553a4.98 4.98 0 01-1.369.213c-.234 0-.582-.05-1.042-.15-.46-.101-.962-.306-1.506-.616s-1.088-.757-1.632-1.343c-.544-.586-1.017-1.364-1.418-2.335a24.513 24.513 0 01-1.971 1.72 15.289 15.289 0 01-2.159 1.419 13.31 13.31 0 01-2.26.966 7.525 7.525 0 01-2.297.364c-1.088 0-2.03-.234-2.824-.703a6.133 6.133 0 01-1.984-1.87 8.547 8.547 0 01-1.18-2.65 11.966 11.966 0 01-.389-3.062c0-1.071.138-2.154.414-3.252a15.015 15.015 0 011.205-3.188c.528-1.03 1.167-2 1.92-2.912a14.738 14.738 0 012.562-2.435 14.579 14.579 0 013.113-1.77 12.134 12.134 0 013.59-.88c.05-2.141.243-4.259.577-6.35a48.938 48.938 0 011.331-5.976 37.446 37.446 0 011.946-5.247c.745-1.607 1.561-2.996 2.448-4.168.887-1.172 1.832-2.088 2.837-2.75 1.004-.66 2.042-.99 3.113-.99.787 0 1.456.204 2.009.614.552.41.999.954 1.343 1.632.343.678.59 1.465.74 2.36.151.895.226 1.82.226 2.774 0 .586-.025 1.189-.075 1.808-.218 2.36-.619 4.59-1.205 6.69a62.102 62.102 0 01-2.059 6.14 101.991 101.991 0 01-2.561 5.925 138.674 138.674 0 00-2.686 6.1 8.917 8.917 0 00-.251.854c-.084.335-.163.7-.239 1.092a18.15 18.15 0 00-.188 1.205c-.051.41-.075.808-.075 1.193 0 .485.029.945.087 1.38.059.436.155.825.289 1.168.134.343.314.615.54.816.226.2.506.301.842.301.317 0 .665-.063 1.041-.188a8.259 8.259 0 001.192-.515c.419-.217.842-.464 1.268-.74a34.88 34.88 0 001.243-.842 48.582 48.582 0 002.888-2.285l.752 5.8z" fill="#EE2A37"/><path d="M127.22 37.162c.603 0 1.26-.154 1.972-.465a8.853 8.853 0 001.983-1.192 8.34 8.34 0 001.544-1.581c.418-.57.628-1.121.628-1.658 0-.752-.139-1.372-.415-1.857-.276-.486-.615-.729-1.017-.729-.72 0-1.335.135-1.845.402a4.007 4.007 0 00-1.28 1.042c-.344.427-.62.912-.829 1.456a9.951 9.951 0 00-.477 1.645c-.109.552-.18 1.088-.214 1.606-.033.52-.05.963-.05 1.331zm3.339 11.8c-1.573 0-2.95-.284-4.13-.854-1.179-.568-2.163-1.334-2.95-2.297a9.834 9.834 0 01-1.77-3.339 13.32 13.32 0 01-.589-3.98c0-.936.091-1.928.276-2.974.184-1.046.464-2.071.841-3.076a16.058 16.058 0 011.418-2.874 11.418 11.418 0 011.997-2.41 9.221 9.221 0 012.56-1.658c.946-.41 1.996-.614 3.151-.614.937 0 1.808.15 2.611.451a6.39 6.39 0 012.096 1.268 5.735 5.735 0 011.394 1.97c.334.77.502 1.633.502 2.587 0 1.038-.255 2.076-.766 3.113-.511 1.038-1.218 2.017-2.121 2.938-.904.92-1.98 1.74-3.226 2.46a17.27 17.27 0 01-4.055 1.682c.251.452.498.828.741 1.13.242.3.489.536.741.702.25.168.514.285.79.352s.573.1.891.1c1.004 0 2.063-.2 3.176-.602a20.723 20.723 0 003.251-1.506 27.44 27.44 0 002.988-1.971 25.772 25.772 0 002.385-2.021L146 40.903a33.162 33.162 0 01-4.695 4.042c-.72.502-1.494.996-2.322 1.481-.829.486-1.7.917-2.611 1.293a18.06 18.06 0 01-2.837.904 13.16 13.16 0 01-2.976.34z" fill="#EE2A37"/><path d="M43.65 64.255v3.848c-.528.402-1.68 1.139-3.722 1.139-3.042 0-5.223-2.181-5.223-5 0-2.82 2.18-5.015 5.264-5.015 1.958 0 2.986.695 3.348.931l-.848 1.528c-.25-.167-1.07-.667-2.416-.667-1.93 0-3.362 1.278-3.362 3.222 0 1.945 1.5 3.278 3.348 3.278.736 0 1.347-.153 1.805-.375v-2.889h1.806zm12.06.542v-1.222c0-1.514-.723-2.625-2.251-2.625-1.542 0-2.236 1.11-2.236 2.625v1.222h4.486zm1.902-1.083v5.402h-1.903v-2.68h-4.486v2.68h-1.917v-5.402c0-2.987 1.653-4.487 4.153-4.487 2.514 0 4.153 1.5 4.153 4.487zm14.587 5.402l-.084-5.86-2.694 4.722h-1.195l-2.638-4.722-.098 5.86h-1.875l.306-9.764h1.208l3.695 6.417 3.778-6.417h1.194l.291 9.764H72.2zm8.018-9.764h1.916v9.764h-1.916v-9.764zm16.96 0v9.876h-1.083l-5.82-6.528v6.416H88.4v-9.86h1.084l5.805 6.513v-6.417h1.89zm14.602 4.903v3.848c-.528.402-1.681 1.139-3.723 1.139-3.041 0-5.222-2.181-5.222-5 0-2.82 2.181-5.015 5.264-5.015 1.959 0 2.986.695 3.347.931l-.847 1.528c-.25-.167-1.07-.667-2.417-.667-1.93 0-3.361 1.278-3.361 3.222 0 1.945 1.5 3.278 3.347 3.278.736 0 1.347-.153 1.806-.375v-2.889h1.806z" fill="#212223"/></svg>