<svg width="112" height="101" fill="none" xmlns="http://www.w3.org/2000/svg"><path d="M20.232 5.003zm3.299 18.665c-1.1 2.181-2.676 3.858-4.728 5.03l5.662 10.337h-6.432l-2.749-3.849h6.432L16.055 24.85c2.052-1.172 3.619-2.868 4.7-5.085s1.622-4.591 1.622-7.12c0-2.455-.532-4.673-1.594-6.652l.714 1.264c1.54 2.566 2.538 4.398 2.997 5.498.458 1.1.687 2.4.687 3.903 0 2.493-.55 4.83-1.65 7.01zM9.18 20.342H6.432V6.432h4.234c1.32 0 2.41.413 3.271 1.238.86.824 1.457 1.878 1.787 3.16a5.11 5.11 0 00-2.31-.549H9.182v10.06zm1.32 6.103l4.783 8.741-2.694-4.893H9.181v8.742H2.75L0 35.186h6.432v-8.741h4.069z" fill="#DF1D25"/><path d="M24.136 22.211c-.587 1.576-1.357 2.905-2.31 3.986-.953 1.082-1.96 1.916-3.023 2.502l-2.75-3.849c.074-.036.44-.265 1.1-.687.66-.421 1.41-1.163 2.254-2.227.843-1.062 1.52-2.29 2.034-3.683l2.695 3.958zm-8.852 12.975h6.432l2.64 3.849h-6.323l-2.749-3.849zm-8.907-8.741h4.234l2.639 3.848H9.127l-2.75-3.848zm11.82-13.855l-4.562-6.157H6.377l2.75 3.848h4.123c1.98 0 3.628.77 4.948 2.309zM0 35.186h6.432l2.64 3.849H2.749L0 35.186z" fill="#8E181D"/><path d="M24.136 22.211c-.587 1.576-1.357 2.905-2.31 3.986-.953 1.082-1.96 1.916-3.023 2.502l-2.75-3.849c.074-.036.44-.265 1.1-.687.66-.421 1.41-1.163 2.254-2.227.843-1.062 1.52-2.29 2.034-3.683l2.695 3.958zm-8.852 12.975h6.432l2.64 3.849h-6.323l-2.749-3.849zm-8.907-8.741h4.234l2.639 3.848H9.127l-2.75-3.848zm11.82-13.855l-4.562-6.157H6.377l2.75 3.848h4.123c1.98 0 3.628.77 4.948 2.309zM0 35.186h6.432l2.64 3.849H2.749L0 35.186z" fill="#8E181D"/><path d="M6.432 20.342h3.41c1.941 0 3.453-.723 4.535-2.172 1.08-1.447 1.622-3.161 1.622-5.14 0-1.796-.468-3.344-1.402-4.646-.935-1.3-2.246-1.951-3.931-1.951H6.432v13.909zM17.071 1.787a11.009 11.009 0 013.986 4.728c.88 1.96 1.32 4.06 1.32 6.295 0 2.493-.542 4.83-1.622 7.01-1.082 2.18-2.65 3.857-4.701 5.03l5.663 10.336h-6.433l-4.783-8.742H6.432v8.742H0V0h10.666c2.492 0 4.627.596 6.405 1.787z" fill="#F9A627"/><path d="M5.608 21.167H9.84c2.2 0 3.912-.806 5.14-2.42 1.228-1.612 1.842-3.518 1.842-5.717 0-2.015-.541-3.756-1.622-5.223-1.081-1.466-2.593-2.2-4.535-2.2H5.608v15.56zM16.713 2.502A10.632 10.632 0 0120.452 6.9c.842 1.814 1.264 3.766 1.264 5.855 0 2.493-.587 4.82-1.759 6.982-1.173 2.163-2.84 3.758-5.003 4.783l5.388 9.841h-4.563l-4.783-8.741H5.608v8.741H.825V.825h9.84c2.383 0 4.4.559 6.048 1.677z" fill="#F8C313"/><path d="M14.68 21.524a8.607 8.607 0 003.078-3.546c.696-1.466 1.045-3.042 1.045-4.728 0-1.65-.312-3.197-.935-4.646-.624-1.447-1.549-2.63-2.776-3.546-1.229-.915-2.704-1.375-4.426-1.375H3.684v18.528l.714.66h5.443c1.87 0 3.482-.448 4.838-1.347zm3.243-1.65c-1.283 1.852-3.06 3.07-5.333 3.657l4.838 8.851h-.99l-4.727-8.686a10.47 10.47 0 01-1.815.164H4.398l-.714.77v7.807h-.935v-7.752l-1.32-1.32 1.32-1.264V2.75h7.917c1.87 0 3.5.495 4.893 1.484a9.615 9.615 0 013.189 3.849 11.855 11.855 0 011.1 5.058c0 2.639-.643 4.884-1.925 6.735z" fill="#C22129"/><path d="M45.292 3.849l8.412 35.186h-6.488l-2.749-3.849h6.488L42.543 0l2.75 3.849zM37.98 7.697l1.814 7.752-1.21 5.058h-3.683l3.079-12.81zm-12.975 27.49h6.433l1.924-8.248h9.18l.88 3.849h-7.256l-1.98 8.247H27.59l-2.584-3.849z" fill="#DF1D25"/><path d="M47.216 39.035l-2.749-3.849h6.488l2.748 3.849h-6.487zM37.98 7.697l1.814 7.752-1.21 5.058h-3.683l3.079-12.81zm5.443 23.09l-.935-3.848h-9.126l2.803 3.849h7.258zm-18.253 4.4h6.267l2.75 3.848h-6.433l-2.584-3.849z" fill="#8E181D"/><path d="M47.216 39.035l-2.749-3.849h6.488l2.748 3.849h-6.487zM37.98 7.697l1.814 7.752-1.21 5.058h-3.683l3.079-12.81zm5.443 23.09l-.935-3.848h-9.126l2.803 3.849h7.258zm-18.253 4.4h6.267l2.75 3.848h-6.433l-2.584-3.849z" fill="#8E181D"/><path d="M41.004 20.507L37.98 7.752l-3.079 12.755h6.103zm1.484 6.432h-9.071l-1.98 8.247h-6.432L33.362 0h9.18l8.413 35.186h-6.488l-1.979-8.247z" fill="#F9A627"/><path d="M42.048 21.332l-3.793-15.78h-.605l-3.794 15.78h8.192zm1.1 4.783H32.757l-1.98 8.246H26.05L34.02.825h7.862L49.91 34.36h-4.783l-1.98-8.246z" fill="#F8C313"/><path d="M31.767 22.706l.385.495h11.435l.495-.66L39.52 3.85h-3.19l-4.563 18.857zm.605 1.43l-1.154.934-1.815 7.367H28.36l1.869-7.752-.99-1.154 1.65-1.375L35.615 2.75h4.619l4.783 19.572 1.484 1.21-.934 1.044 1.924 7.862h-.99l-1.759-7.202-1.374-1.1H32.372z" fill="#C22129"/><path d="M82.075 3.849v35.186h-8.357l-2.749-3.849h8.357V0l2.749 3.849zm-9.182 20.396L62.887 0l2.749 3.849 7.257 17.592v2.804zM62.227 14.02l2.75 6.653v18.363h-6.433l-2.75-3.849h6.433V14.02z" fill="#DF1D25"/><path d="M70.969 35.186h8.412l2.639 3.849h-8.302l-2.749-3.849zM62.887 0l2.749 3.903 7.312 17.704-.055 2.693L62.887 0zm-7.092 35.186h6.432l2.64 3.849h-6.323l-2.75-3.849z" fill="#8E181D"/><path d="M70.969 35.186h8.412l2.639 3.849h-8.302l-2.749-3.849zM62.887 0l2.749 3.903 7.312 17.704-.055 2.693L62.887 0zm-7.092 35.186h6.432l2.64 3.849h-6.323l-2.75-3.849z" fill="#8E181D"/><path d="M79.326 0v35.186h-8.357l-8.742-21.167v21.167h-6.432V0h7.092l10.006 24.245V0h6.433z" fill="#F9A627"/><path d="M78.501.825V34.36h-6.983L61.404 9.841v24.52H56.62V.825h5.718l11.38 27.599V.824H78.5z" fill="#F8C313"/><path d="M76.577 21.771v10.666h-3.794L60.36 3.628h-.88v15.78l1.21 1.154-1.21 1.264v10.611h-.935V21.881l-1.32-1.32 1.32-1.264V2.75h2.529l12.425 28.863h2.144v-9.676l-1.374-1.374 1.374-1.265V2.75h.935v16.713l1.154 1.1-1.154 1.21z" fill="#C22129"/><path d="M111.324 39.035h-6.433l-2.749-3.849h6.433l-5.883-10.72c1.025-.624 1.998-1.503 2.914-2.64 1.245-1.575 2.016-3.426 2.309-5.552.293-2.126.44-4.765.44-7.917V0l2.749 3.849v8.356c0 3.153-.147 5.792-.44 7.917-.294 2.126-1.063 3.977-2.309 5.553-.917 1.136-1.888 2.016-2.914 2.639l5.883 10.72zM93.291 19.902V0l2.749 3.85v16.053h-2.75zm3.793 6.048l2.144 3.903H96.04v9.182h-6.433l-2.748-3.849h6.432v-9.181H96.7l.384-.055z" fill="#DF1D25"/><path d="M110.224 21.826a10.495 10.495 0 01-1.897 3.876c-.898 1.155-1.86 2.026-2.886 2.612l-2.749-3.849c.073-.036.448-.283 1.127-.742.678-.458 1.383-1.218 2.117-2.282a10.904 10.904 0 001.594-3.573l2.694 3.959zm-8.082 13.36h6.433l2.638 3.849h-6.322l-2.749-3.849zm-8.906-9.181h4.508l2.639 3.848h-4.398l-2.749-3.848zm-6.377 9.181h6.432l2.639 3.849h-6.323l-2.748-3.849z" fill="#8E181D"/><path d="M110.224 21.826a10.495 10.495 0 01-1.897 3.876c-.898 1.155-1.86 2.026-2.886 2.612l-2.749-3.849c.073-.036.448-.283 1.127-.742.678-.458 1.383-1.218 2.117-2.282a10.904 10.904 0 001.594-3.573l2.694 3.959zm-8.082 13.36h6.433l2.638 3.849h-6.322l-2.749-3.849zm-8.906-9.181h4.508l2.639 3.848h-4.398l-2.749-3.848zm-6.377 9.181h6.432l2.639 3.849h-6.323l-2.748-3.849z" fill="#8E181D"/><path d="M97.084 25.95l-.384.055h-3.41v9.181h-6.43V0h6.432v19.902h2.529c1.942 0 3.362-.522 4.261-1.567.897-1.044 1.438-2.317 1.621-3.82.184-1.503.276-3.556.276-6.158V0h6.377v8.357c0 3.152-.147 5.791-.44 7.917-.293 2.126-1.064 3.977-2.309 5.552-.917 1.137-1.889 2.016-2.914 2.64l5.883 10.72h-6.433l-5.058-9.236z" fill="#F9A627"/><path d="M97.524 25.07l-.88.11h-4.178v9.181h-4.782V.825h4.782v19.902h3.354c2.199 0 3.802-.586 4.811-1.76 1.007-1.172 1.621-2.565 1.841-4.178.22-1.612.33-3.756.33-6.432V.825h4.728v7.532c0 3.115-.137 5.69-.412 7.724-.275 2.034-.999 3.785-2.172 5.25-.989 1.247-2.108 2.182-3.353 2.804l5.607 10.226h-4.563l-5.113-9.29z" fill="#F8C313"/><path d="M104.232 18.17c-.917 2.438-2.639 4.023-5.168 4.756l5.168 9.456h-.935l-5.058-9.291c-.917.184-1.814.275-2.694.275h-4.179l-.824.88v8.191h-.935V24.3l-1.32-1.32 1.32-1.264V2.75h.935v19.077l.715.66h4.563c2.64 0 4.608-.723 5.91-2.172 1.301-1.447 2.125-3.16 2.474-5.14.348-1.98.523-4.251.523-6.817V2.749h.879v5.608c0 4.105-.459 7.376-1.374 9.813z" fill="#C22129"/><path d="M63.309 67.088c3.546-.017 7.12-.048 10.615.613.644.165 1.323.298 1.88.685.268.156.325.544.16.79-.236.335-.638-.056-.956-.024-2.655-.089-5.314-.05-7.971.002-1.003.1-2.017.013-3.017.154-1.09.007-2.176.095-3.264.142-1.536.16-3.083.185-4.614.392-.634.025-1.266.087-1.896.166-3.583.38-7.17.845-10.681 1.676-1.089.297-2.22.542-3.205 1.115-.26.12-.278.454-.496.607-.645.141-1.239-.26-1.699-.667-.405-.39-.847-.839-.92-1.424-.03-.45.428-.692.758-.892 1.134-.586 2.391-.87 3.624-1.173 4.501-.97 9.092-1.419 13.67-1.816 1.513-.046 3.015-.24 4.531-.251 1.158-.097 2.32-.063 3.48-.095z" fill="#100F0D"/><path d="M7.75 60.102c0 .056-.029.091-.085.106a7.433 7.433 0 01-1.655.17c-.707 0-1.28-.057-1.718-.17-.07 0-.106-.036-.106-.106V49.158c0-.311-.025-.58-.074-.806a1.33 1.33 0 00-.254-.562 2.826 2.826 0 00-.276-.307 1.802 1.802 0 00-.393-.223 2.746 2.746 0 01-.318-.16c-.127-.07-.19-.162-.19-.275 0-.297.247-.672.742-1.124.495-.453 1.11-.679 1.845-.679.778 0 1.386.216 1.824.647.438.431.657 1.064.657 1.898v12.535zm2.566-3.245c.014-1.91.021-3.203.021-3.882 0-.608-.081-1.028-.244-1.262-.163-.233-.42-.42-.774-.561-.127-.071-.191-.156-.191-.255 0-.269.22-.611.658-1.029.438-.417.99-.625 1.654-.625.594 0 1.068.173 1.42.52.354.346.574.809.659 1.389 0 .14.014.381.042.72h.042c.368-.848.887-1.494 1.56-1.94.67-.445 1.36-.675 2.067-.69.877-.013 1.584.262 2.121.828.537.566.806 1.386.806 2.46 0 .34-.004.987-.01 1.94-.008.955-.011 1.722-.011 2.302 0 .452.056.81.17 1.071.112.262.236.438.37.53.135.092.322.18.563.265.113.057.17.142.17.255 0 .283-.216.633-.648 1.05-.43.417-.979.626-1.643.626-.679 0-1.223-.21-1.633-.626-.41-.417-.615-.994-.615-1.729v-4.92c0-.608-.11-1.054-.33-1.336-.218-.283-.49-.417-.816-.404-.523.015-1.007.379-1.453 1.093-.445.714-.668 1.587-.668 2.619v4.836c0 .056-.028.091-.085.106v.02h-.02c-.411.1-.92.15-1.528.15-.495 0-1.025-.05-1.59-.15-.057-.056-.085-.09-.085-.105 0-.269.007-1.357.02-3.266zm18.399 1.431c.248-.05.4-.074.457-.074.155 0 .233.078.233.233 0 .425-.322.877-.965 1.358-.644.48-1.418.721-2.323.721-2.036 0-3.054-1.252-3.054-3.754v-5.726H21.96c-.056 0-.085-.029-.085-.085v-1.252c0-.056.029-.092.085-.106h1.082v-2.609c0-.07.028-.105.085-.105a7.31 7.31 0 011.548-.17 7.03 7.03 0 011.57.17c.07 0 .105.042.105.127v2.587h2.524c.057 0 .085.035.085.106v1.23c0 .057-.028.092-.084.107h-2.546v4.58c0 1.019.128 1.73.382 2.132.255.403.714.605 1.379.605.17 0 .378-.025.625-.075zM33.53 52c-.403.608-.618 1.35-.647 2.227.382.07.778.106 1.188.106.764 0 1.386-.166 1.866-.499.481-.332.722-.774.722-1.325 0-.396-.138-.732-.414-1.008-.276-.275-.668-.413-1.177-.413-.622 0-1.135.304-1.538.912zm6.267 5.324c0 .565-.42 1.236-1.261 2.014-.842.778-1.948 1.167-3.32 1.167-1.654 0-2.994-.502-4.019-1.506s-1.537-2.347-1.537-4.03c0-1.682.516-3.043 1.548-4.083 1.032-1.039 2.382-1.565 4.05-1.58 1.443-.014 2.56.319 3.352.997.792.679 1.188 1.442 1.188 2.29 0 .609-.138 1.146-.414 1.613-.276.466-.64.823-1.092 1.07a5.816 5.816 0 01-1.421.552 6.37 6.37 0 01-1.506.18c-1.06 0-1.86-.099-2.397-.296.085.777.417 1.4.997 1.866.58.467 1.28.7 2.1.7.65 0 1.24-.1 1.77-.297.531-.198.941-.396 1.23-.594.29-.198.478-.297.563-.297.113 0 .17.078.17.234zm7.743-3.479c.07-.31.105-.58.105-.806 0-.297-.067-.548-.201-.753-.135-.205-.343-.3-.626-.286-.495.028-.905.424-1.23 1.188-.325.763-.495 1.682-.51 2.757v4.157c0 .056-.027.091-.084.106v.02h-.021c-.41.1-.92.15-1.527.15-.495 0-1.025-.05-1.59-.15-.058-.056-.086-.09-.086-.105 0-.255.007-1.33.022-3.224.014-1.895.02-3.188.02-3.881 0-.608-.08-1.029-.243-1.262-.163-.233-.42-.42-.774-.562-.128-.07-.191-.156-.191-.255 0-.268.219-.611.657-1.028.438-.417.99-.626 1.655-.626.608 0 1.089.195 1.442.584.353.388.558.936.615 1.643.014.184.021.467.021.848h.085c.24-.933.643-1.675 1.209-2.226.565-.552 1.223-.835 1.972-.849.736 0 1.322.24 1.76.721.439.48.658 1.11.658 1.888a2.83 2.83 0 01-.753 1.972c-.502.552-1.07.827-1.707.827-.523 0-.785-.127-.785-.381l.106-.467zm10.573 3.405c.417-.658.625-1.44.625-2.344 0-.934-.198-1.736-.593-2.408-.397-.671-.927-1.007-1.591-1.007-.609 0-1.11.311-1.506.933-.396.622-.594 1.42-.594 2.397-.014 1.032.18 1.859.583 2.481.403.622.902.933 1.496.933.636 0 1.163-.328 1.58-.986zm4.019.561c.113.269.23.446.35.53.12.085.307.177.562.276.127.07.19.156.19.255 0 .339-.233.7-.7 1.081a2.472 2.472 0 01-1.612.573c-.65 0-1.17-.194-1.558-.583-.389-.389-.612-.944-.668-1.665h-.064c-.31.692-.76 1.237-1.347 1.633a3.501 3.501 0 01-2.004.594c-1.258 0-2.27-.52-3.033-1.559-.764-1.04-1.145-2.351-1.145-3.934 0-1.527.4-2.856 1.198-3.988.799-1.13 1.835-1.696 3.107-1.696.721 0 1.361.166 1.92.498.558.332.98.795 1.261 1.39h.064l.149-1.507c0-.056.035-.099.106-.127.509-.085.99-.127 1.442-.127.622 0 1.138.042 1.549.127.07.028.106.07.106.127 0 .226-.008 1.28-.022 3.16a599.26 599.26 0 00-.02 3.882c0 .438.056.792.169 1.06zm11.05-3.913c-.31.39-.756.583-1.336.583-.34 0-.64-.077-.902-.233-.261-.155-.392-.311-.392-.466 0-.071.018-.23.053-.478a4.35 4.35 0 00.053-.604c0-.495-.116-.901-.35-1.22-.233-.318-.569-.477-1.007-.477-.608 0-1.124.347-1.549 1.04-.423.692-.636 1.512-.636 2.46 0 1.06.287 1.937.86 2.63.572.693 1.417 1.039 2.534 1.039.523 0 1.014-.089 1.474-.265a7.14 7.14 0 001.124-.53c.29-.177.491-.266.605-.266.14 0 .211.078.211.234 0 .537-.438 1.198-1.315 1.983-.876.784-1.98 1.177-3.308 1.177-1.697 0-3.03-.516-3.998-1.548-.968-1.033-1.453-2.369-1.453-4.01 0-1.61.52-2.954 1.559-4.029 1.04-1.074 2.386-1.612 4.04-1.612 1.23 0 2.238.319 3.023.955.784.636 1.177 1.4 1.177 2.29 0 .51-.156.958-.467 1.347zm8.198 4.39c.247-.05.4-.074.456-.074.156 0 .233.078.233.233 0 .425-.321.877-.965 1.358-.643.48-1.418.721-2.323.721-2.036 0-3.053-1.252-3.053-3.754v-5.726h-1.103c-.057 0-.085-.029-.085-.085v-1.252c0-.056.028-.092.085-.106h1.081v-2.609c0-.07.029-.105.085-.105a7.308 7.308 0 011.548-.17c.552 0 1.075.056 1.57.17.071 0 .106.042.106.127v2.587h2.524c.056 0 .085.035.085.106v1.23c0 .057-.028.092-.085.107h-2.545v4.58c0 1.019.127 1.73.382 2.132.254.403.713.605 1.378.605.17 0 .379-.025.626-.075zm2.694 1.622c-.403-.41-.605-.982-.605-1.717v-8.505c0-.056.029-.092.085-.106a8.075 8.075 0 011.505-.148c.623 0 1.153.049 1.591.148.057.056.085.092.085.106v7.063c0 .438.057.792.17 1.06.113.269.23.446.35.53.12.085.308.177.562.276.128.07.19.156.19.255 0 .268-.218.61-.657 1.028-.438.418-.99.626-1.654.626-.678 0-1.22-.205-1.622-.615zm-.372-12.555c-.41-.34-.615-.75-.615-1.23s.206-.894.615-1.24c.41-.347.898-.52 1.464-.52.58 0 1.075.173 1.484.52.41.346.615.76.615 1.24s-.205.89-.615 1.23c-.41.34-.905.51-1.484.51-.566 0-1.053-.17-1.464-.51zm14.668 3.129c.444.798.667 1.707.667 2.725 0 1.3-.191 2.499-.573 3.594-.382 1.097-.971 1.998-1.77 2.705a4.106 4.106 0 01-2.81 1.06c-1.457 0-2.581-.48-3.373-1.442-.792-.961-1.188-2.177-1.188-3.648v-2.46c0-.424-.06-.767-.18-1.029-.12-.261-.24-.435-.36-.52a2.261 2.261 0 00-.563-.254c-.127-.056-.19-.148-.19-.276 0-.282.215-.632.647-1.05.43-.417.979-.625 1.643-.625.679 0 1.227.208 1.643.625.418.418.626.994.626 1.729v3.987c0 .425.05.838.149 1.241.1.403.29.764.573 1.082.282.318.629.477 1.039.477.622 0 1.138-.392 1.548-1.177.41-.785.587-1.729.53-2.831-.042-.75-.14-1.404-.297-1.962-.155-.559-.322-.958-.498-1.198-.177-.24-.332-.446-.466-.616-.135-.17-.202-.29-.202-.36 0-.227.176-.446.53-.658a2.116 2.116 0 011.103-.318c.735 0 1.326.4 1.771 1.199zM103.99 52c-.403.608-.619 1.35-.647 2.227.382.07.777.106 1.187.106.764 0 1.386-.166 1.867-.499.481-.332.721-.774.721-1.325 0-.396-.138-.732-.413-1.008-.276-.275-.669-.413-1.178-.413-.622 0-1.134.304-1.537.912zm6.267 5.324c0 .565-.421 1.236-1.262 2.014-.842.778-1.948 1.167-3.319 1.167-1.655 0-2.994-.502-4.02-1.506-1.024-1.004-1.537-2.347-1.537-4.03 0-1.682.516-3.043 1.548-4.083 1.033-1.039 2.383-1.565 4.051-1.58 1.442-.014 2.559.319 3.351.997.792.679 1.188 1.442 1.188 2.29 0 .609-.138 1.146-.414 1.613-.276.466-.64.823-1.092 1.07a5.821 5.821 0 01-1.421.552 6.37 6.37 0 01-1.506.18c-1.06 0-1.859-.099-2.396-.296.084.777.417 1.4.997 1.866.579.467 1.279.7 2.099.7.651 0 1.24-.1 1.771-.297.53-.198.94-.396 1.23-.594.29-.198.477-.297.562-.297.113 0 .17.078.17.234z" fill="#231F20"/><path d="M52.933 92.964c.371 2.596-1.874 5.397-5.107 6.315-3.304.94-6.386-.441-6.885-3.086-.498-2.643 1.777-5.547 5.08-6.487.417-.118.83-.2 1.234-.246a8.348 8.348 0 00-1.622.284c-3.501.975-5.908 3.994-5.378 6.742.532 2.748 3.8 4.185 7.3 3.21 3.497-.973 5.903-3.986 5.378-6.732zm4.995 3.218c-.36 0-.66.056-.894.165l-.015.007v2.172h.563V96.61a.834.834 0 01.325-.054c.314 0 .38.19.38.35v1.62h.563v-1.629c0-.266-.12-.715-.922-.715zm3.183.042h-.585l-.685.974v-2.001h-.558v3.329h.558v-1.099l.721 1.099h.639s-.867-1.214-.89-1.244c.024-.03.8-1.058.8-1.058zm2.323.978h.414v.901a.608.608 0 01-.263.045c-.412 0-.668-.412-.668-1.076 0-.72.258-1.084.765-1.084.253 0 .403.057.485.105l.024.014.181-.373-.02-.012c-.182-.107-.43-.162-.733-.162-.787 0-1.294.584-1.294 1.488 0 .952.48 1.52 1.28 1.52.354 0 .58-.048.784-.166l.013-.008v-1.57h-.968v.378zm1.404-.855l-.015.007v2.172h.563v-1.908a.604.604 0 01.443-.01l.026.01.117-.43-.033-.002c-.513-.015-.831.032-1.1.161zm2.145-.165c-.603 0-.963.447-.963 1.195 0 .746.36 1.191.963 1.191s.964-.445.964-1.19c0-.749-.36-1.196-.964-1.196zm0 1.987c-.272 0-.405-.26-.405-.796 0-.558.13-.817.405-.817.28 0 .405.252.405.817 0 .55-.125.796-.405.796zm2.527-1.945v1.879a.642.642 0 01-.313.067c-.226 0-.355-.13-.355-.355v-1.59h-.563v1.561c0 .522.303.787.9.787.443 0 .723-.1.88-.183l.014-.007v-2.159h-.563zm1.787-.042c-.322 0-.588.056-.794.166l-.014.007v3.07h.558v-.91c.079.025.19.04.313.04.619 0 1.018-.473 1.018-1.207 0-.73-.404-1.166-1.08-1.166zm-.05 2.017a.603.603 0 01-.2-.031v-1.59a.669.669 0 01.238-.039c.37 0 .535.255.535.826 0 .38-.1.834-.572.834z" fill="#A98933"/><path d="M53.82 97.24c.454-.046.757-.355.757-.782 0-.579-.386-.898-1.089-.898-.301 0-.593.06-.799.165l-.014.008v2.793h.576v-1.25l.783 1.25h.654l-.868-1.287zm-.57-.193v-1.088a.59.59 0 01.238-.043c.363 0 .518.17.518.568 0 .379-.202.579-.585.579a.815.815 0 01-.17-.016zm2.493-.865c-.372 0-.651.108-.785.173l-.022.012.136.34.026-.013c.083-.04.306-.134.554-.134.294 0 .421.103.421.346v.097c-.626.064-1.26.218-1.26.854 0 .459.337.711.947.711.334 0 .628-.059.829-.166l.013-.008v-1.41c0-.524-.297-.802-.859-.802zm.33 1.995a.697.697 0 01-.28.055c-.3 0-.446-.128-.446-.391 0-.374.256-.482.726-.543v.879zm-12.036.353c-.108 0-.593.005-.663-.014-.071-.02-.09-.099-.093-.165-.002-.04-.006-.074.13-.338.137-.262.156-.816.202-1.061.047-.244.279-.473.302-.507.023-.033.1-.525.17-.75.053-.178.176-.419.188-.457.013-.049-.053-.219-.048-.399.005-.145.07-.307.085-.356.015-.05.034-.097-.094-.226a14.58 14.58 0 01-.654-.775c-.038-.056-.14-.242-.004-.43.183-.25.16-.528.15-.635-.01-.109-.09-.17-.127-.306a.791.791 0 010-.38c.039-.122.192-.23.409-.244.216-.014.344.042.404.15 0 0 .088.192.085.249 0 .033-.014.056-.014.056s.099.234.085.245c-.014.01-.07.022-.07.022l.004.095c0 .014-.009.056-.005.098.005.042.024.08-.009.09-.033.009-.222.021-.222.021s-.032.194.01.223c.043.028.2-.002.297.023.122.032.294.167.294.167s.197.05.366.141c.112.062.265.233.384.255.187.036.707.426.815.46.094.031.23.053.38.092.068.019.08.048.08.048l.104.18s.017.065-.028.085c-.033.019-.062-.003-.062-.003s-.013.031-.044.039c-.04.009-.064-.017-.064-.017s-.007.028-.039.038c-.038.009-.06-.017-.06-.017s-.012.03-.038.035a.084.084 0 01-.065-.021s-.016.043-.053.051c-.039.006-.066-.015-.066-.015s-.013.032-.049.036c-.032.004-.056-.023-.056-.023s-.02.028-.042.03c-.023 0-.043-.02-.043-.02s-.038.03-.065.002c-.059-.048-.074-.126-.11-.153-.037-.027-.398-.054-.477-.056-.11-.002-.438.013-.438.013s.223.55.26.663c.038.113.123.436.194.652.07.216.183.888.206.963.024.076-.004.127.034.207.037.08.17.418.202.563.033.146.292.733.367.868.076.137.63.384.696.417.096.06.023.088-.038.088h-.635a4.71 4.71 0 01-.506-.015c-.053-.02-.081-.101-.073-.167.009-.087.076-.208.05-.344-.04-.171-.494-.74-.575-.943-.116-.216-.053-.472-.105-.58-.051-.108-.4-.751-.4-.751s-.33.732-.384.816c-.058.09-.041.062-.12.268-.08.21-.43 1.01-.475 1.094-.001.002-.048.11-.029.182.036.16.565.315.62.37.031.031.04.073-.021.073h-.41zm.983-4.98l.035.116.53.07-.565-.185zm4.742-3.716a2.564 2.564 0 00-2.567 2.56c0 .473.129.914.352 1.293l1.998-.59v-.001a.42.42 0 11.069.23l-1.931.57a2.566 2.566 0 002.079 1.06 2.564 2.564 0 002.567-2.561 2.564 2.564 0 00-2.567-2.561z" fill="#A98933"/></svg>