<svg width="200" height="36" fill="none" xmlns="http://www.w3.org/2000/svg"><g clip-path="url(#clip0)"><path d="M97.169 35.597H2.099a1.77 1.77 0 01-1.248-.514 1.75 1.75 0 01-.516-1.24V17.455c0-4.54 1.814-8.896 5.042-12.107A17.262 17.262 0 0117.55.334h79.619a1.764 1.764 0 011.764 1.754v31.825a1.764 1.764 0 01-1.764 1.754v-.07z" fill="#35A8E0"/><path d="M97.188 35.999H2.118c-.557 0-1.091-.22-1.485-.611A2.082 2.082 0 01.02 33.91V17.525c0-4.653 1.858-9.115 5.166-12.405A17.686 17.686 0 0117.657-.02h79.53c.557 0 1.091.22 1.485.612.393.391.615.922.615 1.476V33.91c0 .554-.222 1.085-.615 1.477a2.105 2.105 0 01-1.484.611zM17.62.824A16.873 16.873 0 005.74 5.726 16.692 16.692 0 00.812 17.543v16.386c0 .34.136.665.377.905.242.24.57.375.91.375h95.089a1.293 1.293 0 001.19-.79c.064-.155.097-.322.097-.49V2.087A1.275 1.275 0 0097.68.903a1.294 1.294 0 00-.492-.097L17.62.824z" fill="#fff"/><path d="M33.619 16.737v13.14a.245.245 0 01-.247.246h-5.186a.248.248 0 01-.247-.245.244.244 0 00-.218-.243.25.25 0 00-.117.015c-.518.164-1.05.287-1.587.368-.648.102-1.302.155-1.958.158a12.525 12.525 0 01-4.621-.965 11.963 11.963 0 01-4.075-2.684 11.714 11.714 0 01-2.663-3.983 12.414 12.414 0 01-.882-4.596c0-1.58.3-3.145.882-4.614a11.68 11.68 0 012.68-4.053 11.964 11.964 0 014.075-2.684c2.975-1.2 6.303-1.2 9.278 0a11.914 11.914 0 013.88 2.509.246.246 0 010 .35l-3.65 3.632a.246.246 0 01-.273.055.247.247 0 01-.08-.055 6.356 6.356 0 00-2.029-1.28 6.754 6.754 0 00-5.01 0 6.39 6.39 0 00-2.204 1.438 6.567 6.567 0 000 9.35 6.457 6.457 0 001.958 1.352 6.643 6.643 0 002.24.561 6.952 6.952 0 002.293-.21 6.315 6.315 0 001.993-.912.246.246 0 00.106-.211v-.842a.245.245 0 00-.247-.246h-4.427a.247.247 0 01-.247-.245v-5.106a.245.245 0 01.247-.245h10.071a.25.25 0 01.244.147c.014.031.02.065.02.098zm19.296 13.245l-.847-2.526a.246.246 0 00-.247-.175h-7.373a.247.247 0 00-.229.175l-.882 2.614a.246.246 0 01-.23.176h-5.432a.248.248 0 01-.244-.217c-.004-.04 0-.08.015-.117l8.166-23.86a.245.245 0 01.23-.175h4.974a.248.248 0 01.247.176l7.743 23.86a.245.245 0 01-.247.333h-5.397a.248.248 0 01-.234-.164.245.245 0 01-.013-.1zm-6.332-8.386h3.28a.248.248 0 00.261-.212.244.244 0 00-.014-.12l-1.587-4.878a.246.246 0 00-.238-.18.247.247 0 00-.238.18l-1.764 4.877a.244.244 0 00.16.336.249.249 0 00.14-.003zM80.448 5.755h5.398a.248.248 0 01.246.228l1.412 23.895a.245.245 0 01-.247.263h-5.15a.248.248 0 01-.248-.228l-.511-8.456a.245.245 0 00-.247-.246.247.247 0 00-.247.246l-2.893 8.526a.246.246 0 01-.229.175h-5.291a.248.248 0 01-.23-.175l-3.175-9.018a.245.245 0 00-.247-.245.248.248 0 00-.247.245l-.564 8.878a.245.245 0 01-.247.228h-5.186a.248.248 0 01-.247-.264l1.553-23.806a.245.245 0 01.247-.229h5.397a.248.248 0 01.23.176l5.079 14.42a.245.245 0 00.238.181.248.248 0 00.238-.18l4.94-14.421a.246.246 0 01.23-.193z" fill="#fff"/><path d="M102.795.403H197.9c.468 0 .917.185 1.248.514.33.33.516.775.516 1.24v16.387c0 4.54-1.813 8.896-5.042 12.107a17.261 17.261 0 01-12.173 5.015h-79.654c-.468 0-.916-.184-1.247-.513a1.749 1.749 0 01-.517-1.24V2.087a1.75 1.75 0 01.541-1.196 1.77 1.77 0 011.223-.489z" fill="#1D1D1B"/><path d="M182.379 36h-79.584c-.556 0-1.09-.22-1.484-.611a2.08 2.08 0 01-.615-1.477V2.088c0-.554.221-1.085.615-1.477A2.106 2.106 0 01102.795 0h95.106c.556 0 1.09.22 1.484.611.393.392.615.923.615 1.477v16.386a17.497 17.497 0 01-5.167 12.387A17.684 17.684 0 01182.379 36zM102.795.825a1.29 1.29 0 00-.91.375c-.242.24-.377.566-.377.905v31.807c0 .34.135.666.377.906.241.24.569.375.91.375h79.584a16.874 16.874 0 0011.881-4.902 16.69 16.69 0 004.928-11.817V2.088c0-.34-.135-.666-.377-.906a1.29 1.29 0 00-.91-.375l-95.106.018z" fill="#fff"/><path d="M116.765 30.158a8.733 8.733 0 01-2.31-.316 7.857 7.857 0 01-2.187-.983 8.168 8.168 0 01-2.805-3 8.262 8.262 0 01-1.005-3.772.24.24 0 01.065-.185.249.249 0 01.182-.078h5.238a.246.246 0 01.247.246c.004.466.151.919.423 1.298.213.295.476.55.776.755.386.263.838.415 1.306.438.473.024.945-.067 1.375-.263.285-.11.543-.277.759-.491a2.71 2.71 0 00.441-.58c.091-.169.151-.353.176-.543a2.754 2.754 0 000-.86 1.736 1.736 0 00-.176-.561 2.28 2.28 0 00-.441-.58 2.873 2.873 0 00-.759-.508l-.776-.298-.881-.298-1.764-.597a9.732 9.732 0 01-1.764-.895 7.054 7.054 0 01-1.976-1.754 7.22 7.22 0 01-1.393-4.965c.08-.9.338-1.777.758-2.579a7.288 7.288 0 013.493-3.28 7.292 7.292 0 012.363-.58 7.852 7.852 0 012.575.229 7.482 7.482 0 012.293.947c.67.422 1.265.95 1.764 1.561a6.757 6.757 0 011.059 1.948 7.03 7.03 0 01.388 2.105.243.243 0 01-.149.243.244.244 0 01-.098.02h-5.115a.244.244 0 01-.247-.21 1.047 1.047 0 00-.477-.842 3.531 3.531 0 00-.829-.386h-.282a1.629 1.629 0 00-.564 0 2 2 0 00-.653.228 1.3 1.3 0 00-.529.579 1.484 1.484 0 00-.106 1.105c.103.376.342.7.67.912a7.35 7.35 0 001.041.474l1.199.42 1.147.37c.388.128.782.28 1.182.455a7.843 7.843 0 013.403 2.862 7.781 7.781 0 011.289 4.244 7.685 7.685 0 01-1.27 4.28 8.311 8.311 0 01-5.204 3.51c-.609.12-1.23.18-1.852.175zm75.386-14.105a9.933 9.933 0 01-.776 3.93 10.239 10.239 0 01-2.17 3.228 10.464 10.464 0 01-3.228 2.21 9.94 9.94 0 01-3.686.843.25.25 0 00-.175.072.237.237 0 00-.053.08.234.234 0 00-.019.093v3.404a.246.246 0 01-.247.245h-5.133a.247.247 0 01-.247-.245V6.053a.247.247 0 01.247-.245h5.362a9.836 9.836 0 013.934.86 10.737 10.737 0 013.228 2.227 10.253 10.253 0 012.169 3.228 9.941 9.941 0 01.794 3.93zm-10.125 4.386c0 .034.007.067.021.098a.25.25 0 00.244.147 4.418 4.418 0 001.482-.403 4.82 4.82 0 001.411-1 4.618 4.618 0 000-6.42 4.822 4.822 0 00-1.411-1 4.434 4.434 0 00-1.482-.404.247.247 0 00-.265.21v8.772zM158.938 5.79c1.637-.01 3.259.319 4.762.964a12.586 12.586 0 013.898 2.597 12.27 12.27 0 012.628 3.86 12.136 12.136 0 010 9.49 12.269 12.269 0 01-2.628 3.86 12.57 12.57 0 01-3.898 2.65 12.28 12.28 0 01-9.524 0 12.208 12.208 0 01-6.491-6.474 12.225 12.225 0 010-9.492 12.208 12.208 0 016.491-6.473 11.904 11.904 0 014.762-.983zm0 18.754a6.45 6.45 0 002.575-.51 6.635 6.635 0 003.528-3.508 6.566 6.566 0 000-5.105 6.635 6.635 0 00-3.528-3.509 6.664 6.664 0 00-5.133 0 6.63 6.63 0 00-3.527 3.509 6.567 6.567 0 000 5.105 6.63 6.63 0 003.527 3.509 6.452 6.452 0 002.576.509h-.018zM139.165 11.14h-5.185a.246.246 0 00-.247.246v18.527c0 .135.11.245.247.245h5.185c.137 0 .247-.11.247-.245V11.386a.246.246 0 00-.247-.245z" fill="#fff"/><path d="M143.822 5.79h-14.516a.247.247 0 00-.247.245v5.158c0 .135.111.245.247.245h14.516c.137 0 .247-.11.247-.245V6.035a.246.246 0 00-.247-.246z" fill="#fff"/></g><defs><clipPath id="clip0"><path fill="#fff" d="M0 0h200v36H0z"/></clipPath></defs></svg>