<svg width="170" height="49" fill="none" xmlns="http://www.w3.org/2000/svg"><path d="M64.115 18.652c.12.42-.03.67-.362.782l-3.252.964c-.392.12-.603 0-.724-.39-.503-1.658-1.595-2.56-3.584-2.56-3.071 0-4.095 1.805-4.095 4.245v5.603c0 2.44 1.024 4.245 4.095 4.245 2.53 0 3.854-1.172 3.854-3.734v-.722h-3.371c-.272 0-.453-.151-.453-.483v-3.101a.436.436 0 01.453-.483h7.348c.302 0 .483.151.483.453v4.637c0 4.427-3.254 7.771-8.314 7.771-5.993 0-8.793-3.553-8.793-8.432v-5.905c0-4.879 2.8-8.433 8.793-8.433 4.849 0 7.049 2.772 7.922 5.543zm16.5 5.54v10.873a.427.427 0 01-.45.453H76.85a.435.435 0 01-.48-.453V33.29a5.24 5.24 0 01-4.58 2.567c-3.131 0-5.149-2.019-5.149-5.12 0-3.016 1.897-4.82 6.535-5.15a20.095 20.095 0 013.016-.031V24.35c0-1.627-.838-2.258-2.289-2.258-1.476 0-1.898.601-2.289 1.536-.15.36-.271.42-.603.335l-3.312-.838c-.335-.09-.362-.27-.302-.512.452-2.38 2.711-4.125 6.687-4.125 4.182-.017 6.531 1.97 6.531 5.705zm-4.427 5.698v-1.574a18.967 18.967 0 00-2.65.09c-1.688.212-2.59.723-2.59 2.011 0 1.173.782 1.808 2.077 1.808 1.476.01 2.62-.804 3.163-2.339v.004zm16.388-11.42c2.108 0 3.494 1.235 4.126 3.016 1.234-1.806 2.74-3.016 4.848-3.016 2.922 0 4.58 2.319 4.58 5.782v10.812c0 .272-.242.453-.543.453h-3.464c-.301 0-.542-.181-.542-.453v-10.03c0-1.507-.662-2.409-1.844-2.409-1.234 0-2.137 1.026-2.59 2.59v9.85a.42.42 0 01-.422.451H92.99c-.27 0-.39-.18-.39-.452v-10.03c0-1.507-.67-2.409-1.843-2.409-1.265 0-2.168 1.086-2.59 2.62v9.82a.412.412 0 01-.451.451h-3.663a.412.412 0 01-.452-.452V19.253a.417.417 0 01.452-.42h3.519a.418.418 0 01.45.42v1.899c1-1.38 2.445-2.681 4.554-2.681zm32.505.362c.091.39-.03.692-.39.782l-3.194.934c-.392.12-.601-.03-.722-.392-.452-1.508-1.235-2.71-3.463-2.71-2.741 0-3.616 1.806-3.616 4.246v5.603c0 2.44.995 4.245 3.616 4.245 2.346 0 3.252-1.325 3.614-2.98.09-.362.335-.543.722-.392l3.192 1.023c.362.121.482.393.392.783-.752 3.254-3.101 5.904-7.98 5.904-5.483 0-8.254-3.553-8.254-8.432v-5.905c0-4.879 2.832-8.433 8.254-8.433 4.758 0 6.986 2.53 7.829 5.724zm16.033 5.36v10.872a.428.428 0 01-.451.453h-3.314a.438.438 0 01-.449-.27.426.426 0 01-.032-.183V33.29a5.237 5.237 0 01-4.579 2.567c-3.131 0-5.149-2.019-5.149-5.12 0-3.016 1.897-4.82 6.535-5.15a20.109 20.109 0 013.016-.031V24.35c0-1.627-.838-2.258-2.289-2.258-1.476 0-1.898.601-2.289 1.536-.151.36-.271.42-.603.335l-3.312-.838c-.336-.09-.362-.27-.302-.512.452-2.38 2.711-4.125 6.687-4.125 4.182-.017 6.531 1.97 6.531 5.705zm-4.427 5.697v-1.574a18.959 18.959 0 00-2.65.09c-1.688.212-2.591.723-2.591 2.011 0 1.173.784 1.808 2.078 1.808 1.476.01 2.62-.804 3.163-2.339v.004zm17.323-10.757v3.224c0 .39-.15.54-.543.54h-.482c-2.409 0-3.824 1.085-4.306 2.893v9.275a.43.43 0 01-.1.314.426.426 0 01-.297.142h-3.79a.416.416 0 01-.391-.453V19.254a.404.404 0 01.451-.42h3.433c.362 0 .453.24.453.48v2.23c.782-1.475 2.258-2.921 4.848-2.921.604 0 .724.09.724.51zm5.918 9.428v.631c0 1.748.905 2.983 3.043 2.983 2.077 0 2.651-.784 3.192-1.778.271-.452.392-.502.873-.301l2.381 1.204c.48.241.511.483.299.935-1.023 2.32-3.583 3.644-6.775 3.644-4.819 0-7.349-2.861-7.349-6.777v-3.854c0-3.795 2.379-6.775 7.319-6.775 4.691 0 6.986 2.98 6.986 6.685v2.656c0 .452-.15.753-.782.753l-9.187-.006zm0-3.519v.573h5.814v-.573c0-1.625-.905-2.89-2.892-2.89-1.987 0-2.922 1.258-2.922 2.884v.006z" fill="#1A1A1A"/><path d="M20.823 0H.612A.613.613 0 000 .612V30.01A18.989 18.989 0 0018.988 49h1.843a18.988 18.988 0 0018.98-18.99V18.988A18.987 18.987 0 0020.824 0zm12.891 30.326c0 7.15-5.252 12.548-13.422 12.548-9.68 0-14.202-5.738-14.202-13.618v-9.532c0-7.875 4.524-13.618 14.202-13.618 7.83 0 11.38 4.475 12.79 8.948.195.682-.048 1.071-.582 1.265l-5.253 1.557c-.633.194-.974 0-1.173-.632-.828-2.68-2.579-4.135-5.787-4.135-4.961 0-6.615 2.919-6.615 6.858v9.048c0 3.939 1.654 6.858 6.615 6.858 4.085 0 6.224-1.897 6.224-6.032v-1.173H21.07c-.437 0-.728-.243-.728-.778v-5.01c0-.487.291-.778.728-.778h11.868c.486 0 .777.242.777.73v7.494z" fill="#2E008B"/></svg>