<svg width="79" height="49" fill="none" xmlns="http://www.w3.org/2000/svg"><path d="M15.37 20.395C9.312 31.62 4.353 40.843 4.338 40.895c-.022.09 2.823.105 17.901.105h17.93V22.628h-6.698l-6.706.008-1.36 2.591-1.351 2.592 5.145.022 5.146.015v6.871H15.078l.261-.47c.142-.255 3.764-6.834 8.051-14.616L31.194 5.49h3.114l.023 6.027.015 6.034h5.824V0H26.385L15.369 20.395zm26.518.105V41h6.124V27.856l5.982.015 5.982.023 3.517 6.46c1.942 3.554 3.555 6.504 3.585 6.556.045.068.814.09 3.346.09 1.8 0 3.278-.022 3.278-.045 0-.03-4.966-9.253-11.03-20.5L51.634 0h-9.746v20.5zm10.687-6.05c2.457 4.467 4.473 8.134 4.473 8.149 0 .014-2.03.03-4.518.03h-4.518v-8.193c0-4.503.022-8.17.045-8.148.022.03 2.054 3.697 4.518 8.163zM3.3 42.657c-.029.053-.783 1.442-1.68 3.085L0 48.729l19.484.022c10.717.008 28.267.008 38.999 0l19.521-.022-1.658-3.062-1.658-3.062-35.667-.022c-28.476-.015-35.668 0-35.72.074z" fill="#000"/></svg>