<svg width="96" height="97" fill="none" xmlns="http://www.w3.org/2000/svg"><path d="M.005 48.782c0 .717.071 1.433.071 2.22.717 11.747 5.587 22.276 13.18 30.227A47.905 47.905 0 0048.71 96.055c1.146 0 2.292-.072 3.438-.143 9.597-.788 18.336-4.441 25.498-10.1 11.389-8.953 18.551-22.92 18.336-38.462-.071-4.727-.86-9.311-2.22-13.68-2.507-8.022-7.091-15.113-13.036-20.7C71.988 4.805 60.17-.137 47.206.078c-7.45.143-14.54 1.933-20.772 5.085A48.53 48.53 0 008.456 20.777C3.013 28.656-.139 38.325.005 48.782z" fill="url(#paint0_radial)"/><path opacity=".5" d="M9.531 39.113c.358 21.273 17.835 38.248 39.107 37.89 21.273-.359 38.248-17.835 37.89-39.108C86.17 16.623 68.693-.353 47.42.005 26.148.365 9.173 17.84 9.53 39.114z" fill="url(#paint1_radial)"/><path d="M31.305 43.34c0 .429 0 .858.071 1.288.43 7.02 3.367 13.394 7.95 18.121 5.373 5.587 12.965 9.025 21.273 8.882.717 0 1.361-.072 2.078-.072 5.73-.501 11.03-2.65 15.327-6.016 6.805-5.372 11.174-13.752 11.03-23.135-.071-2.865-.5-5.587-1.289-8.165a28.553 28.553 0 00-7.879-12.463c-5.228-4.87-12.319-7.879-20.126-7.736-4.513.072-8.738 1.146-12.463 3.08-4.369 2.15-8.022 5.444-10.815 9.383-3.367 4.8-5.229 10.6-5.157 16.832z" fill="url(#paint2_radial)"/><path d="M60.173 33.249l-7.325-7.325 2.977-3.077L67.039 34.06l-1.868 1.932-20.901 8.55-3.624-3.624 19.527-7.67zm-2.795 24.91A9.47 9.47 0 0155 54.191c-.465-1.541-.565-2.966-.298-4.276l4.23.099c-.154.789-.11 1.657.131 2.606.242.948.672 1.732 1.29 2.35.84.84 1.8 1.27 2.882 1.291 1.089.028 2.082-.422 2.98-1.35l.043-.045c.776-.801 1.177-1.74 1.204-2.817.042-1.077-.316-1.995-1.074-2.754-.95-.95-2.204-1.467-3.76-1.55l-1.493-2.952 8.92-7.716 8.651 8.651-2.976 3.077-6.022-6.021-2.882 2.553c1.077.384 1.973.934 2.687 1.648 1.532 1.532 2.288 3.334 2.27 5.407-.013 2.08-.815 3.943-2.409 5.59l-.021.022c-1.13 1.168-2.41 1.966-3.837 2.394a7.71 7.71 0 01-4.284.046c-1.428-.381-2.712-1.143-3.854-2.285z" fill="#000"/><path d="M.005 48.782c0 .717.071 1.433.071 2.22.717 11.747 5.587 22.276 13.18 30.227A47.905 47.905 0 0048.71 96.055c1.146 0 2.292-.072 3.438-.143 9.597-.788 18.336-4.441 25.498-10.1 11.389-8.953 18.551-22.92 18.336-38.462-.071-4.727-.86-9.311-2.22-13.68-2.507-8.022-7.091-15.113-13.036-20.7C71.988 4.805 60.17-.137 47.206.078c-7.45.143-14.54 1.933-20.772 5.085A48.53 48.53 0 008.456 20.777C3.013 28.656-.139 38.325.005 48.782z" fill="url(#paint3_radial)"/><path opacity=".5" d="M9.531 39.113c.358 21.273 17.835 38.248 39.107 37.89 21.273-.359 38.248-17.835 37.89-39.108C86.17 16.623 68.693-.353 47.42.005 26.148.365 9.173 17.84 9.53 39.114z" fill="url(#paint4_radial)"/><path d="M31.305 43.34c0 .429 0 .858.071 1.288.43 7.02 3.367 13.394 7.95 18.121 5.373 5.587 12.965 9.025 21.273 8.882.717 0 1.361-.072 2.078-.072 5.73-.501 11.03-2.65 15.327-6.016 6.805-5.372 11.174-13.752 11.03-23.135-.071-2.865-.5-5.587-1.289-8.165a28.553 28.553 0 00-7.879-12.463c-5.228-4.87-12.319-7.879-20.126-7.736-4.513.072-8.738 1.146-12.463 3.08-4.369 2.15-8.022 5.444-10.815 9.383-3.367 4.8-5.229 10.6-5.157 16.832z" fill="url(#paint5_radial)"/><path d="M60.173 33.249l-7.325-7.325 2.977-3.077L67.039 34.06l-1.868 1.932-20.901 8.55-3.624-3.624 19.527-7.67zm-2.795 24.91A9.47 9.47 0 0155 54.191c-.465-1.541-.565-2.966-.298-4.276l4.23.099c-.154.789-.11 1.657.131 2.606.242.948.672 1.732 1.29 2.35.84.84 1.8 1.27 2.882 1.291 1.089.028 2.082-.422 2.98-1.35l.043-.045c.776-.801 1.177-1.74 1.204-2.817.042-1.077-.316-1.995-1.074-2.754-.95-.95-2.204-1.467-3.76-1.55l-1.493-2.952 8.92-7.716 8.651 8.651-2.976 3.077-6.022-6.021-2.882 2.553c1.077.384 1.973.934 2.687 1.648 1.532 1.532 2.288 3.334 2.27 5.407-.013 2.08-.815 3.943-2.409 5.59l-.021.022c-1.13 1.168-2.41 1.966-3.837 2.394a7.71 7.71 0 01-4.284.046c-1.428-.381-2.712-1.143-3.854-2.285z" fill="#000"/><path d="M.005 48.782c0 .717.071 1.433.071 2.22.717 11.747 5.587 22.276 13.18 30.227A47.905 47.905 0 0048.71 96.055c1.146 0 2.292-.072 3.438-.143 9.597-.788 18.336-4.441 25.498-10.1 11.389-8.953 18.551-22.92 18.336-38.462-.071-4.727-.86-9.311-2.22-13.68-2.507-8.022-7.091-15.113-13.036-20.7C71.988 4.805 60.17-.137 47.206.078c-7.45.143-14.54 1.933-20.772 5.085A48.53 48.53 0 008.456 20.777C3.013 28.656-.139 38.325.005 48.782z" fill="url(#paint6_radial)"/><path opacity=".5" d="M9.531 39.113c.358 21.273 17.835 38.248 39.107 37.89 21.273-.359 38.248-17.835 37.89-39.108C86.17 16.623 68.693-.353 47.42.005 26.148.365 9.173 17.84 9.53 39.114z" fill="url(#paint7_radial)"/><path d="M31.305 43.34c0 .429 0 .858.071 1.288.43 7.02 3.367 13.394 7.95 18.121 5.373 5.587 12.965 9.025 21.273 8.882.717 0 1.361-.072 2.078-.072 5.73-.501 11.03-2.65 15.327-6.016 6.805-5.372 11.174-13.752 11.03-23.135-.071-2.865-.5-5.587-1.289-8.165a28.553 28.553 0 00-7.879-12.463c-5.228-4.87-12.319-7.879-20.126-7.736-4.513.072-8.738 1.146-12.463 3.08-4.369 2.15-8.022 5.444-10.815 9.383-3.367 4.8-5.229 10.6-5.157 16.832z" fill="url(#paint8_radial)"/><path d="M60.173 33.249l-7.325-7.325 2.977-3.077L67.039 34.06l-1.868 1.932-20.901 8.55-3.624-3.624 19.527-7.67zm-2.795 24.91A9.47 9.47 0 0155 54.191c-.465-1.541-.565-2.966-.298-4.276l4.23.099c-.154.789-.11 1.657.131 2.606.242.948.672 1.732 1.29 2.35.84.84 1.8 1.27 2.882 1.291 1.089.028 2.082-.422 2.98-1.35l.043-.045c.776-.801 1.177-1.74 1.204-2.817.042-1.077-.316-1.995-1.074-2.754-.95-.95-2.204-1.467-3.76-1.55l-1.493-2.952 8.92-7.716 8.651 8.651-2.976 3.077-6.022-6.021-2.882 2.553c1.077.384 1.973.934 2.687 1.648 1.532 1.532 2.288 3.334 2.27 5.407-.013 2.08-.815 3.943-2.409 5.59l-.021.022c-1.13 1.168-2.41 1.966-3.837 2.394a7.71 7.71 0 01-4.284.046c-1.428-.381-2.712-1.143-3.854-2.285z" fill="#000"/><circle cx="60" cy="43" r="26.5" stroke="#000"/><defs><radialGradient id="paint0_radial" cx="0" cy="0" r="1" gradientUnits="userSpaceOnUse" gradientTransform="rotate(179.112 21.472 -3.348) scale(117.427)"><stop offset=".07" stop-color="#29ABE2"/><stop offset=".335" stop-color="#2B77C0"/><stop offset=".705" stop-color="#2E3192"/><stop offset=".75" stop-color="#2E3C99"/><stop offset=".829" stop-color="#2C59AC"/><stop offset=".931" stop-color="#2A88CB"/><stop offset="1" stop-color="#29ABE2"/></radialGradient><radialGradient id="paint1_radial" cx="0" cy="0" r="1" gradientUnits="userSpaceOnUse" gradientTransform="rotate(179.112 18.293 -1.452) scale(71.9986)"><stop offset=".144" stop-color="#fff"/><stop offset="1" stop-color="#fff" stop-opacity="0"/></radialGradient><radialGradient id="paint2_radial" cx="0" cy="0" r="1" gradientUnits="userSpaceOnUse" gradientTransform="translate(49.75 6.252) scale(72.7155)"><stop offset=".07" stop-color="#fff"/><stop offset=".653" stop-color="#CCC"/><stop offset=".754" stop-color="#D6D6D6"/><stop offset=".925" stop-color="#F1F1F1"/><stop offset="1" stop-color="#fff"/></radialGradient><radialGradient id="paint3_radial" cx="0" cy="0" r="1" gradientUnits="userSpaceOnUse" gradientTransform="rotate(179.112 21.472 -3.348) scale(117.427)"><stop offset=".07" stop-color="#29ABE2"/><stop offset=".335" stop-color="#2B77C0"/><stop offset=".705" stop-color="#2E3192"/><stop offset=".75" stop-color="#2E3C99"/><stop offset=".829" stop-color="#2C59AC"/><stop offset=".931" stop-color="#2A88CB"/><stop offset="1" stop-color="#29ABE2"/></radialGradient><radialGradient id="paint4_radial" cx="0" cy="0" r="1" gradientUnits="userSpaceOnUse" gradientTransform="rotate(179.112 18.293 -1.452) scale(71.9986)"><stop offset=".144" stop-color="#fff"/><stop offset="1" stop-color="#fff" stop-opacity="0"/></radialGradient><radialGradient id="paint5_radial" cx="0" cy="0" r="1" gradientUnits="userSpaceOnUse" gradientTransform="translate(49.75 6.252) scale(72.7155)"><stop offset=".07" stop-color="#fff"/><stop offset=".653" stop-color="#CCC"/><stop offset=".754" stop-color="#D6D6D6"/><stop offset=".925" stop-color="#F1F1F1"/><stop offset="1" stop-color="#fff"/></radialGradient><radialGradient id="paint6_radial" cx="0" cy="0" r="1" gradientUnits="userSpaceOnUse" gradientTransform="rotate(179.112 21.472 -3.348) scale(117.427)"><stop offset=".07" stop-color="#29ABE2"/><stop offset=".335" stop-color="#2B77C0"/><stop offset=".705" stop-color="#2E3192"/><stop offset=".75" stop-color="#2E3C99"/><stop offset=".829" stop-color="#2C59AC"/><stop offset=".931" stop-color="#2A88CB"/><stop offset="1" stop-color="#29ABE2"/></radialGradient><radialGradient id="paint7_radial" cx="0" cy="0" r="1" gradientUnits="userSpaceOnUse" gradientTransform="rotate(179.112 18.293 -1.452) scale(71.9986)"><stop offset=".144" stop-color="#fff"/><stop offset="1" stop-color="#fff" stop-opacity="0"/></radialGradient><radialGradient id="paint8_radial" cx="0" cy="0" r="1" gradientUnits="userSpaceOnUse" gradientTransform="translate(49.75 6.252) scale(72.7155)"><stop offset=".07" stop-color="#fff"/><stop offset=".653" stop-color="#CCC"/><stop offset=".754" stop-color="#D6D6D6"/><stop offset=".925" stop-color="#F1F1F1"/><stop offset="1" stop-color="#fff"/></radialGradient></defs></svg>