<svg width="260" height="40" fill="none" xmlns="http://www.w3.org/2000/svg"><path d="M0 17.926c.047-.13 3.361-2.852 8.135-5.554C3.365 9.884.052 7.396 0 7.3v10.625zM8.143.079v12.289l-.008.008.008.006v-.014c4.838-2.738 11.17-5.46 17.12-5.46 7.508 0 10.08 3.035 10.08 5.252 0 2.102-2.65 5.25-10.08 5.25-5.947 0-12.282-2.509-17.12-5.032v11.894h18.634c14.591 0 21.394-4.707 21.394-12.13C48.171 6.04 43.247.08 29.296.08H8.143zm50.563 9.416h-.1V6.68h-9.658v17.592h5.961c.634 0 4.104-.338 4.104-3.16v-3.786c0-3.761 2.134-5.323 6.097-5.323h3.966V6.51a16.813 16.813 0 00-2.949-.27c-3.658 0-5.795 1.15-7.42 3.254z" fill="#AC252B"/><path d="M76.4 19.102c0-1.19 1.167-1.56 3.405-1.9 1.372-.203 2.75-.441 3.962-.847v1.625c-.151 1.833-1.928 2.75-4.22 2.75-1.833 0-3.143-.819-3.143-1.63l-.004.002zm-9.043-7.103h9.351c.052-.745.663-1.815 3.76-1.815 1.627 0 3.304.44 3.304 1.626 0 1.121-1.371 1.39-2.75 1.561-5.132.643-14.892.441-14.892 5.998 0 3.695 4.962 5.189 10.119 5.574 4.938.368 18.253-.672 18.253-.672-1.118-1.118-1.078-2.63-1.078-3.951V13.1c0-3.39.101-6.882-12.501-6.882-6.251 0-13.269.836-13.573 5.781" fill="#AC252B"/><path d="M103.372 14.612c0-1.863 1.424-3.49 4.267-3.49 2.952 0 4.374 1.525 4.374 3.46 0 1.964-.409 4.338-4.116 4.338-3.611 0-4.525-2.303-4.525-4.308zm-10.066.035c0 4.714 3.51 8.58 11.287 8.58.574 0 7.185-.178 7.185-.178 0 1.517-.729 3.405-3.981 3.405-1.273 0-2.339-.679-2.95-1.29-.207-.203-.262-.245-.393-.393 0 0-3.061 3.857 3.468 3.857 7.452 0 13.904-3.363 13.904-6.614V9.51c0-1.462-1.142-2.831-3.381-2.831h-6.677v2.138h-.098c-1.171-1.798-3.969-2.577-6.916-2.577-7.522 0-11.437 3.831-11.437 8.407" fill="#AC252B"/><path d="M131.667 15.449c0-1.87.508-4.347 4.331-4.347 3.823 0 4.321 2.477 4.321 4.347 0 1.87-.507 4.382-4.321 4.382-3.814 0-4.331-2.515-4.331-4.382zm-10.082 0c0 4.891 4.48 9.275 14.413 9.275s14.414-4.384 14.414-9.275c0-4.892-4.483-9.243-14.414-9.243-9.931 0-14.413 4.35-14.413 9.243z" fill="#AC252B"/><path d="M160.008 8.907h-.102V6.67h-9.711v17.602h10.069v-9.296c0-2.816 2.284-3.39 4.015-3.39 2.946 0 3.302 1.423 3.302 3.46v9.225h6.048c2.724 0 4.019-1.989 4.019-3.872v-8.201c0-4.037-4.321-5.97-9.049-5.97-4.016 0-6.712.917-8.591 2.68z" fill="#AC252B"/><path d="M183.021 1.675c-1.929 1.309-2.181 3.252-2.079 5h-4.11v4.18h4.11V39.22s10.05-4.368 10.05-14.77V10.853h5.08v-4.18h-5.278c-.151-1.64.655-2.121 3.097-2.121h11.653c0-1.923.368-4.477-2.699-4.477-1.427 0-9.517-.076-11.037-.076-4.059 0-6.6.202-8.784 1.675" fill="#AC252B"/><path d="M195.448 6.675v15.227c0 2.183 2.503 2.37 2.903 2.37h7.168V6.675m.617 5.155c0 3.02 3.104 4.647 10.782 5.532 4.683.543 5.549.85 5.549 1.866 0 1.015-2.086 1.357-3.404 1.357-1.218 0-2.186-.205-2.697-.51-.76-.44-1.171-.948-1.218-1.561h-9.622c.15 4.549 6.967 6.21 13.177 6.21 6.406 0 13.427-1.322 13.427-6.21 0-2.88-2.951-4.207-6.309-4.92-3.354-.747-7.169-.882-8.852-1.358-.556-.17-1.166-.406-1.166-.917 0-1.153 1.627-1.358 3.052-1.358.811 0 1.628.172 2.24.507.654.31 1.118.75 1.165 1.324h9.165c-.262-4.51-7.126-5.563-12.821-5.563-5.292 0-12.464 1.152-12.464 5.6M232.381.073v24.2h10.068v-9.287c0-2.81 2.29-3.388 4.014-3.388 2.953 0 3.307 1.423 3.307 3.458v9.217h7.202c1.571 0 2.872-1.139 2.872-2.765v-9.296c0-4.035-4.321-5.965-9.052-5.965-4.271 0-6.509.983-8.235 2.338h-.102V.075" fill="#AC252B"/><path d="M195.748 28.472h.955l1.887 4.855h-.931l-.378-.97h-2.112l-.378.97h-.93l1.887-4.855zm1.254 3.096l-.776-2-.777 2h1.553zm2.577-3.096h.764l2.398 3.314v-3.314h.882v4.855h-.716l-2.438-3.354v3.354h-.89v-4.855zm10.872 1.281a1.234 1.234 0 01-.704 1.07 1.31 1.31 0 01.804 1.178c0 .778-.585 1.461-1.702 1.461-1.142 0-1.719-.683-1.719-1.46a1.33 1.33 0 01.815-1.178c-.371-.2-.709-.585-.709-1.083 0-.804.683-1.394 1.606-1.394s1.609.59 1.609 1.406zm-2.511 2.198c0 .452.326.803.91.803.584 0 .904-.344.904-.802 0-.459-.393-.804-.917-.804s-.897.345-.897.803zm.153-2.211c0 .411.346.684.764.684.417 0 .75-.273.75-.677 0-.405-.292-.685-.757-.685s-.757.3-.757.678zm7 .013a1.243 1.243 0 01-.705 1.07 1.31 1.31 0 01.804 1.178c0 .778-.584 1.461-1.702 1.461-1.143 0-1.72-.683-1.72-1.46a1.332 1.332 0 01.817-1.178c-.372-.2-.711-.585-.711-1.083 0-.804.685-1.394 1.608-1.394s1.609.59 1.609 1.406zm-2.51 2.198c0 .452.325.803.916.803.592 0 .904-.344.904-.802 0-.459-.393-.804-.917-.804-.523 0-.903.345-.903.803zm.152-2.211c0 .411.345.684.764.684.419 0 .751-.273.751-.677 0-.405-.292-.685-.757-.685s-.758.3-.758.678zm7.001.013a1.242 1.242 0 01-.705 1.07 1.31 1.31 0 01.804 1.178c0 .778-.585 1.461-1.702 1.461-1.142 0-1.719-.683-1.719-1.46a1.34 1.34 0 01.816-1.18c-.372-.198-.71-.583-.71-1.08 0-.805.683-1.395 1.607-1.395.923 0 1.609.59 1.609 1.406zm-2.512 2.198c0 .452.326.803.917.803.59 0 .903-.344.903-.802 0-.459-.392-.804-.916-.804s-.904.345-.904.803zm.154-2.211c0 .411.345.684.763.684.418 0 .75-.273.75-.677 0-.405-.292-.685-.757-.685-.464 0-.756.3-.756.678zm6.143 1.168v-.02c0-1.31.786-2.488 2.344-2.488 1.195 0 1.926.645 2.131 1.488l-.882.226c-.214-.531-.585-.916-1.256-.916-.856 0-1.362.717-1.362 1.68v.02c0 .963.512 1.701 1.375 1.701.705 0 1.048-.392 1.256-.864l.856.186c-.232.824-.956 1.468-2.118 1.468-1.561.002-2.344-1.159-2.344-2.481zm5.305.008V30.9c0-1.394.99-2.523 2.438-2.523 1.448 0 2.458 1.11 2.458 2.51v.02c0 1.409-.99 2.505-2.458 2.505-1.441 0-2.438-1.083-2.438-2.497zm3.986.006v-.027c0-.917-.598-1.647-1.571-1.647-.891 0-1.502.724-1.502 1.64v.034c0 .943.631 1.66 1.521 1.66.967 0 1.552-.705 1.552-1.66zm2.052-2.45h.957l1.495 3.525 1.512-3.525h.943v4.855h-.884v-3.07l-1.309 3.07h-.504l-1.329-3.07v3.07h-.884l.003-4.855zm6.176 0h1.853c1.255 0 1.793.638 1.793 1.628v.013c0 1.036-.584 1.64-1.813 1.64h-.943v1.572h-.89v-4.853zm1.766 2.488c.698 0 1.01-.212 1.01-.843v-.013c0-.612-.306-.837-.996-.837h-.89v1.693h.876zm4.171-2.488h.956l1.887 4.855h-.93l-.379-.97H246.4l-.378.97h-.931l1.886-4.855zm1.255 3.096l-.777-2-.776 2h1.553zm2.578-3.096h.763l2.398 3.314v-3.314h.882v4.855h-.716l-2.438-3.354v3.354h-.889v-4.855zm6.727 3.012l-1.587-3.012h.956l1.075 2.095 1.063-2.095H260l-1.571 3.012v1.846h-.889l-.003-1.846z" fill="#000"/></svg>